<svg xmlns="http://www.w3.org/2000/svg">
<defs>
<font id="UTMDaxline" horiz-adv-x="1312" >
  <font-face 
    font-family="UTM Daxline"
    font-weight="400"
    font-stretch="normal"
    units-per-em="2048"
    panose-1="2 4 6 3 5 5 6 2 2 4"
    ascent="1638"
    descent="-410"
    x-height="1104"
    cap-height="1483"
    bbox="-131 -463 4942 2120"
    underline-thickness="109"
    underline-position="-143"
    unicode-range="U+0020-U+2212"
  />
<missing-glyph horiz-adv-x="5040" 
d="M3351 2045h10q37 -10 37 -52q0 -12 -32 -57h-28q0 24 28 54l2 10q-5 13 -10 15h-9q-8 0 -10 -19h-30q6 49 42 49zM2019 2016l29 -31q0 -16 -40 -30h-19l-59 12l-11 -12l-28 25q11 29 43 29h11l42 -11h2q10 0 30 18zM468 1980h142v-60h-94v-75h89v-59h-89v-129l-5 -5h-49
v323zM1155 1980h43l6 -5v-78h30v-52h-30v-188l-6 -5h-49v193h-25v52h25v78zM1621 1980h42l4 -5v-94h3q23 24 54 24h2q58 0 83 -71l2 -39v-143h-52v115q0 80 -42 80h-7q-43 0 -43 -86v-109h-51v323zM2200 1980h49l5 -5v-222q10 -51 45 -51q44 7 44 59v214l5 5h49v-216
q0 -85 -66 -112q-15 -8 -35 -8q-47 0 -82 55q-14 24 -14 57v224zM2435 1980h159v-60h-56v-268h-53v268h-55v55zM2621 1980h71q7 -4 83 -251h2l80 251h73v-328h-54v242h-2l-74 -242h-44q-4 0 -58 182l-19 60h-3v-242h-55v328zM3760 1980h52v-328h-45l-5 5v11l3 2l-3 14
q-29 -40 -78 -40q-67 0 -100 91l-5 39v3q0 94 92 125l23 3q35 0 63 -32h3v107zM2057 1928h36l4 -6v-49h-45v-221h-48v23q-23 -31 -59 -31q-89 14 -89 97v156h51v-104q0 -79 26 -86l18 -5h6q26 0 39 36l3 26v133h53v25zM3476 1928v-55h-31v-221h-47v25h-2q-15 -33 -57 -33
q-68 0 -86 78l-3 29v146h52v-120q0 -50 19 -68l21 -7h9q42 0 42 69v126h27q4 0 4 28l3 3h49zM758 1905q68 0 103 -77q9 -18 12 -54q0 -88 -90 -127l-32 -3q-63 0 -101 73q-12 22 -12 52v10q0 94 101 126h19zM1011 1905h3q74 0 83 -101v-152h-51v119q0 76 -42 76h-5
q-44 0 -44 -76v-119h-52v245h46v-21q30 29 62 29zM1466 1905h7q72 0 105 -89h-60q-16 31 -42 31h-17q-53 -14 -53 -61l-3 -15q12 -69 61 -69h9q22 0 47 27h40l2 3h3l2 -3l2 3l3 -3l2 3l2 -7q-33 -81 -110 -81q-76 0 -110 94l-4 36v3q0 85 77 120q15 8 37 8zM3141 1905h2

<glyph glyph-name=".notdef" horiz-adv-x="5040" 
d="M3351 2045h10q37 -10 37 -52q0 -12 -32 -57h-28q0 24 28 54l2 10q-5 13 -10 15h-9q-8 0 -10 -19h-30q6 49 42 49zM2019 2016l29 -31q0 -16 -40 -30h-19l-59 12l-11 -12l-28 25q11 29 43 29h11l42 -11h2q10 0 30 18zM468 1980h142v-60h-94v-75h89v-59h-89v-129l-5 -5h-49
v323zM1155 1980h43l6 -5v-78h30v-52h-30v-188l-6 -5h-49v193h-25v52h25v78zM1621 1980h42l4 -5v-94h3q23 24 54 24h2q58 0 83 -71l2 -39v-143h-52v115q0 80 -42 80h-7q-43 0 -43 -86v-109h-51v323zM2200 1980h49l5 -5v-222q10 -51 45 -51q44 7 44 59v214l5 5h49v-216
q0 -85 -66 -112q-15 -8 -35 -8q-47 0 -82 55q-14 24 -14 57v224zM2435 1980h159v-60h-56v-268h-53v268h-55v55zM2621 1980h71q7 -4 83 -251h2l80 251h73v-328h-54v242h-2l-74 -242h-44q-4 0 -58 182l-19 60h-3v-242h-55v328zM3760 1980h52v-328h-45l-5 5v11l3 2l-3 14
q-29 -40 -78 -40q-67 0 -100 91l-5 39v3q0 94 92 125l23 3q35 0 63 -32h3v107zM2057 1928h36l4 -6v-49h-45v-221h-48v23q-23 -31 -59 -31q-89 14 -89 97v156h51v-104q0 -79 26 -86l18 -5h6q26 0 39 36l3 26v133h53v25zM3476 1928v-55h-31v-221h-47v25h-2q-15 -33 -57 -33
q-68 0 -86 78l-3 29v146h52v-120q0 -50 19 -68l21 -7h9q42 0 42 69v126h27q4 0 4 28l3 3h49zM758 1905q68 0 103 -77q9 -18 12 -54q0 -88 -90 -127l-32 -3q-63 0 -101 73q-12 22 -12 52v10q0 94 101 126h19zM1011 1905h3q74 0 83 -101v-152h-51v119q0 76 -42 76h-5
q-44 0 -44 -76v-119h-52v245h46v-21q30 29 62 29zM1466 1905h7q72 0 105 -89h-60q-16 31 -42 31h-17q-53 -14 -53 -61l-3 -15q12 -69 61 -69h9q22 0 47 27h40l2 3h3l2 -3l2 3l3 -3l2 3l2 -7q-33 -81 -110 -81q-76 0 -110 94l-4 36v3q0 85 77 120q15 8 37 8zM3141 1905h2
q49 0 70 -60v-14h-52q0 16 -16 16h-4q-14 0 -19 -13v-13q0 -9 68 -35q30 -19 30 -59q0 -58 -61 -80l-23 -3q-76 12 -76 83h54q0 -20 27 -25h4q19 0 24 23q0 22 -68 44q-34 27 -34 59q0 66 74 77zM4203 1905q55 0 77 -63q7 -18 7 -65v-125h-52v112q0 83 -40 83h-11
q-33 0 -40 -54v-141h-52v5h-2l2 2v238h47v-21q25 29 64 29zM4432 1905h5q40 0 69 -40v18l-3 3l3 11h47v-208q0 -97 -85 -132l-33 -4h-7q-70 0 -104 80h59q24 -22 45 -23h13q22 0 43 22q15 13 22 52h-3q-32 -40 -73 -40q-57 0 -96 70q-10 18 -14 63q0 88 87 125zM3851 1897
h53v-136q6 -59 40 -59h7q46 0 46 93v102h51v-245h-47l-3 10h3l-3 3v5l3 2v3h-4q0 -23 -57 -31h-3q-59 0 -84 75l-2 85v93zM690 1771q10 -69 63 -69h7q59 14 59 65v15q-13 65 -59 65h-5q-58 0 -65 -76zM3630 1774q13 -72 61 -72h5q58 0 66 75q0 49 -51 70h-22q-37 0 -56 -57z
M4374 1774q8 -72 65 -72h5q59 12 59 72q0 61 -59 73h-14q-56 -16 -56 -62v-11zM3928 1620h52v-57h-52v57zM1054 1402q43 -11 43 -49v-4q0 -17 -32 -60h-28q0 25 31 57v7q0 12 -7 15h-12q-10 -4 -10 -19h-28v6q0 32 33 44zM3349 1339q92 0 138 -99h-60q-37 42 -80 42
q-55 0 -87 -68q-10 -22 -10 -47q0 -78 81 -110l18 -1q36 0 75 39h61q-44 -97 -138 -97q-93 0 -141 112q-10 31 -10 62q0 97 90 152q29 15 63 15zM3664 1339q57 0 103 -47q46 -51 46 -115v-20q0 -89 -91 -146q-33 -13 -63 -13q-89 0 -138 101q-13 33 -13 60v18q0 98 98 151
q29 11 58 11zM2261 1337h2l47 -11h3q11 0 26 11l18 -36q-18 -19 -35 -19h-3l-54 10l-20 -7l-20 36q18 16 36 16zM716 1334h19q118 0 129 -26q25 -26 25 -62q-10 -57 -30 -57v-6q47 -23 47 -66v-18q0 -63 -69 -88l-54 -5h-67v328zM2550 1334h53v-217q6 -61 45 -61q29 0 44 39
l3 30v203l4 6h45l5 -6v-171q0 -118 -40 -133q-24 -26 -64 -26q-55 0 -91 76l-4 54v206zM2805 1334h59q4 0 122 -237h4v237h50l4 -6v-322h-58q-29 48 -125 238h-3v-238h-53v328zM3101 1334h54v-328h-54v328zM3859 1334h8q155 0 174 -40q23 -11 47 -75l4 -36v-11l3 -2
q0 -94 -82 -149q-35 -15 -99 -15h-55v328zM4141 1334h153v-60h-103v-75h101v-57h-101v-74l4 -5h99v-57h-157v322zM3563 1175v-10q0 -76 79 -108l19 -1q68 0 96 86l3 20v15q0 61 -60 94q-12 8 -39 11q-66 0 -96 -83zM770 1274v-67h9q54 0 54 28l3 14q-11 25 -29 25h-37z
M3912 1274v-206l2 -3v-2q104 0 122 76l2 15v29q0 34 -32 68q-25 23 -78 23h-16zM1041 1259h5q38 0 71 -40v32h49v-245h-49v32q-36 -40 -80 -40q-75 0 -101 97l-5 36q0 89 85 125zM1314 1259h3q74 0 83 -102v-151h-51v128q0 67 -42 67h-10q-34 0 -39 -62v-133h-52v245h47v-21
q28 29 61 29zM1543 1259h5q45 0 71 -40v32h47v-219q0 -95 -104 -126h-16q-74 0 -108 82h59q26 -25 44 -25h14q52 0 64 77q-33 -42 -76 -42q-60 0 -101 81l-7 44v16q0 79 85 117zM1912 1259h2q43 0 61 -37h2q32 37 69 37h4q57 0 79 -55q8 -25 8 -45v-153h-52v138q0 44 -23 55
l-12 2h-15q-32 0 -36 -65v-130h-52v136q0 59 -43 59h-8q-32 0 -36 -57v-138h-54v245h50v-21h2q6 24 54 29zM2282 1259q47 0 75 -42v34h47v-245h-47v32q-36 -40 -78 -40q-74 0 -102 92l-6 41q0 90 85 125zM985 1117q0 -48 61 -61h4q45 0 62 46l3 15v22q-12 62 -57 62h-14
q-41 0 -59 -57v-27zM1487 1128q0 -48 43 -68l18 -4h5q47 0 63 57v23q-11 65 -58 65h-12q-50 0 -59 -73zM2225 1131v-14q15 -61 57 -61h14q58 12 58 64v11q0 45 -37 65l-18 5h-10q-64 -8 -64 -70zM770 1150v-82q0 -5 7 -5q77 0 77 45q0 34 -47 42h-37zM2966 753l24 -28
l-51 -55q-18 12 -27 26zM1524 727l85 -54q0 -15 -21 -42l-87 54q18 41 23 42zM2850 693h38l55 -60h-54l-21 26l-23 -26h-54q54 60 59 60zM3422 693h40l56 -60h-54l-24 26h-1q0 -5 -19 -26h-54zM622 685h52q8 -4 47 -137l34 -110q9 8 34 100l48 147h54v-2l-112 -326h-44z
M1159 685h51v-54h-51v54zM1354 685h46l6 -5v-323h-52v328zM2317 685h45l4 -5v-78h31v-52h-31v-193h-53v193h-26v52h26v78zM2425 685h52v-98h2q23 23 54 23h3q57 0 81 -71l3 -38v-144h-52v115q0 81 -39 81h-10q-42 0 -42 -87v-109h-52v328zM2664 685h52v-54h-52v54zM3028 685
h44l6 -5v-78h29v-52h-29v-193h-54v193h-27v52h27v78zM3234 685h52v-328h-52v328zM3957 685h52v-328h-52v328zM4316 685h51v-54h-51v54zM1555 610h5q83 0 110 -102l3 -23v-11q0 -83 -85 -120l-35 -5q-76 0 -111 97l-4 32q0 97 93 130zM1811 610h4q53 0 78 -60q7 -25 7 -81
v-112h-54v146q-7 50 -37 50h-10q-38 0 -42 -57v-139h-54v245h49v-21q26 29 59 29zM2046 610h4q45 0 63 -39h3v31h49v-206q0 -102 -89 -135l-28 -3h-5q-73 0 -106 81h52l37 -20l15 -3h14q50 0 61 72q-33 -39 -73 -39q-62 0 -98 76q-11 23 -12 60q0 85 86 123zM2866 610h2
q82 0 111 -104l2 -25l-2 -27h-172q15 -45 45 -45l14 -3q29 0 49 22h57v-3q-35 -76 -108 -76q-77 0 -111 97l-1 28v8q0 49 32 89q34 39 82 39zM3429 610h5q41 0 70 -39h2v31h47v-245h-47v31h-2q-35 -39 -77 -39q-71 0 -101 89l-5 36v14q0 86 84 120zM3711 610h7
q88 0 107 -128l-2 -1v-15q0 -65 -66 -106q-21 -11 -46 -11q-34 0 -64 32v-99l-5 -5h-49v325h49v-28q31 36 69 36zM4151 610q44 0 75 -39v31h49v-245h-49v31q-35 -39 -77 -39q-92 0 -108 132q0 84 73 121q15 8 37 8zM922 602h50v-136q3 -60 42 -60h5q44 0 44 87v109h52v-245
h-47v24h-5q0 -23 -56 -32h-3q-55 0 -82 68q-4 35 -4 99v81zM1159 602h51v-245h-51v245zM2664 602h52v-245h-52v245zM4316 602h51v-245h-51v245zM1492 488v-16q13 -66 59 -66h4q59 0 66 76q-13 71 -59 71h-11q-59 -16 -59 -65zM1987 472q15 -66 59 -66h11q48 0 59 75v1
q-13 71 -59 71h-14q-39 0 -56 -57v-24zM2805 506h122v2q-16 45 -59 45h-7q-35 0 -56 -47zM3373 474q13 -68 61 -68h5q52 0 65 63v12q-10 72 -57 72h-16q-56 -14 -56 -63zM3642 478q12 -72 61 -72h3q50 0 65 60v22q0 43 -49 65h-22q-47 0 -58 -72v-3zM4095 472q10 -66 66 -66
q43 0 61 48l2 15v16q0 54 -52 68h-18q-42 0 -59 -60v-21zM3416 321h51v-52h-51v52zM4137 321h51v-52h-51v52zM2733 133h4q35 0 43 -50v-2q0 -16 -24 -41l-10 -17h-28q0 25 28 56l3 2v2q-3 19 -9 19h-10q-8 0 -9 -19h-30q6 50 42 50zM1546 116l52 -60l-26 -19l-52 52zM352 79
h4q75 -48 85 -60l-20 -37q-88 49 -88 58zM3490 79l86 -58l-18 -39q-10 0 -91 55q15 36 23 42zM4578 76l19 -42l-91 -52l-20 39l92 58v-3zM1204 53h51v-19l5 -5h14v-36h-14l-5 -5v-279h-46v31q-34 -40 -81 -40q-72 0 -102 105l-3 26q0 102 101 131h14q33 0 66 -33v59l-6 5
h-43v36h49v24zM1480 45h40l56 -61h-53l-23 27l-23 -27h-53zM2641 45h33q12 0 63 -61h-54l-23 27q-19 -21 -19 -27h-58v4zM49 37h160v-60h-56v-268h-50l-4 5v245l2 3v2l-2 2l2 3l-2 2l2 3l-2 3h-54v54zM699 37h47v-73l2 -2l-2 -3v-3l2 -2l-2 -3v-3l2 -2v-2l-2 -3l2 -3h3
q17 24 51 24h3q53 0 77 -58q7 -17 7 -42v-153h-52v127q0 68 -40 68h-8q-43 0 -43 -86v-109h-52v322zM1297 37h47l5 -6v-49h-52v55zM1987 37h52v-198l70 115h62l-78 -118l90 -125v-2h-70q-10 22 -74 115v-115h-52v328zM2271 37v-99q24 24 53 24q57 0 80 -56q10 -19 10 -77
v-120h-54v133q0 62 -41 62h-11q-31 0 -37 -55v-140h-53v314l-1 3v3l1 2l-1 3l1 3h53zM2458 37h51v-55h-51v55zM3148 37h51v-108q27 33 68 33h3q75 0 105 -94l5 -37q0 -75 -64 -120q-30 -11 -49 -11q-41 0 -72 40v-31h-47v328zM4275 37h52v-99h2q23 24 54 24h3q60 0 82 -74
l2 -41v-138h-52v111q0 82 -32 82l-10 2h-12q-37 0 -37 -80v-115h-52v328zM329 -38h3v-58h-5q-42 0 -42 -57v-138h-53v245h47v-21q18 29 50 29zM564 -38q71 0 86 -87v-166h-51v136q-6 59 -41 59h-6q-45 0 -45 -84v-111h-52v245h50v-21q25 29 59 29zM1504 -38q72 0 105 -94
l5 -39q-2 -24 -7 -24h-169q17 -47 62 -47q24 0 48 21h57q-33 -79 -108 -79q-82 0 -113 105v37q0 81 89 117zM2657 -38h5q77 0 107 -97l3 -26v-21l-3 -13h-170q18 -47 53 -47h12q21 0 42 21h59q-34 -79 -105 -79q-84 0 -115 102l-2 29q0 93 91 128zM2915 -38h4q54 0 78 -60
q7 -25 7 -82v-111h-54v138q0 48 -35 57h-11q-38 0 -43 -57v-138h-54v245h50v-21q25 29 58 29zM3508 -38h6q40 0 70 -40h2v32h47v-245h-47v31h-2q-34 -40 -78 -40q-71 0 -101 90l-4 37v12q0 82 77 117q11 6 30 6zM3781 -38h4q62 0 82 -78l3 -84v-91h-54v138q0 48 -38 57h-9
q-38 0 -42 -52v-143h-54v245h49v-21q26 29 59 29zM4133 -38h1q74 0 104 -93l4 -40q0 -88 -84 -126l-25 -3q-41 0 -68 34v-106h-52v326h47v-29q30 37 73 37zM4714 -38h5q34 0 63 -37q27 37 69 37h6q56 0 79 -66l6 -51v-136h-52v122q0 73 -39 73h-7q-35 0 -41 -50v-140l-5 -5
h-48v140q0 42 -31 55h-17q-40 0 -40 -77v-118h-51v245h47v-21q22 29 56 29zM359 -46h49l5 -6v-234l-5 -5h-49v245zM1297 -46h52v-245h-52v245zM1649 -46h52v-136q4 -60 43 -60h4q44 0 44 81v115h52v-245h-47v24h-5q-12 -33 -59 -33q-52 0 -79 63q-5 12 -5 34v157zM2458 -46
h51v-245h-51v245zM4515 -46h51v-245h-51v245zM1077 -169q0 -53 51 -73h12q54 0 66 66v10q0 53 -54 70h-17q-38 0 -58 -57v-16zM1438 -143h122q-18 47 -53 47h-7q-43 0 -62 -44v-3zM2599 -143h122q-21 47 -54 47h-7q-46 0 -61 -47zM3196 -158v-11q10 -73 61 -73h5q64 8 64 71
v5q0 45 -38 65l-18 5h-14q-60 -14 -60 -62zM3452 -173q14 -69 62 -69h11q41 0 59 60v13q-8 73 -56 73h-17q-47 0 -59 -73v-4zM4062 -158v-22q0 -47 59 -62h9q50 0 61 76q-13 70 -58 70h-15q-56 -17 -56 -62z" />
    <glyph glyph-name=".null" horiz-adv-x="0" 
 />
    <glyph glyph-name="nonmarkingreturn" horiz-adv-x="571" 
 />
    <glyph glyph-name="space" unicode=" " horiz-adv-x="394" 
 />
    <glyph glyph-name="exclam" unicode="!" horiz-adv-x="540" 
d="M341 477h-143l-25 1006h193zM382 104q0 -49 -32.5 -83.5t-79.5 -34.5t-80 34.5t-33 83.5q0 50 33 84.5t80 34.5t79.5 -34.5t32.5 -84.5z" />
    <glyph glyph-name="quotedbl" unicode="&#x22;" horiz-adv-x="870" 
d="M688 840h-103l-31 614q15 23 36.5 33t45.5 10q52 0 80 -43zM284 840h-102l-29 614q27 43 80 43t84 -43z" />
    <glyph glyph-name="numbersign" unicode="#" horiz-adv-x="1499" 
d="M1087 944l-53 -389h248v-123h-266l-58 -432h-133l59 432h-364l-57 -432h-134l60 432h-250v123h268l54 389h-248v123h264l57 416h131l-55 -416h363l57 416h131l-55 -416h247v-123h-266zM592 944l-54 -389h365l53 389h-364z" />
    <glyph glyph-name="dollar" unicode="$" horiz-adv-x="1148" 
d="M1001 397q0 -88 -30.5 -159.5t-86 -125t-134 -86t-173.5 -42.5l9 -310h-144l25 303q-82 5 -175 26.5t-159 51.5l63 150q27 -15 64 -27t77 -21.5t80 -15.5t74 -6q156 0 247 63.5t91 190.5q0 57 -23.5 101.5t-63.5 78t-90 59t-103 48.5q-72 31 -142.5 67.5t-128 88
t-93.5 118t-36 158.5q0 84 28 151.5t79 117.5t120.5 81t155.5 41l-6 295h139l-22 -289q90 -4 169 -26.5t132 -51.5l-59 -141q-43 25 -116 46.5t-151 21.5q-141 0 -220 -60.5t-79 -177.5q0 -57 27 -101t69 -78t95 -60.5l106 -51.5q68 -28 136.5 -64t124 -86t90 -118
t34.5 -160z" />
    <glyph glyph-name="percent" unicode="%" horiz-adv-x="1896" 
d="M1763 440q0 -102 -19.5 -187t-59.5 -146.5t-98 -95.5t-136 -34t-135.5 34t-97.5 95.5t-59 146.5t-19 187q0 103 19 188t59 146.5t97.5 95t135.5 33.5t136 -33.5t98 -95t59.5 -146.5t19.5 -188zM741 -18l-112 36l526 1483l113 -37zM758 1042q0 -102 -19.5 -187
t-58.5 -146.5t-97.5 -95t-136.5 -33.5q-77 0 -135.5 33.5t-98.5 95t-59.5 146.5t-19.5 187q0 103 19.5 188t59.5 146.5t98.5 95t135.5 33.5q78 0 136.5 -33.5t97.5 -95t58.5 -146.5t19.5 -188zM1628 442q0 158 -44 249t-134 91q-88 0 -132 -91t-44 -249q0 -157 44 -248.5
t132 -91.5q90 0 134 91.5t44 248.5zM622 1044q0 158 -43 249t-133 91t-133 -91t-43 -249q0 -157 43 -248t133 -91t133 91t43 248z" />
    <glyph glyph-name="ampersand" unicode="&#x26;" horiz-adv-x="1402" 
d="M1073 803v-748q-66 -28 -177.5 -53t-234.5 -25q-129 0 -231.5 25t-174 75t-109.5 128t-38 182q0 80 23.5 145.5t66.5 115.5t102.5 85t129.5 58v4q-136 36 -197.5 127.5t-61.5 203.5q0 170 117 274.5t326 104.5q92 0 178 -22.5t145 -55.5l-55 -135q-47 29 -117.5 46.5
t-136.5 17.5q-135 0 -214 -59.5t-79 -182.5q0 -113 75 -178.5t192 -65.5q28 0 69 2t92 13l543 98l23 -137zM911 774l-289 -49q-348 -59 -348 -328q0 -151 104.5 -215.5t284.5 -64.5q70 0 140.5 12t107.5 27v618z" />
    <glyph glyph-name="quotesingle" unicode="'" horiz-adv-x="468" 
d="M284 840h-102l-29 614q27 43 80 43t84 -43z" />
    <glyph glyph-name="parenleft" unicode="(" horiz-adv-x="731" 
d="M532 -442q-86 106 -159.5 224t-128 248t-85 274.5t-30.5 303.5q0 160 30.5 304.5t85 273.5t128 245.5t159.5 225.5l125 -78q-71 -96 -134.5 -204.5t-112 -229.5t-76 -255t-27.5 -282q0 -147 27.5 -281t76 -256t112 -230.5t134.5 -205.5z" />
    <glyph glyph-name="parenright" unicode=")" horiz-adv-x="731" 
d="M601 608q0 -159 -30.5 -303.5t-85 -274.5t-128 -248t-159.5 -224l-125 77q72 97 135.5 205.5t111.5 230.5t75.5 256t27.5 281q0 148 -27.5 282t-75.5 255t-111.5 229.5t-135.5 204.5l125 78q86 -109 159.5 -225.5t128 -245.5t85 -273.5t30.5 -304.5z" />
    <glyph glyph-name="asterisk" unicode="*" horiz-adv-x="1161" 
d="M1044 1260q0 -29 -14 -52l-356 -98l231 -295q-4 -37 -31.5 -65.5t-62.5 -28.5h-14.5t-12.5 4l-194 315l-193 -315q-4 -4 -12 -4h-15q-34 0 -62 28.5t-32 65.5l232 295l-357 98q-14 23 -14 52q0 63 57 90l340 -138l-18 383q27 35 74 35t73 -35l-16 -383l338 138
q26 -13 42.5 -37.5t16.5 -52.5z" />
    <glyph glyph-name="plus" unicode="+" horiz-adv-x="1110" 
d="M626 596v-369h-143v369h-344v139h344v369h143v-369h344v-139h-344z" />
    <glyph glyph-name="comma" unicode="," horiz-adv-x="495" 
d="M137 -346h-119l168 508q18 26 45 43.5t66 17.5q38 0 56.5 -18.5t22.5 -42.5z" />
    <glyph glyph-name="hyphen" unicode="-" horiz-adv-x="808" 
d="M137 590v151h532v-151h-532z" />
    <glyph glyph-name="hyphen" unicode="&#x2010;" horiz-adv-x="808" 
d="M137 590v151h532v-151h-532z" />
    <glyph glyph-name="period" unicode="." horiz-adv-x="495" 
d="M362 104q0 -49 -33.5 -83.5t-80.5 -34.5t-81 34.5t-34 83.5q0 50 34 84.5t81 34.5t80.5 -34.5t33.5 -84.5z" />
    <glyph glyph-name="slash" unicode="/" horiz-adv-x="905" 
d="M162 -401l-154 51l662 1984l153 -51z" />
    <glyph glyph-name="zero" unicode="0" horiz-adv-x="1157" 
d="M1040 741q0 -155 -27 -293.5t-82 -243t-143 -166t-211 -61.5t-210 61.5t-142.5 166t-81 243t-25.5 293.5q0 156 25.5 294.5t81 242.5t142.5 165.5t210 61.5t211 -61.5t143 -165.5t82 -242.5t27 -294.5zM872 743q0 127 -15.5 241t-51.5 199t-92 134t-136 49t-135.5 -49
t-91 -134t-51 -199t-15.5 -241t15.5 -240.5t51 -198.5t91 -134t135.5 -49t136 49t92 134t51.5 198.5t15.5 240.5z" />
    <glyph glyph-name="one" unicode="1" horiz-adv-x="860" 
d="M487 0v1276q-72 -53 -188 -94t-232 -64l-29 135q68 13 137.5 34.5t133 50t118.5 65.5t94 80h133v-1483h-167z" />
    <glyph glyph-name="two" unicode="2" horiz-adv-x="1118" 
d="M38 0l606 743q60 74 110 155t50 179q0 129 -89 206t-249 77q-74 0 -156 -19.5t-145 -48.5l-55 135q78 35 172 56.5t192 21.5q240 0 370 -113.5t130 -308.5q0 -63 -17.5 -121.5t-46 -110.5t-64.5 -100.5t-73 -88.5l-444 -517h678v-145h-969z" />
    <glyph glyph-name="three" unicode="3" horiz-adv-x="1048" 
d="M945 416q0 -99 -35.5 -179.5t-103.5 -138t-165 -89.5t-218 -32q-102 0 -203.5 21.5t-179.5 56.5l55 138q62 -29 151 -48.5t177 -19.5q162 0 257 79t95 214q0 74 -33.5 130t-94 94t-140.5 56.5t-172 18.5h-39v129q88 6 165 29.5t134 61.5t90 88t33 112q0 108 -77 165.5
t-210 57.5q-74 0 -154.5 -19.5t-148.5 -48.5l-53 135q78 35 175 56.5t200 21.5q206 0 321 -96t115 -262q0 -66 -25.5 -121t-66.5 -98t-92.5 -74t-102.5 -47v-4q57 -12 117.5 -40t112 -74t84 -113.5t32.5 -159.5z" />
    <glyph glyph-name="four" unicode="4" horiz-adv-x="1114" 
d="M884 383v-383h-156v383h-657v129l631 971h182v-973h156v-127h-156zM735 1329l-27 -55q-12 -25 -29.5 -54.5t-38.5 -60.5l-419 -649h514v625v69t2 64q0 32 2 61h-4z" />
    <glyph glyph-name="five" unicode="5" horiz-adv-x="1054" 
d="M950 434q0 -106 -39 -190t-108.5 -143.5t-166.5 -91.5t-214 -32q-101 0 -200 21.5t-175 56.5l55 138q62 -29 149 -48.5t167 -19.5q82 0 149.5 21.5t114.5 60.5t73.5 95t26.5 128q0 148 -103.5 237t-334.5 89q-47 0 -101.5 -3t-113.5 -14l84 744h711v-146h-568l-51 -454
q18 2 44 3t48 1q275 0 414 -118t139 -335z" />
    <glyph glyph-name="six" unicode="6" horiz-adv-x="1157" 
d="M1048 440q0 -92 -34 -176t-94.5 -147.5t-145.5 -101.5t-187 -38q-119 0 -207 44.5t-146.5 121t-87 178t-28.5 216.5q0 161 52 314t150.5 282t240 226t317.5 146l45 -145q-117 -33 -212 -87t-169 -123t-127 -152t-86 -171q49 23 117.5 39.5t130.5 16.5q106 0 193 -30
t148.5 -86t95.5 -139t34 -188zM884 440q0 158 -92 237t-234 79q-63 0 -139 -18.5t-127 -43.5q-8 -41 -12 -80t-4 -77q0 -88 19.5 -165t59 -133.5t97 -88t135.5 -31.5q68 0 122 26.5t93 70.5t60.5 102.5t21.5 121.5z" />
    <glyph glyph-name="seven" unicode="7" horiz-adv-x="1056" 
d="M352 0h-186l612 1337h-735v146h969z" />
    <glyph glyph-name="eight" unicode="8" horiz-adv-x="1146" 
d="M1040 358q0 -86 -35 -156.5t-96.5 -120.5t-147.5 -77t-188 -27t-187 26t-147.5 75t-97.5 119.5t-35 160.5q0 84 27.5 147.5t73.5 113t105.5 86t121.5 65.5q-58 27 -110 61.5t-92 78.5t-63.5 100.5t-23.5 128.5q0 82 30.5 149.5t88 115.5t135.5 74.5t174 26.5
q94 0 173 -27.5t135 -75.5t88 -115.5t32 -147.5q0 -72 -24.5 -128.5t-64.5 -100.5t-92 -78.5t-108 -61.5q62 -29 121 -65.5t105.5 -86t74 -113t27.5 -147.5zM841 1139q0 100 -69.5 168.5t-198.5 68.5t-198.5 -68.5t-69.5 -168.5q0 -60 22.5 -105t59 -80.5t85 -64.5
t101.5 -53q53 24 101 53t85 64.5t59.5 80.5t22.5 105zM876 362q0 68 -24.5 119t-66.5 90t-96.5 70t-115.5 59q-59 -28 -114.5 -59t-97.5 -70t-66.5 -90t-24.5 -119q0 -116 84 -184.5t219 -68.5t219 68.5t84 184.5z" />
    <glyph glyph-name="nine" unicode="9" horiz-adv-x="1157" 
d="M1040 946q0 -162 -52.5 -314.5t-150.5 -281.5t-239.5 -226t-319.5 -147l-47 146q117 33 213 87t170 122.5t127 150.5t86 172q-49 -22 -117 -38.5t-131 -16.5q-104 0 -191.5 29.5t-148.5 86t-95 139.5t-34 187q0 93 33 177t92 147.5t144 101t188 37.5q118 0 207.5 -44
t147.5 -120.5t88 -178t30 -216.5zM880 946q0 88 -20.5 165t-59.5 133t-98.5 88t-134.5 32q-68 0 -122 -26.5t-92 -70.5t-59.5 -101.5t-21.5 -121.5q0 -157 93 -236t234 -79q62 0 139 17.5t126 41.5q8 41 12 80t4 78z" />
    <glyph glyph-name="colon" unicode=":" horiz-adv-x="550" 
d="M388 766q0 -49 -33.5 -84t-80.5 -35t-80 35t-33 84t33 84t80 35t80.5 -35t33.5 -84zM388 104q0 -49 -33.5 -83.5t-80.5 -34.5t-80 34.5t-33 83.5q0 50 33 84.5t80 34.5t80.5 -34.5t33.5 -84.5z" />
    <glyph glyph-name="semicolon" unicode=";" horiz-adv-x="550" 
d="M392 766q0 -49 -33.5 -84t-80.5 -35t-80 35t-33 84t33 84t80 35t80.5 -35t33.5 -84zM157 -346h-121l170 508q16 26 44 43.5t67 17.5q38 0 56.5 -18.5t22.5 -42.5z" />
    <glyph glyph-name="less" unicode="&#x3c;" horiz-adv-x="1110" 
d="M139 606v119l831 422v-162l-673 -319l673 -320v-162z" />
    <glyph glyph-name="equal" unicode="=" horiz-adv-x="1110" 
d="M139 805v137h831v-137h-831zM139 389v137h831v-137h-831z" />
    <glyph glyph-name="greater" unicode="&#x3e;" horiz-adv-x="1110" 
d="M139 184v162l674 320l-674 319v162l831 -422v-119z" />
    <glyph glyph-name="question" unicode="?" horiz-adv-x="940" 
d="M843 1133q0 -78 -31.5 -140.5t-80.5 -112t-107.5 -84t-113.5 -53.5l-11 -266h-137l-14 357q61 16 119.5 42.5t102.5 63.5t71.5 83t27.5 103q0 111 -67.5 172.5t-208.5 61.5q-74 0 -150 -19.5t-125 -46.5l-57 133q63 35 156.5 56.5t191.5 21.5q211 0 322.5 -99t111.5 -273
zM544 104q0 -49 -33.5 -83.5t-80.5 -34.5t-80 34.5t-33 83.5q0 50 33 84.5t80 34.5t80.5 -34.5t33.5 -84.5z" />
    <glyph glyph-name="at" unicode="@" horiz-adv-x="2031" 
d="M1910 684q0 -184 -55.5 -317.5t-150.5 -219.5t-224 -128t-277 -42q-284 0 -441 143.5t-157 418.5q0 123 33 222t94.5 168.5t147.5 106.5t192 37q111 0 186.5 -31.5t121.5 -70.5v-842q180 45 281 179t101 376q0 137 -40.5 262t-125.5 220.5t-217.5 150.5t-314.5 55
q-188 0 -336.5 -66.5t-251 -181t-156 -270.5t-53.5 -336q0 -178 56.5 -332.5t169 -268.5t281.5 -179.5t397 -65.5q190 0 345.5 51.5t260.5 129.5l69 -115q-114 -86 -281 -143.5t-394 -57.5q-256 0 -453 75t-330 207t-200.5 311t-67.5 388q0 205 64.5 385t185.5 313.5
t297 211t397 77.5q215 0 375 -67.5t264.5 -181t155.5 -262t51 -310.5zM1236 903q-24 17 -69.5 30t-98.5 13q-147 0 -231 -105.5t-84 -301.5q0 -220 116.5 -324t325.5 -104h41v792z" />
    <glyph glyph-name="A" unicode="A" horiz-adv-x="1290" 
d="M1072 0l-145 432h-565l-144 -432h-180l510 1483h195l507 -1483h-178zM689 1167q-10 29 -17 59.5l-13 55.5q-9 29 -13 55h-4q-4 -26 -12 -55l-13.5 -55.5t-17.5 -59.5l-199 -600h488z" />
    <glyph glyph-name="B" unicode="B" horiz-adv-x="1193" 
d="M1091 393q0 -194 -139.5 -305t-397.5 -111q-53 0 -109.5 6.5t-108.5 16.5t-98 24.5t-79 30.5v1372q72 35 174 56.5t215 21.5q121 0 213 -28.5t154.5 -78.5t94.5 -122t32 -158q0 -71 -22.5 -129.5t-57.5 -102.5t-78 -72t-84 -38v-4q45 -12 96 -38.5t94 -73t72 -113
t29 -154.5zM878 1106q0 123 -85 191.5t-245 68.5q-65 0 -127.5 -10t-101.5 -27v-502h209q100 0 154.5 13.5t101.5 48.5q43 33 68.5 90t25.5 127zM921 401q0 168 -131 244q-25 14 -50.5 23.5t-54 15.5t-64.5 9t-85 3h-217v-542q41 -17 106.5 -27t128.5 -10q178 0 272.5 72.5
t94.5 211.5z" />
    <glyph glyph-name="C" unicode="C" horiz-adv-x="1060" 
d="M972 55q-47 -35 -127 -56.5t-178 -21.5q-113 0 -214 46.5t-177 140.5t-120 238.5t-44 338.5q0 195 44 339.5t120 238.5t177 140t214 46q96 0 177 -21.5t128 -56.5l-57 -143q-35 27 -96.5 46.5t-135.5 19.5q-82 0 -153.5 -36t-125.5 -111t-86 -189.5t-32 -270.5
q0 -155 32 -270t86 -189.5t125.5 -111.5t153.5 -37q74 0 135.5 19.5t96.5 46.5l57 -146v0z" />
    <glyph glyph-name="D" unicode="D" horiz-adv-x="1251" 
d="M1140 741q0 -190 -46 -333.5t-128 -238.5t-195.5 -143.5t-246.5 -48.5q-115 0 -213.5 23t-155.5 55v1372q66 35 162 56.5t207 21.5q133 0 246.5 -48t195.5 -143t128 -238.5t46 -334.5zM968 741q0 160 -34 276t-93 190.5t-139 110.5t-170 36q-60 0 -116 -9.5t-91 -25.5
v-1155q29 -17 85 -26t122 -9q90 0 170 36t139 110.5t93 190.5t34 275z" />
    <glyph glyph-name="E" unicode="E" horiz-adv-x="991" 
d="M155 0v1483h737v-152h-571v-495h526v-148h-526v-536h571v-152h-737z" />
    <glyph glyph-name="F" unicode="F" horiz-adv-x="962" 
d="M321 1331v-495h512v-148h-512v-688h-166v1483h723v-152h-557z" />
    <glyph glyph-name="G" unicode="G" horiz-adv-x="1265" 
d="M1118 55q-54 -32 -152 -55t-225 -23q-133 0 -249 49.5t-200 146.5t-132 239.5t-48 328.5q0 187 49 329t135 239.5t203 146.5t252 49q106 0 198.5 -21.5t145.5 -56.5l-59 -139q-43 27 -116 45.5t-165 18.5q-96 0 -182 -36t-150.5 -111t-103.5 -190.5t-39 -273.5
q0 -157 38 -273t100.5 -191.5t143 -111.5t168.5 -36q78 0 139.5 11.5t86.5 25.5v532h-303v140h465v-783v0z" />
    <glyph glyph-name="H" unicode="H" horiz-adv-x="1255" 
d="M929 0v688h-604v-688h-170v1483h170v-647h604v647h172v-1483h-172z" />
    <glyph glyph-name="I" unicode="I" horiz-adv-x="487" 
d="M159 0v1483h168v-1483h-168z" />
    <glyph glyph-name="J" unicode="J" horiz-adv-x="487" 
d="M328 164q0 -137 -32 -241.5t-91.5 -179.5t-144.5 -122t-191 -70v158q68 21 121 56.5t91 91t58.5 131t20.5 176.5v1319h168v-1319v0z" />
    <glyph glyph-name="K" unicode="K" horiz-adv-x="1132" 
d="M902 0l-571 760h-4v-760h-168v1483h168v-686h4l559 686h199l-576 -705l590 -778h-201z" />
    <glyph glyph-name="L" unicode="L" horiz-adv-x="931" 
d="M159 0v1483h168v-1331h534v-152h-702z" />
    <glyph glyph-name="M" unicode="M" horiz-adv-x="1705" 
d="M1443 0l-135 1112q-4 31 -7 62.5t-5 58.5q-4 31 -4 59h-4q-4 -28 -13 -59q-6 -27 -14 -58.5l-16 -62.5l-330 -1112h-125l-328 1112q-10 31 -18 62.5t-14 58.5q-9 31 -13 59h-2q-2 -28 -4 -59q-2 -27 -5 -58.5t-7 -62.5l-135 -1112h-160l188 1483h203l316 -1065
q8 -31 15 -62.5l13 -58.5q8 -31 13 -57h4q2 26 10 57q4 27 12 58.5t19 62.5l313 1065h203l188 -1483h-158z" />
    <glyph glyph-name="N" unicode="N" horiz-adv-x="1351" 
d="M1038 0l-652 1087l-31.5 58t-25.5 51l-24 53h-5q0 -26 2 -57q0 -27 1.5 -58.5t1.5 -64.5v-1069h-150v1483h166l641 -1067l31.5 -57.5l27.5 -51.5q13 -26 25 -53h4q-2 29 -2 59v127v1043h149v-1483h-159z" />
    <glyph glyph-name="O" unicode="O" 
d="M1202 741q0 -157 -34 -296.5t-102.5 -243t-171 -164t-237.5 -60.5q-137 0 -239.5 60.5t-170 164t-101.5 243t-34 296.5q0 158 34 297.5t101.5 242.5t170 163.5t239.5 60.5q135 0 237.5 -60.5t171 -163.5t102.5 -242.5t34 -297.5zM1032 741q0 129 -24 240t-71 191.5
t-117.5 128t-162.5 47.5t-163 -47.5t-119 -128t-71.5 -191.5t-23.5 -240t23.5 -239.5t71.5 -191.5t119 -128t163 -47t162.5 47t117.5 128t71 191.5t24 239.5z" />
    <glyph glyph-name="P" unicode="P" horiz-adv-x="1118" 
d="M1036 1053q0 -99 -36 -180.5t-104.5 -141t-171 -92.5t-235.5 -33q-45 0 -90 3t-76 9v-618h-168v1427q74 37 168 57.5t205 20.5q248 0 378 -121.5t130 -330.5zM868 1055q0 153 -86 231t-252 78q-62 0 -117 -9t-90 -26v-569q31 -6 73 -9t87 -3q188 0 286.5 82.5t98.5 224.5
z" />
    <glyph glyph-name="Q" unicode="Q" 
d="M1073 -383l-250 389q-80 -29 -166 -29q-137 0 -239.5 60.5t-170 164t-101.5 243t-34 296.5q0 158 34 297.5t101.5 242.5t170 163.5t239.5 60.5q135 0 237.5 -60.5t171 -163.5t102.5 -242.5t34 -297.5q0 -213 -62.5 -388t-183.5 -273l248 -356zM1032 741q0 129 -24 240
t-71 191.5t-117.5 128t-162.5 47.5t-163 -47.5t-119 -128t-71.5 -191.5t-23.5 -240t23.5 -239.5t71.5 -191.5t119 -128t163 -47t162.5 47t117.5 128t71 191.5t24 239.5z" />
    <glyph glyph-name="R" unicode="R" horiz-adv-x="1185" 
d="M933 0l-221 483q-37 82 -94.5 125t-149.5 43h-145v-651h-164v1425q76 37 177.5 58.5t205.5 21.5q123 0 217 -30.5t157.5 -86t95.5 -133t32 -170.5q0 -88 -24.5 -154.5t-68.5 -112.5t-104.5 -74.5t-132.5 -41.5v-4q55 -28 95 -79.5t73 -120.5l231 -498h-180zM878 1079
q0 131 -82 209t-252 78q-61 0 -121.5 -10t-99.5 -27v-545h188q170 0 268.5 67t98.5 228z" />
    <glyph glyph-name="S" unicode="S" horiz-adv-x="1019" 
d="M911 403q0 -98 -34.5 -177t-97 -134t-149.5 -85t-194 -30q-98 0 -190.5 21.5t-151.5 56.5l59 154q50 -29 123.5 -50.5t153.5 -21.5q137 0 223 67.5t86 190.5q0 56 -21.5 99t-57.5 75.5t-83 58t-98 48.5q-66 31 -132.5 67.5t-119.5 86t-86 116t-33 158.5t32 167t90.5 127
t138 79.5t178.5 27.5q98 0 179 -22.5t132 -55.5l-57 -145q-41 25 -109 47.5t-139 22.5q-121 0 -198 -62.5t-77 -177.5q0 -55 23.5 -97t62.5 -76t89.5 -60.5l101.5 -51.5q61 -28 124.5 -63t115 -84t84 -116.5t32.5 -160.5z" />
    <glyph glyph-name="T" unicode="T" horiz-adv-x="1007" 
d="M587 1331v-1331h-170v1331h-352v152h877v-152h-355z" />
    <glyph glyph-name="U" unicode="U" horiz-adv-x="1234" 
d="M1079 424q0 -105 -36 -187.5t-98.5 -139t-146.5 -87t-182 -30.5q-96 0 -180 30.5t-146.5 87t-98.5 139t-36 187.5v1059h170v-1059q0 -68 22.5 -122t62.5 -92t93 -57.5t113 -19.5q61 0 114.5 19.5t93.5 57.5t62.5 92t22.5 122v1059h170v-1059v0z" />
    <glyph glyph-name="V" unicode="V" horiz-adv-x="1204" 
d="M692 0h-180l-459 1483h182l318 -1098q10 -35 18 -70.5l14 -64.5q9 -35 15 -66h4q6 31 14 66q6 29 14.5 64.5t18.5 70.5l317 1098h185z" />
    <glyph glyph-name="W" unicode="W" horiz-adv-x="1785" 
d="M1351 0h-172l-250 1049q-8 34 -14 70l-11 65q-6 35 -10 65h-4q-4 -30 -10 -65q-4 -29 -10 -65t-15 -70l-250 -1049h-172l-360 1483h172l244 -1080q8 -34 14 -68t10 -63l11 -65h4q4 31 10 65q4 29 11 63t16 68l251 1080h150l254 -1080q8 -34 14 -68t10 -63q7 -34 11 -65h4
q4 31 10 65q4 29 11 63t16 68l243 1080h170z" />
    <glyph glyph-name="X" unicode="X" horiz-adv-x="1150" 
d="M915 0l-338 625h-4l-340 -625h-186l428 768l-399 715h186l311 -574h4l312 574h186l-399 -715l428 -768h-189z" />
    <glyph glyph-name="Y" unicode="Y" horiz-adv-x="1165" 
d="M668 594v-594h-170v594l-453 889h184l353 -711h4l350 711h184z" />
    <glyph glyph-name="Z" unicode="Z" horiz-adv-x="1013" 
d="M57 0l621 1331h-584v152h825l-620 -1331h624v-152h-866z" />
    <glyph glyph-name="bracketleft" unicode="[" horiz-adv-x="714" 
d="M172 -399v2007h440v-138h-278v-1732h278v-137h-440z" />
    <glyph glyph-name="backslash" unicode="\" horiz-adv-x="905" 
d="M743 -401l-664 1984l156 51l661 -1984z" />
    <glyph glyph-name="bracketright" unicode="]" horiz-adv-x="714" 
d="M104 -399v137h276v1732h-276v138h438v-2007h-438z" />
    <glyph glyph-name="asciicircum" unicode="^" horiz-adv-x="1146" 
d="M871 881l-299 379l-301 -379l-102 90l322 405q30 41 81 41q52 0 82 -41l322 -405z" />
    <glyph glyph-name="underscore" unicode="_" horiz-adv-x="1153" 
d="M-8 -408v127h1167v-127h-1167z" />
    <glyph glyph-name="grave" unicode="`" horiz-adv-x="608" 
d="M287 1235l-197 266q14 47 74 47q24 0 51 -12t49 -35l145 -266h-122z" />
    <glyph glyph-name="a" unicode="a" horiz-adv-x="1038" 
d="M895 55q-29 -16 -70 -30.5t-90 -24.5t-102.5 -16.5t-104.5 -6.5q-219 0 -327.5 90.5t-108.5 247.5q0 119 56.5 191t147.5 111.5t206.5 56t236.5 22.5v84q0 123 -70.5 169t-181.5 46q-73 0 -154 -20.5t-135 -46.5l-43 121q60 28 153 52.5t194 24.5q88 0 160.5 -19.5
t125 -62.5t80 -111.5t27.5 -166.5v-711zM739 578q-88 -7 -176 -15t-157.5 -33.5t-113.5 -74.5t-44 -136q0 -98 68.5 -155.5t207.5 -57.5q62 0 124 10.5t91 24.5v437z" />
    <glyph glyph-name="b" unicode="b" horiz-adv-x="1091" 
d="M989 573q0 -155 -38 -267.5t-105.5 -185.5t-162 -108t-204.5 -35q-98 0 -187.5 23t-148.5 55v1553h166v-537q41 21 100.5 35t118.5 14q102 0 187 -38t145.5 -108.5t94.5 -172t34 -228.5zM823 563q0 199 -86 310.5t-229 111.5q-54 0 -108 -12t-91 -33v-788q27 -15 76 -25
t102 -10q70 0 131.5 25.5t107.5 78.5t71.5 138t25.5 204z" />
    <glyph glyph-name="c" unicode="c" horiz-adv-x="905" 
d="M821 53q-47 -35 -116 -55.5t-146 -20.5q-86 0 -167 33t-145.5 102.5t-103.5 179t-39 261.5t39 260.5t103.5 178t145.5 102t167 32.5q77 0 146 -20.5t116 -54.5l-58 -125q-34 26 -84.5 41.5t-103.5 15.5q-57 0 -111.5 -23.5t-97.5 -74.5t-68.5 -132t-25.5 -198t26.5 -199
t69.5 -134t97.5 -75.5t109.5 -23.5q53 0 103.5 16.5t84.5 42.5l58 -129v0z" />
    <glyph glyph-name="d" unicode="d" horiz-adv-x="1091" 
d="M948 55q-25 -14 -60.5 -28.5t-81 -24.5t-96.5 -17.5t-102 -7.5q-121 0 -215 40t-158.5 113t-97.5 176.5t-33 232.5q0 127 31.5 232.5t94 182t154 118.5t209.5 42q54 0 108 -9t83 -20v523h164v-1553zM784 952q-23 11 -77 19t-101 8q-84 0 -147.5 -33t-105.5 -92
t-63.5 -140t-21.5 -175q0 -193 86 -307.5t252 -114.5q49 0 102 11t76 24v800z" />
    <glyph glyph-name="e" unicode="e" horiz-adv-x="1093" 
d="M989 653v-34.5t-2 -38.5l-723 -109q12 -178 107 -266t247 -88q80 0 159 18.5t132 48.5l49 -129q-57 -35 -149.5 -56.5t-196.5 -21.5q-240 0 -374 151t-134 425q0 127 31.5 232.5t91 181t144.5 117.5t194 42q198 0 311 -124.5t113 -348.5zM831 676q-2 164 -74.5 241.5
t-191.5 77.5q-142 0 -224.5 -108.5t-86.5 -296.5z" />
    <glyph glyph-name="f" unicode="f" horiz-adv-x="686" 
d="M612 1470q-101 0 -167.5 -51t-66.5 -166v-149h236v-129h-236v-975h-157v975h-150v129h150v149q0 93 27.5 159.5t76.5 110.5t115.5 65.5t144.5 21.5h25.5t21.5 -2v-138h-20z" />
    <glyph glyph-name="g" unicode="g" horiz-adv-x="1091" 
d="M948 -4q0 -219 -115 -338t-321 -119q-107 0 -201 24.5t-154 57.5l51 135q50 -28 128.5 -49.5t162.5 -21.5q144 0 215.5 80.5t71.5 230.5v94q-43 -22 -104.5 -35.5t-122.5 -13.5q-101 0 -184 35t-143 102.5t-94 164.5t-34 224q0 146 38 251.5t106.5 174t161.5 101
t204 32.5q98 0 185 -21.5t149 -55.5v-1053zM786 954q-29 15 -78 25t-104 10q-70 0 -131.5 -22.5t-106.5 -72.5t-71.5 -129t-26.5 -192q0 -198 88 -297.5t227 -99.5q53 0 110.5 11.5t92.5 31.5v735z" />
    <glyph glyph-name="h" unicode="h" horiz-adv-x="1099" 
d="M792 0v743q0 123 -70.5 181.5t-193.5 58.5q-57 0 -115.5 -16.5t-103.5 -44.5v-922h-166v1608h166v-551q51 28 117.5 46.5t134.5 18.5q184 0 289.5 -93t105.5 -273v-756h-164z" />
    <glyph glyph-name="i" unicode="i" horiz-adv-x="466" 
d="M338 1432q0 -43 -31 -74t-74 -31t-73.5 31t-30.5 74t30.5 74.5t73.5 31.5t74 -31.5t31 -74.5zM154 0v1104h163v-1104h-163z" />
    <glyph glyph-name="j" unicode="j" horiz-adv-x="466" 
d="M338 1432q0 -43 -30.5 -74t-73.5 -31t-74 31t-31 74t31 74.5t74 31.5t73.5 -31.5t30.5 -74.5zM318 117q0 -137 -34 -236.5t-92 -168t-134 -107.5t-160 -58v146q51 18 97 51t81 84t56.5 123t21.5 166v987h164v-987z" />
    <glyph glyph-name="k" unicode="k" horiz-adv-x="1021" 
d="M802 0l-487 567h-4v-567h-162v1608h162v-1010h4l457 506h196l-475 -522l504 -582h-195z" />
    <glyph glyph-name="l" unicode="l" horiz-adv-x="466" 
d="M153 0v1608h164v-1608h-164z" />
    <glyph glyph-name="m" unicode="m" horiz-adv-x="1695" 
d="M1390 0v760q0 108 -64.5 167.5t-166.5 59.5q-74 0 -132.5 -25.5t-97.5 -68.5v-893h-163v786q0 95 -69 148t-179 53q-64 0 -116 -11t-93 -28v-948h-166v1049q78 34 170 55.5t197 21.5q122 0 207 -36.5t128 -90.5q48 48 139 87.5t208 39.5q163 0 261.5 -95t98.5 -257v-774
h-162z" />
    <glyph glyph-name="n" unicode="n" horiz-adv-x="1099" 
d="M792 0v745q0 111 -64.5 176.5t-193.5 65.5q-69 0 -127.5 -11t-97.5 -28v-948h-166v1049q78 34 175 55.5t214 21.5q211 0 317.5 -96t106.5 -270v-760h-164z" />
    <glyph glyph-name="o" unicode="o" horiz-adv-x="1107" 
d="M1005 553q0 -123 -29.5 -228.5t-86 -182t-140.5 -121t-194 -44.5q-111 0 -195 44.5t-140.5 121t-86 182t-29.5 228.5t29.5 227.5t86 181t140.5 120.5t195 44q110 0 194 -44t140.5 -120.5t86 -181t29.5 -227.5zM841 555q0 94 -17.5 174t-53 137.5t-90 89t-125.5 31.5
q-72 0 -126.5 -31.5t-90 -89t-53 -137.5t-17.5 -174q0 -96 17.5 -176t53 -137.5t90 -90t126.5 -32.5q71 0 125.5 32.5t90 90t53 137.5t17.5 176z" />
    <glyph glyph-name="p" unicode="p" horiz-adv-x="1091" 
d="M989 563q0 -127 -33 -232.5t-95.5 -182t-153.5 -118.5t-210 -42q-55 0 -107 9t-81 19v-456h-166v1489q53 28 147.5 52.5t194.5 24.5q121 0 215 -39.5t158.5 -113.5t97.5 -177.5t33 -232.5zM823 563q0 193 -85 309.5t-251 116.5q-53 0 -103.5 -11t-74.5 -26v-800
q22 -11 74.5 -20t101.5 -9q84 0 147.5 32.5t105.5 92t63.5 139.5t21.5 176z" />
    <glyph glyph-name="q" unicode="q" horiz-adv-x="1091" 
d="M784 -440v473q-41 -21 -101.5 -35t-119.5 -14q-103 0 -188 37.5t-145 108.5t-93 172t-33 228q0 156 38 268.5t105.5 185.5t161.5 107.5t205 34.5q98 0 185 -22.5t149 -54.5v-1489h-164zM784 952q-27 15 -76 26t-102 11q-72 0 -133.5 -25.5t-106.5 -79t-71.5 -138
t-26.5 -203.5q0 -199 87 -310.5t230 -111.5q54 0 108 11t91 32v788z" />
    <glyph glyph-name="r" unicode="r" horiz-adv-x="694" 
d="M604 975q-23 4 -46.5 6t-47.5 2q-56 0 -110 -9t-91 -26v-948h-166v1049q72 34 174 55.5t213 21.5q29 0 55.5 -2t49.5 -6z" />
    <glyph glyph-name="s" unicode="s" horiz-adv-x="890" 
d="M792 295q0 -143 -103.5 -230.5t-292.5 -87.5q-86 0 -171 23t-144 55l59 131q43 -26 117 -47.5t137 -21.5q103 0 164.5 48t61.5 130q0 43 -16.5 74.5t-44 55.5t-67.5 42l-85 37q-56 20 -110 47t-95 63.5t-66.5 89t-25.5 125.5q0 129 91 213t261 84q90 0 166 -21.5
t129 -55.5l-58 -121q-36 24 -97.5 44.5t-125.5 20.5q-96 0 -148 -47t-52 -117q0 -43 15 -73.5t43 -54t65.5 -41t80.5 -33.5q60 -23 116 -48.5t99 -62.5t70 -90t27 -131z" />
    <glyph glyph-name="t" unicode="t" horiz-adv-x="681" 
d="M606 6q-17 -8 -45.5 -13t-63.5 -5q-131 0 -204.5 73.5t-73.5 225.5v688h-154v129h154v266l157 55v-321h230v-129h-230v-680q0 -84 47.5 -120t112.5 -36q43 0 70 11v-144v0z" />
    <glyph glyph-name="u" unicode="u" horiz-adv-x="1083" 
d="M940 55q-60 -32 -165.5 -55t-221.5 -23q-199 0 -304.5 93.5t-105.5 294.5v739h166v-742q0 -241 244 -241q71 0 131.5 11t91.5 26v946h164v-1049v0z" />
    <glyph glyph-name="v" unicode="v" horiz-adv-x="1081" 
d="M634 0h-188l-387 1104h178l256 -785q10 -28 17.5 -57l13.5 -53q8 -29 14 -55h4q4 26 13 55q6 24 14 53t18 57l254 785h181z" />
    <glyph glyph-name="w" unicode="w" horiz-adv-x="1626" 
d="M1230 0h-168l-215 770q-8 27 -14 53.5t-10 48.5q-7 25 -9 50h-4q-2 -25 -8 -50q-4 -22 -10 -48.5t-14 -53.5l-216 -770h-167l-322 1104h164l209 -780q8 -29 14 -58.5t10 -54.5q6 -29 9 -55h4q4 26 10 55q4 25 10 54.5t14 58.5l218 780h157l213 -780q8 -29 14.5 -58.5
l12.5 -54.5q6 -29 12 -55h4q2 26 8 55q4 25 9.5 54.5t13.5 58.5l211 780h162z" />
    <glyph glyph-name="x" unicode="x" horiz-adv-x="1017" 
d="M786 0l-274 455h-4l-277 -455h-186l365 573l-336 531h184l250 -416h4l250 416h184l-336 -531l363 -573h-187z" />
    <glyph glyph-name="y" unicode="y" horiz-adv-x="1081" 
d="M467 -440h-170l159 440l-397 1104h178l264 -803q9 -29 16 -56.5t11 -49.5l10 -52h4l11 52q4 22 10 49.5t16 56.5l262 803h181z" />
    <glyph glyph-name="z" unicode="z" horiz-adv-x="909" 
d="M63 0l510 965h-479v139h717l-510 -965h524v-139h-762z" />
    <glyph glyph-name="braceleft" unicode="{" horiz-adv-x="718" 
d="M532 -399q-156 0 -238 88t-82 248q0 65 5 109t12.5 83t12.5 81t5 103q0 99 -45 156t-121 63v144q76 6 121 63.5t45 155.5q0 61 -5 103t-12.5 81t-12.5 83t-5 110q0 160 82 248t238 88h65v-138h-45q-86 0 -134 -50t-48 -148q0 -66 6 -110t13 -83t13.5 -81t6.5 -103
q0 -117 -48.5 -188.5t-127.5 -100.5v-4q79 -29 127.5 -100.5t48.5 -188.5q0 -61 -6.5 -103t-13.5 -81t-13 -83t-6 -109q0 -99 48 -149t134 -50h45v-137h-65z" />
    <glyph glyph-name="bar" unicode="|" horiz-adv-x="471" 
d="M153 -440v2048h166v-2048h-166z" />
    <glyph glyph-name="braceright" unicode="}" horiz-adv-x="718" 
d="M636 532q-76 -6 -122 -63t-46 -156q0 -61 6 -103t12.5 -81t12.5 -83t6 -109q0 -160 -83 -248t-239 -88h-61v137h45q84 0 131 50t47 149q0 65 -5 109t-12 83t-12.5 81t-5.5 103q0 117 46.5 188.5t125.5 100.5v4q-79 29 -125.5 100.5t-46.5 188.5q0 61 5.5 103t12.5 81
t12 83t5 110q0 98 -47 148t-131 50h-45v138h61q156 0 239 -88t83 -248q0 -66 -6 -110t-12.5 -83t-12.5 -81t-6 -103q0 -98 46 -155.5t122 -63.5v-144v0z" />
    <glyph glyph-name="asciitilde" unicode="~" horiz-adv-x="1146" 
d="M991 807q-25 -88 -86.5 -144.5t-151.5 -56.5q-53 0 -97 19.5t-83 43t-78 43t-82 19.5q-59 0 -102 -36t-64 -91l-90 70q23 88 84 144t154 56q53 0 96 -19t83 -43t77.5 -43t83.5 -19q59 0 100 35.5t63 91.5l93 -70v0z" />
    <glyph glyph-name="dieresis" unicode="&#xa8;" horiz-adv-x="1024" 
 />
    <glyph glyph-name="copyright" unicode="&#xa9;" horiz-adv-x="1714" 
d="M1595 741q0 -159 -56.5 -298.5t-156 -243t-234.5 -163t-291 -59.5q-157 0 -291.5 59.5t-233.5 163t-155.5 243t-56.5 298.5q0 160 56.5 299.5t155.5 242.5t233.5 162.5t291.5 59.5q156 0 291 -59.5t234.5 -162.5t156 -242.5t56.5 -299.5zM1476 741q0 136 -48 255.5
t-131 207.5t-196 139.5t-244 51.5t-244.5 -51.5t-196.5 -139.5t-131 -207.5t-48 -255.5q0 -135 48 -254.5t131 -208t196.5 -139.5t244.5 -51t244 51t196 139.5t131 208t48 254.5zM1085 369q-35 -25 -91.5 -42.5t-117.5 -17.5q-76 0 -142.5 26.5t-117 82t-80 137.5t-29.5 193
q0 110 29.5 192t80 135t117 80t142.5 27q61 0 117.5 -16.5t91.5 -41.5l-45 -92q-27 19 -68 33t-88 14q-49 0 -95 -18.5t-81 -58t-56.5 -103t-21.5 -151.5q0 -91 21.5 -153.5t56.5 -102t81 -58t95 -18.5q47 0 88 13t68 32z" />
    <glyph glyph-name="registered" unicode="&#xae;" horiz-adv-x="1325" 
d="M1212 940q0 -119 -42 -223.5t-116 -181t-174 -120.5t-217 -44t-217.5 44t-175 120.5t-116.5 181t-42 223.5t42 223.5t116.5 181t175 120.5t217.5 44t217 -44t174 -120.5t116 -181t42 -223.5zM1116 940q0 100 -35 187t-95.5 151.5t-143.5 101.5t-179 37t-179 -37
t-144.5 -101.5t-96.5 -151.5t-35 -187t35 -187t96.5 -151.5t144.5 -101.5t179 -37t179 37t143.5 101.5t95.5 151.5t35 187zM814 629l-102 213q-14 30 -35.5 43.5t-58.5 13.5h-57v-270h-95v610q37 16 85 26.5t96 10.5q114 0 175.5 -49t61.5 -135q0 -68 -40 -107t-97 -55v-4
q37 -23 59 -66l113 -231h-105zM790 1090q0 106 -141 106q-54 0 -88 -10v-211h73q78 0 117 26.5t39 88.5z" />
    <glyph glyph-name="acute" unicode="&#xb4;" horiz-adv-x="608" 
d="M319 1235h-121l145 266q21 23 48.5 35t52.5 12q26 0 46.5 -12t24.5 -35z" />
    <glyph glyph-name="paragraph" unicode="&#xb6;" horiz-adv-x="1155" 
d="M866 -440v1775q-48 21 -118.5 31t-127.5 10q-10 0 -17.5 -1t-13.5 -1h-12v-1814h-127v1104q-148 28 -240 131.5t-92 277.5q0 213 129 322.5t344 109.5q129 0 229.5 -21.5t174.5 -56.5v-1867h-129z" />
    <glyph glyph-name="Eth" horiz-adv-x="1516" 
 />
    <glyph glyph-name="onequarter" unicode="&#xbc;" horiz-adv-x="1646" 
d="M1448 223v-223h-109v223h-393v90l375 555h127v-555h96v-90h-96zM481 -27l-94 56l754 1480l94 -55zM313 614v721q-41 -26 -111.5 -49.5t-133.5 -36.5l-23 99q39 6 81 19t82 29.5t74.5 39t57.5 47.5h90v-869h-117zM1343 760l-14 -29l-14 -27.5t-19 -29.5l-241 -361h288v346
v35.5t2 32.5q0 16 3 33h-5z" />
    <glyph glyph-name="onehalf" unicode="&#xbd;" horiz-adv-x="1646" 
d="M954 0l371 438q35 43 62.5 86t27.5 97q0 71 -46 116t-136 45q-47 0 -99.5 -12t-95.5 -31l-35 97q54 22 115.5 35.5t120.5 13.5q145 0 221 -71t76 -187q0 -76 -39 -139.5t-82 -110.5l-246 -273h385v-104h-600zM432 -27l-94 56l754 1480l94 -55zM313 614v721
q-41 -26 -111.5 -49.5t-133.5 -36.5l-23 99q39 6 81 19t82 29.5t74.5 39t57.5 47.5h90v-869h-117z" />
    <glyph glyph-name="threequarters" unicode="&#xbe;" horiz-adv-x="1646" 
d="M1448 223v-223h-109v223h-393v90l375 555h127v-555h96v-90h-96zM534 -27l-94 56l756 1480l92 -55zM1343 760l-14 -29q-6 -12 -14.5 -27.5t-18.5 -29.5l-242 -361h289v346v35.5t2 32.5q0 16 2 33h-4zM618 860q0 -121 -86 -191.5t-233 -70.5q-64 0 -126.5 12.5t-115.5 36.5
l39 96q41 -18 94 -29.5t109 -11.5q96 0 149 40t53 118t-69.5 122t-188.5 44h-28v90q121 8 186.5 51t65.5 107q0 123 -162 123q-47 0 -97.5 -11.5t-91.5 -31.5l-43 96q54 23 116.5 36t125.5 13q129 0 199.5 -57.5t70.5 -161.5q0 -70 -47 -118t-106 -72v-5q33 -10 66.5 -28.5
t60 -46t43 -64.5t16.5 -86z" />
    <glyph glyph-name="Agrave" unicode="&#xc0;" horiz-adv-x="1290" 
d="M1072 0l-145 432h-565l-144 -432h-180l510 1483h195l507 -1483h-178zM689 1167q-10 29 -17 59.5l-13 55.5q-9 29 -13 55h-4q-4 -26 -12 -55l-13.5 -55.5t-17.5 -59.5l-199 -600h488zM618 1554l-245 242q22 71 84 71q60 0 109 -47l179 -266h-127z" />
    <glyph glyph-name="Aacute" unicode="&#xc1;" horiz-adv-x="1290" 
d="M1072 0l-145 432h-565l-144 -432h-180l510 1483h195l507 -1483h-178zM689 1167q-10 29 -17 59.5l-13 55.5q-9 29 -13 55h-4q-4 -26 -12 -55l-13.5 -55.5t-17.5 -59.5l-199 -600h488zM540 1554l179 266q49 47 109 47q62 0 84 -71l-245 -242h-127z" />
    <glyph glyph-name="uni1EA2" unicode="&#x1ea2;" horiz-adv-x="1290" 
d="M1072 0l-145 432h-565l-144 -432h-180l510 1483h195l507 -1483h-178zM689 1167q-10 29 -17 59.5l-13 55.5q-9 29 -13 55h-4q-4 -26 -12 -55l-13.5 -55.5t-17.5 -59.5l-199 -600h488zM515 1894q42 28 127 37q191 0 191 -156q0 -58 -51 -107q-37 -36 -88 -49l-10 -73
l-86 -1l-6 118q68 24 96 57q27 22 27 53q0 64 -79 64q-41 0 -94 -22z" />
    <glyph glyph-name="Atilde" unicode="&#xc3;" horiz-adv-x="1290" 
d="M1072 0l-145 432h-565l-144 -432h-180l510 1483h195l507 -1483h-178zM689 1167q-10 29 -17 59.5l-13 55.5q-9 29 -13 55h-4q-4 -26 -12 -55l-13.5 -55.5t-17.5 -59.5l-199 -600h488zM942 1725q-44 -172 -163 -172q-49 -1 -117 55q-59 50 -91 50q-72 -2 -116 -89l-61 34
q37 172 169 172q55 0 122 -60q64 -49 95 -49q65 6 96 89z" />
    <glyph glyph-name="uni1EA0" unicode="&#x1ea0;" horiz-adv-x="1290" 
d="M1072 0l-145 432h-565l-144 -432h-180l510 1483h195l507 -1483h-178zM689 1167q-10 29 -17 59.5l-13 55.5q-9 29 -13 55h-4q-4 -26 -12 -55l-13.5 -55.5t-17.5 -59.5l-199 -600h488zM738 -127q0 -39 -27.5 -66.5t-66.5 -27.5t-66.5 27.5t-27.5 66.5t27.5 66.5t66.5 27.5
t66.5 -27.5t27.5 -66.5z" />
    <glyph glyph-name="Acircumflex" unicode="&#xc2;" horiz-adv-x="1290" 
d="M1072 0l-145 432h-565l-144 -432h-180l510 1483h195l507 -1483h-178zM689 1167q-10 29 -17 59.5l-13 55.5q-9 29 -13 55h-4q-4 -26 -12 -55l-13.5 -55.5t-17.5 -59.5l-199 -600h488zM572 1787q35 33 74 33q37 0 71 -33l190 -183l-74 -61l-1 1l-189 144l-187 -146l-1 -1
l-74 62z" />
    <glyph glyph-name="uni1EA6" unicode="&#x1ea6;" horiz-adv-x="1290" 
d="M1072 0l-145 432h-565l-144 -432h-180l510 1483h195l507 -1483h-178zM689 1167q-10 29 -17 59.5l-13 55.5q-9 29 -13 55h-4q-4 -26 -12 -55l-13.5 -55.5t-17.5 -59.5l-199 -600h488zM884 1705l-245 242q22 71 84 71q60 0 109 -47l179 -266h-127zM572 1787q35 33 74 33
q37 0 71 -33l190 -183l-74 -61l-1 1l-189 144l-187 -146l-1 -1l-74 62z" />
    <glyph glyph-name="uni1EA4" unicode="&#x1ea4;" horiz-adv-x="1290" 
d="M1072 0l-145 432h-565l-144 -432h-180l510 1483h195l507 -1483h-178zM689 1167q-10 29 -17 59.5l-13 55.5q-9 29 -13 55h-4q-4 -26 -12 -55l-13.5 -55.5t-17.5 -59.5l-199 -600h488zM837 1705l179 266q49 47 109 47q62 0 84 -71l-245 -242h-127zM572 1787q35 33 74 33
q37 0 71 -33l190 -183l-74 -61l-1 1l-189 144l-187 -146l-1 -1l-74 62z" />
    <glyph glyph-name="uni1EA8" unicode="&#x1ea8;" horiz-adv-x="1290" 
d="M1072 0l-145 432h-565l-144 -432h-180l510 1483h195l507 -1483h-178zM689 1167q-10 29 -17 59.5l-13 55.5q-9 29 -13 55h-4q-4 -26 -12 -55l-13.5 -55.5t-17.5 -59.5l-199 -600h488zM757 2057q42 28 127 37q191 0 191 -156q0 -58 -51 -107q-37 -36 -88 -49l-10 -73
l-86 -1l-6 118q68 24 96 57q27 22 27 53q0 64 -79 64q-41 0 -94 -22zM572 1787q35 33 74 33q37 0 71 -33l190 -183l-74 -61l-1 1l-189 144l-187 -146l-1 -1l-74 62z" />
    <glyph glyph-name="uni1EAA" unicode="&#x1eaa;" horiz-adv-x="1290" 
d="M1072 0l-145 432h-565l-144 -432h-180l510 1483h195l507 -1483h-178zM689 1167q-10 29 -17 59.5l-13 55.5q-9 29 -13 55h-4q-4 -26 -12 -55l-13.5 -55.5t-17.5 -59.5l-199 -600h488zM1012 1967q-46 -172 -171 -172q-52 -1 -123 55q-62 50 -95 50q-76 -2 -122 -89l-64 34
q39 172 177 172q58 0 128 -60q67 -49 100 -49q68 6 101 89zM572 1787q35 33 74 33q37 0 71 -33l190 -183l-74 -61l-1 1l-189 144l-187 -146l-1 -1l-74 62z" />
    <glyph glyph-name="uni1EAC" unicode="&#x1eac;" horiz-adv-x="1290" 
d="M1072 0l-145 432h-565l-144 -432h-180l510 1483h195l507 -1483h-178zM689 1167q-10 29 -17 59.5l-13 55.5q-9 29 -13 55h-4q-4 -26 -12 -55l-13.5 -55.5t-17.5 -59.5l-199 -600h488zM738 -127q0 -39 -27.5 -66.5t-66.5 -27.5t-66.5 27.5t-27.5 66.5t27.5 66.5t66.5 27.5
t66.5 -27.5t27.5 -66.5zM572 1787q35 33 74 33q37 0 71 -33l190 -183l-74 -61l-1 1l-189 144l-187 -146l-1 -1l-74 62z" />
    <glyph glyph-name="Abreve" unicode="&#x102;" horiz-adv-x="1290" 
d="M1072 0l-145 432h-565l-144 -432h-180l510 1483h195l507 -1483h-178zM689 1167q-10 29 -17 59.5l-13 55.5q-9 29 -13 55h-4q-4 -26 -12 -55l-13.5 -55.5t-17.5 -59.5l-199 -600h488zM645 1662q113 0 154 108l112 -26q-45 -192 -266 -192t-268 189l114 26
q42 -105 154 -105z" />
    <glyph glyph-name="uni1EB0" unicode="&#x1eb0;" horiz-adv-x="1290" 
d="M1072 0l-145 432h-565l-144 -432h-180l510 1483h195l507 -1483h-178zM689 1167q-10 29 -17 59.5l-13 55.5q-9 29 -13 55h-4q-4 -26 -12 -55l-13.5 -55.5t-17.5 -59.5l-199 -600h488zM611 1775l-245 242q22 71 84 71q60 0 109 -47l179 -266h-127zM645 1662q113 0 154 108
l112 -26q-45 -192 -266 -192t-268 189l114 26q42 -105 154 -105z" />
    <glyph glyph-name="uni1EAE" unicode="&#x1eae;" horiz-adv-x="1290" 
d="M1072 0l-145 432h-565l-144 -432h-180l510 1483h195l507 -1483h-178zM689 1167q-10 29 -17 59.5l-13 55.5q-9 29 -13 55h-4q-4 -26 -12 -55l-13.5 -55.5t-17.5 -59.5l-199 -600h488zM561 1748l179 266q49 47 109 47q62 0 84 -71l-245 -242h-127zM645 1662q113 0 154 108
l112 -26q-45 -192 -266 -192t-268 189l114 26q42 -105 154 -105z" />
    <glyph glyph-name="uni1EB2" unicode="&#x1eb2;" horiz-adv-x="1290" 
d="M1072 0l-145 432h-565l-144 -432h-180l510 1483h195l507 -1483h-178zM689 1167q-10 29 -17 59.5l-13 55.5q-9 29 -13 55h-4q-4 -26 -12 -55l-13.5 -55.5t-17.5 -59.5l-199 -600h488zM528 2083q42 28 127 37q191 0 191 -156q0 -58 -51 -107q-37 -36 -88 -49l-10 -73
l-86 -1l-6 118q68 24 96 57q27 22 27 53q0 64 -79 64q-41 0 -94 -22zM645 1662q113 0 154 108l112 -26q-45 -192 -266 -192t-268 189l114 26q42 -105 154 -105z" />
    <glyph glyph-name="uni1EB4" unicode="&#x1eb4;" horiz-adv-x="1290" 
d="M1072 0l-145 432h-565l-144 -432h-180l510 1483h195l507 -1483h-178zM689 1167q-10 29 -17 59.5l-13 55.5q-9 29 -13 55h-4q-4 -26 -12 -55l-13.5 -55.5t-17.5 -59.5l-199 -600h488zM1012 1967q-46 -172 -171 -172q-52 -1 -123 55q-62 50 -95 50q-76 -2 -122 -89l-64 34
q39 172 177 172q58 0 128 -60q67 -49 100 -49q68 6 101 89zM645 1662q113 0 154 108l112 -26q-45 -192 -266 -192t-268 189l114 26q42 -105 154 -105z" />
    <glyph glyph-name="uni1EB6" unicode="&#x1eb6;" horiz-adv-x="1290" 
d="M1072 0l-145 432h-565l-144 -432h-180l510 1483h195l507 -1483h-178zM689 1167q-10 29 -17 59.5l-13 55.5q-9 29 -13 55h-4q-4 -26 -12 -55l-13.5 -55.5t-17.5 -59.5l-199 -600h488zM738 -127q0 -39 -27.5 -66.5t-66.5 -27.5t-66.5 27.5t-27.5 66.5t27.5 66.5t66.5 27.5
t66.5 -27.5t27.5 -66.5zM645 1662q113 0 154 108l112 -26q-45 -192 -266 -192t-268 189l114 26q42 -105 154 -105z" />
    <glyph glyph-name="Egrave" unicode="&#xc8;" horiz-adv-x="991" 
d="M155 0v1483h737v-152h-571v-495h526v-148h-526v-536h571v-152h-737zM503 1554l-245 242q22 71 84 71q60 0 109 -47l179 -266h-127z" />
    <glyph glyph-name="Eacute" unicode="&#xc9;" horiz-adv-x="991" 
d="M155 0v1483h737v-152h-571v-495h526v-148h-526v-536h571v-152h-737zM425 1554l179 266q49 47 109 47q62 0 84 -71l-245 -242h-127z" />
    <glyph glyph-name="uni1EBA" unicode="&#x1eba;" horiz-adv-x="991" 
d="M155 0v1483h737v-152h-571v-495h526v-148h-526v-536h571v-152h-737zM400 1894q42 28 127 37q191 0 191 -156q0 -58 -51 -107q-37 -36 -88 -49l-10 -73l-86 -1l-6 118q68 24 96 57q27 22 27 53q0 64 -79 64q-41 0 -94 -22z" />
    <glyph glyph-name="uni1EBC" unicode="&#x1ebc;" horiz-adv-x="991" 
d="M155 0v1483h737v-152h-571v-495h526v-148h-526v-536h571v-152h-737zM801 1725q-43 -172 -163 -172q-49 -1 -117 55q-59 50 -90 50q-73 -2 -117 -89l-61 34q38 172 169 172q55 0 122 -60q64 -49 95 -49q65 6 97 89z" />
    <glyph glyph-name="uni1EB8" unicode="&#x1eb8;" horiz-adv-x="991" 
d="M155 0v1483h737v-152h-571v-495h526v-148h-526v-536h571v-152h-737zM622 -127q0 -39 -28 -66.5t-67 -27.5q-38 0 -66 27.5t-28 66.5t28 66.5t66 27.5q39 0 67 -27.5t28 -66.5z" />
    <glyph glyph-name="Ecircumflex" unicode="&#xca;" horiz-adv-x="991" 
d="M155 0v1483h737v-152h-571v-495h526v-148h-526v-536h571v-152h-737zM452 1787q35 33 74 33q37 0 71 -33l190 -183l-74 -61l-1 1l-189 144l-187 -146l-1 -1l-74 62z" />
    <glyph glyph-name="uni1EC0" unicode="&#x1ec0;" horiz-adv-x="991" 
d="M155 0v1483h737v-152h-571v-495h526v-148h-526v-536h571v-152h-737zM771 1697l-245 242q22 71 84 71q60 0 109 -47l179 -266h-127zM452 1787q35 33 74 33q37 0 71 -33l190 -183l-74 -61l-1 1l-189 144l-187 -146l-1 -1l-74 62z" />
    <glyph glyph-name="uni1EBE" unicode="&#x1ebe;" horiz-adv-x="991" 
d="M155 0v1483h737v-152h-571v-495h526v-148h-526v-536h571v-152h-737zM714 1730l179 266q49 47 109 47q62 0 84 -71l-245 -242h-127zM452 1787q35 33 74 33q37 0 71 -33l190 -183l-74 -61l-1 1l-189 144l-187 -146l-1 -1l-74 62z" />
    <glyph glyph-name="uni1EC2" unicode="&#x1ec2;" horiz-adv-x="991" 
d="M155 0v1483h737v-152h-571v-495h526v-148h-526v-536h571v-152h-737zM638 2060q42 28 127 37q191 0 191 -156q0 -58 -51 -107q-37 -36 -88 -49l-10 -73l-86 -1l-6 118q68 24 96 57q27 22 27 53q0 64 -79 64q-41 0 -94 -22zM452 1787q35 33 74 33q37 0 71 -33l190 -183
l-74 -61l-1 1l-189 144l-187 -146l-1 -1l-74 62z" />
    <glyph glyph-name="uni1EC4" unicode="&#x1ec4;" horiz-adv-x="991" 
d="M155 0v1483h737v-152h-571v-495h526v-148h-526v-536h571v-152h-737zM873 1980q-43 -172 -163 -172q-49 -1 -117 55q-59 50 -90 50q-73 -2 -117 -89l-61 34q38 172 169 172q55 0 122 -60q64 -49 95 -49q65 6 97 89zM452 1787q35 33 74 33q37 0 71 -33l190 -183l-74 -61
l-1 1l-189 144l-187 -146l-1 -1l-74 62z" />
    <glyph glyph-name="uni1EC6" unicode="&#x1ec6;" horiz-adv-x="991" 
d="M155 0v1483h737v-152h-571v-495h526v-148h-526v-536h571v-152h-737zM622 -127q0 -39 -28 -66.5t-67 -27.5q-38 0 -66 27.5t-28 66.5t28 66.5t66 27.5q39 0 67 -27.5t28 -66.5zM452 1787q35 33 74 33q37 0 71 -33l190 -183l-74 -61l-1 1l-189 144l-187 -146l-1 -1l-74 62z
" />
    <glyph glyph-name="Igrave" unicode="&#xcc;" horiz-adv-x="487" 
d="M159 0v1483h168v-1483h-168zM221 1554l-245 242q22 71 84 71q60 0 109 -47l179 -266h-127z" />
    <glyph glyph-name="Iacute" unicode="&#xcd;" horiz-adv-x="487" 
d="M159 0v1483h168v-1483h-168zM152 1554l179 266q49 47 109 47q62 0 84 -71l-245 -242h-127z" />
    <glyph glyph-name="uni1EC8" unicode="&#x1ec8;" horiz-adv-x="487" 
d="M159 0v1483h168v-1483h-168zM109 1894q42 28 127 37q191 0 191 -156q0 -58 -51 -107q-37 -36 -88 -49l-10 -73l-86 -1l-6 118q68 24 96 57q27 22 27 53q0 64 -79 64q-41 0 -94 -22z" />
    <glyph glyph-name="Itilde" unicode="&#x128;" horiz-adv-x="487" 
d="M159 0v1483h168v-1483h-168zM554 1725q-44 -172 -163 -172q-50 -1 -117 55q-59 50 -91 50q-72 -2 -116 -89l-61 34q37 172 169 172q55 0 122 -60q64 -49 95 -49q65 6 96 89z" />
    <glyph glyph-name="uni1ECA" unicode="&#x1eca;" horiz-adv-x="487" 
d="M160 0v1483h168v-1483h-168zM338 -127q0 -39 -27.5 -66.5t-66.5 -27.5t-66.5 27.5t-27.5 66.5t27.5 66.5t66.5 27.5t66.5 -27.5t27.5 -66.5z" />
    <glyph glyph-name="Ograve" unicode="&#xd2;" 
d="M1202 741q0 -157 -34 -296.5t-102.5 -243t-171 -164t-237.5 -60.5q-137 0 -239.5 60.5t-170 164t-101.5 243t-34 296.5q0 158 34 297.5t101.5 242.5t170 163.5t239.5 60.5q135 0 237.5 -60.5t171 -163.5t102.5 -242.5t34 -297.5zM1032 741q0 129 -24 240t-71 191.5
t-117.5 128t-162.5 47.5t-163 -47.5t-119 -128t-71.5 -191.5t-23.5 -240t23.5 -239.5t71.5 -191.5t119 -128t163 -47t162.5 47t117.5 128t71 191.5t24 239.5zM653 1554l-245 242q22 71 84 71q60 0 109 -47l179 -266h-127z" />
    <glyph glyph-name="Oacute" unicode="&#xd3;" 
d="M1202 741q0 -157 -34 -296.5t-102.5 -243t-171 -164t-237.5 -60.5q-137 0 -239.5 60.5t-170 164t-101.5 243t-34 296.5q0 158 34 297.5t101.5 242.5t170 163.5t239.5 60.5q135 0 237.5 -60.5t171 -163.5t102.5 -242.5t34 -297.5zM1032 741q0 129 -24 240t-71 191.5
t-117.5 128t-162.5 47.5t-163 -47.5t-119 -128t-71.5 -191.5t-23.5 -240t23.5 -239.5t71.5 -191.5t119 -128t163 -47t162.5 47t117.5 128t71 191.5t24 239.5zM540 1554l179 266q49 47 109 47q62 0 84 -71l-245 -242h-127z" />
    <glyph glyph-name="uni1ECE" unicode="&#x1ece;" 
d="M1202 741q0 -157 -34 -296.5t-102.5 -243t-171 -164t-237.5 -60.5q-137 0 -239.5 60.5t-170 164t-101.5 243t-34 296.5q0 158 34 297.5t101.5 242.5t170 163.5t239.5 60.5q135 0 237.5 -60.5t171 -163.5t102.5 -242.5t34 -297.5zM1032 741q0 129 -24 240t-71 191.5
t-117.5 128t-162.5 47.5t-163 -47.5t-119 -128t-71.5 -191.5t-23.5 -240t23.5 -239.5t71.5 -191.5t119 -128t163 -47t162.5 47t117.5 128t71 191.5t24 239.5zM533 1903q42 28 127 37q191 0 191 -156q0 -58 -51 -107q-37 -36 -88 -49l-10 -73l-86 -1l-6 118q68 24 96 57
q27 22 27 53q0 64 -79 64q-41 0 -94 -22z" />
    <glyph glyph-name="Otilde" unicode="&#xd5;" 
d="M1202 741q0 -157 -34 -296.5t-102.5 -243t-171 -164t-237.5 -60.5q-137 0 -239.5 60.5t-170 164t-101.5 243t-34 296.5q0 158 34 297.5t101.5 242.5t170 163.5t239.5 60.5q135 0 237.5 -60.5t171 -163.5t102.5 -242.5t34 -297.5zM1032 741q0 129 -24 240t-71 191.5
t-117.5 128t-162.5 47.5t-163 -47.5t-119 -128t-71.5 -191.5t-23.5 -240t23.5 -239.5t71.5 -191.5t119 -128t163 -47t162.5 47t117.5 128t71 191.5t24 239.5zM951 1725q-43 -172 -163 -172q-49 -1 -117 55q-59 50 -90 50q-73 -2 -117 -89l-61 34q38 172 169 172
q55 0 122 -60q64 -49 95 -49q65 6 97 89z" />
    <glyph glyph-name="uni1ECC" unicode="&#x1ecc;" 
d="M1202 741q0 -157 -34 -296.5t-102.5 -243t-171 -164t-237.5 -60.5q-137 0 -239.5 60.5t-170 164t-101.5 243t-34 296.5q0 158 34 297.5t101.5 242.5t170 163.5t239.5 60.5q135 0 237.5 -60.5t171 -163.5t102.5 -242.5t34 -297.5zM1032 741q0 129 -24 240t-71 191.5
t-117.5 128t-162.5 47.5t-163 -47.5t-119 -128t-71.5 -191.5t-23.5 -240t23.5 -239.5t71.5 -191.5t119 -128t163 -47t162.5 47t117.5 128t71 191.5t24 239.5zM751 -162q0 -39 -27.5 -66.5t-66.5 -27.5t-66.5 27.5t-27.5 66.5t27.5 66.5t66.5 27.5t66.5 -27.5t27.5 -66.5z
" />
    <glyph glyph-name="Ocircumflex" unicode="&#xd4;" 
d="M1202 741q0 -157 -34 -296.5t-102.5 -243t-171 -164t-237.5 -60.5q-137 0 -239.5 60.5t-170 164t-101.5 243t-34 296.5q0 158 34 297.5t101.5 242.5t170 163.5t239.5 60.5q135 0 237.5 -60.5t171 -163.5t102.5 -242.5t34 -297.5zM1032 741q0 129 -24 240t-71 191.5
t-117.5 128t-162.5 47.5t-163 -47.5t-119 -128t-71.5 -191.5t-23.5 -240t23.5 -239.5t71.5 -191.5t119 -128t163 -47t162.5 47t117.5 128t71 191.5t24 239.5zM585 1787q35 33 74 33q37 0 71 -33l190 -183l-74 -61l-1 1l-189 144l-187 -146l-1 -1l-74 62z" />
    <glyph glyph-name="uni1ED2" unicode="&#x1ed2;" 
d="M1202 741q0 -157 -34 -296.5t-102.5 -243t-171 -164t-237.5 -60.5q-137 0 -239.5 60.5t-170 164t-101.5 243t-34 296.5q0 158 34 297.5t101.5 242.5t170 163.5t239.5 60.5q135 0 237.5 -60.5t171 -163.5t102.5 -242.5t34 -297.5zM1032 741q0 129 -24 240t-71 191.5
t-117.5 128t-162.5 47.5t-163 -47.5t-119 -128t-71.5 -191.5t-23.5 -240t23.5 -239.5t71.5 -191.5t119 -128t163 -47t162.5 47t117.5 128t71 191.5t24 239.5zM886 1715l-245 242q22 71 84 71q60 0 109 -47l179 -266h-127zM585 1787q35 33 74 33q37 0 71 -33l190 -183
l-74 -61l-1 1l-189 144l-187 -146l-1 -1l-74 62z" />
    <glyph glyph-name="uni1ED0" unicode="&#x1ed0;" 
d="M1202 741q0 -157 -34 -296.5t-102.5 -243t-171 -164t-237.5 -60.5q-137 0 -239.5 60.5t-170 164t-101.5 243t-34 296.5q0 158 34 297.5t101.5 242.5t170 163.5t239.5 60.5q135 0 237.5 -60.5t171 -163.5t102.5 -242.5t34 -297.5zM1032 741q0 129 -24 240t-71 191.5
t-117.5 128t-162.5 47.5t-163 -47.5t-119 -128t-71.5 -191.5t-23.5 -240t23.5 -239.5t71.5 -191.5t119 -128t163 -47t162.5 47t117.5 128t71 191.5t24 239.5zM833 1723l179 266q49 47 109 47q62 0 84 -71l-245 -242h-127zM585 1787q35 33 74 33q37 0 71 -33l190 -183
l-74 -61l-1 1l-189 144l-187 -146l-1 -1l-74 62z" />
    <glyph glyph-name="uni1ED4" unicode="&#x1ed4;" 
d="M1202 741q0 -157 -34 -296.5t-102.5 -243t-171 -164t-237.5 -60.5q-137 0 -239.5 60.5t-170 164t-101.5 243t-34 296.5q0 158 34 297.5t101.5 242.5t170 163.5t239.5 60.5q135 0 237.5 -60.5t171 -163.5t102.5 -242.5t34 -297.5zM1032 741q0 129 -24 240t-71 191.5
t-117.5 128t-162.5 47.5t-163 -47.5t-119 -128t-71.5 -191.5t-23.5 -240t23.5 -239.5t71.5 -191.5t119 -128t163 -47t162.5 47t117.5 128t71 191.5t24 239.5zM745 2079q42 28 127 37q191 0 191 -156q0 -58 -51 -107q-37 -36 -88 -49l-10 -73l-86 -1l-6 118q68 24 96 57
q27 22 27 53q0 64 -79 64q-41 0 -94 -22zM585 1787q35 33 74 33q37 0 71 -33l190 -183l-74 -61l-1 1l-189 144l-187 -146l-1 -1l-74 62z" />
    <glyph glyph-name="uni1ED6" unicode="&#x1ed6;" 
d="M1202 741q0 -157 -34 -296.5t-102.5 -243t-171 -164t-237.5 -60.5q-137 0 -239.5 60.5t-170 164t-101.5 243t-34 296.5q0 158 34 297.5t101.5 242.5t170 163.5t239.5 60.5q135 0 237.5 -60.5t171 -163.5t102.5 -242.5t34 -297.5zM1032 741q0 129 -24 240t-71 191.5
t-117.5 128t-162.5 47.5t-163 -47.5t-119 -128t-71.5 -191.5t-23.5 -240t23.5 -239.5t71.5 -191.5t119 -128t163 -47t162.5 47t117.5 128t71 191.5t24 239.5zM1000 1974q-43 -172 -163 -172q-49 -1 -117 55q-59 50 -90 50q-73 -2 -117 -89l-61 34q38 172 169 172
q55 0 122 -60q64 -49 95 -49q65 6 97 89zM585 1787q35 33 74 33q37 0 71 -33l190 -183l-74 -61l-1 1l-189 144l-187 -146l-1 -1l-74 62z" />
    <glyph glyph-name="uni1ED8" unicode="&#x1ed8;" 
d="M1202 741q0 -157 -34 -296.5t-102.5 -243t-171 -164t-237.5 -60.5q-137 0 -239.5 60.5t-170 164t-101.5 243t-34 296.5q0 158 34 297.5t101.5 242.5t170 163.5t239.5 60.5q135 0 237.5 -60.5t171 -163.5t102.5 -242.5t34 -297.5zM1032 741q0 129 -24 240t-71 191.5
t-117.5 128t-162.5 47.5t-163 -47.5t-119 -128t-71.5 -191.5t-23.5 -240t23.5 -239.5t71.5 -191.5t119 -128t163 -47t162.5 47t117.5 128t71 191.5t24 239.5zM751 -162q0 -39 -27.5 -66.5t-66.5 -27.5t-66.5 27.5t-27.5 66.5t27.5 66.5t66.5 27.5t66.5 -27.5t27.5 -66.5z
M585 1787q35 33 74 33q37 0 71 -33l190 -183l-74 -61l-1 1l-189 144l-187 -146l-1 -1l-74 62z" />
    <glyph glyph-name="Ugrave" unicode="&#xd9;" horiz-adv-x="1234" 
d="M1079 424q0 -105 -36 -187.5t-98.5 -139t-146.5 -87t-182 -30.5q-96 0 -180 30.5t-146.5 87t-98.5 139t-36 187.5v1059h170v-1059q0 -68 22.5 -122t62.5 -92t93 -57.5t113 -19.5q61 0 114.5 19.5t93.5 57.5t62.5 92t22.5 122v1059h170v-1059v0zM609 1554l-245 242
q22 71 84 71q60 0 109 -47l179 -266h-127z" />
    <glyph glyph-name="Uacute" unicode="&#xda;" horiz-adv-x="1234" 
d="M1079 424q0 -105 -36 -187.5t-98.5 -139t-146.5 -87t-182 -30.5q-96 0 -180 30.5t-146.5 87t-98.5 139t-36 187.5v1059h170v-1059q0 -68 22.5 -122t62.5 -92t93 -57.5t113 -19.5q61 0 114.5 19.5t93.5 57.5t62.5 92t22.5 122v1059h170v-1059v0zM532 1554l179 266
q49 47 109 47q62 0 84 -71l-245 -242h-127z" />
    <glyph glyph-name="uni1EE6" unicode="&#x1ee6;" horiz-adv-x="1234" 
d="M1079 424q0 -105 -36 -187.5t-98.5 -139t-146.5 -87t-182 -30.5q-96 0 -180 30.5t-146.5 87t-98.5 139t-36 187.5v1059h170v-1059q0 -68 22.5 -122t62.5 -92t93 -57.5t113 -19.5q61 0 114.5 19.5t93.5 57.5t62.5 92t22.5 122v1059h170v-1059v0zM480 1903q42 28 127 37
q191 0 191 -156q0 -58 -51 -107q-37 -36 -88 -49l-10 -73l-86 -1l-6 118q68 24 96 57q27 22 27 53q0 64 -79 64q-41 0 -94 -22z" />
    <glyph glyph-name="Utilde" unicode="&#x168;" horiz-adv-x="1234" 
d="M1079 424q0 -105 -36 -187.5t-98.5 -139t-146.5 -87t-182 -30.5q-96 0 -180 30.5t-146.5 87t-98.5 139t-36 187.5v1059h170v-1059q0 -68 22.5 -122t62.5 -92t93 -57.5t113 -19.5q61 0 114.5 19.5t93.5 57.5t62.5 92t22.5 122v1059h170v-1059v0zM898 1725
q-44 -172 -163 -172q-50 -1 -117 55q-60 50 -91 50q-72 -2 -116 -89l-61 34q37 172 168 172q56 0 122 -60q64 -49 96 -49q65 6 96 89z" />
    <glyph glyph-name="uni1EE4" unicode="&#x1ee4;" horiz-adv-x="1234" 
d="M1079 424q0 -105 -36 -187.5t-98.5 -139t-146.5 -87t-182 -30.5q-96 0 -180 30.5t-146.5 87t-98.5 139t-36 187.5v1059h170v-1059q0 -68 22.5 -122t62.5 -92t93 -57.5t113 -19.5q61 0 114.5 19.5t93.5 57.5t62.5 92t22.5 122v1059h170v-1059v0zM711 -162
q0 -39 -27.5 -66.5t-66.5 -27.5t-66.5 27.5t-27.5 66.5t27.5 66.5t66.5 27.5t66.5 -27.5t27.5 -66.5z" />
    <glyph glyph-name="Uhorn" unicode="&#x1af;" horiz-adv-x="1234" 
d="M1079 1342v-918q0 -105 -36 -187.5t-98.5 -139t-146.5 -87t-182 -30.5q-96 0 -180 30.5t-146.5 87t-98.5 139t-36 187.5v1059h170v-1059q0 -68 22.5 -122t62.5 -92t93 -57.5t113 -19.5q61 0 114.5 19.5t93.5 57.5t62.5 92t22.5 122v1059h132l29 66q33 35 104 39
q61 1 79 -42z" />
    <glyph glyph-name="uni1EEA" unicode="&#x1eea;" horiz-adv-x="1234" 
d="M608 1554l-245 242q22 71 84 71q60 0 109 -47l179 -266h-127zM1078 1341v-917q0 -105 -35.5 -187.5t-98 -139t-146.5 -87t-183 -30.5q-96 0 -180 30.5t-146.5 87t-98 139t-35.5 187.5v1059h170v-1059q0 -68 22.5 -122t62.5 -92t93 -57.5t112 -19.5q62 0 115 19.5t93 57.5
t62.5 92t22.5 122v1059h133l29 66q33 35 104 39q61 1 78 -42z" />
    <glyph glyph-name="uni1EE8" unicode="&#x1ee8;" horiz-adv-x="1234" 
d="M531 1554l179 266q49 47 109 47q62 0 84 -71l-245 -242h-127zM1078 1341v-917q0 -105 -35.5 -187.5t-98 -139t-146.5 -87t-183 -30.5q-96 0 -180 30.5t-146.5 87t-98 139t-35.5 187.5v1059h170v-1059q0 -68 22.5 -122t62.5 -92t93 -57.5t112 -19.5q62 0 115 19.5t93 57.5
t62.5 92t22.5 122v1059h133l29 66q33 35 104 39q61 1 78 -42z" />
    <glyph glyph-name="uni1EEC" unicode="&#x1eec;" horiz-adv-x="1234" 
d="M479 1903q42 28 127 37q191 0 191 -156q0 -58 -51 -107q-37 -36 -88 -49l-10 -73l-86 -1l-6 118q68 24 96 57q27 22 27 53q0 64 -79 64q-41 0 -94 -22zM1078 1341v-917q0 -105 -35.5 -187.5t-98 -139t-146.5 -87t-183 -30.5q-96 0 -180 30.5t-146.5 87t-98 139
t-35.5 187.5v1059h170v-1059q0 -68 22.5 -122t62.5 -92t93 -57.5t112 -19.5q62 0 115 19.5t93 57.5t62.5 92t22.5 122v1059h133l29 66q33 35 104 39q61 1 78 -42z" />
    <glyph glyph-name="uni1EEE" unicode="&#x1eee;" horiz-adv-x="1234" 
d="M897 1725q-43 -172 -163 -172q-49 -1 -117 55q-59 50 -90 50q-73 -2 -117 -89l-61 34q38 172 169 172q55 0 122 -60q64 -49 95 -49q65 6 97 89zM1078 1341v-917q0 -105 -35.5 -187.5t-98 -139t-146.5 -87t-183 -30.5q-96 0 -180 30.5t-146.5 87t-98 139t-35.5 187.5v1059
h170v-1059q0 -68 22.5 -122t62.5 -92t93 -57.5t112 -19.5q62 0 115 19.5t93 57.5t62.5 92t22.5 122v1059h133l29 66q33 35 104 39q61 1 78 -42z" />
    <glyph glyph-name="uni1EF0" unicode="&#x1ef0;" horiz-adv-x="1234" 
d="M711 -162q0 -39 -28 -66.5t-67 -27.5q-38 0 -66 27.5t-28 66.5t28 66.5t66 27.5q39 0 67 -27.5t28 -66.5zM1078 1341v-917q0 -105 -35.5 -187.5t-98 -139t-146.5 -87t-183 -30.5q-96 0 -180 30.5t-146.5 87t-98 139t-35.5 187.5v1059h170v-1059q0 -68 22.5 -122t62.5 -92
t93 -57.5t112 -19.5q62 0 115 19.5t93 57.5t62.5 92t22.5 122v1059h133l29 66q33 35 104 39q61 1 78 -42z" />
    <glyph glyph-name="Ohorn" unicode="&#x1a0;" 
d="M1032 741q0 129 -24 240t-71 191.5t-117.5 128t-162.5 47.5t-163 -47.5t-119 -128t-71.5 -191.5t-23.5 -240t23.5 -239.5t71.5 -191.5t119 -128t163 -47t162.5 47t117.5 128t71 191.5t24 239.5zM1029 1330q19 -23 37 -49q68 -103 102 -242.5t34 -297.5q0 -157 -34 -296.5
t-102.5 -243t-171 -164t-237.5 -60.5q-137 0 -239.5 60.5t-170 164t-101.5 243t-34 296.5q0 158 34 297.5t101.5 242.5t170 163.5t239.5 60.5q135 0 238 -60q36 -22 68 -49l68 153q33 35 104 39q61 1 78 -42z" />
    <glyph glyph-name="uni1EDC" unicode="&#x1edc;" 
d="M1032 741q0 129 -24 240t-71 191.5t-117.5 128t-162.5 47.5t-163 -47.5t-119 -128t-71.5 -191.5t-23.5 -240t23.5 -239.5t71.5 -191.5t119 -128t163 -47t162.5 47t117.5 128t71 191.5t24 239.5zM653 1554l-245 242q22 71 84 71q60 0 109 -47l179 -266h-127zM1029 1330
q19 -23 37 -49q68 -103 102 -242.5t34 -297.5q0 -157 -34 -296.5t-102.5 -243t-171 -164t-237.5 -60.5q-137 0 -239.5 60.5t-170 164t-101.5 243t-34 296.5q0 158 34 297.5t101.5 242.5t170 163.5t239.5 60.5q135 0 238 -60q36 -22 68 -49l68 153q33 35 104 39q61 1 78 -42z
" />
    <glyph glyph-name="uni1EDA" unicode="&#x1eda;" 
d="M1032 741q0 129 -24 240t-71 191.5t-117.5 128t-162.5 47.5t-163 -47.5t-119 -128t-71.5 -191.5t-23.5 -240t23.5 -239.5t71.5 -191.5t119 -128t163 -47t162.5 47t117.5 128t71 191.5t24 239.5zM540 1554l179 266q49 47 109 47q62 0 84 -71l-245 -242h-127zM1029 1330
q19 -23 37 -49q68 -103 102 -242.5t34 -297.5q0 -157 -34 -296.5t-102.5 -243t-171 -164t-237.5 -60.5q-137 0 -239.5 60.5t-170 164t-101.5 243t-34 296.5q0 158 34 297.5t101.5 242.5t170 163.5t239.5 60.5q135 0 238 -60q36 -22 68 -49l68 153q33 35 104 39q61 1 78 -42z
" />
    <glyph glyph-name="uni1EDE" unicode="&#x1ede;" 
d="M1032 741q0 129 -24 240t-71 191.5t-117.5 128t-162.5 47.5t-163 -47.5t-119 -128t-71.5 -191.5t-23.5 -240t23.5 -239.5t71.5 -191.5t119 -128t163 -47t162.5 47t117.5 128t71 191.5t24 239.5zM533 1903q42 28 127 37q191 0 191 -156q0 -58 -51 -107q-37 -36 -88 -49
l-10 -73l-86 -1l-6 118q68 24 96 57q27 22 27 53q0 64 -79 64q-41 0 -94 -22zM1029 1330q19 -23 37 -49q68 -103 102 -242.5t34 -297.5q0 -157 -34 -296.5t-102.5 -243t-171 -164t-237.5 -60.5q-137 0 -239.5 60.5t-170 164t-101.5 243t-34 296.5q0 158 34 297.5
t101.5 242.5t170 163.5t239.5 60.5q135 0 238 -60q36 -22 68 -49l68 153q33 35 104 39q61 1 78 -42z" />
    <glyph glyph-name="uni1EE0" unicode="&#x1ee0;" 
d="M1032 741q0 129 -24 240t-71 191.5t-117.5 128t-162.5 47.5t-163 -47.5t-119 -128t-71.5 -191.5t-23.5 -240t23.5 -239.5t71.5 -191.5t119 -128t163 -47t162.5 47t117.5 128t71 191.5t24 239.5zM951 1725q-43 -172 -163 -172q-49 -1 -117 55q-59 50 -90 50
q-73 -2 -117 -89l-61 34q38 172 169 172q55 0 122 -60q64 -49 95 -49q65 6 97 89zM1029 1330q19 -23 37 -49q68 -103 102 -242.5t34 -297.5q0 -157 -34 -296.5t-102.5 -243t-171 -164t-237.5 -60.5q-137 0 -239.5 60.5t-170 164t-101.5 243t-34 296.5q0 158 34 297.5
t101.5 242.5t170 163.5t239.5 60.5q135 0 238 -60q36 -22 68 -49l68 153q33 35 104 39q61 1 78 -42z" />
    <glyph glyph-name="uni1EE2" unicode="&#x1ee2;" 
d="M1032 741q0 129 -24 240t-71 191.5t-117.5 128t-162.5 47.5t-163 -47.5t-119 -128t-71.5 -191.5t-23.5 -240t23.5 -239.5t71.5 -191.5t119 -128t163 -47t162.5 47t117.5 128t71 191.5t24 239.5zM751 -162q0 -39 -27.5 -66.5t-66.5 -27.5t-66.5 27.5t-27.5 66.5t27.5 66.5
t66.5 27.5t66.5 -27.5t27.5 -66.5zM1029 1330q19 -23 37 -49q68 -103 102 -242.5t34 -297.5q0 -157 -34 -296.5t-102.5 -243t-171 -164t-237.5 -60.5q-137 0 -239.5 60.5t-170 164t-101.5 243t-34 296.5q0 158 34 297.5t101.5 242.5t170 163.5t239.5 60.5q135 0 238 -60
q36 -22 68 -49l68 153q33 35 104 39q61 1 78 -42z" />
    <glyph glyph-name="Ygrave" unicode="&#x1ef2;" horiz-adv-x="1165" 
d="M668 594v-594h-170v594l-453 889h184l353 -711h4l350 711h184zM609 1554l-245 242q22 71 84 71q60 0 109 -47l179 -266h-127z" />
    <glyph glyph-name="Yacute" unicode="&#xdd;" horiz-adv-x="1165" 
d="M668 594v-594h-170v594l-453 889h184l353 -711h4l350 711h184zM532 1554l179 266q49 47 109 47q62 0 84 -71l-245 -242h-127z" />
    <glyph glyph-name="uni1EF6" unicode="&#x1ef6;" horiz-adv-x="1165" 
d="M668 594v-594h-170v594l-453 889h184l353 -711h4l350 711h184zM471 1903q42 28 127 37q191 0 191 -156q0 -58 -51 -107q-37 -36 -88 -49l-10 -73l-86 -1l-6 118q68 24 96 57q27 22 27 53q0 64 -79 64q-41 0 -94 -22z" />
    <glyph glyph-name="uni1EF8" unicode="&#x1ef8;" horiz-adv-x="1165" 
d="M668 594v-594h-170v594l-453 889h184l353 -711h4l350 711h184zM898 1725q-44 -172 -163 -172q-49 -1 -117 55q-59 50 -90 50q-73 -2 -117 -89l-61 34q37 172 169 172q55 0 122 -60q64 -49 95 -49q65 6 97 89z" />
    <glyph glyph-name="uni1EF4" unicode="&#x1ef4;" horiz-adv-x="1165" 
d="M668 594v-594h-170v594l-453 889h184l353 -711h4l350 711h184zM677 -162q0 -39 -28 -66.5t-67 -27.5q-38 0 -66 27.5t-28 66.5t28 66.5t66 27.5q39 0 67 -27.5t28 -66.5z" />
    <glyph glyph-name="agrave" unicode="&#xe0;" horiz-adv-x="1038" 
d="M895 55q-29 -16 -70 -30.5t-90 -24.5t-102.5 -16.5t-104.5 -6.5q-219 0 -327.5 90.5t-108.5 247.5q0 119 56.5 191t147.5 111.5t206.5 56t236.5 22.5v84q0 123 -70.5 169t-181.5 46q-73 0 -154 -20.5t-135 -46.5l-43 121q60 28 153 52.5t194 24.5q88 0 160.5 -19.5
t125 -62.5t80 -111.5t27.5 -166.5v-711zM739 578q-88 -7 -176 -15t-157.5 -33.5t-113.5 -74.5t-44 -136q0 -98 68.5 -155.5t207.5 -57.5q62 0 124 10.5t91 24.5v437zM538 1202l-245 242q22 71 84 71q60 0 109 -47l179 -266h-127z" />
    <glyph glyph-name="aacute" unicode="&#xe1;" horiz-adv-x="1038" 
d="M895 55q-29 -16 -70 -30.5t-90 -24.5t-102.5 -16.5t-104.5 -6.5q-219 0 -327.5 90.5t-108.5 247.5q0 119 56.5 191t147.5 111.5t206.5 56t236.5 22.5v84q0 123 -70.5 169t-181.5 46q-73 0 -154 -20.5t-135 -46.5l-43 121q60 28 153 52.5t194 24.5q88 0 160.5 -19.5
t125 -62.5t80 -111.5t27.5 -166.5v-711zM739 578q-88 -7 -176 -15t-157.5 -33.5t-113.5 -74.5t-44 -136q0 -98 68.5 -155.5t207.5 -57.5q62 0 124 10.5t91 24.5v437zM372 1202l179 266q49 47 109 47q62 0 84 -71l-245 -242h-127z" />
    <glyph glyph-name="uni1EA3" unicode="&#x1ea3;" horiz-adv-x="1038" 
d="M895 55q-29 -16 -70 -30.5t-90 -24.5t-102.5 -16.5t-104.5 -6.5q-219 0 -327.5 90.5t-108.5 247.5q0 119 56.5 191t147.5 111.5t206.5 56t236.5 22.5v84q0 123 -70.5 169t-181.5 46q-73 0 -154 -20.5t-135 -46.5l-43 121q60 28 153 52.5t194 24.5q88 0 160.5 -19.5
t125 -62.5t80 -111.5t27.5 -166.5v-711zM739 578q-88 -7 -176 -15t-157.5 -33.5t-113.5 -74.5t-44 -136q0 -98 68.5 -155.5t207.5 -57.5q62 0 124 10.5t91 24.5v437zM375 1533q42 28 127 37q191 0 191 -156q0 -58 -51 -107q-37 -36 -88 -49l-10 -73l-86 -1l-6 118
q68 24 96 57q27 22 27 53q0 64 -79 64q-41 0 -94 -22z" />
    <glyph glyph-name="atilde" unicode="&#xe3;" horiz-adv-x="1038" 
d="M895 55q-29 -16 -70 -30.5t-90 -24.5t-102.5 -16.5t-104.5 -6.5q-219 0 -327.5 90.5t-108.5 247.5q0 119 56.5 191t147.5 111.5t206.5 56t236.5 22.5v84q0 123 -70.5 169t-181.5 46q-73 0 -154 -20.5t-135 -46.5l-43 121q60 28 153 52.5t194 24.5q88 0 160.5 -19.5
t125 -62.5t80 -111.5t27.5 -166.5v-711zM739 578q-88 -7 -176 -15t-157.5 -33.5t-113.5 -74.5t-44 -136q0 -98 68.5 -155.5t207.5 -57.5q62 0 124 10.5t91 24.5v437zM792 1364q-44 -172 -163 -172q-49 -1 -117 55q-59 50 -91 50q-72 -2 -116 -89l-61 34q37 172 169 172
q55 0 122 -60q64 -49 95 -49q65 6 96 89z" />
    <glyph glyph-name="uni1EA1" unicode="&#x1ea1;" horiz-adv-x="1038" 
d="M895 55q-29 -16 -70 -30.5t-90 -24.5t-102.5 -16.5t-104.5 -6.5q-219 0 -327.5 90.5t-108.5 247.5q0 119 56.5 191t147.5 111.5t206.5 56t236.5 22.5v84q0 123 -70.5 169t-181.5 46q-73 0 -154 -20.5t-135 -46.5l-43 121q60 28 153 52.5t194 24.5q88 0 160.5 -19.5
t125 -62.5t80 -111.5t27.5 -166.5v-711zM739 578q-88 -7 -176 -15t-157.5 -33.5t-113.5 -74.5t-44 -136q0 -98 68.5 -155.5t207.5 -57.5q62 0 124 10.5t91 24.5v437zM600 -162q0 -39 -27.5 -66.5t-66.5 -27.5t-67 27.5t-28 66.5t28 66.5t67 27.5t66.5 -27.5t27.5 -66.5z" />
    <glyph glyph-name="acircumflex" unicode="&#xe2;" horiz-adv-x="1038" 
d="M895 55q-29 -16 -70 -30.5t-90 -24.5t-102.5 -16.5t-104.5 -6.5q-219 0 -327.5 90.5t-108.5 247.5q0 119 56.5 191t147.5 111.5t206.5 56t236.5 22.5v84q0 123 -70.5 169t-181.5 46q-73 0 -154 -20.5t-135 -46.5l-43 121q60 28 153 52.5t194 24.5q88 0 160.5 -19.5
t125 -62.5t80 -111.5t27.5 -166.5v-711zM739 578q-88 -7 -176 -15t-157.5 -33.5t-113.5 -74.5t-44 -136q0 -98 68.5 -155.5t207.5 -57.5q62 0 124 10.5t91 24.5v437zM421 1408q35 33 74 33q37 0 71 -33l190 -183l-74 -61l-1 1l-189 144l-187 -146l-1 -1l-74 62z" />
    <glyph glyph-name="uni1EA7" unicode="&#x1ea7;" horiz-adv-x="1038" 
d="M895 55q-29 -16 -70 -30.5t-90 -24.5t-102.5 -16.5t-104.5 -6.5q-219 0 -327.5 90.5t-108.5 247.5q0 119 56.5 191t147.5 111.5t206.5 56t236.5 22.5v84q0 123 -70.5 169t-181.5 46q-73 0 -154 -20.5t-135 -46.5l-43 121q60 28 153 52.5t194 24.5q88 0 160.5 -19.5
t125 -62.5t80 -111.5t27.5 -166.5v-711zM739 578q-88 -7 -176 -15t-157.5 -33.5t-113.5 -74.5t-44 -136q0 -98 68.5 -155.5t207.5 -57.5q62 0 124 10.5t91 24.5v437zM698 1350l-245 242q22 71 84 71q60 0 109 -47l179 -266h-127zM421 1408q35 33 74 33q37 0 71 -33l190 -183
l-74 -61l-1 1l-189 144l-187 -146l-1 -1l-74 62z" />
    <glyph glyph-name="uni1EA5" unicode="&#x1ea5;" horiz-adv-x="1038" 
d="M895 55q-29 -16 -70 -30.5t-90 -24.5t-102.5 -16.5t-104.5 -6.5q-219 0 -327.5 90.5t-108.5 247.5q0 119 56.5 191t147.5 111.5t206.5 56t236.5 22.5v84q0 123 -70.5 169t-181.5 46q-73 0 -154 -20.5t-135 -46.5l-43 121q60 28 153 52.5t194 24.5q88 0 160.5 -19.5
t125 -62.5t80 -111.5t27.5 -166.5v-711zM739 578q-88 -7 -176 -15t-157.5 -33.5t-113.5 -74.5t-44 -136q0 -98 68.5 -155.5t207.5 -57.5q62 0 124 10.5t91 24.5v437zM649 1359l179 266q49 47 109 47q62 0 84 -71l-245 -242h-127zM421 1408q35 33 74 33q37 0 71 -33l190 -183
l-74 -61l-1 1l-189 144l-187 -146l-1 -1l-74 62z" />
    <glyph glyph-name="uni1EA9" unicode="&#x1ea9;" horiz-adv-x="1038" 
d="M895 55q-29 -16 -70 -30.5t-90 -24.5t-102.5 -16.5t-104.5 -6.5q-219 0 -327.5 90.5t-108.5 247.5q0 119 56.5 191t147.5 111.5t206.5 56t236.5 22.5v84q0 123 -70.5 169t-181.5 46q-73 0 -154 -20.5t-135 -46.5l-43 121q60 28 153 52.5t194 24.5q88 0 160.5 -19.5
t125 -62.5t80 -111.5t27.5 -166.5v-711zM739 578q-88 -7 -176 -15t-157.5 -33.5t-113.5 -74.5t-44 -136q0 -98 68.5 -155.5t207.5 -57.5q62 0 124 10.5t91 24.5v437zM589 1687q42 28 127 37q191 0 191 -156q0 -58 -51 -107q-37 -36 -88 -49l-10 -73l-86 -1l-6 118
q68 24 96 57q27 22 27 53q0 64 -79 64q-41 0 -94 -22zM421 1408q35 33 74 33q37 0 71 -33l190 -183l-74 -61l-1 1l-189 144l-187 -146l-1 -1l-74 62z" />
    <glyph glyph-name="uni1EAB" unicode="&#x1eab;" horiz-adv-x="1038" 
d="M895 55q-29 -16 -70 -30.5t-90 -24.5t-102.5 -16.5t-104.5 -6.5q-219 0 -327.5 90.5t-108.5 247.5q0 119 56.5 191t147.5 111.5t206.5 56t236.5 22.5v84q0 123 -70.5 169t-181.5 46q-73 0 -154 -20.5t-135 -46.5l-43 121q60 28 153 52.5t194 24.5q88 0 160.5 -19.5
t125 -62.5t80 -111.5t27.5 -166.5v-711zM739 578q-88 -7 -176 -15t-157.5 -33.5t-113.5 -74.5t-44 -136q0 -98 68.5 -155.5t207.5 -57.5q62 0 124 10.5t91 24.5v437zM852 1611q-44 -172 -163 -172q-49 -1 -117 55q-59 50 -91 50q-72 -2 -116 -89l-61 34q37 172 169 172
q55 0 122 -60q64 -49 95 -49q65 6 96 89zM421 1408q35 33 74 33q37 0 71 -33l190 -183l-74 -61l-1 1l-189 144l-187 -146l-1 -1l-74 62z" />
    <glyph glyph-name="uni1EAD" unicode="&#x1ead;" horiz-adv-x="1038" 
d="M895 55q-29 -16 -70 -30.5t-90 -24.5t-102.5 -16.5t-104.5 -6.5q-219 0 -327.5 90.5t-108.5 247.5q0 119 56.5 191t147.5 111.5t206.5 56t236.5 22.5v84q0 123 -70.5 169t-181.5 46q-73 0 -154 -20.5t-135 -46.5l-43 121q60 28 153 52.5t194 24.5q88 0 160.5 -19.5
t125 -62.5t80 -111.5t27.5 -166.5v-711zM739 578q-88 -7 -176 -15t-157.5 -33.5t-113.5 -74.5t-44 -136q0 -98 68.5 -155.5t207.5 -57.5q62 0 124 10.5t91 24.5v437zM600 -162q0 -39 -27.5 -66.5t-66.5 -27.5t-67 27.5t-28 66.5t28 66.5t67 27.5t66.5 -27.5t27.5 -66.5z
M421 1408q35 33 74 33q37 0 71 -33l190 -183l-74 -61l-1 1l-189 144l-187 -146l-1 -1l-74 62z" />
    <glyph glyph-name="abreve" unicode="&#x103;" horiz-adv-x="1038" 
d="M895 55q-29 -16 -70 -30.5t-90 -24.5t-102.5 -16.5t-104.5 -6.5q-219 0 -327.5 90.5t-108.5 247.5q0 119 56.5 191t147.5 111.5t206.5 56t236.5 22.5v84q0 123 -70.5 169t-181.5 46q-73 0 -154 -20.5t-135 -46.5l-43 121q60 28 153 52.5t194 24.5q88 0 160.5 -19.5
t125 -62.5t80 -111.5t27.5 -166.5v-711zM739 578q-88 -7 -176 -15t-157.5 -33.5t-113.5 -74.5t-44 -136q0 -98 68.5 -155.5t207.5 -57.5q62 0 124 10.5t91 24.5v437zM509 1293q113 0 154 108l112 -26q-45 -192 -266 -192t-268 189l114 26q42 -105 154 -105z" />
    <glyph glyph-name="uni1EB1" unicode="&#x1eb1;" horiz-adv-x="1038" 
d="M895 55q-29 -16 -70 -30.5t-90 -24.5t-102.5 -16.5t-104.5 -6.5q-219 0 -327.5 90.5t-108.5 247.5q0 119 56.5 191t147.5 111.5t206.5 56t236.5 22.5v84q0 123 -70.5 169t-181.5 46q-73 0 -154 -20.5t-135 -46.5l-43 121q60 28 153 52.5t194 24.5q88 0 160.5 -19.5
t125 -62.5t80 -111.5t27.5 -166.5v-711zM739 578q-88 -7 -176 -15t-157.5 -33.5t-113.5 -74.5t-44 -136q0 -98 68.5 -155.5t207.5 -57.5q62 0 124 10.5t91 24.5v437zM487 1385l-245 242q22 71 84 71q60 0 109 -47l179 -266h-127zM509 1293q113 0 154 108l112 -26
q-45 -192 -266 -192t-268 189l114 26q42 -105 154 -105z" />
    <glyph glyph-name="uni1EAF" unicode="&#x1eaf;" horiz-adv-x="1038" 
d="M895 55q-29 -16 -70 -30.5t-90 -24.5t-102.5 -16.5t-104.5 -6.5q-219 0 -327.5 90.5t-108.5 247.5q0 119 56.5 191t147.5 111.5t206.5 56t236.5 22.5v84q0 123 -70.5 169t-181.5 46q-73 0 -154 -20.5t-135 -46.5l-43 121q60 28 153 52.5t194 24.5q88 0 160.5 -19.5
t125 -62.5t80 -111.5t27.5 -166.5v-711zM739 578q-88 -7 -176 -15t-157.5 -33.5t-113.5 -74.5t-44 -136q0 -98 68.5 -155.5t207.5 -57.5q62 0 124 10.5t91 24.5v437zM428 1378l179 266q49 47 109 47q62 0 84 -71l-245 -242h-127zM509 1293q113 0 154 108l112 -26
q-45 -192 -266 -192t-268 189l114 26q42 -105 154 -105z" />
    <glyph glyph-name="uni1EB3" unicode="&#x1eb3;" horiz-adv-x="1038" 
d="M895 55q-29 -16 -70 -30.5t-90 -24.5t-102.5 -16.5t-104.5 -6.5q-219 0 -327.5 90.5t-108.5 247.5q0 119 56.5 191t147.5 111.5t206.5 56t236.5 22.5v84q0 123 -70.5 169t-181.5 46q-73 0 -154 -20.5t-135 -46.5l-43 121q60 28 153 52.5t194 24.5q88 0 160.5 -19.5
t125 -62.5t80 -111.5t27.5 -166.5v-711zM739 578q-88 -7 -176 -15t-157.5 -33.5t-113.5 -74.5t-44 -136q0 -98 68.5 -155.5t207.5 -57.5q62 0 124 10.5t91 24.5v437zM395 1713q42 28 127 37q191 0 191 -156q0 -58 -51 -107q-37 -36 -88 -49l-10 -73l-86 -1l-6 118
q68 24 96 57q27 22 27 53q0 64 -79 64q-41 0 -94 -22zM509 1293q113 0 154 108l112 -26q-45 -192 -266 -192t-268 189l114 26q42 -105 154 -105z" />
    <glyph glyph-name="uni1EB5" unicode="&#x1eb5;" horiz-adv-x="1038" 
d="M895 55q-29 -16 -70 -30.5t-90 -24.5t-102.5 -16.5t-104.5 -6.5q-219 0 -327.5 90.5t-108.5 247.5q0 119 56.5 191t147.5 111.5t206.5 56t236.5 22.5v84q0 123 -70.5 169t-181.5 46q-73 0 -154 -20.5t-135 -46.5l-43 121q60 28 153 52.5t194 24.5q88 0 160.5 -19.5
t125 -62.5t80 -111.5t27.5 -166.5v-711zM739 578q-88 -7 -176 -15t-157.5 -33.5t-113.5 -74.5t-44 -136q0 -98 68.5 -155.5t207.5 -57.5q62 0 124 10.5t91 24.5v437zM852 1611q-44 -172 -163 -172q-49 -1 -117 55q-59 50 -91 50q-72 -2 -116 -89l-61 34q37 172 169 172
q55 0 122 -60q64 -49 95 -49q65 6 96 89zM509 1293q113 0 154 108l112 -26q-45 -192 -266 -192t-268 189l114 26q42 -105 154 -105z" />
    <glyph glyph-name="uni1EB7" unicode="&#x1eb7;" horiz-adv-x="1038" 
d="M895 55q-29 -16 -70 -30.5t-90 -24.5t-102.5 -16.5t-104.5 -6.5q-219 0 -327.5 90.5t-108.5 247.5q0 119 56.5 191t147.5 111.5t206.5 56t236.5 22.5v84q0 123 -70.5 169t-181.5 46q-73 0 -154 -20.5t-135 -46.5l-43 121q60 28 153 52.5t194 24.5q88 0 160.5 -19.5
t125 -62.5t80 -111.5t27.5 -166.5v-711zM739 578q-88 -7 -176 -15t-157.5 -33.5t-113.5 -74.5t-44 -136q0 -98 68.5 -155.5t207.5 -57.5q62 0 124 10.5t91 24.5v437zM600 -162q0 -39 -27.5 -66.5t-66.5 -27.5t-67 27.5t-28 66.5t28 66.5t67 27.5t66.5 -27.5t27.5 -66.5z
M509 1293q113 0 154 108l112 -26q-45 -192 -266 -192t-268 189l114 26q42 -105 154 -105z" />
    <glyph glyph-name="egrave" unicode="&#xe8;" horiz-adv-x="1093" 
d="M989 653v-34.5t-2 -38.5l-723 -109q12 -178 107 -266t247 -88q80 0 159 18.5t132 48.5l49 -129q-57 -35 -149.5 -56.5t-196.5 -21.5q-240 0 -374 151t-134 425q0 127 31.5 232.5t91 181t144.5 117.5t194 42q198 0 311 -124.5t113 -348.5zM831 676q-2 164 -74.5 241.5
t-191.5 77.5q-142 0 -224.5 -108.5t-86.5 -296.5zM556 1202l-245 242q22 71 84 71q60 0 109 -47l179 -266h-127z" />
    <glyph glyph-name="eacute" unicode="&#xe9;" horiz-adv-x="1093" 
d="M989 653v-34.5t-2 -38.5l-723 -109q12 -178 107 -266t247 -88q80 0 159 18.5t132 48.5l49 -129q-57 -35 -149.5 -56.5t-196.5 -21.5q-240 0 -374 151t-134 425q0 127 31.5 232.5t91 181t144.5 117.5t194 42q198 0 311 -124.5t113 -348.5zM831 676q-2 164 -74.5 241.5
t-191.5 77.5q-142 0 -224.5 -108.5t-86.5 -296.5zM416 1202l179 266q49 47 109 47q62 0 84 -71l-245 -242h-127z" />
    <glyph glyph-name="uni1EBB" unicode="&#x1ebb;" horiz-adv-x="1093" 
d="M989 653v-34.5t-2 -38.5l-723 -109q12 -178 107 -266t247 -88q80 0 159 18.5t132 48.5l49 -129q-57 -35 -149.5 -56.5t-196.5 -21.5q-240 0 -374 151t-134 425q0 127 31.5 232.5t91 181t144.5 117.5t194 42q198 0 311 -124.5t113 -348.5zM831 676q-2 164 -74.5 241.5
t-191.5 77.5q-142 0 -224.5 -108.5t-86.5 -296.5zM419 1533q42 28 127 37q191 0 191 -156q0 -58 -51 -107q-37 -36 -88 -49l-10 -73l-86 -1l-6 118q68 24 96 57q27 22 27 53q0 64 -79 64q-41 0 -94 -22z" />
    <glyph glyph-name="uni1EBD" unicode="&#x1ebd;" horiz-adv-x="1093" 
d="M989 653v-34.5t-2 -38.5l-723 -109q12 -178 107 -266t247 -88q80 0 159 18.5t132 48.5l49 -129q-57 -35 -149.5 -56.5t-196.5 -21.5q-240 0 -374 151t-134 425q0 127 31.5 232.5t91 181t144.5 117.5t194 42q198 0 311 -124.5t113 -348.5zM831 676q-2 164 -74.5 241.5
t-191.5 77.5q-142 0 -224.5 -108.5t-86.5 -296.5zM863 1364q-44 -172 -163 -172q-50 -1 -117 55q-59 50 -91 50q-72 -2 -116 -89l-61 34q37 172 169 172q55 0 122 -60q63 -49 95 -49q65 6 96 89z" />
    <glyph glyph-name="uni1EB9" unicode="&#x1eb9;" horiz-adv-x="1093" 
d="M989 653v-34.5t-2 -38.5l-723 -109q12 -178 107 -266t247 -88q80 0 159 18.5t132 48.5l49 -129q-57 -35 -149.5 -56.5t-196.5 -21.5q-240 0 -374 151t-134 425q0 127 31.5 232.5t91 181t144.5 117.5t194 42q198 0 311 -124.5t113 -348.5zM831 676q-2 164 -74.5 241.5
t-191.5 77.5q-142 0 -224.5 -108.5t-86.5 -296.5zM670 -162q0 -39 -28 -66.5t-67 -27.5t-66.5 27.5t-27.5 66.5t27.5 66.5t66.5 27.5t67 -27.5t28 -66.5z" />
    <glyph glyph-name="ecircumflex" unicode="&#xea;" horiz-adv-x="1093" 
d="M989 653v-34.5t-2 -38.5l-723 -109q12 -178 107 -266t247 -88q80 0 159 18.5t132 48.5l49 -129q-57 -35 -149.5 -56.5t-196.5 -21.5q-240 0 -374 151t-134 425q0 127 31.5 232.5t91 181t144.5 117.5t194 42q198 0 311 -124.5t113 -348.5zM831 676q-2 164 -74.5 241.5
t-191.5 77.5q-142 0 -224.5 -108.5t-86.5 -296.5zM500 1408q35 33 74 33q37 0 71 -33l190 -183l-74 -61l-1 1l-189 144l-187 -146l-1 -1l-74 62z" />
    <glyph glyph-name="uni1EC1" unicode="&#x1ec1;" horiz-adv-x="1093" 
d="M989 653v-34.5t-2 -38.5l-723 -109q12 -178 107 -266t247 -88q80 0 159 18.5t132 48.5l49 -129q-57 -35 -149.5 -56.5t-196.5 -21.5q-240 0 -374 151t-134 425q0 127 31.5 232.5t91 181t144.5 117.5t194 42q198 0 311 -124.5t113 -348.5zM831 676q-2 164 -74.5 241.5
t-191.5 77.5q-142 0 -224.5 -108.5t-86.5 -296.5zM802 1336l-245 242q22 71 84 71q60 0 109 -47l179 -266h-127zM500 1408q35 33 74 33q37 0 71 -33l190 -183l-74 -61l-1 1l-189 144l-187 -146l-1 -1l-74 62z" />
    <glyph glyph-name="uni1EBF" unicode="&#x1ebf;" horiz-adv-x="1093" 
d="M989 653v-34.5t-2 -38.5l-723 -109q12 -178 107 -266t247 -88q80 0 159 18.5t132 48.5l49 -129q-57 -35 -149.5 -56.5t-196.5 -21.5q-240 0 -374 151t-134 425q0 127 31.5 232.5t91 181t144.5 117.5t194 42q198 0 311 -124.5t113 -348.5zM831 676q-2 164 -74.5 241.5
t-191.5 77.5q-142 0 -224.5 -108.5t-86.5 -296.5zM751 1352l179 266q49 47 109 47q62 0 84 -71l-245 -242h-127zM500 1408q35 33 74 33q37 0 71 -33l190 -183l-74 -61l-1 1l-189 144l-187 -146l-1 -1l-74 62z" />
    <glyph glyph-name="uni1EC3" unicode="&#x1ec3;" horiz-adv-x="1093" 
d="M989 653v-34.5t-2 -38.5l-723 -109q12 -178 107 -266t247 -88q80 0 159 18.5t132 48.5l49 -129q-57 -35 -149.5 -56.5t-196.5 -21.5q-240 0 -374 151t-134 425q0 127 31.5 232.5t91 181t144.5 117.5t194 42q198 0 311 -124.5t113 -348.5zM831 676q-2 164 -74.5 241.5
t-191.5 77.5q-142 0 -224.5 -108.5t-86.5 -296.5zM675 1692q42 28 127 37q191 0 191 -156q0 -58 -51 -107q-37 -36 -88 -49l-10 -73l-86 -1l-6 118q68 24 96 57q27 22 27 53q0 64 -79 64q-41 0 -94 -22zM500 1408q35 33 74 33q37 0 71 -33l190 -183l-74 -61l-1 1l-189 144
l-187 -146l-1 -1l-74 62z" />
    <glyph glyph-name="uni1EC5" unicode="&#x1ec5;" horiz-adv-x="1093" 
d="M989 653v-34.5t-2 -38.5l-723 -109q12 -178 107 -266t247 -88q80 0 159 18.5t132 48.5l49 -129q-57 -35 -149.5 -56.5t-196.5 -21.5q-240 0 -374 151t-134 425q0 127 31.5 232.5t91 181t144.5 117.5t194 42q198 0 311 -124.5t113 -348.5zM831 676q-2 164 -74.5 241.5
t-191.5 77.5q-142 0 -224.5 -108.5t-86.5 -296.5zM917 1594q-44 -172 -163 -172q-50 -1 -117 55q-59 50 -91 50q-72 -2 -116 -89l-61 34q37 172 169 172q55 0 122 -60q63 -49 95 -49q65 6 96 89zM500 1408q35 33 74 33q37 0 71 -33l190 -183l-74 -61l-1 1l-189 144
l-187 -146l-1 -1l-74 62z" />
    <glyph glyph-name="uni1EC7" unicode="&#x1ec7;" horiz-adv-x="1093" 
d="M989 653v-34.5t-2 -38.5l-723 -109q12 -178 107 -266t247 -88q80 0 159 18.5t132 48.5l49 -129q-57 -35 -149.5 -56.5t-196.5 -21.5q-240 0 -374 151t-134 425q0 127 31.5 232.5t91 181t144.5 117.5t194 42q198 0 311 -124.5t113 -348.5zM831 676q-2 164 -74.5 241.5
t-191.5 77.5q-142 0 -224.5 -108.5t-86.5 -296.5zM666 -162q0 -39 -27.5 -66.5t-66.5 -27.5t-66.5 27.5t-27.5 66.5t27.5 66.5t66.5 27.5t66.5 -27.5t27.5 -66.5zM500 1408q35 33 74 33q37 0 71 -33l190 -183l-74 -61l-1 1l-189 144l-187 -146l-1 -1l-74 62z" />
    <glyph glyph-name="igrave" unicode="&#xec;" horiz-adv-x="466" 
d="M154 0v1104h164v-1104h-164zM203 1202l-245 242q22 71 84 71q60 0 109 -47l179 -266h-127z" />
    <glyph glyph-name="iacute" unicode="&#xed;" horiz-adv-x="466" 
d="M154 0v1104h164v-1104h-164zM152 1202l179 266q49 47 109 47q62 0 84 -71l-245 -242h-127z" />
    <glyph glyph-name="uni1EC9" unicode="&#x1ec9;" horiz-adv-x="466" 
d="M154 0v1104h164v-1104h-164zM109 1533q42 28 127 37q191 0 191 -156q0 -58 -51 -107q-37 -36 -88 -49l-10 -73l-86 -1l-6 118q68 24 96 57q27 22 27 53q0 64 -79 64q-41 0 -94 -22z" />
    <glyph glyph-name="itilde" unicode="&#x129;" horiz-adv-x="466" 
d="M154 0v1104h164v-1104h-164zM537 1364q-44 -172 -163 -172q-50 -1 -117 55q-59 50 -91 50q-72 -2 -116 -89l-61 34q37 172 169 172q55 0 122 -60q64 -49 95 -49q65 6 96 89z" />
    <glyph glyph-name="uni1ECB" unicode="&#x1ecb;" horiz-adv-x="466" 
d="M154 0v1104h164v-1104h-164zM330 -162q0 -39 -27.5 -66.5t-66.5 -27.5t-66.5 27.5t-27.5 66.5t27.5 66.5t66.5 27.5t66.5 -27.5t27.5 -66.5z" />
    <glyph glyph-name="ograve" unicode="&#xf2;" horiz-adv-x="1107" 
d="M1005 553q0 -123 -29.5 -228.5t-86 -182t-140.5 -121t-194 -44.5q-111 0 -195 44.5t-140.5 121t-86 182t-29.5 228.5t29.5 227.5t86 181t140.5 120.5t195 44q110 0 194 -44t140.5 -120.5t86 -181t29.5 -227.5zM841 555q0 94 -17.5 174t-53 137.5t-90 89t-125.5 31.5
q-72 0 -126.5 -31.5t-90 -89t-53 -137.5t-17.5 -174q0 -96 17.5 -176t53 -137.5t90 -90t126.5 -32.5q71 0 125.5 32.5t90 90t53 137.5t17.5 176zM529 1202l-245 242q22 71 84 71q60 0 109 -47l179 -266h-127z" />
    <glyph glyph-name="oacute" unicode="&#xf3;" horiz-adv-x="1107" 
d="M1005 553q0 -123 -29.5 -228.5t-86 -182t-140.5 -121t-194 -44.5q-111 0 -195 44.5t-140.5 121t-86 182t-29.5 228.5t29.5 227.5t86 181t140.5 120.5t195 44q110 0 194 -44t140.5 -120.5t86 -181t29.5 -227.5zM841 555q0 94 -17.5 174t-53 137.5t-90 89t-125.5 31.5
q-72 0 -126.5 -31.5t-90 -89t-53 -137.5t-17.5 -174q0 -96 17.5 -176t53 -137.5t90 -90t126.5 -32.5q71 0 125.5 32.5t90 90t53 137.5t17.5 176zM451 1202l179 266q49 47 109 47q62 0 84 -71l-245 -242h-127z" />
    <glyph glyph-name="uni1ECF" unicode="&#x1ecf;" horiz-adv-x="1107" 
d="M1005 553q0 -123 -29.5 -228.5t-86 -182t-140.5 -121t-194 -44.5q-111 0 -195 44.5t-140.5 121t-86 182t-29.5 228.5t29.5 227.5t86 181t140.5 120.5t195 44q110 0 194 -44t140.5 -120.5t86 -181t29.5 -227.5zM841 555q0 94 -17.5 174t-53 137.5t-90 89t-125.5 31.5
q-72 0 -126.5 -31.5t-90 -89t-53 -137.5t-17.5 -174q0 -96 17.5 -176t53 -137.5t90 -90t126.5 -32.5q71 0 125.5 32.5t90 90t53 137.5t17.5 176zM425 1533q42 28 127 37q191 0 191 -156q0 -58 -51 -107q-37 -36 -88 -49l-10 -73l-86 -1l-6 118q68 24 96 57q27 22 27 53
q0 64 -79 64q-41 0 -94 -22z" />
    <glyph glyph-name="otilde" unicode="&#xf5;" horiz-adv-x="1107" 
d="M1005 553q0 -123 -29.5 -228.5t-86 -182t-140.5 -121t-194 -44.5q-111 0 -195 44.5t-140.5 121t-86 182t-29.5 228.5t29.5 227.5t86 181t140.5 120.5t195 44q110 0 194 -44t140.5 -120.5t86 -181t29.5 -227.5zM841 555q0 94 -17.5 174t-53 137.5t-90 89t-125.5 31.5
q-72 0 -126.5 -31.5t-90 -89t-53 -137.5t-17.5 -174q0 -96 17.5 -176t53 -137.5t90 -90t126.5 -32.5q71 0 125.5 32.5t90 90t53 137.5t17.5 176zM862 1364q-43 -172 -163 -172q-49 -1 -117 55q-59 50 -90 50q-73 -2 -117 -89l-61 34q38 172 169 172q55 0 122 -60
q64 -49 95 -49q65 6 97 89z" />
    <glyph glyph-name="uni1ECD" unicode="&#x1ecd;" horiz-adv-x="1107" 
d="M1005 553q0 -123 -29.5 -228.5t-86 -182t-140.5 -121t-194 -44.5q-111 0 -195 44.5t-140.5 121t-86 182t-29.5 228.5t29.5 227.5t86 181t140.5 120.5t195 44q110 0 194 -44t140.5 -120.5t86 -181t29.5 -227.5zM841 555q0 94 -17.5 174t-53 137.5t-90 89t-125.5 31.5
q-72 0 -126.5 -31.5t-90 -89t-53 -137.5t-17.5 -174q0 -96 17.5 -176t53 -137.5t90 -90t126.5 -32.5q71 0 125.5 32.5t90 90t53 137.5t17.5 176zM649 -162q0 -39 -28 -66.5t-66 -27.5q-39 0 -67 27.5t-28 66.5t28 66.5t67 27.5q38 0 66 -27.5t28 -66.5z" />
    <glyph glyph-name="ocircumflex" unicode="&#xf4;" horiz-adv-x="1107" 
d="M1005 553q0 -123 -29.5 -228.5t-86 -182t-140.5 -121t-194 -44.5q-111 0 -195 44.5t-140.5 121t-86 182t-29.5 228.5t29.5 227.5t86 181t140.5 120.5t195 44q110 0 194 -44t140.5 -120.5t86 -181t29.5 -227.5zM841 555q0 94 -17.5 174t-53 137.5t-90 89t-125.5 31.5
q-72 0 -126.5 -31.5t-90 -89t-53 -137.5t-17.5 -174q0 -96 17.5 -176t53 -137.5t90 -90t126.5 -32.5q71 0 125.5 32.5t90 90t53 137.5t17.5 176zM483 1408q35 33 74 33q37 0 71 -33l190 -183l-74 -61l-1 1l-189 144l-187 -146l-1 -1l-74 62z" />
    <glyph glyph-name="uni1ED3" unicode="&#x1ed3;" horiz-adv-x="1107" 
d="M1005 553q0 -123 -29.5 -228.5t-86 -182t-140.5 -121t-194 -44.5q-111 0 -195 44.5t-140.5 121t-86 182t-29.5 228.5t29.5 227.5t86 181t140.5 120.5t195 44q110 0 194 -44t140.5 -120.5t86 -181t29.5 -227.5zM841 555q0 94 -17.5 174t-53 137.5t-90 89t-125.5 31.5
q-72 0 -126.5 -31.5t-90 -89t-53 -137.5t-17.5 -174q0 -96 17.5 -176t53 -137.5t90 -90t126.5 -32.5q71 0 125.5 32.5t90 90t53 137.5t17.5 176zM773 1343l-245 242q22 71 84 71q60 0 109 -47l179 -266h-127zM483 1408q35 33 74 33q37 0 71 -33l190 -183l-74 -61l-1 1
l-189 144l-187 -146l-1 -1l-74 62z" />
    <glyph glyph-name="uni1ED1" unicode="&#x1ed1;" horiz-adv-x="1107" 
d="M1005 553q0 -123 -29.5 -228.5t-86 -182t-140.5 -121t-194 -44.5q-111 0 -195 44.5t-140.5 121t-86 182t-29.5 228.5t29.5 227.5t86 181t140.5 120.5t195 44q110 0 194 -44t140.5 -120.5t86 -181t29.5 -227.5zM841 555q0 94 -17.5 174t-53 137.5t-90 89t-125.5 31.5
q-72 0 -126.5 -31.5t-90 -89t-53 -137.5t-17.5 -174q0 -96 17.5 -176t53 -137.5t90 -90t126.5 -32.5q71 0 125.5 32.5t90 90t53 137.5t17.5 176zM733 1352l179 266q49 47 109 47q62 0 84 -71l-245 -242h-127zM483 1408q35 33 74 33q37 0 71 -33l190 -183l-74 -61l-1 1
l-189 144l-187 -146l-1 -1l-74 62z" />
    <glyph glyph-name="uni1ED5" unicode="&#x1ed5;" horiz-adv-x="1107" 
d="M1005 553q0 -123 -29.5 -228.5t-86 -182t-140.5 -121t-194 -44.5q-111 0 -195 44.5t-140.5 121t-86 182t-29.5 228.5t29.5 227.5t86 181t140.5 120.5t195 44q110 0 194 -44t140.5 -120.5t86 -181t29.5 -227.5zM841 555q0 94 -17.5 174t-53 137.5t-90 89t-125.5 31.5
q-72 0 -126.5 -31.5t-90 -89t-53 -137.5t-17.5 -174q0 -96 17.5 -176t53 -137.5t90 -90t126.5 -32.5q71 0 125.5 32.5t90 90t53 137.5t17.5 176zM653 1692q42 28 127 37q191 0 191 -156q0 -58 -51 -107q-37 -36 -88 -49l-10 -73l-86 -1l-6 118q68 24 96 57q27 22 27 53
q0 64 -79 64q-41 0 -94 -22zM483 1408q35 33 74 33q37 0 71 -33l190 -183l-74 -61l-1 1l-189 144l-187 -146l-1 -1l-74 62z" />
    <glyph glyph-name="uni1ED7" unicode="&#x1ed7;" horiz-adv-x="1107" 
d="M1005 553q0 -123 -29.5 -228.5t-86 -182t-140.5 -121t-194 -44.5q-111 0 -195 44.5t-140.5 121t-86 182t-29.5 228.5t29.5 227.5t86 181t140.5 120.5t195 44q110 0 194 -44t140.5 -120.5t86 -181t29.5 -227.5zM841 555q0 94 -17.5 174t-53 137.5t-90 89t-125.5 31.5
q-72 0 -126.5 -31.5t-90 -89t-53 -137.5t-17.5 -174q0 -96 17.5 -176t53 -137.5t90 -90t126.5 -32.5q71 0 125.5 32.5t90 90t53 137.5t17.5 176zM906 1592q-43 -172 -163 -172q-49 -1 -117 55q-59 50 -90 50q-73 -2 -117 -89l-61 34q38 172 169 172q55 0 122 -60
q64 -49 95 -49q65 6 97 89zM483 1408q35 33 74 33q37 0 71 -33l190 -183l-74 -61l-1 1l-189 144l-187 -146l-1 -1l-74 62z" />
    <glyph glyph-name="uni1ED9" unicode="&#x1ed9;" horiz-adv-x="1107" 
d="M1005 553q0 -123 -29.5 -228.5t-86 -182t-140.5 -121t-194 -44.5q-111 0 -195 44.5t-140.5 121t-86 182t-29.5 228.5t29.5 227.5t86 181t140.5 120.5t195 44q110 0 194 -44t140.5 -120.5t86 -181t29.5 -227.5zM841 555q0 94 -17.5 174t-53 137.5t-90 89t-125.5 31.5
q-72 0 -126.5 -31.5t-90 -89t-53 -137.5t-17.5 -174q0 -96 17.5 -176t53 -137.5t90 -90t126.5 -32.5q71 0 125.5 32.5t90 90t53 137.5t17.5 176zM649 -162q0 -39 -28 -66.5t-66 -27.5q-39 0 -67 27.5t-28 66.5t28 66.5t67 27.5q38 0 66 -27.5t28 -66.5zM483 1408
q35 33 74 33q37 0 71 -33l190 -183l-74 -61l-1 1l-189 144l-187 -146l-1 -1l-74 62z" />
    <glyph glyph-name="glyph217" unicode="&#xf9;" horiz-adv-x="1083" 
d="M940 55q-60 -32 -165.5 -55t-221.5 -23q-199 0 -304.5 93.5t-105.5 294.5v739h166v-742q0 -241 244 -241q71 0 131.5 11t91.5 26v946h164v-1049v0zM529 1202l-245 242q22 71 84 71q60 0 109 -47l179 -266h-127z" />
    <glyph glyph-name="glyph218" unicode="&#xfa;" horiz-adv-x="1083" 
d="M940 55q-60 -32 -165.5 -55t-221.5 -23q-199 0 -304.5 93.5t-105.5 294.5v739h166v-742q0 -241 244 -241q71 0 131.5 11t91.5 26v946h164v-1049v0zM451 1202l179 266q49 47 109 47q62 0 84 -71l-245 -242h-127z" />
    <glyph glyph-name="uni1EE7" unicode="&#x1ee7;" horiz-adv-x="1083" 
d="M940 55q-60 -32 -165.5 -55t-221.5 -23q-199 0 -304.5 93.5t-105.5 294.5v739h166v-742q0 -241 244 -241q71 0 131.5 11t91.5 26v946h164v-1049v0zM425 1533q42 28 127 37q191 0 191 -156q0 -58 -51 -107q-37 -36 -88 -49l-10 -73l-86 -1l-6 118q68 24 96 57q27 22 27 53
q0 64 -79 64q-41 0 -94 -22z" />
    <glyph glyph-name="utilde" unicode="&#x169;" horiz-adv-x="1083" 
d="M940 55q-60 -32 -165.5 -55t-221.5 -23q-199 0 -304.5 93.5t-105.5 294.5v739h166v-742q0 -241 244 -241q71 0 131.5 11t91.5 26v946h164v-1049v0zM862 1364q-43 -172 -162 -172q-50 -1 -118 55q-59 50 -90 50q-73 -2 -117 -89l-61 34q38 172 169 172q55 0 122 -60
q64 -49 95 -49q65 6 97 89z" />
    <glyph glyph-name="uni1EE5" unicode="&#x1ee5;" horiz-adv-x="1083" 
d="M940 55q-60 -32 -165.5 -55t-221.5 -23q-199 0 -304.5 93.5t-105.5 294.5v739h166v-742q0 -241 244 -241q71 0 131.5 11t91.5 26v946h164v-1049v0zM649 -162q0 -39 -27.5 -66.5t-66.5 -27.5t-67 27.5t-28 66.5t28 66.5t67 27.5t66.5 -27.5t27.5 -66.5z" />
    <glyph glyph-name="uhorn" unicode="&#x1b0;" horiz-adv-x="1083" 
d="M940 1000v-945q-60 -32 -165.5 -55t-221.5 -23q-199 0 -304.5 93.5t-105.5 294.5v739h166v-742q0 -241 244 -241q71 0 131.5 11t91.5 26v946h108l45 101q33 35 104 39q61 1 78 -42z" />
    <glyph glyph-name="uni1EEB" unicode="&#x1eeb;" horiz-adv-x="1083" 
d="M529 1202l-245 242q22 71 84 71q60 0 109 -47l179 -266h-127zM940 1000v-945q-59 -32 -164.5 -55t-222.5 -23q-199 0 -304.5 93.5t-105.5 294.5v739h166v-742q0 -241 244 -241q72 0 132 11t91 26v946h108l45 101q33 35 104 39q61 1 79 -42z" />
    <glyph glyph-name="uni1EE9" unicode="&#x1ee9;" horiz-adv-x="1083" 
d="M451 1202l179 266q49 47 109 47q62 0 84 -71l-245 -242h-127zM940 1000v-945q-59 -32 -164.5 -55t-222.5 -23q-199 0 -304.5 93.5t-105.5 294.5v739h166v-742q0 -241 244 -241q72 0 132 11t91 26v946h108l45 101q33 35 104 39q61 1 79 -42z" />
    <glyph glyph-name="uni1EED" unicode="&#x1eed;" horiz-adv-x="1083" 
d="M425 1533q42 28 127 37q191 0 191 -156q0 -58 -51 -107q-37 -36 -88 -49l-10 -73l-86 -1l-6 118q68 24 96 57q27 22 27 53q0 64 -79 64q-41 0 -94 -22zM940 1000v-945q-59 -32 -164.5 -55t-222.5 -23q-199 0 -304.5 93.5t-105.5 294.5v739h166v-742q0 -241 244 -241
q72 0 132 11t91 26v946h108l45 101q33 35 104 39q61 1 79 -42z" />
    <glyph glyph-name="uni1EEF" unicode="&#x1eef;" horiz-adv-x="1083" 
d="M863 1364q-44 -172 -163 -172q-50 -1 -117 55q-59 50 -91 50q-72 -2 -116 -89l-61 34q37 172 169 172q55 0 122 -60q63 -49 95 -49q65 6 96 89zM940 1000v-945q-59 -32 -164.5 -55t-222.5 -23q-199 0 -304.5 93.5t-105.5 294.5v739h166v-742q0 -241 244 -241q72 0 132 11
t91 26v946h108l45 101q33 35 104 39q61 1 79 -42z" />
    <glyph glyph-name="uni1EF1" unicode="&#x1ef1;" horiz-adv-x="1083" 
d="M649 -162q0 -39 -27.5 -66.5t-66.5 -27.5t-66.5 27.5t-27.5 66.5t27.5 66.5t66.5 27.5t66.5 -27.5t27.5 -66.5zM940 1000v-945q-59 -32 -164.5 -55t-222.5 -23q-199 0 -304.5 93.5t-105.5 294.5v739h166v-742q0 -241 244 -241q72 0 132 11t91 26v946h108l45 101
q33 35 104 39q61 1 79 -42z" />
    <glyph glyph-name="ohorn" unicode="&#x1a1;" horiz-adv-x="1107" 
d="M841 555q0 94 -17.5 174t-53 137.5t-90 89t-125.5 31.5q-72 0 -126.5 -31.5t-90 -89t-53 -137.5t-17.5 -174q0 -96 17.5 -176t53 -137.5t90 -90t126.5 -32.5q71 0 125.5 32.5t90 90t53 137.5t17.5 176zM868 988q11 -12 22 -26q56 -77 85.5 -181.5t29.5 -227.5
t-29.5 -228.5t-86 -182t-140.5 -121t-194 -44.5q-111 0 -195 44.5t-140.5 121t-86 182t-29.5 228.5t29.5 227.5t86 181t140.5 120.5t195 44q110 0 194 -44q26 -14 50 -31l68 154q32 35 104 39q61 1 78 -42z" />
    <glyph glyph-name="uni1EDD" unicode="&#x1edd;" horiz-adv-x="1107" 
d="M842 555q0 94 -17.5 174t-53.5 137.5t-90 89t-126 31.5t-126 -31.5t-90 -89t-53.5 -137.5t-17.5 -174q0 -96 17.5 -176t53.5 -137.5t90 -90t126 -32.5t126 32.5t90 90t53.5 137.5t17.5 176zM529 1202l-245 242q22 71 84 71q60 0 109 -47l179 -266h-127zM868 989
q12 -13 22 -27q56 -77 86 -181.5t30 -227.5t-30 -228.5t-86 -182t-140 -121t-195 -44.5t-195 44.5t-140 121t-86 182t-30 228.5t30 227.5t86 181t140 120.5t195 44t195 -44q26 -14 49 -30l68 153q33 35 104 39q61 1 79 -42z" />
    <glyph glyph-name="uni1EDB" unicode="&#x1edb;" horiz-adv-x="1107" 
d="M842 555q0 94 -17.5 174t-53.5 137.5t-90 89t-126 31.5t-126 -31.5t-90 -89t-53.5 -137.5t-17.5 -174q0 -96 17.5 -176t53.5 -137.5t90 -90t126 -32.5t126 32.5t90 90t53.5 137.5t17.5 176zM451 1202l179 266q49 47 109 47q62 0 84 -71l-245 -242h-127zM868 989
q12 -13 22 -27q56 -77 86 -181.5t30 -227.5t-30 -228.5t-86 -182t-140 -121t-195 -44.5t-195 44.5t-140 121t-86 182t-30 228.5t30 227.5t86 181t140 120.5t195 44t195 -44q26 -14 49 -30l68 153q33 35 104 39q61 1 79 -42z" />
    <glyph glyph-name="uni1EDF" unicode="&#x1edf;" horiz-adv-x="1107" 
d="M842 555q0 94 -17.5 174t-53.5 137.5t-90 89t-126 31.5t-126 -31.5t-90 -89t-53.5 -137.5t-17.5 -174q0 -96 17.5 -176t53.5 -137.5t90 -90t126 -32.5t126 32.5t90 90t53.5 137.5t17.5 176zM425 1533q42 28 127 37q191 0 191 -156q0 -58 -51 -107q-37 -36 -88 -49
l-10 -73l-86 -1l-6 118q68 24 96 57q27 22 27 53q0 64 -79 64q-41 0 -94 -22zM868 989q12 -13 22 -27q56 -77 86 -181.5t30 -227.5t-30 -228.5t-86 -182t-140 -121t-195 -44.5t-195 44.5t-140 121t-86 182t-30 228.5t30 227.5t86 181t140 120.5t195 44t195 -44
q26 -14 49 -30l68 153q33 35 104 39q61 1 79 -42z" />
    <glyph glyph-name="uni1EE1" unicode="&#x1ee1;" horiz-adv-x="1107" 
d="M842 555q0 94 -17.5 174t-53.5 137.5t-90 89t-126 31.5t-126 -31.5t-90 -89t-53.5 -137.5t-17.5 -174q0 -96 17.5 -176t53.5 -137.5t90 -90t126 -32.5t126 32.5t90 90t53.5 137.5t17.5 176zM863 1364q-44 -172 -163 -172q-50 -1 -117 55q-59 50 -91 50q-72 -2 -116 -89
l-61 34q37 172 169 172q55 0 122 -60q63 -49 95 -49q65 6 96 89zM868 989q12 -13 22 -27q56 -77 86 -181.5t30 -227.5t-30 -228.5t-86 -182t-140 -121t-195 -44.5t-195 44.5t-140 121t-86 182t-30 228.5t30 227.5t86 181t140 120.5t195 44t195 -44q26 -14 49 -30l68 153
q33 35 104 39q61 1 79 -42z" />
    <glyph glyph-name="uni1EE3" unicode="&#x1ee3;" horiz-adv-x="1107" 
d="M842 555q0 94 -17.5 174t-53.5 137.5t-90 89t-126 31.5t-126 -31.5t-90 -89t-53.5 -137.5t-17.5 -174q0 -96 17.5 -176t53.5 -137.5t90 -90t126 -32.5t126 32.5t90 90t53.5 137.5t17.5 176zM649 -162q0 -39 -27.5 -66.5t-66.5 -27.5t-66.5 27.5t-27.5 66.5t27.5 66.5
t66.5 27.5t66.5 -27.5t27.5 -66.5zM868 989q12 -13 22 -27q56 -77 86 -181.5t30 -227.5t-30 -228.5t-86 -182t-140 -121t-195 -44.5t-195 44.5t-140 121t-86 182t-30 228.5t30 227.5t86 181t140 120.5t195 44t195 -44q26 -14 49 -30l68 153q33 35 104 39q61 1 79 -42z" />
    <glyph glyph-name="ygrave" unicode="&#x1ef3;" horiz-adv-x="1081" 
d="M467 -440h-170l159 440l-397 1104h178l264 -803q9 -29 16 -56.5t11 -49.5l10 -52h4l11 52q4 22 10 49.5t16 56.5l262 803h181zM538 1202l-245 242q22 71 84 71q60 0 109 -47l179 -266h-127z" />
    <glyph glyph-name="glyph235" unicode="&#xfd;" horiz-adv-x="1081" 
d="M467 -440h-170l159 440l-397 1104h178l264 -803q9 -29 16 -56.5t11 -49.5l10 -52h4l11 52q4 22 10 49.5t16 56.5l262 803h181zM477 1202l179 266q49 47 109 47q62 0 84 -71l-245 -242h-127z" />
    <glyph glyph-name="uni1EF7" unicode="&#x1ef7;" horiz-adv-x="1081" 
d="M467 -440h-170l159 440l-397 1104h178l264 -803q9 -29 16 -56.5t11 -49.5l10 -52h4l11 52q4 22 10 49.5t16 56.5l262 803h181zM425 1533q42 28 127 37q191 0 191 -156q0 -58 -51 -107q-37 -36 -88 -49l-10 -73l-86 -1l-6 118q68 24 96 57q27 22 27 53q0 64 -79 64
q-41 0 -94 -22z" />
    <glyph glyph-name="uni1EF9" unicode="&#x1ef9;" horiz-adv-x="1081" 
d="M467 -440h-170l159 440l-397 1104h178l264 -803q9 -29 16 -56.5t11 -49.5l10 -52h4l11 52q4 22 10 49.5t16 56.5l262 803h181zM862 1364q-43 -172 -163 -172q-49 -1 -117 55q-59 50 -90 50q-73 -2 -117 -89l-61 34q38 172 169 172q55 0 122 -60q64 -49 95 -49q65 6 97 89
z" />
    <glyph glyph-name="uni1EF5" unicode="&#x1ef5;" horiz-adv-x="1081" 
d="M467 -440h-170l159 440l-397 1104h178l264 -803q9 -29 16 -56.5t11 -49.5l10 -52h4l11 52q4 22 10 49.5t16 56.5l262 803h181zM817 -162q0 -39 -27.5 -66.5t-66.5 -27.5t-67 27.5t-28 66.5t28 66.5t67 27.5t66.5 -27.5t27.5 -66.5z" />
    <glyph glyph-name="divide" unicode="&#xf7;" horiz-adv-x="1110" 
d="M655 1004q0 -43 -28.5 -73t-69.5 -30t-70 30t-29 73t29 72.5t70 29.5t69.5 -29.5t28.5 -72.5zM139 602v127h831v-127h-831zM655 328q0 -43 -28.5 -73t-69.5 -30t-70 30t-29 73t29 72.5t70 29.5t69.5 -29.5t28.5 -72.5z" />
    <glyph glyph-name="ugrave" horiz-adv-x="582" 
 />
    <glyph glyph-name="uacute" horiz-adv-x="580" 
 />
    <glyph glyph-name="yacute" horiz-adv-x="629" 
 />
    <glyph glyph-name="Ccaron" unicode="&#x10c;" horiz-adv-x="1274" 
 />
    <glyph glyph-name="ccaron" unicode="&#x10d;" horiz-adv-x="922" 
 />
    <glyph glyph-name="Dslash" unicode="&#xd0;" horiz-adv-x="1269" 
d="M1159 741q0 -190 -46 -333.5t-128 -238.5t-194.5 -143.5t-246.5 -48.5q-114 0 -212.5 23t-157.5 55v637h-119v133h119v602q65 35 162.5 56.5t207.5 21.5q134 0 246.5 -48t194.5 -143t128 -238.5t46 -334.5zM991 741q0 160 -34 276t-93 190.5t-139 110.5t-172 36
q-64 0 -119 -9.5t-90 -25.5v-494h250v-133h-250v-530q28 -17 84.5 -25t124.5 -8q92 0 172 36t139 110.5t93 190.5t34 275z" />
    <glyph glyph-name="Dslash" unicode="&#x110;" horiz-adv-x="1269" 
d="M1159 741q0 -190 -46 -333.5t-128 -238.5t-194.5 -143.5t-246.5 -48.5q-114 0 -212.5 23t-157.5 55v637h-119v133h119v602q65 35 162.5 56.5t207.5 21.5q134 0 246.5 -48t194.5 -143t128 -238.5t46 -334.5zM991 741q0 160 -34 276t-93 190.5t-139 110.5t-172 36
q-64 0 -119 -9.5t-90 -25.5v-494h250v-133h-250v-530q28 -17 84.5 -25t124.5 -8q92 0 172 36t139 110.5t93 190.5t34 275z" />
    <glyph glyph-name="dcroat" unicode="&#x111;" horiz-adv-x="1091" 
d="M784 952q-22 11 -76.5 19t-101.5 8q-84 0 -147.5 -33t-105.5 -92t-63.5 -140t-21.5 -175q0 -193 86 -307.5t252 -114.5q49 0 102.5 11t75.5 24v800zM565 1403h219v205h164v-205h150v-109h-150v-1239q-24 -14 -60 -28.5t-81 -24.5t-96.5 -17.5t-102.5 -7.5q-121 0 -215 40
t-158.5 113t-97.5 176.5t-33 232.5q0 127 32 232.5t94.5 182t153.5 118.5t210 42q53 0 107.5 -9t82.5 -20v209h-219v109z" />
    <glyph glyph-name="quoteleft" unicode="&#x2018;" horiz-adv-x="542" 
d="M274 1100q-16 -27 -40.5 -44.5t-61.5 -17.5q-35 0 -54.5 19.5t-23.5 42.5l233 508h121z" />
    <glyph glyph-name="quoteright" unicode="&#x2019;" horiz-adv-x="542" 
d="M213 1051h-119l172 505q16 27 42 44.5t60 17.5q37 0 56.5 -19.5t23.5 -42.5z" />
    <glyph glyph-name="quotedblleft" unicode="&#x201c;" horiz-adv-x="907" 
d="M639 1100q-19 -27 -43.5 -44.5t-59.5 -17.5q-34 0 -53.5 19.5t-23.5 42.5l233 508h119zM274 1100q-16 -27 -40.5 -44.5t-61.5 -17.5q-35 0 -54.5 19.5t-23.5 42.5l233 508h121z" />
    <glyph glyph-name="quotedblright" unicode="&#x201d;" horiz-adv-x="907" 
d="M575 1051h-116l170 505q18 27 43.5 44.5t60.5 17.5t55.5 -19.5t22.5 -42.5zM213 1051h-119l172 505q16 27 42 44.5t60 17.5q37 0 56.5 -19.5t23.5 -42.5z" />
    <glyph glyph-name="ellipsis" unicode="&#x2026;" horiz-adv-x="1482" 
d="M1350 104q0 -49 -33 -83.5t-80 -34.5t-81 34.5t-34 83.5q0 50 34 84.5t81 34.5t80 -34.5t33 -84.5zM856 104q0 -49 -34 -83.5t-81 -34.5t-79.5 34.5t-32.5 83.5q0 50 32.5 84.5t79.5 34.5t81 -34.5t34 -84.5zM362 104q0 -49 -33.5 -83.5t-80.5 -34.5t-81 34.5t-34 83.5
q0 50 34 84.5t81 34.5t80.5 -34.5t33.5 -84.5z" />
    <glyph glyph-name="endash" unicode="&#x2013;" horiz-adv-x="804" 
d="M-8 596v139h819v-139h-819z" />
    <glyph glyph-name="emdash" unicode="&#x2014;" horiz-adv-x="1605" 
d="M159 596v139h1288v-139h-1288z" />
    <glyph glyph-name="minus" unicode="&#x2212;" horiz-adv-x="1110" 
d="M139 596v139h831v-139h-831z" />
    <glyph glyph-name="ch270" unicode="&#xb7;" horiz-adv-x="495" 
d="M362 666q0 -50 -33.5 -84.5t-80.5 -34.5t-81 34.5t-34 84.5q0 49 34 83.5t81 34.5t80.5 -34.5t33.5 -83.5z" />
    <glyph glyph-name="ch270" unicode="&#x2219;" horiz-adv-x="495" 
d="M362 666q0 -50 -33.5 -84.5t-80.5 -34.5t-81 34.5t-34 84.5q0 49 34 83.5t81 34.5t80.5 -34.5t33.5 -83.5z" />
    </font>
</defs>
</svg>
