<svg xmlns="http://www.w3.org/2000/svg">
<defs>
<font id="UTMScriptinaKT" horiz-adv-x="759" >
  <font-face 
    font-family="UTM Scriptina KT"
    font-weight="400"
    font-stretch="normal"
    units-per-em="2048"
    panose-1="2 0 5 0 0 0 0 0 0 0"
    ascent="1638"
    descent="-410"
    x-height="625"
    cap-height="2025"
    bbox="-2156.69 -1939 6049 3100"
    underline-thickness="150"
    underline-position="-142"
    unicode-range="U+0020-U+2026"
  />
<missing-glyph horiz-adv-x="6492" 
d="M4517 1704h11q44 -11 44 -49q0 -10 -35 -53h-44q0 25 27 51l3 9q-4 8 -3 8h-6q3 0 1 -17h-50q8 51 52 51zM3243 1684l37 -36q0 -15 -46 -30h-23l-49 10l-15 -15l-38 31q13 29 52 29h12l40 -9v0q4 0 30 20zM1751 1648h152v-59h-89v-57h85v-59h-85v-107l-9 -9h-63v282z
M2410 1648h53l9 -9v-63h28v-52h-28v-158l-9 -9h-64v167h-24v52h24v63zM2855 1648h53l7 -9v-81h-17q26 26 61 26h3q63 0 88 -66l3 -33v-128h-70v103q0 66 -30 66h-7q-31 0 -31 -71v-98h-69v282zM3405 1648h63l9 -9v-190q8 -41 32 -41q33 6 33 47v184l7 9h65v-190
q0 -74 -67 -100q-18 -7 -40 -7q-52 0 -89 51q-13 20 -13 49v197zM3634 1648h168v-59h-54v-232h-71v232h-52v50zM3808 1648h82q13 -7 85 -220h-18l78 220h88v-291h-72v213h19l-72 -213h-51q-13 0 -66 161l-18 52h18v-213h-73v291zM4897 1648h70v-291h-60l-7 9v9l2 2l1 -8
q-14 -18 -68 -18q-72 0 -106 82l-5 34v2q0 83 95 112l24 3q41 0 72 -32h-18v96zM3271 1603h48l7 -9v-46h-42v-191h-67v1q-5 -7 -47 -7q-95 13 -95 87v138h70v-93q0 -66 18 -71l16 -4h3q17 0 28 28l2 22v118h52v18zM4646 1603v-55h-29v-191h-65v26h17q-16 -32 -64 -32
q-74 0 -93 71l-2 25v129h69v-107q0 -43 16 -56l16 -5h6q30 0 30 56v112v0q29 -4 29 21l8 6h62zM2035 1584q73 0 109 -71q8 -15 12 -46q0 -77 -93 -114l-35 -2q-66 0 -106 67q-12 18 -12 45v8q0 83 105 113h20zM2277 1584h3q81 0 90 -92v-135h-69v107q0 62 -30 62h-5
q-32 0 -32 -62v-107h-70v219h64v-3q12 11 49 11zM2713 1584h6q77 0 113 -85h-78q-15 27 -32 27h-14q-43 -11 -43 -49l-3 -13q11 -56 48 -56h9q16 0 39 24h38l2 3h6v0l5 8l3 -3l8 12l8 -28q-33 -73 -115 -73q-81 0 -116 85l-4 31v2q0 74 78 106q17 9 42 9zM4314 1584h3

<glyph glyph-name=".notdef" horiz-adv-x="6492" 
d="M4517 1704h11q44 -11 44 -49q0 -10 -35 -53h-44q0 25 27 51l3 9q-4 8 -3 8h-6q3 0 1 -17h-50q8 51 52 51zM3243 1684l37 -36q0 -15 -46 -30h-23l-49 10l-15 -15l-38 31q13 29 52 29h12l40 -9v0q4 0 30 20zM1751 1648h152v-59h-89v-57h85v-59h-85v-107l-9 -9h-63v282z
M2410 1648h53l9 -9v-63h28v-52h-28v-158l-9 -9h-64v167h-24v52h24v63zM2855 1648h53l7 -9v-81h-17q26 26 61 26h3q63 0 88 -66l3 -33v-128h-70v103q0 66 -30 66h-7q-31 0 -31 -71v-98h-69v282zM3405 1648h63l9 -9v-190q8 -41 32 -41q33 6 33 47v184l7 9h65v-190
q0 -74 -67 -100q-18 -7 -40 -7q-52 0 -89 51q-13 20 -13 49v197zM3634 1648h168v-59h-54v-232h-71v232h-52v50zM3808 1648h82q13 -7 85 -220h-18l78 220h88v-291h-72v213h19l-72 -213h-51q-13 0 -66 161l-18 52h18v-213h-73v291zM4897 1648h70v-291h-60l-7 9v9l2 2l1 -8
q-14 -18 -68 -18q-72 0 -106 82l-5 34v2q0 83 95 112l24 3q41 0 72 -32h-18v96zM3271 1603h48l7 -9v-46h-42v-191h-67v1q-5 -7 -47 -7q-95 13 -95 87v138h70v-93q0 -66 18 -71l16 -4h3q17 0 28 28l2 22v118h52v18zM4646 1603v-55h-29v-191h-65v26h17q-16 -32 -64 -32
q-74 0 -93 71l-2 25v129h69v-107q0 -43 16 -56l16 -5h6q30 0 30 56v112v0q29 -4 29 21l8 6h62zM2035 1584q73 0 109 -71q8 -15 12 -46q0 -77 -93 -114l-35 -2q-66 0 -106 67q-12 18 -12 45v8q0 83 105 113h20zM2277 1584h3q81 0 90 -92v-135h-69v107q0 62 -30 62h-5
q-32 0 -32 -62v-107h-70v219h64v-3q12 11 49 11zM2713 1584h6q77 0 113 -85h-78q-15 27 -32 27h-14q-43 -11 -43 -49l-3 -13q11 -56 48 -56h9q16 0 39 24h38l2 3h6v0l5 8l3 -3l8 12l8 -28q-33 -73 -115 -73q-81 0 -116 85l-4 31v2q0 74 78 106q17 9 42 9zM4314 1584h3
q55 0 77 -56v-16h-69q0 14 -6 14h-4q-5 0 -8 -8v-11q0 -7 61 -27q33 -18 33 -54q0 -52 -66 -73l-25 -2q-82 11 -82 79h72q0 -19 17 -22h2q9 0 13 16q0 17 -61 36q-36 25 -36 53q0 60 79 71zM5331 1584q61 0 84 -59q6 -16 6 -56v-112h-69v101q0 68 -28 68h-11q-22 0 -28 -43
v-126h-69v5h-10l10 6v208h65v0q7 8 50 8zM5550 1584h5q46 0 56 -13v-10l-2 2l3 13h64v-183q0 -85 -87 -117l-35 -4h-8q-74 0 -111 77h74q24 -19 37 -20h14q14 0 32 16q12 10 19 44h18q-36 -38 -80 -38q-62 0 -103 64q-9 16 -13 54q0 77 90 112zM4985 1576h70v-121
q6 -47 29 -47h6q34 0 34 77v91h69v-219h-64l-5 17v0l1 -1v4l3 2v3h16q0 -23 -63 -31h-4q-64 0 -91 68l-1 73v84zM1980 1464q9 -56 50 -56h5q49 11 49 52v13q-12 53 -47 53h-4q-46 0 -53 -62zM4793 1467q12 -59 49 -59h4q47 0 54 61q0 42 -43 57h-17q-28 0 -44 -45z
M5505 1467q7 -59 52 -59h3q49 9 49 59t-49 59h-9q-46 -12 -46 -50v-9zM5058 1338h70v-57h-70v57zM2317 1150q53 -11 53 -46v-3q0 -15 -35 -56h-43q0 25 29 53v6q0 9 1 9h-6q-2 -1 -2 -16h-47v9q0 29 36 40zM4514 1096q96 0 145 -93h-76q-36 36 -71 36q-44 0 -73 -55
q-9 -18 -9 -40q0 -67 70 -91l14 -1q29 0 67 33h75q-46 -91 -144 -91q-97 0 -145 100q-9 27 -9 54q0 85 89 133q30 15 67 15zM4815 1096q61 0 108 -43q46 -46 46 -100v-18q0 -78 -92 -129q-34 -12 -67 -12q-92 0 -141 91q-13 28 -13 52v16q0 85 99 133q30 10 60 10z
M3473 1094h4l45 -9h1q6 0 30 14l22 -40q-21 -20 -43 -20h-4l-49 9l-27 -10l-23 38q22 18 44 18zM1985 1092h28q121 0 134 -27q23 -22 23 -54q-10 -53 -28 -53v0q45 -19 45 -57v-16q0 -56 -73 -80l-53 -4h-76v291zM3739 1092h72v-191q5 -49 33 -49q19 0 32 29l3 26v176l7 9
h55l9 -9v-148q0 -102 -40 -116q-25 -25 -69 -25q-61 0 -98 69l-4 47v182zM3984 1092h66q12 0 127 -208h-16v208h65l7 -9v-282h-73q-31 45 -123 209h18v-209h-71v291zM4267 1092h71v-291h-71v291zM4992 1092h18q156 0 175 -38q23 -10 46 -65l5 -32v-9l2 -2q0 -82 -82 -131
q-37 -14 -101 -14h-63v291zM5265 1092h164v-60h-99v-57h96v-57h-96v-60v0h99v-57h-171v282zM4729 951v-9q0 -65 69 -89l15 -1q57 0 82 70l2 17v14q0 51 -53 79q-9 4 -32 7q-54 0 -81 -68zM2056 1032v-50h-1q42 0 42 20l2 12q-7 18 -17 18h-26zM5063 1032v-174l-8 8v-8
q90 0 107 62l2 13v24q0 30 -30 58q-20 17 -66 17h-5zM2305 1027h6q42 0 58 -17v10h67v-219h-67v12q-19 -19 -67 -19q-80 0 -107 87l-4 31q0 78 87 112zM2567 1027h3q81 0 90 -92v-134h-69v114q0 54 -30 54h-10q-23 0 -28 -49v-119h-69v219h65v-3q10 10 48 10zM2786 1027h5
q50 0 58 -11v4h65v-193q0 -84 -107 -112h-18q-78 0 -115 79h73q25 -22 37 -22h14q41 0 46 34q-10 -12 -57 -12q-67 0 -107 74l-7 38v14q0 69 87 104zM3138 1027h3q49 0 68 -36h-17q34 36 75 36h4q63 0 86 -52q8 -21 8 -38v-136h-70v123q0 37 -16 43l-9 2h-13q-21 0 -25 -52
v-116h-69v121q0 47 -31 47h-8q-20 0 -24 -45v-123h-72v219h67v-22h-17q7 24 60 29zM3492 1027q53 0 63 -14v7h65v-219h-65v11q-18 -18 -64 -18q-81 0 -109 83l-4 35q0 79 87 112zM2263 901q0 -40 49 -49h3q35 0 49 36l2 13v19q-10 49 -44 49h-14q-29 0 -45 -45v-23z
M2743 910q0 -40 35 -55l15 -3h3q36 0 50 45v20q-9 52 -46 52h-11q-38 0 -46 -59zM3449 912v-11q13 -49 44 -49h13q47 8 47 51v9q0 39 -31 54l-14 3h-7q-52 -6 -52 -57zM2056 925v-67h-3q64 0 64 35q0 26 -36 32h-25zM4148 597l33 -34l-57 -56q-28 18 -37 31zM2773 568
l87 -49q0 -14 -28 -45l-96 53q20 41 37 41zM4037 539h42l61 -60h-72l-14 16l-16 -16h-72q60 60 71 60zM4578 539h50l62 -60h-71l-27 27h18q0 -5 -22 -27h-72zM1894 532h64q13 -6 52 -121l28 -82q-7 -6 16 73l49 130h70v-5l-110 -285h-58zM2409 532h69v-54h-69v54zM2596 532
h59l10 -8v-282h-69v290zM3521 532h55l8 -8v-63h30v-53h-30v-166h-71v166h-25v53h25v63zM3620 532h70v-88h-19q28 24 63 24h2q63 0 88 -65l3 -33v-128h-70v103q0 66 -27 66h-10q-30 0 -30 -71v-98h-70v290zM3849 532h69v-54h-69v54zM4201 532h54l10 -8v-63h28v-53h-28v-166
h-72v166h-25v53h25v63zM4394 532h70v-290h-70v290zM5086 532h69v-290h-69v290zM5429 532h69v-54h-69v54zM2797 468h6q88 0 115 -92l2 -20v-9q0 -73 -87 -107l-36 -5q-82 0 -117 88l-4 27q0 85 96 116zM3043 468h4q58 0 84 -56q7 -21 7 -69v-101h-72v130q-6 39 -26 39h-9
q-26 0 -30 -46v-123h-71v219h66v-2q9 9 47 9zM3266 468h5q52 0 71 -38h-18v31h67v-181q0 -89 -92 -121l-28 -2h-6q-78 0 -114 77h66l35 -17l12 -2h12q39 0 44 32q-11 -12 -55 -12q-67 0 -104 70q-10 20 -12 51q0 74 89 110zM4052 468h2q88 0 116 -94l2 -22l-2 -27h-163
q11 -30 32 -30l14 -2q21 0 40 18h71v-6q-36 -70 -114 -70q-81 0 -116 88l-1 24v7q0 42 32 77q35 37 87 37zM4590 468h5q46 0 77 -38h-17v31h65v-219h-65v31h17q-36 -38 -83 -38q-76 0 -107 81l-4 31v12q0 75 87 107zM4860 468h7q93 0 113 -114l-2 -2v-12q0 -57 -66 -94
q-24 -11 -52 -11q-38 0 -51 12v-66l-8 -8h-64v288h68v-7q13 14 55 14zM5282 468q48 0 61 -15v8h68v-219h-68v11q-17 -18 -63 -18q-97 0 -114 117q0 74 74 108q18 8 42 8zM2186 461h64v-121q3 -47 30 -47h5q32 0 32 70v98h69v-219h-65v24h16q0 -22 -63 -31h-3q-61 0 -89 63
q-4 30 -4 85v70zM2409 461h69v-219h-69v219zM3849 461h69v-219h-69v219zM5429 461h69v-219h-69v219zM2747 359v-14q12 -52 47 -52h4q47 0 53 61q-11 57 -46 57h-9q-49 -12 -49 -52zM3221 345q13 -52 46 -52h11q37 0 46 59v2q-11 57 -46 57h-13q-29 0 -44 -46v-20zM4006 378
h94v-2q-13 35 -46 35h-7q-25 0 -41 -33zM4547 347q11 -54 48 -54h5q41 0 52 50v9q-8 59 -44 59h-13q-46 -11 -46 -50zM4805 350q10 -57 48 -57h2q40 0 54 47v19q0 36 -41 52h-17q-36 0 -46 -59v-2zM5238 345q9 -52 53 -52q33 0 48 36l3 14v13q0 45 -42 55h-16q-31 0 -46 -48
v-18zM4568 219h69v-53h-69v53zM5258 219h69v-53h-69v53zM3925 57h4q42 0 51 -47v-1q0 -14 -23 -36l-12 -18h-44q0 25 27 51l2 3v1q-2 13 1 13h-9q3 0 1 -17h-50q8 51 52 51zM2790 48l59 -62l-36 -24l-59 53zM1639 10h16q76 -44 87 -56l-25 -39q-98 49 -98 58zM4648 13
l94 -56l-20 -38q-21 0 -105 51q15 32 31 43zM5700 4l19 -37l-103 -52l-24 43l108 60v-14zM2452 -12h69v-20l1 -1h17v-39h-18v0v-244h-65v9q-15 -17 -67 -17q-77 0 -108 94l-2 23q0 90 104 116h16q36 0 53 -14v33v0h-47v39h47v21zM2720 -19h50l62 -60h-71l-16 16l-15 -16h-72
zM3832 -19h36q18 0 75 -60h-72l-16 17q-8 -8 -8 -17h-76v7zM1350 -26h170v-60h-54v-230h-64l-7 9v210l2 2v2l-2 2l2 3l-2 2l2 2v-2h-54v51zM1973 -26h61v-67l2 -2l-2 -2v-2l2 -1l-2 -4v-2l2 -2v-2l-2 -3l2 -2h-18q21 24 60 24h2q59 0 84 -54q6 -14 6 -36v-135h-69v113
q0 54 -28 54h-9q-30 0 -30 -69v-98h-70v281zM2541 -26h61l9 -9v-46h-70v55zM3201 -26h70v-145l50 74h80l-79 -106l87 -108v-5h-85q-12 22 -53 77v-77h-70v290zM3492 -26v-72q8 7 41 7q63 0 87 -51q9 -17 9 -67v-107h-71v118q0 49 -29 49h-10q-22 0 -27 -42v-125h-69v275
l-2 2v2l2 2l-2 3l6 6h65zM3652 -26h69v-55h-69v55zM4312 -26h69v-75q10 10 55 10h3q81 0 110 -85l5 -31q0 -64 -65 -107q-33 -10 -53 -10q-45 0 -59 16v-8h-65v290zM5391 -26h69v-89h-18q26 24 62 24h2q67 0 89 -67l2 -36v-122h-70v99q0 67 -22 67l-9 1h-10q-26 0 -26 -64
v-103h-69v290zM1625 -91h12v-58h-15q-30 0 -30 -45v-122h-70v219h65v6h38zM1849 -91q78 0 93 -78v-147h-69v121q-5 46 -29 46h-6q-33 0 -33 -68v-99h-70v219h68v-2q8 8 46 8zM2748 -91q78 0 112 -85l5 -33q-4 -25 -18 -25h-150q13 -32 48 -32q19 0 41 18h72
q-36 -76 -116 -76q-87 0 -118 94v32q0 71 92 105zM3852 -91h5q81 0 113 -87l2 -22v-18l-3 -16h-160q13 -32 39 -32h11q14 0 34 18h75q-37 -76 -113 -76q-89 0 -120 92l-2 25q0 81 94 114zM4099 -91h4q60 0 85 -55q6 -21 6 -71v-99h-71v122q0 40 -26 45h-9q-26 0 -31 -45
v-122h-71v219h67v-2q8 8 46 8zM4666 -91h6q46 0 77 -38h-18v32h65v-219h-65v31h18q-37 -39 -84 -39q-76 0 -107 81l-4 32v11q0 71 78 103q12 6 34 6zM4928 -91h4q68 0 88 -71l3 -72v-82h-72v122q0 40 -28 45h-7q-26 0 -30 -40v-127h-72v219h67v-3q9 9 47 9zM5264 -91h2
q78 0 109 -83l4 -35q0 -77 -86 -112l-28 -3q-46 0 -56 11v-73h-70v289h65v-8q13 14 60 14zM5820 -91h5q39 0 60 -24q19 24 66 24h6q62 0 86 -60l6 -44v-121h-70v109q0 58 -28 58h-7q-23 0 -28 -38v-120l-9 -9h-63v125q0 35 -22 42h-13q-28 0 -28 -62v-105h-69v219h65v1
q5 5 43 5zM1643 -97h63l9 -9v-201l-9 -9h-63v219zM2541 -97h70v-219h-70v219zM2878 -97h69v-121q4 -48 31 -48h4q33 0 33 66v103h69v-219h-64v24h15q-14 -32 -67 -32q-58 0 -86 58q-4 11 -4 30v139zM3652 -97h69v-219h-69v219zM5620 -97h69v-219h-69v219zM2350 -207
q0 -45 42 -59h9q43 0 53 53v9q0 44 -44 55h-14q-29 0 -46 -45v-13zM2696 -181h95q-14 32 -40 32h-6q-33 0 -49 -33v1zM3808 -181h93q-16 32 -39 32h-7q-35 0 -47 -32zM4378 -198v-9q8 -59 48 -59h4q52 6 52 57v5q0 37 -31 52l-14 3h-10q-49 -9 -49 -49zM4623 -211
q12 -55 49 -55h11q30 0 46 48v11q-7 58 -44 58h-16q-35 0 -46 -58v-4zM5207 -198v-19q0 -38 48 -49h7q38 0 48 62q-12 55 -46 55h-12q-45 -11 -45 -49z" />
    <glyph glyph-name=".null" horiz-adv-x="0" 
 />
    <glyph glyph-name="nonmarkingreturn" horiz-adv-x="508" 
 />
    <glyph glyph-name="space" unicode=" " horiz-adv-x="673" 
 />
    <glyph glyph-name="space" unicode="&#xa0;" horiz-adv-x="673" 
 />
    <glyph glyph-name="exclam" unicode="!" horiz-adv-x="444" 
d="M247 289q-8 -17 -21 -17q-18 0 -18 23q0 8 2 14q135 269 230.5 478.5t150.5 363.5q8 18 45 28.5t57 2.5q13 -2 19 -56q6 -53 -6 -71q-2 -6 -11.5 -8.5t-18.5 -4.5t-18.5 -3t-11.5 -5l-81 -141t-101 -193l-132 -253.5zM167 37q0 -12 -30.5 -25.5t-55.5 -13.5
q-14 0 -19.5 9t-15.5 56q-6 54 0 62q8 10 40 25.5t52 15.5q8 0 13 -4q16 -17 16 -125z" />
    <glyph glyph-name="quotedbl" unicode="&#x22;" horiz-adv-x="589" 
d="M446 836q-7 -11 -17 -7q-10 5 -10 11q0 8 2 10l164 305q8 16 29 16q47 0 47 -38q0 -7 -6 -15q-78 -98 -209 -282zM661 829q-9 -10 -15 -6q-12 2 -12 11q0 6 2 8l166 307q10 16 29 16q47 0 47 -39q0 -4 -6 -16q-41 -49 -93.5 -118.5z" />
    <glyph glyph-name="numbersign" unicode="#" horiz-adv-x="993" 
d="M59 88l71 114.5l95 157.5h-113q-32 0 -51.5 -1t-27.5 -1q-25 0 -25 9q0 4 8 11t18.5 13t20.5 10.5t16 4.5h181l63 99.5l88 139.5h-116q-35 0 -56.5 -2t-29.5 -2q-25 0 -25 10q0 8 24.5 23.5t36.5 15.5h195l119.5 172l109.5 150q15 10 35 10q33 0 6 -35l-65.5 -89
l-149.5 -208h215q35 55 93.5 135l136.5 187q14 10 34 10q33 0 7 -35l-76 -104.5l-139 -192.5h137q31 0 31 -12q0 -8 -20.5 -20.5t-29.5 -12.5h-65q-25 0 -46.5 -2t-39.5 -2l-66 -97.5l-92 -137.5h160q33 0 33 -11q0 -10 -20.5 -22.5t-31.5 -12.5h-71q-29 0 -53.5 -1
t-45.5 -1l-75 -111.5l-105 -158.5q-24 -41 -39 -41q-4 0 -4 6q0 13 15 35l165 270h-227l-78 -113.5l-102 -156.5q-29 -41 -39 -41q-4 0 -4 6q0 13 14 35zM454 641l-38.5 -58.5l-118.5 -176.5h223q18 32 56 91.5l96 147.5h-107q-37 0 -64.5 -2t-46.5 -2z" />
    <glyph glyph-name="dollar" unicode="$" horiz-adv-x="950" 
d="M313 94l105.5 166l130.5 213q14 14 2 21q-125 108 -125 219q0 90 84 159q123 107 377 158q6 0 14 8q31 41 72 103q16 16 33 16q12 0 12 -8q-2 -2 -2 -4t-2 -4l-29 -45.5l-39 -57.5q-2 -2 -2 -4q-2 -2 0 -2h6q115 0 156 -57q6 -10 6 -23q0 -26 -25 -26q-16 0 -22 16
q-23 51 -143 43q-5 4 -17 -8l-145.5 -225.5l-126.5 -210.5q-8 -11 2 -21q121 -114 147 -164q15 -28 15 -67q0 -96 -97 -160q-151 -104 -387 -104q4 0 -10 -11q-22 -39 -76 -120q-8 -15 -30 -15q-17 0 -17 8q0 4 6 17q23 28 41.5 57l36.5 59q2 7 -8 9q-213 30 -213 80
q0 16 17.5 28.5t33.5 12.5q8 0 10 -5q78 -51 189 -59q14 0 20 8zM582 451l-115 -181l-111 -180q-2 -8 6 -8q39 -4 83 -1t85 13t76 26.5t58 35.5q51 39 51 92q0 41 -37 106q-12 21 -32.5 45.5t-51.5 55.5q-6 6 -12 -4zM606 569q29 43 89.5 141.5l158.5 254.5l2 8q-2 2 -14 0
q-209 -49 -287 -135q-23 -23 -32 -48.5t-9 -54.5q0 -80 78 -168q8 -8 14 2z" />
    <glyph glyph-name="percent" unicode="%" horiz-adv-x="1404" 
d="M722 1044l7.5 -2t15.5 -3t16 -1h10q121 -2 252 -2t277 -2q18 0 78 29q2 2 16 11t43 26l33.5 17t21.5 7q19 0 19 -16q0 -18 -25 -33q-164 -123 -334 -270.5t-350 -323.5q-407 -395 -444 -540q-11 -43 -23 -43q-2 6 -3 17t-1 34q14 119 363 481q153 160 311 304.5
t323 279.5q2 2 -28 2q-441 0 -449 -17l-21.5 -13t-6.5 -19q6 -62 -9 -136q-16 -51 -42.5 -98t-69.5 -88q-47 -47 -95.5 -76.5t-103.5 -46.5q-29 -6 -53 -6q-121 0 -121 123q0 29 10 76q21 71 80 143l65.5 84t28.5 41q-2 8 6 37q7 16 66 16q37 37 70 37q34 0 67 -29z
M1124 494q65 41 120 47q132 12 132 -127q0 -45 -17 -92q-31 -105 -110 -187q-86 -92 -195 -121q-27 -8 -55 -8q-125 0 -125 127q0 31 10 72q29 94 88 172q72 90 152 117zM1234 504q-78 -2 -155 -68q-121 -104 -142 -227q-2 -10 -4 -22.5t-2 -24.5q0 -68 38 -99.5t85 -21.5
q84 16 160 90t110 188q13 39 13 78q0 113 -103 107zM694 1004q-50 -5 -88.5 -17t-71.5 -41q-119 -104 -144 -227q-2 -12 -3 -24.5t-1 -22.5q0 -68 38 -100.5t85 -22.5q82 16 159 91t112 189q12 43 12 78q0 99 -98 97z" />
    <glyph glyph-name="ampersand" unicode="&#x26;" horiz-adv-x="1323" 
d="M1100 610l-45.5 -101l-61.5 -129l-71 -143.5l-71 -142.5q-13 -24 -27 -54t-31 -60q-8 -19 -19 -36.5t-24 -33.5q-43 -68 -100 -123t-127 -61q-41 -5 -73 15.5t-55.5 57.5t-38.5 87.5t-24 107.5q-18 -2 -36 -2h-35q-105 6 -171.5 62.5t-92 143.5t-7 193.5t83.5 212.5
q-41 -2 -67.5 -3t-34.5 -5q-16 -6 -27.5 -19.5l-23.5 -27.5q-8 -10 -21.5 -5t-26 15t-20.5 24.5t-4 26.5q8 29 21.5 34t54.5 7h65q48 0 117 2q45 62 106.5 116t132 99t145.5 78t147 49q18 6 25 21.5t-1 21.5q-12 15 -33.5 38.5t-39 56t-25.5 75.5t4 97q16 63 58 113t96.5 85
t116 52.5t114.5 15.5q57 -2 97 -37t57 -76q12 -24 7 -49t-15.5 -39t-23.5 -13t-18 27q-4 43 -29.5 78t-68.5 49q-37 15 -88 11t-100 -31t-85 -75t-40 -122q-4 -67 17.5 -120.5t57 -92.5t79.5 -63.5t87 -34.5q21 -6 26 -17.5t-1 -22.5t-21.5 -19.5t-35.5 -5.5q-49 8 -136 8
q-86 0 -182 -24.5t-192.5 -83t-169.5 -165.5q100 0 224 1t255 1h258t236 -2q55 4 89.5 3t77.5 -9q5 -4 17 -7t22.5 -6t14.5 -5t-8 -4q30 -25 52.5 -62t22.5 -78q0 -28 -10 -49q-20 -49 -119 -141q-18 -19 -26 -19q-4 0 -4 3q0 10 16 30q111 113 111 213q0 76 -93 88
q-24 2 -58 3t-77 1zM386 381q-19 -72 -27 -157t-4 -163q92 2 173 36t147.5 80t117.5 96.5l86 86.5q10 11 26.5 34.5t35 53t36 61.5t29.5 60q10 25 7 34t-25 9h-62h-116h-156h-176q-88 0 -175 -1t-157 -3q-4 -10 -9 -19t-9 -20q-43 -86 -51.5 -173t12 -157.5t69.5 -117.5
t121 -55q10 -3 21 -3q12 0 22 -2q-8 93 5.5 181t41.5 147zM930 369q-96 -107 -168.5 -173.5t-138 -106.5t-128 -59.5t-136.5 -31.5q6 -53 18.5 -98t32 -79t47 -52.5t62.5 -16.5t68.5 26.5t66.5 61.5t61.5 84t53.5 94zM369 389q13 27 17 24t0 -30z" />
    <glyph glyph-name="quotesingle" unicode="'" horiz-adv-x="364" 
d="M446 836q-7 -11 -17 -7q-10 5 -10 11q0 8 2 10l164 305q8 16 29 16q47 0 47 -38q0 -7 -6 -15q-78 -98 -209 -282z" />
    <glyph glyph-name="parenleft" unicode="(" horiz-adv-x="837" 
d="M1150 1219q4 2 8 2h11q20 0 20 -11q0 -14 -31 -20q-350 -74 -596 -412q-237 -329 -237 -686q0 -53 7 -104t19 -101q0 -4 17.5 -15t15.5 -30q-4 -26 -25.5 -45.5t-44.5 -19.5q-22 0 -28 26q-35 127 -35 250q0 393 260 733q258 340 639 433z" />
    <glyph glyph-name="parenright" unicode=")" horiz-adv-x="837" 
d="M-124 -203q-6 -2 -17 -2q-20 0 -20 10q0 15 29 21q348 74 596 412q120 163 177.5 333t57.5 351q0 108 -24 206q0 5 -18.5 16t-16.5 30q6 26 26.5 45.5t42.5 19.5q25 0 31 -27q33 -118 33 -251q0 -394 -258 -734q-262 -338 -639 -430z" />
    <glyph glyph-name="asterisk" unicode="*" horiz-adv-x="743" 
d="M522 1188l-55.5 -114l-57.5 -120q65 23 139 55.5t144 57.5q16 10 19 -1t-7 -17q-70 -37 -153 -75l-144 -65l85 -72.5t68 -62.5q23 -20 15 -29.5t-19 -3.5l-85 66l-95 76l-36.5 -83t-37 -92t-23.5 -76t5 -32q6 0 -1 -5t-15 -9q-23 -6 -22 19.5t13.5 69.5t31 97t32.5 100
q-60 -34 -124.5 -65t-113.5 -68q-4 -2 -2 -9t-10 -9q-29 -4 -36 19.5t22 45.5q18 15 49 31.5t68.5 32.5l77.5 33.5t75 36.5q-39 22 -72.5 46.5t-76.5 45.5q-3 0 -9 -5.5t-12 5.5q-10 8 -10 20q0 15 8 24t21.5 13t31.5 -4q39 -16 74 -49t74 -64q22 54 44.5 102t39.5 91
q6 14 6 31q0 16 20 26q37 23 47.5 9.5t6.5 -23.5z" />
    <glyph glyph-name="plus" unicode="+" horiz-adv-x="856" 
d="M806 543q-73 -17 -172.5 -23t-201.5 -8q-41 -76 -76 -148.5t-58 -136.5q-4 -8 -7 -19t-2 -20.5t7.5 -12.5t20.5 3q10 4 20.5 10.5t22.5 10.5q6 10 9 7t-5 -13q-8 -13 -39 -31.5t-49 -22.5q-16 -4 -24.5 -1t-11.5 10.5t-1 17.5t4 18q23 70 65 156t89 172q-92 0 -168 4
t-123 10q-6 0 -16.5 8.5t-21.5 18.5l-21.5 19.5t-16.5 15.5q-6 10 -4 14t4 2q14 -12 35.5 -20.5t38.5 -14.5q63 -10 143 -16t166 -8q60 110 119 202.5t98 143.5q2 4 14.5 12t28 15.5t29.5 13.5t22 8q11 2 14 -3t-1 -7q-17 -6 -37.5 -22.5t-30.5 -30.5q-49 -66 -107.5 -153
t-111.5 -179q84 0 161 5t138 21q8 0 17.5 3.5t16.5 8.5t7 11q0 8 -10 18q-15 19 -35 27q-10 4 -8 8t12 4q12 -2 39 -20.5t37 -34.5q20 -25 8 -38t-27 -15z" />
    <glyph glyph-name="comma" unicode="," horiz-adv-x="364" 
d="M45 -233q-4 -7 -13 -7q-14 0 -14 17q0 6 8 14q129 90 146 215q2 17 -5.5 37t-21.5 49q-8 14 33 45t55 27q16 -4 28.5 -41t12.5 -70q0 -12 -2 -16q-37 -111 -227 -270z" />
    <glyph glyph-name="hyphen" unicode="-" horiz-adv-x="468" 
d="M75 340q-35 0 -35 18q0 37 66 37h288q35 0 35 -20q0 -35 -53 -35h-301v0z" />
    <glyph glyph-name="hyphen" unicode="&#xad;" horiz-adv-x="468" 
d="M75 340q-35 0 -35 18q0 37 66 37h288q35 0 35 -20q0 -35 -53 -35h-301v0z" />
    <glyph glyph-name="period" unicode="." horiz-adv-x="364" 
d="M253 37q0 -12 -30.5 -25.5t-57.5 -13.5q-12 0 -18.5 9t-14.5 56q-6 54 0 62q2 6 13.5 13t25.5 13.5t28.5 10.5t24.5 4q4 0 13 -4q16 -17 16 -125z" />
    <glyph glyph-name="slash" unicode="/" horiz-adv-x="837" 
d="M-85 -160q-11 -43 -23 -43q-4 13 -4 49q14 138 539 652q241 235 439 411t357 293q23 17 41 17q19 0 19 -17q0 -14 -25 -33q-166 -122 -363.5 -294.5t-428.5 -395.5q-256 -246 -394.5 -405.5t-156.5 -233.5z" />
    <glyph glyph-name="zero" unicode="0" horiz-adv-x="1107" 
d="M420 905q8 8 31.5 22.5t53 31t61.5 31t59 24.5q88 49 188 59q121 10 194.5 -57.5t73.5 -204.5q0 -41 -8 -88t-22 -100q-64 -207 -232 -385q-90 -99 -189.5 -159.5t-211.5 -90.5q-29 -6 -56.5 -10.5t-54.5 -4.5q-117 0 -189.5 68t-72.5 197q0 32 5 68t18 75
q86 295 352 524zM803 1020q-162 0 -338 -150q-117 -98 -199 -243q-39 -66 -64.5 -127.5t-35.5 -116.5q-4 -29 -7 -55.5t-3 -53.5q0 -65 16 -113t49 -85q55 -62 146 -62q200 0 395 209q166 178 231 393q27 82 27 166q0 240 -217 238z" />
    <glyph glyph-name="one" unicode="1" horiz-adv-x="780" 
d="M336 -4q-293 0 -393 -12q-37 -4 -37 18q0 41 37 45l107.5 10t164.5 11q78 141 204 334.5l300 443.5q8 10 8 24q0 15 -14 15q-8 0 -21 -4q-84 -33 -165.5 -59.5l-163.5 -53.5q-23 -6 -31 -6q-20 0 -16 12q6 14 36 23q216 80 366.5 146.5t242.5 119.5q12 6 22 6
q25 0 25 -25q0 -20 -15 -28q-18 -12 -42.5 -26.5t-59.5 -37.5q-8 -4 -11 -21.5l-7 -39.5q-37 -29 -106.5 -110t-172.5 -216q-104 -137 -174 -240.5t-104 -172.5q-4 -13 -8.5 -23t-4.5 -18q0 -41 80 -52q182 -28 244 -22q41 4 41 -14q0 -23 -59.5 -25t-206.5 -2h-66z" />
    <glyph glyph-name="two" unicode="2" horiz-adv-x="1017" 
d="M809 0q-80 6 -195 6q-266 0 -575 -24q-37 -5 -37 22q0 53 74 66q162 34 305 98q182 86 336 205q227 178 258 366q12 66 -39 140q-60 82 -154 102q-20 4 -41.5 6t-44.5 2q-137 0 -286 -84q-11 -6 -11 4q0 43 43 64q185 102 371 86q70 -4 122 -29.5t87 -66.5
q59 -72 59 -170q0 -195 -291 -416q-116 -92 -233 -155.5t-236 -106.5q-26 -9 -26 -23q0 -41 512 -41q49 0 49 -28q0 -27 -47 -23z" />
    <glyph glyph-name="three" unicode="3" horiz-adv-x="972" 
d="M840 215q-40 -88 -129.5 -157.5t-224.5 -127.5q-223 -94 -401 -96q-203 -6 -203 68q0 22 14.5 44.5t34.5 22.5q29 0 33 -45q2 -63 119 -63q151 0 348 90q239 108 309 268q8 23 13.5 44.5t5.5 43.5q0 103 -78 162q-94 74 -279 63q-14 0 -14 9q0 12 15.5 25.5t33.5 13.5
q119 0 264 84q68 41 115 79.5t72 81.5q28 45 28 93q0 88 -90 88q-145 0 -293 -70q-14 -8 -14 8q0 33 33 51q135 80 323 80q162 0 162 -125q0 -51 -27 -90q-98 -151 -380 -256q-17 -6 -17 -18q0 -13 19 -15q51 -4 94 -24.5t75.5 -52t51 -74.5t18.5 -90q0 -60 -31 -115z" />
    <glyph glyph-name="four" unicode="4" horiz-adv-x="1136" 
d="M489 -184q-4 -25 -17 -25q-20 0 -16 31q6 78 54 187.5t142 256.5q-61 6 -231 6q-109 2 -180.5 -1t-112.5 -9q-22 -4 -45 -35q-22 -28 -31 -28q-16 0 -16 32q0 23 12 39q6 11 43 29q11 4 20 9t21 14q56 63 150 149t229 197l238.5 189t181.5 126q4 2 12 2q25 0 25 -24
q0 -15 -17 -23q-73 -45 -185 -126t-259 -200q-283 -223 -334 -288q68 12 180 12q86 0 207 -6l90.5 -6t32.5 -2l223 305l279 377q37 47 121 47q22 0 22 -11q0 -4 -2 -6q-59 -67 -136 -164.5l-177 -224.5l-158.5 -211t-83.5 -119q174 -10 201 -4q10 2 10 -4q0 -10 -22.5 -27.5
t-40.5 -17.5q-70 0 -114 1t-64 3l-91.5 -129t-46.5 -67q-104 -164 -114 -254z" />
    <glyph glyph-name="five" unicode="5" horiz-adv-x="983" 
d="M831 158q-186 -215 -506 -215q-110 0 -209 30q-102 31 -102 74q0 23 23.5 41t50.5 18q18 0 24 -10q76 -86 277 -86q190 0 311 74q102 66 102 186q0 66 -45 111q-112 111 -428 190q-22 9 -22 29q0 25 47 90q78 111 145.5 198l124.5 154q15 21 45 21q11 0 34.5 -6t62.5 -23
l16 -11t25 -11q71 -2 176 -2h243q21 0 21 -13q0 -28 -47 -28q-154 0 -301.5 -3t-288.5 -8q-147 -137 -219 -258q-23 -38 8 -47l147.5 -55t69.5 -29q72 -30 125 -60t88 -63q62 -55 62 -137t-60 -151z" />
    <glyph glyph-name="six" unicode="6" horiz-adv-x="972" 
d="M858 195q-33 -48 -78 -90t-104 -78q-140 -84 -269 -84q-26 0 -52 5t-48 11q-84 29 -125 85t-41 149q0 264 266 550q350 381 699 443q6 2 12 2h12q23 0 23 -10q0 -11 -39 -19q-207 -37 -430 -237q-90 -80 -167 -172.5t-149 -200.5q199 80 367 80q47 0 68 -11
q137 -43 137 -190q0 -121 -82 -233zM757 551q-47 22 -131 22q-75 0 -144 -13t-130 -42q-123 -147 -123 -342q0 -110 57 -160q45 -39 119 -39q105 0 225 72q117 72 170 180q19 37 27 75t8 75q0 135 -78 172z" />
    <glyph glyph-name="seven" unicode="7" horiz-adv-x="1034" 
d="M108 -188q4 -17 -10.5 -30t-30.5 -13q-33 0 -27 47q25 164 914 1106q8 6 8 16q0 18 -39 25q-68 10 -266 12q-177 2 -222 -4q-18 -2 -44.5 -11.5l-65.5 -23.5q-10 -10 -25 -10q-16 0 -16 16q0 25 61 53q51 25 84 31q107 2 251.5 5l326.5 7q10 -2 41 4q8 7 23.5 15t37.5 18
q43 8 43 -49q0 -33 -22 -55l-609 -594q-225 -223 -325.5 -366.5t-87.5 -198.5z" />
    <glyph glyph-name="eight" unicode="8" horiz-adv-x="1196" 
d="M984 322q9 -148 -202 -297q-207 -142 -406 -142q-63 0 -118.5 17.5t-96.5 51.5t-64.5 82t-23.5 111q0 58 23 119q26 62 89.5 131.5t168.5 143.5l136 88.5l208 128.5q-60 112 -60 194q0 64 35 103q53 65 166 106q53 23 102.5 32t98.5 11q45 4 90 -20q51 -21 47 -49
q4 -41 -14 -41q-7 0 -12 2t-9 4l-25.5 17t-25.5 18q-43 30 -105 30q-34 0 -76 -9t-71 -32q-94 -71 -94 -178q0 -67 37 -147q49 22 116.5 59t153.5 90t145.5 96t94.5 76q30 25 41 25q6 0 6 -8q0 -62 -539 -375q74 -129 104 -197q35 -74 55.5 -134t24.5 -107zM171 250
q-28 -53 -28 -117q0 -188 217 -225q125 -21 309 80q217 123 217 323q0 49 -14.5 103.5t-46.5 117.5l-38.5 64l-72.5 117q-430 -236 -543 -463z" />
    <glyph glyph-name="nine" unicode="9" horiz-adv-x="1153" 
d="M337 995q33 47 80 89t107 81q145 88 272 88q51 0 105 -16q168 -55 168 -240q0 -247 -285 -563q-180 -192 -357.5 -304t-359.5 -144q-8 -2 -22 -2q-23 0 -23 10q0 12 41 22q211 37 428 215q201 166 334 394q-154 -76 -346 -76q-29 0 -52.5 4t-42.5 8q-135 43 -135 184
q0 129 88 250zM841 653q133 162 133 363q0 108 -57 162q-47 41 -123 41q-104 0 -223 -72q-60 -39 -104 -85t-68 -101q-23 -48 -33 -92t-10 -85q0 -116 72 -159q51 -31 143 -31q151 0 270 59z" />
    <glyph glyph-name="colon" unicode=":" horiz-adv-x="471" 
d="M476 414q0 -11 -30.5 -25t-57.5 -14q-12 0 -18 10t-15 57q-4 25 -5 40.5t5 19.5q7 12 39.5 27.5t53.5 15.5q6 0 10 -4q18 -19 18 -127zM253 37q0 -12 -30.5 -25.5t-57.5 -13.5q-12 0 -18.5 9t-14.5 56q-6 54 0 62q2 6 13.5 13t25.5 13.5t28.5 10.5t24.5 4q4 0 13 -4
q16 -17 16 -125z" />
    <glyph glyph-name="semicolon" unicode=";" horiz-adv-x="464" 
d="M45 -233q-4 -7 -13 -7q-14 0 -14 17q0 6 8 14q129 90 146 215q2 17 -5.5 37t-21.5 49q-8 14 33 45t55 27q16 -4 28.5 -41t12.5 -70q0 -12 -2 -16q-37 -111 -227 -270zM477 414q0 -11 -31 -25t-57 -14q-13 0 -19 10t-14 57q-4 25 -5 40.5t5 19.5q6 12 39 27.5t53 15.5
q6 0 10 -4q19 -19 19 -127z" />
    <glyph glyph-name="semicolon" unicode="&#x37e;" horiz-adv-x="464" 
d="M45 -233q-4 -7 -13 -7q-14 0 -14 17q0 6 8 14q129 90 146 215q2 17 -5.5 37t-21.5 49q-8 14 33 45t55 27q16 -4 28.5 -41t12.5 -70q0 -12 -2 -16q-37 -111 -227 -270zM477 414q0 -11 -31 -25t-57 -14q-13 0 -19 10t-14 57q-4 25 -5 40.5t5 19.5q6 12 39 27.5t53 15.5
q6 0 10 -4q19 -19 19 -127z" />
    <glyph glyph-name="less" unicode="&#x3c;" horiz-adv-x="1271" 
d="M1091 997q-6 0 -135 -59l-133 -64l-154.5 -70t-152.5 -71l-136 -61q-41 -19 -80 -35q-51 -21 -51 -29q-6 -28 25 -53q125 -94 188 -137q127 -92 277 -189q164 -106 213 -120q80 -23 129 -31q14 4 20 2q6 -4 10 -2q19 -23 15 -33q-29 -29 -96 -20q-93 10 -103 16l-352 221
q-248 160 -430 258q-12 15 -41 21q-12 2 -17 2q-6 -2 -34 -4q-29 14 -29 41q0 20 16 47q86 45 168 78l367 139l207 76q350 127 465 163z" />
    <glyph glyph-name="equal" unicode="=" horiz-adv-x="944" 
d="M77 360q-37 0 -37 17q0 31 76 31h663q43 0 43 -17q0 -29 -61 -29h-135q-90 -2 -191 -2h-358zM157 567q-39 0 -39 17q0 30 78 30h661q43 0 43 -14q0 -31 -61 -31h-135q-89 -2 -189 -2h-358z" />
    <glyph glyph-name="greater" unicode="&#x3e;" horiz-adv-x="1300" 
d="M182 102q4 2 65 29l715 330q61 28 63 31q7 28 -26 53l-74 55l-113 82l-137 96q-157 107 -264 168q-68 39 -90 45q-80 23 -127 29h-33q-16 27 -12 35q29 28 96 20q80 -8 100 -16q58 -33 152 -92l203 -129q268 -172 428 -258q10 -11 18 -13q29 -12 43 -8q4 0 31 2
q31 -14 31 -41q0 -20 -17 -47q-4 -12 -131 -63q-51 -23 -143 -58l-535 -196l-239 -84l-160 -56z" />
    <glyph glyph-name="question" unicode="?" horiz-adv-x="878" 
d="M431 244q0 -15 -14 -15q-23 0 -66 50q-22 28 -30 48.5t-8 34.5q0 15 12 19q166 47 285.5 94t203.5 90q310 162 310 379q0 31 -5.5 64.5t-17.5 70.5q-18 58 -53 106t-80 80.5t-98.5 51t-104.5 18.5q-106 0 -158 -73q-16 -23 -26 -23q-8 0 -8 8t4 15.5t8 17.5
q76 100 176 123q21 6 39 8t37 2q131 0 237 -102q41 -43 73 -92.5t48 -106.5q15 -41 20 -80t5 -78q0 -213 -203 -325q-78 -51 -285 -135q-104 -45 -175.5 -71t-114.5 -40q-25 -6 -35 -35q-4 -14 -1 -30.5t9 -32t11 -26.5t5 -15zM380 16q-6 -10 -34.5 -22t-51.5 -12
q-16 0 -24.5 9t-16.5 54q-6 47 2 59.5t41 28.5q37 17 49 17q11 0 20 -7.5t15 -58.5q4 -29 3 -45t-3 -23z" />
    <glyph glyph-name="at" unicode="@" horiz-adv-x="1863" 
d="M524 33q-20 -15 -47 -15q-51 0 -51 70q0 148 227 375q105 104 198 167.5t171 96.5q43 16 84 16q49 0 98 -18q35 -4 39 -2q31 6 55 27q6 6 11 6q10 0 15 -10.5t3 -16.5l-117.5 -181t-111.5 -181q-86 -144 -134.5 -276t-66.5 -251q-2 -10 -2 -18v-21q0 -137 160 -137
q71 0 143 25q39 12 96.5 46t117.5 77t117.5 91t94.5 89q92 114 144.5 265t52.5 304q0 152 -54.5 277t-151 215t-228.5 140t-289 50q-273 0 -488 -143q-94 -64 -168 -146q-22 -28 -45.5 -55t-44.5 -57q-33 -45 -60.5 -93.5t-49.5 -101.5q-27 -65 -47.5 -133t-30.5 -137
q-4 -31 -7.5 -54.5t-5.5 -47t-2 -50.5v-63q0 -45 6.5 -91t16.5 -91q18 -99 59 -191q90 -199 256 -321q109 -78 242 -121t287 -43q106 0 204.5 16t182.5 42t153.5 57.5t118.5 64.5q-137 -117 -307 -179.5t-358 -62.5q-207 0 -383.5 74t-304.5 205t-200.5 310t-72.5 388
q0 227 81 423t222 341t330.5 228t406.5 83q177 0 322 -54t248.5 -153.5t161 -237.5t57.5 -306t-59.5 -329t-167.5 -277l-64 -58t-72 -57q-90 -64 -167.5 -108t-133.5 -66q-28 -10 -58 -15.5t-60 -5.5q-101 0 -166 54q-72 55 -68 159q4 86 34 189.5t87 226.5
q35 76 68.5 139.5t68.5 116.5q12 23 -2 23q-6 0 -8 -7q-96 -112 -277 -266q-88 -78 -165.5 -133t-143.5 -96zM559 207q-10 -19 -10 -47q0 -49 37 -49q14 0 30 10q115 74 243 194.5t271 294.5q6 6 6 17q0 22 -25.5 40.5t-68.5 18.5q-73 0 -140 -50t-151 -142
q-135 -152 -192 -287zM1778 -418q-21 -43 -103 -98q60 49 103 98z" />
    <glyph glyph-name="A" unicode="A" horiz-adv-x="2976" 
d="M2864 879q-22 13 -22 31q-5 17 11 17q8 0 14.5 -5.5t14.5 -11.5q99 -87 134 -173q16 -39 -78 -71q-29 -13 -102.5 -4t-195.5 33q-30 -152 -45.5 -269t-15.5 -208q0 -93 18 -149q0 -3 9.5 -8l20.5 -10.5t18.5 -10.5t7.5 -8q-5 -40 -53 -40q-18 0 -21 11q-43 88 -43 309
q0 82 6.5 180.5t19.5 215.5l-303 64l-338 77q-127 -135 -280.5 -264.5t-336.5 -259.5q-515 -358 -853 -363q-168 -2 -259.5 94t-91.5 264q0 71 16.5 151t52.5 165q122 312 419 386q61 17 134.5 23.5t162.5 6.5q405 0 1034 -136q154 162 431 494l268.5 334t194.5 268
q13 15 35 15q44 0 100 -38t51 -56l-119.5 -367l-84.5 -261q-118 -395 -150 -571q136 -39 221 -39t85 42q0 64 -87 142zM575 961q-127 -29 -216 -113t-145 -228q-50 -133 -50 -269q0 -148 69 -237q40 -50 96 -77t134 -24q343 8 819 343q296 216 581 505q-518 127 -988 127
q-94 0 -168 -6.5t-132 -20.5zM1972 900q151 -46 301.5 -83t300.5 -66q31 321 274 1062q5 26 5 34q0 43 -24 43q-13 0 -21 -6.5t-22 -19.5q-202 -269 -404.5 -509t-409.5 -455z" />
    <glyph glyph-name="B" unicode="B" horiz-adv-x="1954" 
d="M1080 -21q-43 3 -58 12t-12 18t19 16t32 7q136 -6 273.5 18t248.5 75q48 22 82.5 60.5t46.5 85t-3.5 94t-69.5 87.5q-35 28 -102.5 53t-142.5 46t-147 36t-113 20q-17 -21 -74.5 -99.5t-125 -181l-133 -210.5t-96.5 -182q-28 -54 -42 -56.5t6 61.5q16 53 63 141
t105.5 183.5l117 190.5t103.5 161q-18 5 -31.5 7.5t-32.5 10.5q-20 9 -31 21t-12.5 23.5t5 21t15.5 9.5q23 3 70 7t81 14l115.5 172.5l108 174.5t91 162.5t66.5 135.5q5 10 12 30.5t8.5 37.5t-4.5 31.5t-24 17.5q-16 3 8 21.5t58.5 30.5t64 8t21.5 -44q-5 -38 -34.5 -101.5
t-71 -138l-89.5 -154.5l-94 -153l-84 -131.5l-59 -91.5q38 5 108.5 21.5t156.5 39t183.5 52t189.5 65t170.5 76t131.5 81.5q51 41 93.5 97t58.5 118t-6.5 129t-104.5 128q-126 94 -272.5 152.5t-305 91.5t-323.5 46t-327 16q-24 0 -84 2.5t-138.5 -1.5t-167.5 -15.5
t-171.5 -38t-151 -73.5t-102.5 -116q-22 -40 -5.5 -82.5t48 -81.5t70.5 -67t63 -41q40 -20 37.5 -41.5t-50.5 10.5q-46 26 -99 62t-94 77.5t-57.5 91t16.5 105.5q31 61 107 102t170.5 70t195.5 46.5t187.5 25.5t148 10.5t71.5 2.5q182 -3 351 -12t329 -39.5t308.5 -86.5
t290.5 -155q90 -63 127 -138t26.5 -151t-62.5 -147.5t-136 -127.5q-104 -69 -229.5 -123.5t-251.5 -94.5t-245 -67t-206 -42q-36 -6 -36 -22t33 -21q82 -11 158 -35t138.5 -53t108 -58.5t66.5 -50.5q61 -62 65.5 -116.5t-23.5 -102t-77.5 -88t-94.5 -71.5
q-91 -61 -222.5 -93.5t-299.5 -23.5z" />
    <glyph glyph-name="C" unicode="C" horiz-adv-x="2376" 
d="M907 -10q-325 5 -553 145q-257 152 -257 398q0 290 344 638q299 304 746 546q422 229 707 264q73 8 144 8q203 0 290 -81l35 35q3 13 19 8q13 -2 13 -18q0 -8 -34 -51q36 -45 36 -152q0 -104 -34.5 -195.5t-130.5 -198.5q-108 -132 -260 -218q-8 -3 -45 0q-43 8 -43 18
q0 150 152 390q114 186 229 308q-49 107 -264 107q-29 0 -62 -2.5t-71 -8.5q-450 -85 -978 -477q-556 -420 -678 -823q-18 -63 -18 -130q0 -197 167 -319q197 -141 549 -133q201 5 410.5 52t425.5 131q199 84 359 178t284 208q17 19 30 19q11 0 11 -13q0 -11 -19 -29
q-243 -248 -660 -424q-224 -93 -434.5 -139.5t-409.5 -40.5zM1953 1189q-3 -18 6 -23q10 -8 23 0q201 130 290 341q17 43 26 82.5t9 82.5q0 74 -27 119q-51 -53 -101 -122t-98 -162q-93 -178 -128 -318z" />
    <glyph glyph-name="D" unicode="D" horiz-adv-x="2483" 
d="M1784 1880q-102 35 -250 57t-314.5 26t-337 -15.5t-318 -74t-258 -147t-158.5 -230.5q-38 -104 -17.5 -206.5t68.5 -194t110.5 -170.5t112.5 -135q49 -53 34 -67.5t-69 34.5q-180 175 -266.5 342.5t-56.5 335.5q28 160 141 272t273 182t350.5 102t375 37.5t347 -13
t266.5 -51.5q249 -79 420.5 -201t271 -270.5t126 -315t-15.5 -332.5t-155.5 -324t-295.5 -292q-66 -48 -174 -106.5t-232.5 -109.5t-259 -85.5t-254.5 -34.5q-117 0 -210.5 44.5t-137.5 150.5q-12 21 -18.5 22.5t-19.5 -22.5l-31 -83t-28 -96q-7 -44 -27.5 -45.5t-9.5 54.5
q10 52 34 120.5l46 129.5q5 13 4 16.5t-6 23.5q-54 133 63 140q11 0 6 0q-3 0 2 11q53 109 119.5 233l138.5 247.5l147 245l144 225l130 188t106 133.5q13 17 37 26.5t43 9.5q22 0 31 -9.5t-4 -28.5q-51 -64 -127 -170.5l-163.5 -235l-178 -268.5l-170.5 -270.5t-141 -240
t-88 -175.5q-19 -38 -17.5 -88.5t22.5 -84.5q35 -64 113.5 -95t181.5 -35t223.5 16.5t240.5 62t233 98.5t204 129q234 188 329 422.5t50.5 462t-229.5 422t-506 301.5z" />
    <glyph glyph-name="E" unicode="E" horiz-adv-x="2142" 
d="M2553 1696q5 -35 -25.5 -38.5t-60.5 6.5q-58 10 -152.5 22.5t-202 20.5t-218 13t-201.5 5q-163 -160 -315.5 -359.5t-275.5 -390.5q106 8 231.5 13t250.5 6.5t247.5 -1t226.5 -10.5q36 -5 38 -29.5t-38 -24.5q-64 0 -152.5 -3.5t-186.5 -9.5t-199.5 -14t-195.5 -17
t-173 -21.5t-129 -25.5l-74.5 -137t-75 -162.5t-58.5 -179.5t-26 -189q0 -71 29 -119t76 -75t104 -34.5t113 -2.5q79 5 184.5 26.5t220 54.5t231.5 80t218 105q30 16 34 -3t-16 -29q-94 -77 -207.5 -135.5t-229.5 -98.5t-229.5 -61.5t-207.5 -21.5q-36 0 -98 15t-126.5 50.5
t-114.5 98t-58 158.5q-6 73 11.5 162t46.5 174t63.5 162.5t67.5 124.5q-21 0 -45 3t-39 24q-7 5 -17.5 17t-17 27t-6.5 28q0 16 13 29q10 11 34 16t53.5 9l57.5 8t48 10l267.5 381.5t286.5 371.5q-112 0 -243 -14.5t-267 -45.5t-269 -79.5t-248 -119.5q-141 -95 -244.5 -236
t-117.5 -330q-8 -138 33.5 -269t118.5 -248q18 -32 1 -41t-39 21q-36 49 -68 112t-56 133.5t-40.5 145t-16.5 146.5q-8 208 89.5 359t294.5 285q127 82 261.5 135.5t278.5 84t300 45.5t328 25q28 30 48.5 49.5t45.5 39.5q16 10 23.5 -2.5t16 -33t24 -39.5t50.5 -19
q197 -3 360.5 -21.5t295.5 -39.5q58 -18 58 -72z" />
    <glyph glyph-name="F" unicode="F" horiz-adv-x="1990" 
d="M2614 1954q-30 27 -15 29.5t36 -10.5q66 -37 99.5 -101t28 -129.5t-55 -117.5t-143.5 -62q-150 -19 -306 11.5t-318 84t-333 117t-350 112t-367 70t-387 -8.5q-142 -24 -233.5 -113.5t-135.5 -218.5t-45.5 -281t39 -297t117 -268.5t190.5 -198.5q89 -53 191.5 -61t197 25
t170.5 105.5t107 178.5q3 8 21.5 10.5t18.5 -10.5q-15 -109 -94 -189t-183 -124t-213 -46.5t-183 42.5q-152 96 -251.5 240t-145 310t-37.5 336.5t71 319.5q59 136 161.5 213t234.5 107.5t282 24t306 -38t306.5 -81t284.5 -100.5q263 -104 476 -157t352 -53
q140 0 194.5 54.5t1.5 166.5q-16 37 -38.5 61t-51.5 48zM1895 1638q16 13 29 8t21.5 -19t7 -34t-18.5 -38q-15 -21 -57.5 -73t-93 -125.5t-104 -161t-90.5 -178.5q-11 -26 -7 -31.5t34 -10.5q64 -12 145 -14.5t160 -2.5q81 0 147.5 1.5t101.5 1.5q39 0 36 -10.5t-39 -15.5
q-35 -11 -112.5 -16.5t-166.5 -7l-174 -3t-136 -3.5q-30 0 -43 -12t-21 -42q-32 -81 -65 -176t-58.5 -189.5t-40 -183.5t-8.5 -160q0 -17 5 -22.5t10 -9t9 -10t2 -26.5q-16 -56 -48 -69t-37 43q-8 51 4 147.5t34.5 212.5t54.5 233.5t67 209.5q10 30 -11.5 40.5t-44.5 10.5
q-17 0 -30 -4t-22.5 -7.5t-13.5 -2.5t-2 12q6 29 35 45t92 30q28 8 43 15.5t31 45.5q43 85 97.5 183.5l115.5 200.5q26 36 2 33.5t-61 -18.5q-19 -8 -27 -6.5t-8 6.5q0 8 5.5 16t15.5 10q70 33 134 88.5z" />
    <glyph glyph-name="G" unicode="G" horiz-adv-x="2281" 
d="M649 -242q157 173 596 298q80 21 256 60t450 89q44 107 111 246.5l152 320.5q14 29 14 40q0 6 -2 6q-3 0 -33 -22q-168 -120 -353 -232t-398 -213q-258 -122 -468.5 -182t-378.5 -62q-111 -6 -201.5 19.5t-159.5 73.5q-150 103 -150 303q0 48 8 101.5t28 106.5
q170 524 925 948q733 407 1379 368q168 -9 293 -124q118 -106 165 -262q9 -15 9 -28t-14 -10q-11 2 -18 21q-21 50 -47.5 89t-56.5 71q-117 119 -323 141q-28 3 -58 3h-59q-622 0 -1296 -384q-690 -391 -841 -846q-40 -126 -40 -218q0 -152 110.5 -231t336.5 -81
q181 -3 423.5 70.5t551.5 226.5q257 129 434.5 239.5t270.5 200.5q2 2 14 17q105 249 170 332l51.5 45.5l73.5 64.5q8 7 13 7q16 0 22 -35q5 -37 -4 -61q-47 -188 -119 -264q-6 -5 -21.5 -9t-37.5 -11q-18 -33 -83 -161.5l-183 -361.5q45 -44 75 -143q-13 -22 -34.5 -47
l-46.5 -54q-15 -8 -135 -43q-363 -649 -604 -806q-269 -182 -450 -188q-200 -5 -315 91q-104 89 -104 229q0 137 102 251zM1690 112l-282 -72.5t-243 -74.5q-329 -120 -481 -252q-109 -102 -109 -227q0 -104 89 -175q107 -70 297 -68q236 9 436 168q229 182 530 754z
M2145 434q-16 -38 -42.5 -88.5t-58.5 -119.5q22 5 44.5 17.5l51.5 28.5q32 23 35 74q5 53 -30 88z" />
    <glyph glyph-name="H" unicode="H" horiz-adv-x="2907" 
d="M3540 2012q-109 -122 -221 -267t-214 -297t-190.5 -301t-149.5 -279q30 0 59 3t50 -3q20 -5 25 -16t1 -20t-16 -17t-31 -3q-24 3 -52 0.5t-65 -2.5q-24 -48 -61 -130.5t-71.5 -183t-58.5 -207t-22 -198.5q0 -38 29.5 -49.5t50.5 1.5q19 10 24 -0.5t-5 -29.5
q-10 -13 -38 -31q-15 -5 -34 2.5t-35 23t-29 37t-16 37.5q-13 73 -2.5 167t35.5 194t59.5 197t69.5 170q-58 0 -154 -3.5l-201 -7t-207.5 -10t-174.5 -17.5q-141 -192 -300 -374t-331.5 -338t-359 -275.5t-380.5 -183.5q-130 -40 -225 -37.5t-155 35.5t-86.5 86.5
t-18.5 111.5q8 51 32 104t57 101.5t69.5 89.5t67.5 70q22 21 35 12t-8 -30l-52 -68t-53.5 -85t-43.5 -97.5t-23 -101.5q-10 -79 15.5 -121t80 -53.5t130.5 1.5t167 43q166 58 341.5 178t339 272t308.5 319.5t252 325.5q-21 -3 -57.5 -10t-65.5 -7q-24 0 -42.5 17.5t-27 39
t-2.5 39.5t32 21q46 9 107 7.5t125 3.5q37 45 77 114.5t76 144t64 147.5t41 126q26 139 6.5 240t-86.5 161.5t-178.5 74.5t-265.5 -24q-256 -63 -501 -232t-448 -403q0 -35 -5 -48t-15 -29q-21 -30 -56 -64.5t-69 -56.5q-17 -10 -31.5 2t-22 33t-9 46.5t11.5 42.5
q96 145 233.5 276t290 235t307 174t287.5 100q173 34 303.5 11.5t213 -94.5t114.5 -186.5t11 -263.5q-9 -61 -32.5 -134.5t-52.5 -145t-64 -135.5t-67 -112q59 3 150.5 1.5t193 -2.5t196.5 -1q96 0 160 2q48 104 119 226.5l146 242l147.5 226t125.5 175.5q13 17 5 26t-28 1
q-15 -2 -21.5 7t4.5 19q32 38 73 82l84 86.5l81.5 79.5t65.5 67q13 13 29 6.5t29 -23t19.5 -38.5t4.5 -39z" />
    <glyph glyph-name="I" unicode="I" horiz-adv-x="1482" 
d="M2015 1967q-121 -260 -264.5 -539.5t-307.5 -535.5t-342 -467.5t-364 -330.5q-73 -49 -153 -75.5t-152.5 -33t-138.5 6.5t-110 48q-30 26 -48.5 77t-29.5 96q-8 24 11 29t24 -18q13 -46 41 -84.5t61 -65.5q34 -29 86 -40t114 -5t130.5 29.5t132.5 66.5q111 78 223 199
t218.5 269.5t207.5 316.5t190.5 340t166 336l136.5 304q-160 -28 -319.5 -79t-304.5 -114t-273 -136t-227 -148q-67 -52 -132 -123t-87 -175q-10 -53 3.5 -101t26.5 -77q5 -13 -1.5 -21.5t-16.5 6.5q-25 28 -40.5 84t-19.5 107q-5 93 53.5 178.5t165.5 174.5q91 78 224 154
t290.5 144t334 123.5t357.5 96.5q43 13 59 31q10 12 26 10t28 -11t19 -22t2 -25z" />
    <glyph glyph-name="J" unicode="J" horiz-adv-x="1767" 
d="M2375 1981l-167 -350.5l-182.5 -362l-180 -343l-154.5 -292.5q-10 -21 -6 -38.5t22 -17.5q22 0 20.5 -13t-23.5 -18q-10 -3 -34 -12.5l-45 -17.5q-147 -250 -303.5 -488.5t-346.5 -461.5q-96 -112 -206.5 -216t-236.5 -192t-270 -155.5t-311 -107.5q-121 -29 -206.5 -5.5
t-123.5 88t-25 161.5t93 214q89 131 221.5 258.5t289.5 246.5t334 224.5t353 195.5t344 157.5t311 113.5l177.5 340l178 351l163.5 335.5t133 293.5q-175 0 -354 -46.5t-339.5 -137t-296 -217t-232.5 -286.5q-40 -64 -77 -142.5t-57 -165t-17.5 -174.5t42.5 -167
q13 -22 2.5 -28.5t-23.5 16.5q-37 68 -57.5 154.5t-19 182t27 193t75.5 184.5q89 152 210 260t254 184t269 123.5t255.5 78t211 48t137.5 33.5q37 5 62.5 22.5t41.5 35.5q10 12 23.5 9.5t25.5 -11t17 -19t0 -18.5zM1521 495q-224 -74 -474 -194t-490 -274t-448.5 -335.5
t-350.5 -375.5q-79 -112 -98 -194.5t11.5 -130.5t103 -61.5t173.5 13.5q159 43 297 113t258.5 159t222.5 190.5t190 203.5q67 74 149.5 189.5l166.5 242.5l160 247.5z" />
    <glyph glyph-name="K" unicode="K" horiz-adv-x="1932" 
d="M987 506q-11 -11 -15 -23t-4 -20q0 -16 13 -16q11 0 43 27q69 69 197 181q17 92 43 109q24 11 45 -22q176 150 350 276.5t351 238.5q518 313 814 293q45 -6 45 -24q0 -22 -45 -14q-160 10 -378 -75t-495 -276q-195 -130 -609 -488q76 -226 138.5 -386t110.5 -266
q125 -263 253 -435t266 -254q96 -59 205 -59q234 0 416 197q29 24 39 24q8 0 8 -13q0 -14 -21 -37q-223 -208 -450 -208q-117 0 -226 53q-404 183 -833 1308q-33 -13 -100.5 -79t-173.5 -188q-206 -231 -259 -320q-8 -15 -36 -15q-46 0 -46 23q0 12 5 17q72 100 185 285.5
l270 464.5q351 625 440 884q15 40 15 89q0 145 -151 153q-126 12 -300 -56.5t-400 -220.5q-453 -292 -541 -545q-10 -32 -10 -53q0 -45 53 -64q35 -19 104 -19q34 -8 34 -18q0 -19 -29 -19q-45 -9 -76 -12.5t-44 3.5q-13 12 -31.5 27.5t-35 37t-24 47t-2.5 56.5q2 5 2 17
q0 10 3 16q99 289 576 596q226 151 403 219.5t302 62.5q111 -7 175 -141q33 -54 44.5 -98.5t6.5 -82.5q-24 -237 -620 -1158z" />
    <glyph glyph-name="L" unicode="L" horiz-adv-x="2105" 
d="M-16 377q-6 45 68 104q34 25 57.5 39.5t47.5 21.5q15 2 33 3.5t32 1.5q152 0 436 -117l116 -52.5l281 -132.5q178 482 298 741q140 322 269 540.5t241 338.5q34 34 78 66.5t111 71.5q81 42 149.5 65.5t127.5 23.5q180 7 324 -128t226 -385q3 -9 6 -17t3 -13
q0 -27 -18 -27q-19 0 -31 32q-35 97 -92 179t-132 154q-145 143 -291 154q-188 20 -401 -220q-229 -257 -518 -892q-43 -89 -115.5 -265.5l-180.5 -447.5l237 -128.5l237 -131.5q221 -117 420 -209.5t378 -164.5q501 -193 846 -205q273 -5 458 140q38 29 75 80t66.5 112
t49.5 131.5t26 142.5q9 50 20 50q19 0 19 -54q0 -131 -66 -296q-68 -157 -152 -220q-27 -15 -72 -34.5t-113 -37.5q-78 -25 -153.5 -34t-151.5 -11q-342 -9 -884.5 182.5t-1281.5 578.5q-44 -137 -155 -230q-105 -94 -218 -101q-230 -6 -466 223q-233 214 -244 378z
M698 -186q219 -5 313 319q-547 263 -822 303q-112 16 -112 -66q0 -26 14 -65q83 -198 275 -346q179 -140 332 -145z" />
    <glyph glyph-name="M" unicode="M" horiz-adv-x="3009" 
d="M1286 1102q-364 -721 -661 -1041q-8 -10 -28 -25t-48 -28q-59 -34 -84 -34q-20 0 -20 58q0 156 287 532q114 152 238.5 289.5t259.5 267.5q58 111 106 227t89 237q71 223 71 318q0 91 -41.5 123t-138.5 21q-288 -32 -749 -393q-479 -376 -479 -610q0 -43 67 -66
q69 -23 89 -17q38 5 38 -6q0 -10 -43 -23q-41 -16 -90 0q-29 10 -61 55.5t-32 99.5q0 165 244 414q226 227 528 405q306 184 480 197q79 3 165 -61q84 -66 82 -139q-5 -112 -56 -278t-144 -385q339 297 471 297q54 0 93.5 -44.5t34.5 -95.5q-39 -313 -369 -995
q-22 -46 18 -46q21 0 38 27q254 338 702 778q556 535 785 548q70 6 112 -78q37 -74 37 -148q0 -45 -13 -58l-248.5 -404.5l-152.5 -261.5q-270 -490 -318 -807q-2 -11 -2 -18v-20q0 -103 82 -84q37 10 89 38t119 79q124 96 186 173q24 32 37 32q8 0 8 -8q0 -17 -21 -45
q-56 -83 -173 -181q-70 -62 -129.5 -96.5t-113.5 -50.5q-44 -13 -84 51q-43 64 -43 130q-3 234 234 734q96 198 208 400t244 410q22 30 30 55t8 44q0 59 -79 59q-35 0 -76 -11q-236 -61 -760 -578q-462 -453 -813 -916q-27 -35 -83 -35q-42 0 -42 28q0 5 1.5 9t4.5 11
q231 440 360.5 748.5t163.5 492.5q10 88 -62 88q-104 0 -297 -152q-165 -125 -256 -237zM594 94q61 68 142.5 181.5t179.5 270.5q202 315 260 460q-154 -132 -338 -381q-218 -287 -289 -490q-30 -71 5 -71q18 0 40 30z" />
    <glyph glyph-name="N" unicode="N" horiz-adv-x="2417" 
d="M1461 1951q117 -5 185 -109q61 -84 61 -226q0 -61 -13 -122q-38 -145 -159.5 -391t-333.5 -603q-19 -29 -19 -48q0 -10 10 -10q20 0 43 43q109 138 241 281.5t292 298.5q432 423 666 461q37 8 63 -12t56 -55q38 -42 43 -78.5t5 -72.5q0 -17 -1 -32.5t-7 -26.5
l-191.5 -350.5l-188.5 -349.5q-49 -89 -122 -240.5l-153 -332.5l-158 -371.5t-135.5 -356t-85.5 -286t-7 -163.5q5 -13 0 -27.5t-5 -28.5q0 -79 43 -79q112 0 389 274q31 31 39 31q5 -5 5 -10q0 -11 -24 -46q-45 -74 -175 -181q-142 -111 -213 -111q-29 0 -50.5 18.5
t-37.5 45.5t-24 58.5t-8 60.5q3 43 36 164.5t86.5 284.5l119.5 351l134.5 365.5l129.5 326.5t104 237l386 783q28 55 28 101q0 56 -61 56q-39 0 -95 -25q-237 -101 -573 -412q-135 -131 -265.5 -275t-260.5 -309q-110 -137 -183 -236t-114 -165q-28 -43 -66 -43
q-34 0 -34 30q0 7 4 16.5t9 22.5q646 1066 762 1427q13 43 19.5 82.5t6.5 77.5q0 221 -195 237q-183 10 -516 -176q-168 -99 -309 -205.5t-263 -233.5q-267 -275 -267 -474q0 -72 69 -85q41 -8 82.5 -9.5t77.5 6.5q33 5 33 -10q0 -13 -33 -22q-92 -29 -160 -16
q-127 25 -119 200q7 170 258 437q125 135 265 245.5t297 204.5q175 99 319 146t258 42z" />
    <glyph glyph-name="O" unicode="O" horiz-adv-x="2089" 
d="M140 849q67 259 316 503q-10 35 -10 78q0 148 139 316q159 184 412 291q242 95 503 95q104 0 200 -16q314 -48 496 -317q153 -217 153 -457q0 -19 -1.5 -36.5t-3.5 -30.5q-29 -197 -112.5 -372.5t-223.5 -338.5q-239 -272 -599 -437q-326 -150 -623 -135
q-274 13 -462 165q-216 176 -216 460q0 112 32 232zM1795 1895q28 -2 28 -18q0 -27 -30 -18q-69 16 -149 16q-319 0 -705 -206q-336 -173 -440 -322q5 -46 34.5 -87t74.5 -78q99 -74 208 -74q29 0 29 -19q0 -27 -42 -19q-59 2 -112 22.5t-103 57.5q-94 75 -124 160
q-36 -35 -78 -85.5t-87 -122.5q-85 -149 -117 -256q-13 -58 -21 -112.5t-8 -108.5q0 -247 168 -392t465 -159q315 -16 671 170q182 97 329.5 215t264.5 265q256 315 256 633q0 254 -149 449q-86 109 -209.5 171.5t-283.5 88.5q-37 5 -77 7.5t-77 2.5q-260 0 -511 -103
q-240 -96 -384 -248q-127 -135 -127 -269q0 -26 5 -53q188 189 498 335q351 170 652 170q39 0 77 -3.5t74 -9.5z" />
    <glyph glyph-name="P" unicode="P" horiz-adv-x="2044" 
d="M1410 711q11 -32 56 -45q85 -43 237 -43q140 0 256.5 26.5t206.5 74.5q210 107 210 348q0 299 -279 569q-152 140 -320 255.5t-354 201.5q-205 94 -398 138.5t-384 44.5q-419 0 -472 -302q-8 -54 -8 -104q0 -283 120 -462q14 -21 14 -31l-6 -5q-13 0 -26 20
q-77 69 -125 224q-41 131 -41 269q0 48 8 89q22 145 187 247q189 114 441 98q216 -10 425.5 -67t419.5 -159q160 -80 301 -174.5t269 -211.5q340 -295 340 -620q0 -294 -312 -416q-212 -87 -511 -87q-61 0 -117 5t-98 14t-68.5 23t-26.5 29q0 21 55 51zM435 -107
q-79 41 -124 110q-16 23 -16 40q0 15 13 15q10 0 34 -23q45 -56 123 -88q32 -13 73.5 -9.5t94.5 16.5q186 69 549 699q329 572 470 995q11 11 8 11q8 0 13 -48q7 -51 -3 -69q-148 -424 -348 -813q-330 -647 -623 -803q-40 -25 -87 -35.5t-96 -10.5q-45 0 -81 13z" />
    <glyph glyph-name="Q" unicode="Q" horiz-adv-x="2838" 
d="M1085 1483q-13 -27 -20 -27q-6 0 -11 27q-5 34 11 77q53 112 153.5 209.5t253.5 173.5q322 176 676 160q413 -10 644 -258q224 -232 224 -591q0 -182 -59 -365q-61 -188 -207 -360.5t-389 -330.5q-239 -160 -474 -239t-469 -79q-96 0 -183 16l407 -203.5l266 -126.5
q251 -109 432 -162.5t298 -48.5q187 5 312 94q76 58 116.5 137t40.5 188q0 91 -27 180q-3 13 -4.5 21.5t1.5 16.5q0 11 8 8q17 -8 30 -33q13 -15 23.5 -47t24.5 -83q26 -98 18 -159q-16 -97 -183 -232q-78 -64 -139 -101t-107 -43q-36 -8 -72.5 -10.5t-75.5 -2.5
q-297 0 -739 190q-61 26 -258 123.5l-542 270.5q-243 117 -425 188.5t-316 106.5q-21 5 -41 7.5t-33 2.5q-94 0 -94 -71q0 -30 14 -51q5 -21 23.5 -51.5t56.5 -63.5q45 -45 2 -45q-45 0 -112 94q-37 45 -50 79.5t-8 63.5q2 27 88 98q85 61 117 64q48 3 219 -56
q84 -26 153.5 -52.5t120.5 -53.5q-120 98 -120 367q0 43 4 84t9 82q64 325 362 673q141 157 287.5 278t314.5 212q24 16 43 16q18 0 18 -11q0 -18 -37 -40q-251 -133 -538 -478q-165 -195 -260 -365.5t-126 -317.5q-16 -92 -16 -183q0 -493 634 -476q208 5 411 59.5
t411 154.5q514 259 722 717q82 182 82 360q0 317 -219 529q-114 117 -266.5 176t-347.5 67q-367 8 -676 -152q-288 -147 -367 -338q-7 -13 -10.5 -29.5t-9.5 -34.5z" />
    <glyph glyph-name="R" unicode="R" horiz-adv-x="2183" 
d="M1210 577q0 56 54 56q16 0 28 -11.5t63 -27.5q83 -5 179.5 10.5t216.5 48.5q237 68 397 167q279 171 279 450q0 267 -231 465q-181 163 -516 259q-328 96 -693 96q-168 0 -319.5 -21.5t-290.5 -61.5q-260 -79 -260 -287q0 -77 36 -160q22 -43 31.5 -64l9.5 -21
q0 -2 -8 -2t-30 21q-79 88 -79 218q0 239 287 333q282 90 642 90q369 0 700 -90q344 -94 538 -246q284 -221 284 -500q0 -316 -356 -516q-139 -80 -357 -147q-122 -37 -234 -58.5t-219 -26.5q-18 0 -13 -35q21 -125 112 -338q138 -311 237 -441q91 -91 171 -91q35 0 70 13
q10 2 16.5 3.5t12.5 1.5q10 -5 7 -8q-2 -10 -20 -18q-51 -30 -110 -30q-85 0 -200 88q-129 118 -308 480q-127 306 -127 401zM1677 1514l-241.5 -358l-238.5 -360q-188 -288 -274.5 -463.5t-78.5 -244.5q2 -27 -48 -27q-49 0 -56 33q-41 127 854 1389q30 29 14 64
q-5 10 -5 13q0 25 21 25q13 0 26 -15q40 -41 27 -56z" />
    <glyph glyph-name="S" unicode="S" horiz-adv-x="1674" 
d="M342 538q187 82 422.5 136.5t522.5 79.5l-196.5 264.5l-237.5 320.5q-154 203 -154 365q0 178 186 298q394 253 925 253q193 0 321 -40q96 -35 169 -119q66 -102 66 -216q0 -38 -7 -76.5t-23 -78.5q-10 -26 -21 -38q-8 -13 -10 0q-3 12 3.5 50.5t6.5 83.5q0 133 -75 229
q-69 85 -183 117q-69 21 -149 29.5t-171 8.5q-493 0 -809 -238q-160 -112 -160 -271q0 -128 130 -322l199 -249l281 -366h109q66 0 150 3q28 0 28 -11q0 -14 -96 -17q-133 -2 -162 -7q75 -125 75 -256q0 -266 -285 -385q-123 -51 -252 -77.5t-268 -26.5q-204 0 -351 53
q-218 74 -218 244q0 160 234 259zM1309 716q-131 -15 -233 -32.5t-178 -33.5q-316 -64 -518 -170q-227 -115 -227 -236q0 -56 69 -117q48 -41 109 -58q77 -21 154.5 -29t160.5 -8q140 0 268.5 31t247.5 89q237 120 237 322q0 133 -90 242z" />
    <glyph glyph-name="T" unicode="T" horiz-adv-x="1901" 
d="M2713 1806q-86 5 -246 29t-361 58l-176 -299l-187.5 -340l-185.5 -353t-166 -341t-133 -305t-84 -242q-13 -51 -4 -93t22 -72q8 -21 -5 -38.5t-32 -22.5t-36 6.5t-17 49.5q-2 88 44 241t123.5 342t176 399.5l199.5 410l197 375l165 297.5q-188 30 -395 59.5t-407.5 49.5
t-384.5 28t-325 -8q-53 -5 -125 -22.5t-129.5 -53.5t-86.5 -94.5t8 -146.5q42 -107 113 -216t132 -183q25 -33 32.5 -47t2.5 -15.5t-20 7.5t-31 25q-93 93 -157 176t-117 181q-51 90 -25.5 167.5t89 134.5t145 95t145.5 51q106 20 287.5 17.5t398.5 -18.5t452.5 -39.5
t450.5 -48.5l36 53t28 36q11 10 7 21.5t-15 9.5l-31.5 -7t-34.5 -11q-30 -11 -30 2t25 27q31 26 87 62t96 44q38 6 55 -23t-4 -62q-48 -76 -109 -162q183 -21 332.5 -34.5t239.5 -13.5q45 0 60 24t9 47q-6 27 -9.5 46t-16.5 48q-21 53 -7 61t44 -40q8 -13 19.5 -37.5t23 -52
t12.5 -59.5t-11 -58q-10 -13 -21.5 -36t-33.5 -42q-26 -21 -47.5 -36t-50.5 -8z" />
    <glyph glyph-name="U" unicode="U" horiz-adv-x="2558" 
d="M2206 3q12 -24 12 -107q-7 -38 -33 -38q-23 0 -30 46q0 99 20 173q40 154 229 568l151.5 338t53.5 117q23 69 -3 69q-16 0 -35 -21q-253 -238 -708 -605q-300 -240 -500 -375.5t-304 -167.5q-16 -5 -32 -5q-31 0 -62.5 14t-53.5 41t-33 62t-6 71q30 193 226 523
l170 278.5l170 282.5q89 155 132 276t43 203q0 78 -58 152q-65 81 -180 88q-316 24 -681 -200q-178 -109 -306 -236.5t-210 -274.5q-25 -45 -35 -93t-10 -102q0 -170 165 -279q20 -11 20 -26q0 -11 -15 -11q-11 0 -29 11q-73 56 -117.5 106.5t-61.5 101.5q-18 58 -18 127
q0 102 45 195q138 287 493 511q383 244 760 229q99 -3 203 -120q99 -112 96 -213q-7 -203 -167 -508l-80.5 -144l-224.5 -392q-89 -157 -145 -279.5t-76 -210.5q-7 -23 -7 -45q0 -75 75 -75q39 0 79 21q115 51 310.5 188t472.5 369l350 291.5l348 299.5q36 30 74 75t91 101
q11 17 34 17q25 0 40.5 -20.5t10.5 -47.5q-6 -21 -12.5 -47.5t-16.5 -55.5q-58 -78 -141 -223t-194 -360q-121 -237 -191.5 -401t-97.5 -262z" />
    <glyph glyph-name="V" unicode="V" horiz-adv-x="1799" 
d="M905 43q-43 -51 -91 -51q-26 0 -47.5 14.5t-36.5 37t-23 49.5t-8 51q8 112 83 328.5t218 546.5q279 642 288 823v10q0 7 3 20v36q0 119 -117 119h-25t-26 -4q-333 -47 -652 -382q-296 -312 -320 -566q-8 -107 50 -140q8 -6 24.5 -7t37.5 -6q27 -3 27 -20q0 -23 -40 -31
q-28 0 -51 21q-16 5 -33.5 22.5t-38.5 51.5q-37 67 -32 118q38 316 365 641q321 320 633 360q109 8 190 -67q85 -77 82 -189q-3 -94 -71 -297t-196 -518q-279 -671 -310 -865q-7 -37 0 -75q8 -48 31 -48q25 0 56 43q290 376 527 654t421 464q607 607 988 607q71 0 136 -18
q31 -18 31 -24q0 -14 -31 -6q-27 6 -51 9t-48 3q-277 0 -685 -338q-151 -124 -327 -301t-375 -411l-279 -331z" />
    <glyph glyph-name="W" unicode="W" horiz-adv-x="2912" 
d="M1024 3q-14 -19 -40 -19q-69 0 -69 48q0 11 5 26q849 1471 812 1801q-21 212 -229 212q-151 0 -346.5 -78t-444.5 -230q-503 -317 -602 -600q-39 -119 17 -170q42 -35 156 -35q30 0 30 -5q0 -11 -32 -16q-93 -35 -160 0q-31 16 -55 73t-24 113q0 27 5 40q58 257 528 589
q465 327 838 380q135 17 252 -72q112 -79 117 -201q9 -238 -206 -736q-86 -199 -185.5 -390.5t-217.5 -384.5q-13 -31 -13 -39q0 -22 15 -17q17 3 40 28l398 455l502 572q0 5 40 66q21 46 43 40q29 -10 53 -53t24 -79q0 -16 -5 -28q-85 -162 -148 -302t-99 -254
q-86 -260 -89 -524q-2 -86 54 -140.5t144 -54.5h21q10 0 21 3q146 19 436 291q292 268 496 593q122 192 183.5 354.5t67.5 300.5q2 190 -54 279q-19 20 -19 36q0 10 9 10q15 0 39 -30q83 -92 83 -295q0 -264 -240 -647q-103 -171 -230 -322.5t-279 -295.5
q-300 -279 -481 -318q-17 -3 -31 -5t-27 -2q-102 0 -174 67t-80 174q-2 23 -2 45v53q0 418 258 910q11 19 11 43t-16 24q-17 0 -35 -19l-383.5 -441.5l-523.5 -612.5q-33 -38 -71.5 -93.5t-86.5 -116.5z" />
    <glyph glyph-name="X" unicode="X" horiz-adv-x="2049" 
d="M1 -315q-14 -56 -30 -56q-10 0 -5 54q25 226 178 439q70 102 199 224t313 266q162 128 318 232t313 197q18 308 28 459t10 146q0 34 -1.5 59t-5.5 50q-13 104 -122 79q-269 -63 -511 -404l-9 -15t-9 -10q-8 -5 -14 0q-6 12 0 28q6 18 9 20q39 84 111 162.5t166 152.5
q100 74 183.5 113t159.5 34q40 0 92 -48q56 -48 56 -78q6 -117 -1 -287.5t-28 -399.5q275 158 502.5 308t410.5 299q38 34 27 90q24 14 61.5 45t83.5 76q5 5 10 5q39 0 39 -101q0 -25 -10 -35q-117 -138 -554 -418q-160 -106 -305 -192.5l-275 -161.5q-17 -232 -17 -387
q0 -366 83 -483q82 -117 239 -109q94 7 199.5 48t224.5 122q26 16 38 0q16 -17 -14 -30q-275 -188 -440 -213q-23 -5 -60 6t-78.5 30.5t-81.5 46t-72 59.5q-128 119 -128 599v143q0 53 1.5 82.5t1.5 31.5q-168 -97 -322.5 -202.5t-300.5 -224.5q-325 -259 -464 -450
q-74 -102 -122 -200.5t-77 -200.5z" />
    <glyph glyph-name="Y" unicode="Y" horiz-adv-x="2467" 
d="M2099 133q51 67 214 405l105 217l103 217q7 26 5 29q-3 10 -16 -3q-338 -297 -734 -569q-259 -176 -469.5 -285t-375.5 -154q-24 -8 -46.5 2.5t-42.5 31.5t-32 52t-12 66q0 28 11 53q45 146 263 468l232.5 349l121.5 192q179 305 179 500q0 237 -293 258
q-130 14 -289 -40.5t-347 -169.5q-386 -240 -508 -507q-43 -100 -43 -175q0 -61 21.5 -109t90.5 -93q28 -22 56 -33.5t53 -14.5q37 -2 37 -19q0 -16 -50 -8q-180 32 -226 147q-30 61 -30 155q0 98 30 167q100 267 460 506q378 252 699 261q157 3 289 -123q132 -128 132 -263
q0 -91 -44 -212t-136 -273q-46 -78 -133.5 -212t-224.5 -326q-221 -320 -269 -437q-16 -31 -22.5 -56.5t-6.5 -40.5q0 -38 38 -38q24 0 87 16q320 88 844 449q243 168 427.5 317.5t316.5 284.5l5 13l46 67l55 83q26 40 77 40q5 0 10 -5q25 -56 -2 -83q-21 -13 -42.5 -34.5
l-50.5 -50.5l-155 -338.5l-175 -385.5q13 -14 28.5 -36t28 -43.5t20.5 -42t8 -27.5q0 -25 -51 -91q-23 -29 -42 -45t-35 -19q-21 -3 -54.5 -13t-79.5 -25q-84 -140 -155 -240t-127 -169q-162 -203 -323 -293q-257 -147 -452 -141q-161 2 -257 83q-91 71 -91 178
q0 130 130 234q347 266 1219 402zM2066 64q-128 -19 -261 -46.5t-278 -68.5q-422 -112 -614 -264q-123 -95 -123 -215q0 -199 303 -194q221 2 432 140q162 109 312 302l85.5 128zM2315 391q-21 -45 -51.5 -103.5l-70.5 -135.5q22 3 48.5 10.5l63.5 18.5q56 32 58 85
q3 56 -48 125z" />
    <glyph glyph-name="Z" unicode="Z" horiz-adv-x="2539" 
d="M996 1232q5 -13 10 -23t5 -16q0 -11 -7 -11q-8 0 -38 37q-40 56 -82 181q-40 137 -40 234q0 48 10 84.5t53 52.5q6 5 18 18t33 40q38 61 87 77q126 50 345 50q303 0 953 -130q2 0 15 8t32 18t38 17.5t32 7.5q48 0 48 -99q0 -40 -22 -56q-16 -7 -103 8
q-147 -127 -284 -287t-265 -351h93q24 -3 40 -3h27q34 0 34 -11q0 -24 -61 -24q-5 0 -49.5 -4t-123.5 -14q-208 -274 -374.5 -457t-285.5 -284l361.5 -232.5t405.5 -238.5q353 -202 619.5 -322t449.5 -155q72 -15 134 -15q412 0 415 548q0 41 18 41q17 0 20 -35
q10 -120 3.5 -215t-44.5 -159q-40 -68 -78.5 -106.5t-70 -58.5t-55.5 -28t-37 -17q-61 -29 -141 -26.5t-171 23.5q-366 81 -1020 429l-339.5 189.5l-546.5 316.5q-150 -96 -224 -135q-70 -33 -139 -55.5t-140 -38.5q-41 -8 -104 -8q-171 0 -264.5 72.5t-103.5 217.5
q-5 48 5 104t38 112q45 109 99 133q0 53 24 77t100 24q82 0 389 -181l364 -223q46 30 116.5 98.5t164.5 180.5q153 184 277 356q-41 36 -41 86q0 24 16 33q21 2 49 6t68 12q35 53 100 134.5l161 195.5l187 218t106 102q-104 31 -362 71q-352 64 -599 64q-80 0 -144 -6.5
t-115 -16.5q-145 -41 -170 -190q-2 -21 -3.5 -42.5t-1.5 -44.5q0 -216 86 -358zM545 43q121 23 238 76.5t231 144.5q-127 95 -322 207q-130 78 -219.5 115t-142.5 37q-9 0 -15.5 -1.5t-14.5 -4.5q-160 -74 -162 -332q-3 -128 106 -194q43 -25 97.5 -39t118.5 -14q24 0 44 1
t41 4z" />
    <glyph glyph-name="bracketleft" unicode="[" horiz-adv-x="1202" 
d="M574 1419l62 101t50 57q21 6 52.5 2t39.5 -39q39 8 97.5 13.5t116 6.5t105.5 -3.5t71 -16.5q14 -4 15 -13t-5 -20.5t-14.5 -22.5t-10.5 -20q-41 15 -101.5 18t-126 -4.5t-128 -22.5t-107.5 -34q-100 -143 -198.5 -324.5t-184.5 -373t-152.5 -379.5t-101.5 -346
q-4 -33 -5 -51.5t4 -28.5t17.5 -15t37.5 -14q55 -18 141 -22t175 1t164 17.5t105 28.5q19 10 31 9t14 -9t-7 -22.5t-34 -30.5q-28 -19 -96.5 -35t-152.5 -27.5t-173.5 -17.5t-158.5 -2q-33 0 -54.5 23.5t-35 57.5t-19.5 72.5t-8 73.5q-4 51 14.5 130t47 168t62.5 176l60 155
z" />
    <glyph glyph-name="backslash" unicode="\" horiz-adv-x="931" 
d="M1254 -160q-41 150 -551 639q-231 223 -429 395.5t-363 294.5q-25 15 -25 33q0 17 18 17q21 0 39 -17q160 -117 358.5 -293l440.5 -411q520 -514 539 -652q0 -36 -4 -49q-15 0 -23 43z" />
    <glyph glyph-name="bracketright" unicode="]" horiz-adv-x="970" 
d="M375 -59l-62 -101t-50 -57q-11 -4 -25 -4q-12 0 -26.5 3t-25.5 12t-13 26q-41 -8 -99.5 -13.5t-116 -6.5t-106.5 3t-70 17q-16 6 -16 14t6 19.5t14.5 21.5t10.5 21q41 -15 101.5 -17t126 4t128 21.5t109.5 34.5q98 143 197.5 324t184.5 372.5t151.5 380t100.5 346.5
q3 33 5 51.5t-3.5 28.5t-17.5 15t-37 13q-55 19 -141 24t-175 0t-164 -18.5t-105 -29.5q-19 -10 -31 -9t-14.5 10t7 23.5t33.5 30.5q29 19 97.5 35t152.5 27.5t173 16.5t159 1q33 0 54.5 -23.5t34.5 -57.5t19.5 -74t8.5 -72q4 -51 -14.5 -130t-47 -168t-62.5 -176l-61 -155z
" />
    <glyph glyph-name="asciicircum" unicode="^" horiz-adv-x="567" 
d="M1122 1274q-31 -4 -62 -7q-92 -8 -171.5 -12.5t-122.5 -4.5h-169q84 150 157 267t124 182q44 31 83.5 77.5t50.5 86.5q8 34 -5 52t-36.5 21t-49.5 -8t-41 -40l-75 -129.5l-92.5 -156.5l-99.5 -173.5l-98 -178.5h-260q-56 0 -64 -26.5t13 -55.5q17 -22 45 -22t44 31
q8 14 20 19.5t43 5.5h138q-77 -144 -149.5 -295l-136 -292t-113.5 -263.5t-80 -210.5q-113 -359 187 -254q86 31 184.5 96t174.5 127q25 17 13.5 34t-36.5 3l-144 -90.5t-182 -82.5q-95 -28 -135 7.5t-9 153.5q25 94 80 222t126 272l149 292.5l150 280.5h136q45 0 127 3
t174 11q48 5 97 11z" />
    <glyph glyph-name="underscore" unicode="_" horiz-adv-x="1045" 
d="M1058 -292h-1068v159l11 11v11h1057v-181z" />
    <glyph glyph-name="grave" unicode="`" horiz-adv-x="797" 
d="M1275 1751q8 39 4 86t-28 79t-69 40t-118 -29q-97 -49 -200.5 -159.5t-201.5 -251.5t-185 -298t-149 -300q133 65 286 154.5t289 196t238.5 228t133.5 254.5zM-49 838l69 6q65 6 129.5 18.5t109.5 30.5q80 185 177 357t201.5 313t210 243.5t199.5 145.5q92 43 154.5 39
t96.5 -38t42 -89t-8 -113q-35 -129 -134.5 -256t-239.5 -241.5t-308 -211t-336 -163.5q-25 -57 -53.5 -129l-59 -152l-61.5 -167l-62 -173q117 172 234 290t201 171q65 43 128.5 55.5t109.5 -8t69.5 -73t9.5 -138.5q-29 -182 -93.5 -350l-123.5 -328l81 90.5t95 71.5
q17 8 23 -6t-11 -22q-24 -15 -54 -42.5t-58.5 -60.5t-52 -65.5t-37.5 -57.5q-13 -18 -31 -22t-35.5 2t-26 21.5t2.5 35.5l161.5 373t106.5 358q12 70 -5.5 113t-54 59.5t-86 7t-100.5 -44.5q-111 -71 -240 -213.5t-270 -390.5l-11 -26.5t-15.5 -31.5t-14.5 -29.5t-8 -20.5
q-6 -13 -15.5 -16t-17.5 1t-13 12.5t-1 16.5l181 516l124 338q-45 -12 -110.5 -21.5t-130.5 -15.5q-20 -2 -38 -3v34z" />
    <glyph glyph-name="a" unicode="a" horiz-adv-x="862" 
d="M112 27q-26 -17 -47 -17q-51 0 -51 72q0 145 227 373q105 104 197 168.5t172 97.5q18 6 39.5 11t44.5 5q25 0 49.5 -5t48.5 -13q35 -4 39 -2q37 6 53 26q4 5 13 5q8 0 14 -10.5t4 -14.5l-117.5 -181t-113.5 -182q-43 -71 -84 -164.5t-75 -188.5t-58.5 -181t-32.5 -145
q-2 -11 -2 -19v-20q0 -70 43 -104t117 -34q73 0 145 25q108 37 283 176q84 68 150.5 139.5t115.5 135.5q18 20 24 20q2 -2 2 -6q0 -8 -8 -23q-47 -69 -113.5 -147t-158.5 -156q-86 -69 -154.5 -114.5t-126.5 -65.5q-28 -10 -57 -15t-62 -5q-49 0 -90 15t-73 38
q-39 22 -54.5 64t-13.5 96q2 43 17.5 114.5t40 152.5t53 160.5t57.5 141.5q35 74 68.5 137.5t68.5 116.5q15 22 -2 22q-2 0 -6 -4q-49 -59 -117.5 -124.5t-158.5 -143.5q-181 -152 -310 -227zM145 201q-8 -23 -8 -47q0 -50 37 -50q14 0 30 11q115 71 242 193t273 296
q6 6 6 14q0 23 -27 42.5t-68 19.5q-22 0 -47 -6q-96 -25 -243 -187q-70 -77 -118 -149t-77 -137z" />
    <glyph glyph-name="b" unicode="b" horiz-adv-x="937" 
d="M290 668q5 8 7 10q4 12 7 16t-5 -12v14q762 1719 1628 1774q297 16 524 -178q232 -195 207 -439q-6 -73 -45 -151q-195 -371 -1045 -692q-294 -113 -595.5 -197t-612.5 -143q-29 -54 -63.5 -135.5t-75.5 -198.5q-17 -35 -26 -64.5l-17 -54.5q35 33 102.5 79l167.5 112
q123 81 214 133.5t151 76.5q16 9 41 9q69 0 67 -76q-4 -14 -10 -29.5t-14 -32.5q-119 -198 -369 -348q-252 -151 -463 -147q-4 0 -12 4q-16 4 -27.5 18.5t-11.5 30.5q8 21 29 49l98 229.5l133 311.5q4 0 6 10v6q0 2 2 3t2 3l2 3v-5q4 9 7 15q0 -2 -1.5 -3zM2570 1757
q14 33 22.5 64.5t14.5 66.5q18 219 -183 383q-206 172 -497 162q-498 -23 -1008 -741q-317 -441 -547 -992q752 154 1334 408q694 305 864 649zM209 209q-50 -41 -66 -113v-2q2 0 2 -2q-2 -2 -2 -4t-2 -4l2 -8q-6 -29 10 -31q21 -6 94 8q78 17 155 54.5t157 95.5
q168 123 221 250l8 32q4 64 -45 64q-45 0 -266 -148q-90 -59 -155.5 -108z" />
    <glyph glyph-name="c" unicode="c" horiz-adv-x="700" 
d="M919 771q-49 -62 -128.5 -119t-197.5 -84q68 50 144.5 114.5t110.5 114.5q31 47 34 82t-15.5 54t-51.5 17t-78 -24q-107 -62 -217.5 -163t-210.5 -213l-34 -47q-68 -90 -139 -213t-82 -264q-3 -65 13.5 -106t44.5 -63t64.5 -29t73.5 -5q97 12 207.5 53.5t191.5 87.5
q24 16 34.5 5t-14.5 -25q-31 -24 -75.5 -51.5t-96.5 -53.5t-108 -48.5t-112 -31.5q-44 -8 -95.5 10.5t-96.5 55.5t-74.5 89.5t-27.5 111.5q6 105 46 214t101.5 211.5t139 195t160 166.5t164 125.5t153.5 75.5q55 17 106.5 2.5t82 -49.5t30.5 -88q0 -54 -47 -108zM593 574
q0 -3 -2 -6v3q2 0 2 3z" />
    <glyph glyph-name="d" unicode="d" horiz-adv-x="886" 
d="M827 696l76 131.5l71 122.5l-31.5 4t-29.5 7q-29 4 -51.5 33.5t-22.5 62.5q0 20 15 35q98 108 301 151h4l110.5 161t98.5 132q469 600 948 766q160 57 317 57q260 0 439 -147q168 -144 168 -342q0 -152 -105 -287q-117 -151 -338 -254q-823 -385 -1612 -385h-73
q-35 0 -70 2l-90 -158.5t-90 -169.5q-193 -374 -191 -589q0 -9 13 -23q8 -2 16 -3t18 -3q11 -4 5 -16q-9 -13 -17 -15q-22 -12 -45 13q-10 16 -17.5 40.5t-7.5 53.5q0 119 119 432q13 35 -10 35q-6 0 -12 -8q-53 -66 -123 -141t-160 -152q-205 -187 -336 -240q-12 -4 -20 -4
q-76 0 -76 70q0 137 242 366q217 205 370 266q19 7 40.5 12t43.5 5q23 0 50.5 -5t62.5 -16zM2328 2277q-665 -282 -1268 -1302q29 -2 58 -2h63q854 0 1587 426q426 246 426 520q0 178 -172 295q-172 123 -401 123q-152 0 -293 -60zM149 178q-10 -20 -10 -45q0 -45 35 -45
q16 0 32 10q136 88 265 201t254 258q24 31 24 53q0 47 -74 47q-26 0 -53 -6q-53 -12 -117.5 -59t-144.5 -125q-158 -158 -211 -289zM917 991q16 -4 35.5 -6t42.5 -4l79 126l72 116q-90 -25 -153.5 -64t-106.5 -90q-14 -14 -14 -37q0 -35 45 -41z" />
    <glyph glyph-name="e" unicode="e" horiz-adv-x="692" 
d="M952 631q-21 -23 -67 -54.5t-103 -39.5q-35 -7 -103.5 -9t-150.5 -4t-164 -2h-143q-23 -30 -48.5 -68t-48 -81t-39 -89t-18.5 -96q-2 -45 9.5 -73.5t31 -44t45 -20.5t51.5 -3q68 10 145 39t132 59q16 11 24.5 3.5t-8.5 -17.5q-22 -16 -53 -35.5t-67.5 -38t-76.5 -34
t-77 -21.5q-31 -6 -68 7.5t-67.5 40t-51 62t-18.5 76.5q6 113 62.5 225.5t137.5 210t170 168t160 99.5q39 12 70 -3.5t48.5 -45t20.5 -66.5t-16 -67q-30 -58 -110 -97t-183 -55h113q60 0 113 1t99 3t79 6q43 4 87 26.5t69 45.5q10 14 17 10t-3 -18zM622 727q21 33 23 57.5
t-10.5 38t-36 12.5t-54.5 -18q-75 -43 -153 -113.5t-148 -146.5q54 0 111 12.5t108.5 36t93.5 54t66 67.5z" />
    <glyph glyph-name="f" unicode="f" horiz-adv-x="522" 
d="M-1126 -381q29 10 30 3t-28 -19q-104 -47 -188 -144.5t-119 -232.5q-29 -113 1 -199t100.5 -135t173 -54t221.5 46q116 51 235 162.5t234.5 259t224 316.5t204 333l173.5 310.5l133 248.5q16 29 4 44t-27 26q-16 10 -35.5 19t-11.5 28q4 16 24.5 15t33.5 -1q22 0 44.5 -2
t47.5 2l74 106.5t83 108.5t88 100.5t91 81.5q43 33 95 63t108.5 51.5t113.5 30.5t111 1q24 -4 41.5 -23.5t17.5 -31.5q0 -5 -4 -14t-10.5 -18t-13.5 -14.5t-13 -1.5q-35 35 -80 53.5t-92 12.5q-84 -12 -163 -71.5t-148.5 -137.5t-126 -159t-90.5 -138h335q17 0 16 -10
t-24 -10q-80 -2 -160.5 -7.5t-168.5 -9.5q-17 -2 -23 -6t-10 -10l-133 -236.5l-185.5 -323.5l-223.5 -361.5t-249 -349.5t-263 -287t-263 -175q-154 -61 -270.5 -48t-191.5 73.5t-103.5 154t-5.5 191.5q14 68 52 129t89 112.5t109.5 89.5t115.5 58z" />
    <glyph glyph-name="g" unicode="g" horiz-adv-x="901" 
d="M808 588q8 0 12 -4q16 -4 29.5 -18.5t13.5 -30.5q-4 -25 -22 -50l-79 -237l-110 -324q313 56 592 56q51 0 89 -3.5t67 -7.5q22 -4 45.5 -18t43 -35.5t32 -46.5t12.5 -51q0 -25 -10 -45q-27 -52 -134 -135q-18 -17 -30 -17q-4 0 -4 2q0 12 20 27q121 112 121 203
q0 73 -100 81q-29 3 -67 4t-85 1q-186 0 -336.5 -11.5t-269.5 -38.5q-604 -1722 -1465 -1777q-294 -17 -540 178q-248 194 -248 436q0 76 33 154q155 366 981 692q561 223 1175 340q47 106 111 334q10 35 17 64.5t16 54.5q-35 -33 -97.5 -79l-154.5 -112q-117 -82 -203 -134
t-145 -79q-17 -6 -39 -6q-74 0 -74 74q0 28 18 63q97 197 336 348q240 150 449 148zM-1533 -1176q-25 -65 -25 -131q0 -217 215 -383q228 -174 512 -161q496 18 942 741q138 223 251.5 469t203.5 522q-739 -155 -1294 -407q-670 -312 -805 -650zM683 373q51 39 57 112
q0 2 -2 2v2q0 7 2 9q0 37 -14 39q-23 8 -94 -11q-150 -34 -297 -147q-156 -123 -199 -250q-2 -10 -3 -16.5t-1 -16.5q0 -65 49 -65q43 0 252 149l146.5 108t103.5 85z" />
    <glyph glyph-name="h" unicode="h" horiz-adv-x="1020" 
d="M544 881l-208.5 -358.5l-221.5 -395.5q10 8 26.5 26.5t45.5 47.5q65 65 139 130.5l152 131.5q188 149 256 155q8 11 80 29q12 2 30.5 -13.5t18.5 -31.5q0 -8 -2 -10q-35 -43 -74 -103.5t-82 -136.5q-100 -182 -100 -256q0 -53 55 -53q100 0 328 172q6 4 11 6t7 4
q2 -2 2 -4l2 -2l-14 -14q-266 -217 -385 -217q-37 0 -76 37q-47 36 -37 84q39 161 219 399q9 10 9 27q0 28 -31 28q-19 0 -41 -14q-115 -62 -320 -258q-172 -166 -264 -277q-4 9 -22 -16q-4 -10 -11 -10q-16 0 -16 32q0 11 2 17q82 174 195.5 384l261.5 464q-10 2 -25.5 4
t-34.5 6q-28 6 -50.5 37t-22.5 59q0 13 4 21t10 16q100 107 301 150q287 432 574.5 693t586.5 365q160 58 318 58q262 0 438 -148q168 -143 168 -342q0 -151 -105 -286q-112 -150 -337 -254q-824 -387 -1622 -387q-35 0 -70 1t-68 3zM563 915l72.5 -4t78.5 -2
q170 0 343 21.5t356 62.5q231 56 446 140t416 200q426 248 426 520q0 179 -172 295q-172 123 -402 123q-149 0 -290 -59q-344 -144 -659.5 -466.5t-614.5 -830.5zM499 920l75 118.5l75 116.5q-86 -25 -146.5 -62.5t-101.5 -84.5q-16 -17 -16 -39q0 -35 45 -41q28 -4 45.5 -6
t23.5 -2z" />
    <glyph glyph-name="i" unicode="i" horiz-adv-x="471" 
d="M618 266q-24 -24 -74.5 -63t-110.5 -81t-121.5 -79t-106.5 -57q-13 -4 -38.5 0t-51 19t-45 41t-19.5 63q0 32 16.5 84.5t41 110.5t53 118.5l53 111l41 86t18.5 44.5q4 24 24.5 33.5t39 3t27 -29t-10.5 -59.5l-107.5 -201.5l-54 -103.5t-19.5 -40t-5 -13t-9.5 -22.5
l-31.5 -67.5q-25 -51 -26 -79t13.5 -40t36 -11t41.5 5q39 8 97.5 39t120 69.5t114.5 77.5t82 66q18 18 26.5 20t9.5 -4t-5 -18.5t-19 -22.5zM489 899q-6 -35 -57 -80q-45 -43 -76 -37q-45 9 -45 35q0 29 47 76q47 49 76 55q23 4 42 -13t13 -36z" />
    <glyph glyph-name="j" unicode="j" horiz-adv-x="471" 
d="M34 -82q14 33 33.5 88t39 117.5l38 127t31.5 117t19 88.5t2 40q4 22 31 45.5t45 27.5q23 9 37 -0.5t12 -27.5q-2 -23 -22 -49q-15 -37 -36.5 -103.5l-48 -146.5l-53 -163t-51.5 -149q95 17 205.5 30t214 19.5t189.5 6.5q88 0 139 -11q26 -6 55 -25.5t49.5 -47t27.5 -61.5
t-9 -64q-27 -47 -59.5 -74l-73.5 -61q-29 -23 -33 -16t18 30q41 37 72 82t43 84q16 55 -12.5 85t-81.5 34q-53 6 -148 6q-92 0 -200.5 -6.5t-217 -17.5t-192.5 -29q-53 -156 -129 -344.5t-174 -382t-218 -377t-265.5 -330t-315.5 -239.5t-364 -105q-113 -8 -224.5 20.5
t-208 84t-174 131t-124 163.5t-55.5 182.5t30 186.5q45 106 141 202.5t227.5 183.5t288 162.5t323.5 142.5t337 121t325.5 98t288.5 75t228 49zM-2076 -1171q-33 -80 -23.5 -162t49.5 -159t108.5 -143.5t156.5 -115.5t193.5 -74.5t218.5 -21.5q192 8 363 113.5t316.5 268
t264 359.5t210 387.5t153 351t91.5 252.5q-213 -45 -439 -105.5t-443 -136t-417 -166.5t-361.5 -193.5t-276.5 -217.5t-164 -237zM437 874q-6 -34 -55 -79q-52 -45 -78 -37q-43 8 -43 35q0 28 47 75q47 50 76 56q20 4 40.5 -13.5t12.5 -36.5z" />
    <glyph glyph-name="k" unicode="k" horiz-adv-x="1126" 
d="M638 883h-59t-60 2q-8 -4 -17 -6t-17 -7q-27 -53 -73 -131.5l-112 -189.5q387 280 529 280q59 0 65 -47q0 -39 -26 -100q-56 -104 -224 -180q-159 -72 -307 -72q60 -104 147 -211.5t208 -218.5q256 -238 456 -297q35 -10 64 -10q139 0 188 110q6 15 14 11q2 -2 2 -6
q0 -7 3 -11q-17 -35 -42.5 -71.5t-68.5 -65.5q-6 -4 -100 6q-43 6 -68 13.5l-39 11.5q-371 100 -860 706q-41 -65 -84 -160.5l-94 -218.5q-4 -10 -13 -10q-10 0 -20 33q0 10 2 16l95 237t71 157q-16 53 1 81.5t46 22.5l106.5 182l92.5 154h-8q-11 2 -26 3t-34 5
q-29 6 -51.5 37t-22.5 59q0 23 15 37q51 53 126.5 91t174.5 61q286 430 574 692t587 367q162 55 317 55q261 0 441 -146q166 -147 166 -344q0 -149 -105 -284q-110 -150 -338 -256q-823 -387 -1622 -387zM519 922q35 -2 73 -3t79 -1q340 0 698 81q465 115 863 340
q426 248 426 523q0 174 -172 295q-175 120 -400 120q-151 0 -293 -59q-344 -143 -659.5 -465.5t-614.5 -830.5zM671 549q102 78 96 164q0 59 -69 49q-62 -8 -219 -111q-130 -88 -177 -137l10.5 -25.5t18.5 -35.5q6 -2 27 -2q32 0 72 6t87 22q50 17 88.5 33t65.5 37zM456 926
l76 119.5l73 117.5q-165 -51 -247 -149q-17 -15 -17 -39q0 -33 45 -39q29 -6 46.5 -8t23.5 -2z" />
    <glyph glyph-name="l" unicode="l" horiz-adv-x="702" 
d="M53 233q-4 107 24.5 222.5t80.5 234.5v6q757 1719 1626 1774q299 16 524 -178q229 -193 209 -439q-10 -79 -45 -151q-195 -371 -1047 -692q-293 -113 -593 -197t-611 -143q-35 -97 -58.5 -202.5t-25.5 -188.5q-4 -97 27.5 -140t80 -49t104.5 17.5t106 60.5
q26 20 47.5 41.5l44.5 46.5q16 16 23 13t-9 -25q-16 -21 -42 -47.5t-48 -46.5q-72 -64 -145.5 -94.5t-133 -22.5t-98.5 56t-41 144zM2429 1757q14 33 22 64.5t13 66.5q22 217 -183 383q-204 172 -497 162q-496 -23 -1006 -741q-156 -215 -287 -451.5t-243 -499.5h2
q-4 -10 -8.5 -20t-10.5 -21q375 78 707 178.5t624 229.5q697 305 867 649z" />
    <glyph glyph-name="m" unicode="m" horiz-adv-x="1269" 
d="M24 2q-6 -2 -8 8q-2 17 0 27q2 14 23 47q28 55 73 123.5l105 154.5q59 87 106 146t80 92q12 10 34.5 19.5t33.5 3.5q8 -7 -8 -19q-15 -8 -84 -92q-80 -92 -142 -203q-26 -47 -4 -47q10 0 23 12q123 127 299 236q129 80 186 61q21 -6 21 -30q0 -21 -24 -74t-69 -141
q-12 -19 -12 -35q0 -23 19 -23q12 0 20 8q143 130 267 219t229 138q12 6 22 6q35 0 27 -43q-8 -8 -17.5 -19.5l-21.5 -25.5q-41 -90 -95.5 -191.5t-125.5 -218.5q-21 -28 -21 -49q0 -16 15 -16q8 0 16 4t20 8q152 70 379 141q160 50 292 78.5t241 34.5q88 4 159.5 -7
t126.5 -44q113 -66 113 -162q0 -29 -8 -53q-14 -41 -51 -56q-17 -10 -27 -10q-8 0 -8 6q0 9 15.5 19t33.5 53q14 35 14 57q0 72 -73 121q-78 53 -215 53q-17 0 -35.5 -1t-36.5 -3q-301 -30 -598 -137q-313 -110 -522 -270q-11 -6 -19 -6q-24 0 -24 22q0 8 6 15l49 49
q-6 20 2 49q168 207 240 395q14 29 14 55q0 35 -29 35q-16 0 -41 -18q-307 -246 -393 -369q-4 -4 -15.5 -12t-33.5 -17l-43 -19t-27 -13q-12 -6 -25.5 8t-4.5 24q61 91 105 173.5t69 160.5q8 19 8 39q0 37 -31 37q-8 0 -26 -6q-21 -10 -58 -35.5t-90 -73.5
q-119 -98 -205 -196q-22 -25 -51 -63t-63 -89q-7 -10 -50 -26q-22 -9 -34.5 -15t-16.5 -10z" />
    <glyph glyph-name="n" unicode="n" horiz-adv-x="854" 
d="M39 49q-23 -4 -25 8q-8 9 4 33q47 100 160 272q53 82 100 146.5t88 114.5q7 10 18 16t34 10q12 2 14 0q0 -8 -6 -14q-78 -90 -134.5 -179t-97.5 -182q-8 -10 -8 -26q0 -23 17 -23q12 0 24 15l120 109l128 108q154 123 207 143q29 25 51 33q45 20 72 8q28 -10 -2 -47
q-146 -186 -262 -430q-113 -242 -121 -385q-8 -94 39 -146q43 -45 112 -45q33 0 60 9q116 32 293 182q194 166 194 266q0 21 -9 30t-21.5 12t-22.5 3q-8 0 -8 6q0 13 17 21t32 8q35 0 35 -47q0 -23 -13 -60q-18 -59 -65 -124.5t-119 -137.5q-197 -194 -426 -219
q-82 -8 -135 45q-58 62 -47 193q12 147 129 370q47 95 99 182t112 169q6 8 6 20q0 33 -37 33q-16 0 -33 -10q-117 -82 -232.5 -192.5t-236.5 -252.5q-20 -26 -104 -45z" />
    <glyph glyph-name="o" unicode="o" 
d="M130 -35q-14 -2 -30.5 3t-30 15.5t-22.5 25t-9 30.5q4 170 274 502q9 14 -4 18q-18 10 -36.5 23.5t-18.5 25.5q0 6 6 16.5t53 12.5q76 2 78 2q8 0 23 8q45 43 90 45q33 2 92 -37q4 -2 7 -4t7 -4q47 -2 114 -4t153 -4q30 -4 30 -8q0 -13 -30 -13q-64 0 -82 -24
q-4 -6 0 -12q2 -7 4 -13t2 -10q-6 -78 -66.5 -167t-183.5 -193q-240 -207 -420 -234zM101 74q-12 -23 -12 -45q0 -49 66 -37q139 22 334 201q204 182 235 331q14 62 -78 72q-49 6 -92 1t-80 -19q-4 2 -35 -19q-219 -203 -338 -485z" />
    <glyph glyph-name="p" unicode="p" horiz-adv-x="854" 
d="M85 -158q30 -4 30 -16q0 -21 -30 -14q-56 6 -132 6l-32.5 -80l-32.5 -82q-248 -617 -507 -995.5t-523 -524.5q-146 -75 -281 -75q-217 0 -370 178q-76 92 -114 197.5t-38 232.5q0 366 326 647q166 145 373.5 252.5t459.5 175.5q180 47 352 74.5t347 29.5l33.5 67
l29.5 59.5l30.5 62.5t41.5 74q45 77 87 158l87 161q-41 37 -35 62q12 34 109 73l128.5 197l184.5 278q10 17 74 41q26 9 26 -6q0 -8 -6 -10t-18 -21l-132.5 -198.5t-148.5 -243.5q84 33 149.5 47.5t118.5 14.5q148 0 148 -136q0 -106 -94 -237q249 65 286 67q9 2 15 0
q2 -4 0 -6q-6 -6 -15 -8q-71 -20 -159 -48l-193 -63q-172 -159 -436 -190q-43 -4 -43 39q0 12 8 20q27 17 137.5 57t306.5 105q105 119 105 248q0 111 -123 111q-47 0 -107.5 -20.5t-138.5 -61.5q-39 -66 -83 -123.5t-94 -131t-107.5 -177t-120.5 -261.5q65 0 121 -6z
M-163 -336q12 31 28.5 69l36.5 85q-155 -2 -312 -28t-325 -75q-241 -71 -444 -177.5t-369 -252.5q-372 -317 -372 -661q0 -217 157 -371q74 -76 163 -111.5t192 -35.5q133 0 247 63q232 125 469 473q88 127 176.5 280.5t172.5 340.5l89 199.5z" />
    <glyph glyph-name="q" unicode="q" horiz-adv-x="950" 
d="M25 150q78 225 351 430q106 77 198 130.5t174 75.5q88 27 138 27q39 0 69 -16q68 12 68 -11q0 -10 -12 -24q-56 -64 -131.5 -162l-172.5 -233q-94 -160 -206.5 -331l-222 -348t-207 -355.5t-160.5 -350.5q-289 -723 186 -741q137 -4 307 36t369 126q74 32 140.5 67
l127.5 70q-53 -39 -117.5 -80t-136.5 -76q-225 -98 -408.5 -143t-324.5 -37q-160 2 -238.5 71.5t-90 194.5t40 298t150.5 383t242.5 448.5t317.5 494.5q10 17 39 59l59.5 85l54 76.5t25.5 37.5q8 8 8 21q0 14 -16 14q-23 0 -37 -18q-100 -99 -194.5 -177.5t-184.5 -134.5
q-63 -43 -121 -43q-90 0 -90 95q0 18 6 41zM818 614q29 33 29 68t-19.5 54.5t-48.5 13.5q-176 -31 -405 -234q-256 -221 -256 -381q0 -51 45 -51t131 54.5t215 168.5q104 92 180 169t129 138z" />
    <glyph glyph-name="r" unicode="r" horiz-adv-x="555" 
d="M-39 -27q-10 -12 -12 0q-4 11 2 21q199 307 270 473q13 31 13 51q0 4 -6 23q-2 8 0 14q24 8 153 86q2 4 8 4q13 0 17 -10q8 -12 -2 -23l-112 -156.5t-68 -111.5q-7 -12 -7 -20q0 -11 23 -2q18 8 24 16q80 96 207 199q131 106 205 137q64 2 94 -12q2 -3 2 -5q0 -6 -7 -17
t-16 -20.5t-19.5 -14.5t-16.5 -1q-41 19 -111 -18q-303 -168 -540 -557q0 -6 -17 -15q-16 -6 -36.5 -15t-47.5 -26z" />
    <glyph glyph-name="s" unicode="s" horiz-adv-x="844" 
d="M381 217q166 92 321.5 141.5t309.5 75.5l2 -2q-143 -29 -293.5 -89t-314.5 -155q26 -34 37.5 -58t11.5 -38q0 -57 -135 -115q-115 -51 -187 -51q-24 0 -43 6q-28 -4 -45.5 -8t-27.5 0q-27 2 -13 27q35 43 277 211l-66 88q-22 29 -33.5 55.5t-15.5 54.5q-16 138 279 310
q147 88 277 130t245 40q12 0 22 -13q9 -18 0 -26q-14 -21 -45.5 -41.5t-46.5 -16.5q-47 17 -79.5 23t-55.5 6q-12 0 -23.5 -1t-21.5 -3q-117 -29 -270 -137q-195 -133 -181 -234q7 -41 46 -104q43 -62 69 -76zM109 -29q-17 -18 8 -22q37 -8 125 22l68.5 29t37.5 29
q9 10 9 22q0 33 -48 76q-32 -21 -100 -70q-41 -28 -65.5 -48.5t-34.5 -37.5z" />
    <glyph glyph-name="t" unicode="t" horiz-adv-x="1357" 
d="M352 -1139q-164 0 -270 123q-55 60 -69.5 134.5t-14.5 162.5q0 289 236 828q104 237 208.5 427.5t208.5 342.5q25 26 25 61q0 37 -37 57q-74 29 -57 64q6 12 60 18t153 6q8 0 2 6.5t-2 12.5q98 153 227 306l270 316q13 15 115 54q49 16 70.5 25.5t46.5 9.5q22 0 22 -19
q0 -8 -20 -14q-193 -39 -637 -649q-33 -48 14 -48h297q121 0 187.5 -1t83.5 -1q18 0 24 -6q0 -4 -11 -21.5t-30 -19.5q-117 -4 -267.5 -13t-342.5 -19q-35 -7 -51 -33q-109 -160 -205 -317.5t-189 -342.5q-141 -293 -223 -531.5t-98 -428.5q-2 -27 -2 -49v-50
q0 -356 252 -356q71 0 159 27q129 41 256 129t259 229q135 141 207.5 264t88.5 234q0 192 -137 170q-30 -4 -53 -18.5t-33 -14.5q-20 0 -16 18q10 17 29.5 29t72.5 35q8 2 25 2q65 0 125 -88q61 -92 57 -139q-41 -271 -391 -588q-178 -160 -332.5 -242t-292.5 -82z" />
    <glyph glyph-name="u" unicode="u" horiz-adv-x="962" 
d="M907 608q-29 -43 -63.5 -104.5t-66.5 -126t-56.5 -126t-30.5 -101.5q-6 -37 -1 -53.5t15 -19.5t25.5 1t29.5 8q15 4 35.5 13.5t32.5 17.5q33 22 36 4.5t-22 -39.5q-20 -23 -50 -42.5t-56 -29.5q-12 -4 -30.5 4.5t-34 23.5t-27 34.5t-11.5 40.5q0 39 9.5 82t24 83.5
t31.5 80.5l32 75q12 31 -0.5 50.5t-48.5 -17.5l-128.5 -124l-158.5 -147.5t-148.5 -129t-101.5 -66.5q-55 -18 -90 17.5t-31 86.5q4 48 25.5 109t55.5 125.5t74 131.5t81 126l76.5 107.5t62.5 78.5q10 13 27.5 18t30 1t14.5 -17.5t-17 -38.5q-47 -57 -99 -132.5
t-99.5 -153.5t-85 -152t-52.5 -129q-24 -84 1.5 -107.5t76.5 5.5q80 49 169 130t176 169l167 172t141 139q19 19 33.5 12.5t22.5 -24t9 -37t-5 -29.5z" />
    <glyph glyph-name="v" unicode="v" horiz-adv-x="657" 
d="M96 23q-25 2 -45.5 18t-14.5 33q51 227 305 577q6 8 21 8q33 0 33 -26q0 -4 -2.5 -7t-4.5 -8q-186 -294 -231 -458q-6 -25 -6 -43q0 -45 31 -45q20 0 51 24q43 35 102.5 106.5t136.5 176.5l104 141.5l101 141.5q6 10 11.5 36.5t19.5 65.5l49.5 36.5t34.5 22.5q4 2 13 -3
t18.5 -12t14.5 -15.5t3 -10.5q-59 -84 -55 -123q2 -24 26 -43q6 -4 6 -10q0 -20 -28 -14q-23 6 -39 13t-27 18q-6 6 -24 -17q-35 -51 -84 -115.5t-115 -142.5q-149 -178 -254 -266q-47 -45 -88 -45l-6 -4t-19 -8q-14 -5 -38 -2z" />
    <glyph glyph-name="w" unicode="w" horiz-adv-x="1079" 
d="M1163 532q10 0 10 -8q0 -6 -10 -10l-32.5 -8t-35.5 -4q-32 -183 -188 -338q-150 -150 -322 -166q-20 -2 -48.5 21.5t-45.5 66.5q-4 12 -4 35q0 170 51 321q6 13 -4 17q-10 6 -20 -8q-101 -138 -184 -234t-150 -151q-68 -58 -111 -52q-12 0 -33.5 20.5t-19.5 35.5
q8 47 49 122.5t113 184.5q72 106 109.5 168.5t41.5 81.5q2 14 27 14q31 0 31 -25q0 -10 -6 -22q-5 -10 -40.5 -66.5l-101.5 -160.5q-49 -76 -79.5 -135.5t-45.5 -100.5q-4 -12 -4 -20q0 -29 23 -29q14 0 22 8q45 33 105.5 95.5t138.5 154.5q131 160 182 240q11 22 25 46.5
t35 57.5q8 8 28.5 11t36.5 3q17 -2 15 -12q-23 -35 -42.5 -87t-41.5 -124q-23 -84 -36.5 -154.5t-13.5 -134.5v-28q0 -13 2 -25q9 -100 89 -84q112 29 221 168q108 141 116 297q-26 6 -43.5 27.5t-13.5 31.5q2 15 20.5 29t36.5 14q35 0 68 -75q23 -9 80 -9z" />
    <glyph glyph-name="x" unicode="x" horiz-adv-x="561" 
d="M1017 976q-53 -25 -134.5 -87.5l-168 -135l-169 -143l-133.5 -116.5q7 -46 26.5 -119.5t42.5 -150t49.5 -146t53.5 -106.5q28 -42 15 -48t-40 26q-21 30 -50 93t-56.5 135t-51.5 144t-39 126q-51 -41 -113.5 -100.5t-131.5 -134l-141 -158t-140 -173.5
q-34 -46 -80 -116.5t-79.5 -150t-41.5 -162t29 -153.5q28 -57 68 -85t80 -40q20 -8 13.5 -19.5t-25.5 -3.5q-37 10 -81 43.5t-73 82.5q-44 73 -47.5 152t22 160t73.5 162t104 163q60 83 131 167l143.5 163l142.5 148.5l128 126.5q-10 42 -21 105.5t-20.5 129.5t-16.5 128
t-9 104q-4 18 3.5 33t17 23t19.5 3t13 -30q7 -46 14 -107t15 -121.5t17 -119t21 -98.5l127.5 115.5l171 146l170.5 136t129 91.5q16 11 28.5 2.5t18.5 -23t1 -33t-25 -29.5z" />
    <glyph glyph-name="y" unicode="y" horiz-adv-x="813" 
d="M545 0q33 90 70 250q16 69 25.5 116.5t13.5 75.5q-100 -88 -250 -188q-197 -133 -313 -178q-13 -4 -19 -4q-18 0 -30.5 14t-8.5 29q13 41 187 356q4 8 1 34.5t3 39.5q8 14 78 45q73 33 90 35q28 2 32 -33q-43 -19 -143 -160q-84 -123 -123 -201q-6 -16 -6 -26
q0 -21 16 -27q21 -6 37 0q47 19 114 56.5t153 97.5q67 47 115 84t77 63q10 19 23.5 32t27.5 15q35 2 52.5 -16t13.5 -39q-8 -10 -15.5 -21.5t-17.5 -29.5q-41 -148 -129 -412q311 58 596 58q100 0 156 -13q22 -4 45.5 -18.5t43 -34.5t32 -45t12.5 -51q0 -27 -13 -45
q-26 -52 -133 -135q-16 -17 -28 -17q-4 0 -4 2q0 12 20 27q121 114 121 203q0 73 -100 81q-29 3 -67 4t-85 1q-371 0 -606 -50q-604 -1722 -1465 -1777q-294 -19 -540 178q-248 194 -248 436q0 80 31 154q157 366 983 692q284 111 576 197t599 145zM-1562 -1090
q-12 -32 -19.5 -64t-7.5 -67q0 -215 217 -383q228 -174 512 -161q492 18 942 739q138 223 251.5 470t203.5 521q-737 -151 -1296 -407q-668 -308 -803 -648z" />
    <glyph glyph-name="z" unicode="z" horiz-adv-x="512" 
d="M267 242q29 -19 40 -27t22 -31q4 0 4 2t2 2q0 -20 12 -36q0 -2 1 -3.5t1 -5.5q154 29 308.5 38t289.5 9q51 0 89 -3t67 -7q22 -4 45.5 -18.5t43 -36t32 -46t12.5 -50.5q0 -13 -4 -24t-9 -21q-26 -52 -133 -136q-16 -16 -28 -16q-4 0 -4 2q0 10 20 29q121 110 121 203
q0 71 -100 79q-29 2 -67 3.5t-85 1.5q-186 0 -336.5 -11.5t-269.5 -38.5q-604 -1722 -1465 -1777q-299 -17 -540 178q-248 194 -248 438q0 78 31 152q159 368 983 692q551 221 1157 338l22 6q-10 33 -43.5 43t-62.5 4q-10 -4 -17.5 10.5t9.5 30.5q20 21 54 70t67.5 107.5
t61.5 117.5t38 100q10 47 -3 69.5t-34 18.5q-20 -6 -46 -28.5t-51.5 -51t-50 -59.5l-42.5 -55q-17 -23 -19 -6.5t8 32.5l42.5 58t61.5 74.5t69.5 68.5t64.5 37q14 2 29.5 -8t26.5 -29.5t17.5 -43t4.5 -44.5q-4 -45 -31 -98t-59.5 -105.5t-65.5 -97.5t-49 -70q-6 -4 -6 -18
t12 -12zM-1832 -965q-10 -32 -17.5 -64t-7.5 -67q0 -215 217 -383q224 -172 512 -161q494 18 940 741q140 223 252.5 470t204.5 521q-739 -153 -1296 -407q-670 -308 -805 -650z" />
    <glyph glyph-name="braceleft" unicode="{" horiz-adv-x="862" 
d="M194 426q8 102 -39 150.5t-135 82.5l4 13q92 18 149.5 55t95.5 97.5t63.5 148.5t54.5 209q16 71 32.5 131.5t38 113t50 96.5t69.5 83q76 71 144.5 83.5t123.5 8.5l-12 -58q-98 2 -161.5 -39.5t-106.5 -117.5t-72 -180.5t-59 -227.5q-25 -100 -49.5 -172t-59.5 -122
t-85 -79.5t-126 -44.5q23 -8 50.5 -22t52 -42t39 -73t10.5 -114q0 12 -7.5 -17l-20.5 -82t-27.5 -121.5l-27.5 -135l-23.5 -123t-10.5 -85.5q-6 -75 10.5 -121.5t44 -77t59 -52t56.5 -48.5q-12 2 -32.5 5t-45 11.5t-50.5 23t-46 38.5q-33 35 -54.5 90.5t-13.5 153.5z" />
    <glyph glyph-name="bar" unicode="|" horiz-adv-x="566" 
d="M405 1647v-1706h-220v1706h220z" />
    <glyph glyph-name="braceright" unicode="}" horiz-adv-x="862" 
d="M671 817q-10 -102 37 -150.5t137 -82.5l-6 -13q-92 -18 -149.5 -55t-95 -97.5t-63.5 -148.5t-54 -209q-17 -71 -33 -131.5t-36.5 -111.5t-49.5 -96.5t-70 -83.5q-39 -35 -75.5 -54.5t-70.5 -28t-64.5 -9.5t-57.5 -1l10 58q99 -2 162.5 40t106.5 117.5t71.5 180
l59.5 227.5q24 100 48.5 172t59.5 122t85 79.5t126 44.5q-22 8 -50 22.5t-51.5 42t-39 71.5t-8.5 112q2 0 11 34.5t21.5 89l26.5 120l26.5 128t20.5 114.5t10 81q6 76 -11 122t-45 76.5t-59.5 53t-56.5 49.5q13 -2 34.5 -6t46 -12.5t49 -22.5t44.5 -39q35 -35 55.5 -90
t12.5 -154z" />
    <glyph glyph-name="asciitilde" unicode="~" horiz-adv-x="1628" 
d="M2031 1849q-35 -129 -134.5 -256t-239.5 -241.5t-308 -211t-336 -163.5q-25 -57 -53.5 -129l-59 -152l-61.5 -167l-62 -173q117 172 234 290t201 171q65 43 128.5 55.5t109.5 -8t69.5 -73t9.5 -138.5q-29 -182 -93.5 -350l-123.5 -328l81 90.5t95 71.5q17 8 23 -6
t-11 -22q-24 -15 -54 -42.5t-58.5 -60.5t-52 -65.5t-37.5 -57.5q-13 -18 -31 -22t-35.5 2t-26 21.5t2.5 35.5l161.5 373t106.5 358q12 70 -5.5 113t-54 59.5t-86 7t-100.5 -44.5q-111 -71 -240 -213.5t-270 -390.5l-11 -26.5t-15.5 -31.5t-14.5 -29.5t-8 -20.5
q-6 -13 -15.5 -16t-17.5 1t-13 12.5t-1 16.5l181 516l124 338q-45 -12 -110.5 -21.5t-131 -15.5t-125 -8t-92.5 -2h-98l-80 -203.5l-78 -212t-63.5 -198t-34.5 -160.5q-10 -86 22.5 -111.5t98.5 -5.5q69 23 123.5 59.5l95.5 65.5q16 10 26.5 -2t-6.5 -25q-49 -45 -113.5 -92
t-123.5 -69q-207 -76 -162 184q12 63 35.5 152.5t55.5 191.5l69 212t78 214h-101q-22 0 -30.5 -4t-12.5 -14q-8 -23 -28 -23q-21 0 -35 16q-19 21 -16 40.5t44 19.5h189q24 63 52 128.5l54.5 126l51 114t41.5 94.5q8 20 25.5 28.5t34.5 6t28.5 -15.5t9.5 -38
q-4 -28 -27.5 -62t-52.5 -57q-31 -47 -72 -132t-86 -193h123q31 0 88.5 3t123 9t130 18.5t109.5 30.5q80 185 177 357t201.5 313t210 243.5t199.5 145.5q92 43 154.5 39t96.5 -38t42 -89t-8 -113zM1974 1849q8 39 4 86t-28 79t-69 40t-118 -29q-97 -49 -200.5 -159.5
t-201.5 -251.5t-185 -298t-149 -300q133 65 286 154.5t289 196t238.5 228t133.5 254.5z" />
    <glyph glyph-name="sterling" unicode="&#xa3;" horiz-adv-x="2413" 
d="M2516 1641q69 82 121.5 119.5t82.5 45t30 -12.5q0 -16 -35 -49q-69 -66 -153.5 -178t-168 -242.5t-158.5 -271.5t-122 -267q2 0 13.5 -3.5t22.5 -9.5t11 -15q0 -5 -17.5 -10l-30.5 -9t-16 -4q-37 -73 -70 -170.5t-54 -194.5t-28 -184t8.5 -144.5t57.5 -74t115 30.5
q47 28 60.5 29t-4.5 -29q-33 -61 -97.5 -78.5t-113.5 17.5q-31 21 -63.5 71.5t-41 143t18.5 234.5t114 349l-436 -12q-233 -300 -421 -482t-333 -275t-253 -115t-184 -3t-125 63.5t-77 81.5q-29 42 -56.5 108t-39.5 151.5t-3.5 186t52.5 208.5q25 59 38.5 41.5t-5.5 -68.5
q-35 -87 -43.5 -176.5t0 -168t30.5 -138.5t46 -90q25 -30 67 -70t109.5 -61t167 -6t237.5 99.5t321 255.5t418 458l-51.5 2.5t-115 0t-120 -10t-67.5 -29.5q-5 -5 -14.5 1.5t-15.5 19.5t-2.5 32t30.5 40q20 21 88.5 25.5t143.5 3.5t134.5 -6l59.5 -5q43 49 103.5 126.5
l128 162l138.5 168t139 145.5t127 93.5t103 11.5q17 -7 1.5 -13l-23.5 -9q-54 -16 -131 -85t-166 -167.5l-182.5 -212.5l-176.5 -222l388 -9q79 171 163.5 327t192.5 303q11 15 11 24q0 12 -3 22.5t-3 19.5q0 10 8 22q22 32 56 65t64 73z" />
    <glyph glyph-name="currency" unicode="&#xa4;" horiz-adv-x="1014" 
 />
    <glyph glyph-name="yen" unicode="&#xa5;" horiz-adv-x="1262" 
 />
    <glyph glyph-name="brokenbar" unicode="&#xa6;" horiz-adv-x="1014" 
 />
    <glyph glyph-name="section" unicode="&#xa7;" horiz-adv-x="1014" 
 />
    <glyph glyph-name="copyright" unicode="&#xa9;" horiz-adv-x="1400" 
d="M1372 954q12 -139 -31 -265t-127 -224t-202.5 -161.5t-256.5 -76.5q-139 -12 -266 31t-226 127t-162.5 200.5t-76.5 256.5q-12 139 31 266t127 226.5t201.5 163t257.5 75.5q139 12 266 -31t226.5 -128t163 -202.5t75.5 -257.5zM1325 952q-13 129 -71 240t-150.5 188.5
t-210 117.5t-246.5 30t-239.5 -69.5t-188.5 -152t-118 -210t-30 -246.5q13 -129 72 -239.5t151.5 -188.5t210 -118t246.5 -30q129 11 240 70t188.5 151.5t116.5 210t29 246.5zM1108 793q-31 -33 -107 -85.5t-171 -104.5t-197.5 -94t-186.5 -56q-39 -7 -80 7.5t-74.5 43
t-54 68.5t-14.5 85q8 72 47 150t98.5 153.5t130 145.5t144.5 127t141.5 96t118.5 53q29 9 53.5 3.5t42 -18.5t25.5 -33.5t6 -41.5q-10 -43 -24.5 -74.5t-28.5 -58.5q-25 -45 -40.5 -39t-11.5 51q2 21 5.5 50.5t-1 53t-20.5 35t-55 -6.5q-84 -31 -172 -103t-165 -158
t-132.5 -175t-73.5 -154q-29 -101 2 -154t129 -43q84 8 181.5 40t187.5 77t166.5 95t121.5 95q25 25 34 14.5t-25 -44.5z" />
    <glyph glyph-name="registered" unicode="&#xae;" horiz-adv-x="993" 
d="M940 1380q10 -125 -41 -232.5t-143 -174.5q20 -17 36.5 -25t26.5 -12q29 -8 64.5 -5t58.5 32q-6 -9 -14.5 -19t-22.5 -17t-35.5 -10.5t-54.5 3.5q-16 2 -36.5 12t-45.5 26q-45 -28 -95 -45.5t-104 -21.5q-92 -8 -176 20.5t-149.5 85t-107.5 136t-48 174.5q-8 94 20.5 179
t84 152.5t133.5 109.5t168 50q92 8 175 -20.5t148.5 -86t107.5 -137t50 -174.5zM793 1495q24 -29 19 -64.5t-40 -62.5q-31 -25 -78 -42t-98 -27.5t-100.5 -15.5t-81.5 -3q-19 2 -4 -14q16 -19 53 -51.5l81 -71.5l93 -79l90 -71q92 64 141 165.5t39 221.5q-8 88 -47 162
t-99.5 127t-137 80t-160.5 20q-86 -8 -159 -48t-124 -102.5t-77.5 -142t-18.5 -167.5q6 -86 45 -161t100.5 -127t139 -80t163.5 -19q93 6 170 55q-45 31 -95 72l-97 80.5l-85 73.5l-58 52q-39 -51 -58.5 -93t-27.5 -93q-5 -10 -0.5 -20.5t8.5 -14.5q4 -6 0 -9t-11 3
q-14 12 -14 45q-4 57 22.5 107.5t61.5 97.5q-12 16 0 31q6 4 25 2q18 26 43.5 57t53.5 60.5l54.5 56t48.5 43.5q17 4 21 -10.5t-4 -22.5q-60 -53 -103 -98t-80 -92q25 -2 69 0t94 10t100.5 23.5t85.5 39.5q28 21 36.5 43.5t-10.5 48.5q-26 48 -114 91t-203 51
q-90 8 -158.5 -12.5t-91.5 -90.5q-12 -34 -6 -68t18 -57q4 -4 0 -5t-6 1q-18 27 -27.5 63t1.5 68q16 68 86.5 102t189.5 25q55 -6 105.5 -20t92.5 -34.5t73.5 -44t50.5 -44.5z" />
    <glyph glyph-name="paragraph" unicode="&#xb6;" horiz-adv-x="1024" 
d="M949 1439v-78h-127v-1365h-102v1365h-146v-1365h-104v738q-170 8 -273.5 104.5t-103.5 247.5q0 157 109.5 255t293.5 98h453z" />
    <glyph glyph-name="periodcentered" unicode="&#xb7;" horiz-adv-x="508" 
 />
    <glyph glyph-name="periodcentered" unicode="&#x2219;" horiz-adv-x="508" 
 />
    <glyph glyph-name="uni00B9" unicode="&#xb9;" horiz-adv-x="421" 
 />
    <glyph glyph-name="ordmasculine" unicode="&#xba;" horiz-adv-x="718" 
 />
    <glyph glyph-name="guillemotright" unicode="&#xbb;" horiz-adv-x="944" 
 />
    <glyph glyph-name="onequarter" unicode="&#xbc;" horiz-adv-x="1036" 
d="M593 -45q2 55 57 164q13 22 64 127q8 -2 29 -2h57q8 0 18.5 11t10.5 17q0 7 -5 2q-6 -2 -30.5 -1t-67.5 6l42 75.5l77 134.5q47 86 83 145.5l64 106.5v2q0 7 -10 7q-43 0 -55 -29l-133.5 -242.5l-104.5 -191.5h-16q-17 0 -45 2q-27 0 -51.5 1t-49.5 1q-26 0 -45.5 -1
t-35.5 -3q12 16 51 62t106 118l124 130t89 81q6 6 6 14q0 17 -12 17q-4 0 -6 -2l-85 -82t-114 -123q-127 -142 -178 -215q-4 -11 -9 -14t-9 -5q-23 -18 -23 -20q-6 -10 -6 -21q0 -26 8 -26q2 0 5 4t12 18q10 17 20 21q19 4 51.5 5t85.5 -1h68q29 0 43 -2q-88 -187 -92 -287
q-4 -20 6 -20q6 0 6 16zM56 39q25 115 388 512q161 178 300.5 316.5t258.5 236.5q14 18 14 26q0 15 -12 15q-13 0 -29 -15q-223 -186 -559 -565q-367 -413 -379 -522q0 -31 4 -39q4 0 14 35zM249 590q61 0 86 2t25 14q0 10 -17 6q-33 -4 -102 15q-35 4 -35 26q0 13 8 23
q12 39 42 97t73 134q41 74 70.5 119t44.5 61q4 13 4 23t2 12l26.5 20t18.5 15q4 4 4 17q0 14 -8 14q-2 0 -11 -6q-75 -58 -254 -148q-6 -2 -8 -5t-4 -7q-4 -4 -2 -6t6 -2t13 4l69 29.5t72 35.5l2 1t4 1q6 0 6 -8q0 -10 -6 -16l-121 -244.5t-84 -185.5q-43 -4 -70.5 -6
t-46.5 -7q-14 -2 -14 -24q0 -10 14 -10q43 6 166 6h27z" />
    <glyph glyph-name="onehalf" unicode="&#xbd;" horiz-adv-x="1036" 
d="M56 39q25 115 388 512q161 178 300.5 316.5t258.5 236.5q14 18 14 26q0 15 -12 15q-13 0 -29 -15q-223 -186 -559 -565q-367 -413 -379 -522q0 -31 4 -39q4 0 14 35zM769 49q17 0 17 12q0 15 -19 15q-221 0 -221 26q0 4 5 6.5t9 6.5q49 22 99.5 59t101.5 88q63 60 91 118
t28 109q0 58 -23 97q-24 43 -88 55q-72 8 -162 -51q-16 -8 -16 -35q0 -4 4 -4q35 27 64.5 36t60.5 9h37q18 -6 34.5 -19.5t30.5 -37.5q11 -19 16 -38.5t1 -41.5q-13 -99 -111 -203q-35 -35 -68.5 -61.5t-74.5 -51.5q-31 -18 -66 -30.5t-65 -20.5q-31 -10 -31 -41
q0 -12 18 -10q125 12 240 12q29 0 49.5 -1t38.5 -3zM249 590q61 0 86 2t25 14q0 10 -17 6q-33 -4 -102 15q-35 4 -35 26q0 13 8 23q12 39 42 97t73 134q41 74 70.5 119t44.5 61q4 13 4 23t2 12l26.5 20t18.5 15q4 4 4 17q0 14 -8 14q-2 0 -11 -6q-75 -58 -254 -148
q-6 -2 -8 -5t-4 -7q-4 -4 -2 -6t6 -2t13 4l69 29.5t72 35.5l2 1t4 1q6 0 6 -8q0 -10 -6 -16l-121 -244.5t-84 -185.5q-43 -4 -70.5 -6t-46.5 -7q-14 -2 -14 -24q0 -10 14 -10q43 6 166 6h27z" />
    <glyph glyph-name="threequarters" unicode="&#xbe;" horiz-adv-x="1036" 
d="M593 -45q2 55 57 164q13 22 64 127q8 -2 29 -2h57q8 0 18.5 11t10.5 17q0 7 -5 2q-6 -2 -30.5 -1t-67.5 6l42 75.5l77 134.5q47 86 83 145.5l64 106.5v2q0 7 -10 7q-43 0 -55 -29l-133.5 -242.5l-104.5 -191.5h-16q-17 0 -45 2q-27 0 -51.5 1t-49.5 1q-26 0 -45.5 -1
t-35.5 -3q12 16 51 62t106 118l124 130t89 81q6 6 6 14q0 17 -12 17q-4 0 -6 -2l-85 -82t-114 -123q-127 -142 -178 -215q-4 -11 -9 -14t-9 -5q-23 -18 -23 -20q-6 -10 -6 -21q0 -26 8 -26q2 0 5 4t12 18q10 17 20 21q19 4 51.5 5t85.5 -1h68q29 0 43 -2q-88 -187 -92 -287
q-4 -20 6 -20q6 0 6 16zM487 813q8 33 8 70q0 63 -30 106t-75 49q-6 2 -6 6q0 11 4 13q125 67 170 164q15 28 15 57q0 78 -76 78q-41 0 -75 -13.5t-67 -37.5q-16 -9 -16 -33q0 -10 6 -6q35 24 68 34.5t61 10.5q41 0 41 -56q0 -16 -2 -29.5t-10 -27.5q-10 -27 -31.5 -51.5
t-50.5 -46.5q-66 -58 -119 -58q-6 0 -15 -7t-9 -17q0 -6 10 -6q84 6 123 -39q35 -35 35 -103q0 -26 -7 -57q-41 -102 -141 -168q-41 -29 -79 -43t-75 -14q-53 0 -53 41q0 26 -14 26q-10 0 -15.5 -14t-5.5 -27q0 -45 88 -43q84 4 179 60q61 37 101 82t63 100zM56 39
q25 115 388 512q161 178 300.5 316.5t258.5 236.5q14 18 14 26q0 15 -12 15q-13 0 -29 -15q-223 -186 -559 -565q-367 -413 -379 -522q0 -31 4 -39q4 0 14 35z" />
    <glyph glyph-name="ellipsis" unicode="&#x2026;" horiz-adv-x="1253" 
d="M695 86q0 -6 -12 -15.5t-28.5 -15.5t-32 -8t-21.5 4q-4 6 -8 21.5t-6 33t-2 31.5q0 15 4 21t16.5 14t27.5 14.5t27.5 9.5t16.5 -3q6 -5 9 -20t5 -31.5t3 -33t1 -22.5zM1146 78q0 -6 -12.5 -14.5t-28.5 -14.5t-31.5 -8t-21.5 4q-4 6 -8.5 21.5t-6.5 33t-2 31.5t4 21
q5 6 17 14t27.5 14t27.5 8t16 -4q7 -4 10 -18t5 -31.5t3 -34t1 -22.5zM232 86q0 -6 -12 -15.5t-27.5 -15.5t-29.5 -8t-21 4q-4 6 -8 21.5t-6 33t-2 31.5q0 15 4 21t16.5 14t26.5 14.5t27.5 9.5t19.5 -3q4 -5 6 -20l4 -31.5t2 -32.5v-23z" />
    <glyph glyph-name="Ahuyen" unicode="&#xc0;" horiz-adv-x="2963" 
d="M2478 838q5 -20 22.5 -62t32.5 -88t21.5 -90t-3.5 -70q-10 -20 -36.5 -31.5t-59.5 -17t-65 -8.5t-50 0q-10 -21 -34.5 -102.5t-44.5 -185.5t-27.5 -215.5t12.5 -193.5q8 -33 -2.5 -37t-20.5 19q-33 94 -33 206t15 213.5t33.5 182.5t26.5 119l-95.5 17l-142.5 25.5
l-145.5 26.5t-103.5 18q-17 -13 -70 -70t-137 -134.5t-191 -162.5t-231.5 -160t-259 -125t-269.5 -56q-107 -6 -197 28t-154.5 92.5t-100 135t-35.5 160.5q0 82 39.5 163t127.5 149q115 82 293.5 115t380.5 30.5t409.5 -29.5t383.5 -64q53 53 124 137l151 188l165 218
l166 227.5l152.5 217.5l127.5 184q15 21 35.5 25t40.5 -6.5t35 -36t18 -62.5q0 -8 13 -16t25.5 -19t19 -22.5t-1.5 -27.5q-56 -106 -112 -231.5l-106.5 -240l-87.5 -205t-54 -128.5zM321 554q-64 -43 -95.5 -107t-31.5 -135q0 -73 28 -145.5t82.5 -131t133 -95t179.5 -36.5
q171 -3 336 69t310 177.5t263 224t194 209.5q-129 31 -308.5 64t-373.5 41.5t-383.5 -19.5t-333.5 -116zM1829 623q26 -6 88.5 -19l134.5 -27.5t136 -25t93 -13.5q37 128 86.5 266t104 275.5l111.5 269.5l108 251q10 26 7.5 49t-13 34t-26.5 7.5t-32 -23.5l-118 -166.5
l-150 -204.5l-162.5 -215.5l-156 -202l-129.5 -161t-82 -94.5zM2939 1979q16 -15 5 -25.5t-22 0.5q-39 30 -91 65.5l-105 72.5l-102.5 72.5l-84.5 61.5q-18 13 -15.5 31.5t17.5 35t33 21.5t35 -8l72.5 -73l86.5 -86.5l89.5 -90t81.5 -77.5zM2508 562q10 15 10 45
q0 29 -8 62.5t-21.5 69.5t-26.5 64l-23 -60l-30.5 -81.5l-29 -78.5t-18.5 -55q30 0 77.5 4t69.5 30z" />
    <glyph glyph-name="Asac" unicode="&#xc1;" horiz-adv-x="2925" 
d="M2406 863l25 -63t30.5 -89t21 -93.5t-6.5 -71.5q-9 -18 -33.5 -29t-57 -17.5t-63 -8t-48.5 -1.5q-11 -22 -35 -104.5t-44 -190t-26.5 -222.5t14.5 -199q7 -33 -2 -37t-19 21q-33 95 -33 209q0 112 12.5 218.5t32.5 189.5t28 120q-30 3 -95 16l-138.5 26.5l-141 26.5
t-102.5 22q-13 -17 -66.5 -75.5t-134.5 -137t-186.5 -166t-226 -164t-252.5 -127.5t-262 -58q-158 -5 -272 71t-163.5 192t-21.5 246.5t155 234.5q109 87 280.5 122t369.5 32.5t400 -32t372 -69.5q51 53 120 141l146 193.5l160 222.5l161.5 232.5l147.5 222l122 188.5
q12 22 32.5 26t41 -7.5t36.5 -37t19 -60.5q0 -8 11.5 -17l24 -19t20 -23t0.5 -30q-56 -105 -112 -233l-104 -246.5l-84 -212t-53 -132.5zM317 572q-64 -42 -95 -107.5t-32.5 -139.5t25.5 -149t79 -134.5t128 -97.5t172 -38q168 0 329 73.5t303.5 181.5t257 227.5
t185.5 213.5q-125 31 -299 65t-363 44t-372 -19t-318 -120zM1778 642q24 -9 85.5 -22t132 -26.5t132.5 -24t90 -10.5q35 130 82.5 269.5l99.5 280l106.5 276l102.5 258.5q10 29 9 51.5t-11.5 33t-26.5 8t-29 -26.5l-113.5 -167l-146 -208l-158.5 -221l-151 -207.5
l-125.5 -166.5t-78.5 -97zM2421 2050q-20 -5 -28 12t11 26l103.5 55l118.5 65l113 62.5t91 48.5q16 8 31 -3.5t21.5 -32t2.5 -39t-25 -26.5q-40 -16 -95 -36l-114.5 -43l-121.5 -45.5t-108 -43.5zM2434 580q10 17 10 45q0 30 -6.5 64.5t-19 73t-25.5 70.5l-22.5 -63.5
l-30.5 -84l-29.5 -82.5t-18.5 -57q30 -3 76.5 1t65.5 33z" />
    <glyph glyph-name="Ahoi" unicode="&#x1ea2;" horiz-adv-x="2976" 
d="M2864 879q87 -78 87 -142q0 -42 -85 -42t-221 39q32 176 150 571l84.5 261l119.5 367q5 18 -51 56t-100 38q-22 0 -35 -15q-77 -119 -194.5 -268l-268.5 -334q-277 -332 -431 -494q-629 136 -1034 136q-89 0 -162.5 -6.5t-134.5 -23.5q-297 -74 -419 -386
q-36 -85 -52.5 -165t-16.5 -151q0 -168 91.5 -264t259.5 -94q338 5 853 363q183 130 336.5 259.5t280.5 264.5l338 -77l303 -64q-13 -117 -19.5 -215.5t-6.5 -180.5q0 -221 43 -309q3 -11 21 -11q48 0 53 40q0 3 -7.5 8t-18.5 10.5l-20.5 10.5t-9.5 8q-18 56 -18 149
q0 91 15.5 208t45.5 269q122 -24 195.5 -33t102.5 4q94 32 78 71q-35 86 -134 173q-8 6 -14.5 11.5t-14.5 5.5q-16 0 -11 -17q0 -18 22 -31zM575 961q58 14 132 20.5t168 6.5q470 0 988 -127q-285 -289 -581 -505q-476 -335 -819 -343q-78 -3 -134 24t-96 77q-69 89 -69 237
q0 136 50 269q56 144 145 228t216 113zM1972 900q207 215 409.5 455t404.5 509q14 13 22 19.5t21 6.5q24 0 24 -43q0 -8 -5 -34q-243 -741 -274 -1062q-150 29 -300.5 66t-301.5 83zM3015 2109q-22 0 -51 31q-13 15 -17.5 27t-4.5 20q0 14 18 19q85 23 144.5 46t102.5 44
q150 76 150 179q0 14 -3 30.5t-8 34.5q-9 27 -26 49.5t-37.5 37.5t-44 22.5t-45.5 7.5q-42 0 -63 -28q-14 -20 -31 -20q-23 0 -23 17q0 5 2 9t4 10q44 56 102 68q13 4 24 5.5t21 1.5q78 0 139 -58q22 -22 39 -47t25 -55q8 -21 10.5 -40.5t2.5 -39.5q0 -110 -111 -170
q-40 -26 -148 -69q-53 -22 -90 -35l-61 -21q-3 0 -6 -8q-1 -5 0 -12t3.5 -14t6 -13.5t3.5 -9.5q0 -19 -27 -19z" />
    <glyph glyph-name="Anga" unicode="&#xc3;" horiz-adv-x="2792" 
d="M2388 897q5 -21 20.5 -64t29.5 -92t20.5 -95.5t-4.5 -73.5q-7 -18 -32.5 -30t-56 -19t-61 -9.5t-50.5 -0.5q-13 -23 -37 -108t-43.5 -195.5t-26.5 -229t15 -209.5q8 -30 -2 -34t-23 21q-28 100 -28 219q0 117 13 224.5t33 193l28 121.5q-29 3 -96 16.5l-140.5 29l-141 29
t-99.5 21.5l-65 -76.5t-132 -142.5t-185 -172t-224 -169t-249 -130t-261 -57q-100 -7 -187 29.5t-148 97.5t-94.5 141t-33.5 165q0 88 40 172t125 153q107 91 278.5 126.5t366 34.5t394 -30.5t367.5 -69.5q50 56 118.5 145.5l145 197l159 229l160 239.5l147 228.5
l120.5 196.5q13 21 34.5 25t41 -8t34.5 -38.5t17 -61.5q3 -11 14.5 -20t24 -20t17.5 -22.5t-2 -28.5q-54 -112 -108.5 -244.5l-102.5 -254t-82.5 -217zM313 594q-63 -43 -94 -111t-32 -143.5t25.5 -151.5t78.5 -137t127 -100t170 -39q165 -3 326 73t301 186.5t253 234.5
t182 217q-120 35 -294 70.5t-360.5 44.5t-366 -20t-316.5 -124zM1759 673q25 -7 84.5 -22t130.5 -29.5t133.5 -25t88.5 -12.5q35 135 83 278.5l100 288.5l104.5 283.5l100.5 264.5q11 31 9.5 54t-12 33.5t-26.5 6.5t-32 -28l-111.5 -172.5l-144 -213.5l-157 -226
l-150 -211.5l-123.5 -169t-78 -99.5zM2473 2158q-30 -27 -31.5 -13.5t15.5 39.5l36 37l40.5 41.5t45 33.5t46.5 13q23 0 57.5 -15.5l73.5 -34.5l76 -35.5t63 -16.5q60 0 83.5 10t50.5 38q26 25 34.5 15.5t-11.5 -38.5l-31.5 -33t-38 -37.5t-41 -29.5t-46.5 -12
q-23 0 -60 15.5t-75 33.5l-75 34t-60 16q-46 0 -85 -19t-67 -42zM2417 607q7 16 7 46q0 28 -7.5 64.5t-19.5 73.5t-26 72l-22 -65.5l-29 -85l-27 -83t-17 -57.5q26 -5 73 -1t68 36z" />
    <glyph glyph-name="Anang" unicode="&#x1ea0;" horiz-adv-x="2795" 
d="M2337 905q6 -21 21.5 -65t30.5 -93t21.5 -96t-4.5 -74q-8 -18 -33 -29.5t-57 -20t-64 -10t-51 -1.5q-11 -23 -33.5 -108.5t-42 -197t-28 -230t13.5 -206.5q11 -33 -0.5 -37t-21.5 21q-29 100 -30 218t12 227t33 195.5t28 125.5q-29 4 -96 17l-141.5 28l-142 29t-102.5 19
l-66.5 -75t-136 -142.5t-189 -174.5t-227.5 -170t-253 -131.5t-265 -58.5q-159 -7 -275 72t-166.5 199t-24 256t156.5 241q112 91 285.5 125.5t371.5 33t403 -30.5t378 -69q51 55 120.5 145l147.5 199l160.5 230l162.5 240.5l150.5 230l124.5 196.5q13 23 34.5 27t41.5 -7.5
t34 -38t17 -64.5q0 -11 13.5 -18.5t25.5 -18.5t18.5 -23t-1.5 -30q-56 -112 -112 -245l-105.5 -254t-85 -218.5t-51.5 -137.5zM226 604q-64 -42 -95 -111t-32.5 -146.5t25.5 -155t80 -139.5t129 -101t175 -39q168 0 330.5 76t306 187.5t259.5 237t187 220.5
q-125 35 -300.5 69.5t-366 44.5t-375.5 -19.5t-323 -123.5zM1703 676q25 -5 87 -19.5t133 -29.5t133.5 -26.5t88.5 -11.5q35 135 84.5 281.5l102.5 292l108 285l105 264.5q11 29 8.5 53t-14 36t-27 9.5t-29.5 -26.5q-44 -75 -113.5 -177.5l-148.5 -215.5l-161.5 -229
l-152.5 -214.5l-124.5 -170t-79.5 -101.5zM2366 612q22 38 3 114.5t-49 147.5q-7 -25 -21.5 -67.5l-29.5 -88l-28 -85t-18 -56.5q26 -2 74 2.5t69 32.5zM1516 -326q0 -11 -16.5 -23t-36.5 -21.5t-41 -12t-28 5.5t-12 32t-8 49.5t-3 45.5q0 22 6 30q5 8 21 20.5t36.5 20
t36 11.5t20.5 -4q8 -5 12.5 -26.5t7 -46.5t4 -48t1.5 -33z" />
    <glyph glyph-name="AA" unicode="&#xc2;" horiz-adv-x="2866" 
d="M2441 919l23.5 -64.5t30.5 -93t21.5 -98.5t-3.5 -77q-8 -19 -34.5 -31t-58.5 -18.5t-64 -7.5t-49 -1q-10 -25 -34 -111.5t-44 -199.5t-28 -232.5t14 -210.5q8 -33 -3 -37t-22 21q-31 100 -31 221q0 120 14.5 229t33.5 197t26 128q-30 3 -96 16l-141 29l-142.5 30.5
l-102.5 21.5l-69 -79t-135.5 -145t-189 -177.5t-229 -171.5t-254.5 -131t-264 -59q-107 -5 -194.5 31t-152 98t-99 145t-34.5 168q0 87 39.5 173.5t128.5 159.5q74 61 178 97t226.5 50t255.5 14q135 0 271 -14t266.5 -37t245.5 -49q53 56 122 147.5l149 202l163.5 233
l162.5 244l149.5 233.5l124.5 199q10 24 31.5 27t42.5 -9.5t37 -38.5t19 -64q0 -10 12 -20l24 -20.5t18.5 -24t-1.5 -28.5q-56 -112 -112 -246.5l-105.5 -258t-85 -222.5t-51.5 -138zM318 612q-63 -43 -93.5 -111.5t-32 -147.5t26.5 -157.5t81.5 -141t130.5 -102.5t176 -40
q168 0 329.5 78.5t306 190t260 238.5t190.5 223q-125 34 -302 69.5t-368.5 47t-377 -19.5t-327.5 -127zM1804 692q25 -8 87.5 -23.5t131.5 -30.5t133 -27t93 -14q35 137 84.5 285.5l102.5 296l107 288.5l102 268q15 33 12.5 55.5t-12.5 34.5t-25.5 9.5t-32.5 -26.5
l-114.5 -178.5l-147.5 -218.5l-161.5 -232l-154 -215l-126 -171.5t-79.5 -100.5zM2790 2218q-60 -16 -141.5 -48.5t-179.5 -79.5q-25 -20 -25 0q0 9 2 13t8 17q22 8 73 38t131 86q134 83 138 79q7 -3 67.5 -56t171.5 -162q8 -6 9.5 -10.5l1.5 -4.5q0 -9 -3.5 -10t-10.5 -8
q-7 -2 -21 9q-28 24 -59.5 43.5t-60.5 42.5q-80 53 -101 51zM2470 623q10 17 10 45q0 33 -6.5 70t-19.5 75t-27 71l-22 -65l-30.5 -88.5t-28 -86.5l-16.5 -58q26 -2 74 3t66 34z" />
    <glyph glyph-name="AAhuyen" unicode="&#x1ea6;" horiz-adv-x="2963" 
d="M2478 838q5 -20 22.5 -62t32.5 -88t21.5 -90t-3.5 -70q-10 -20 -36.5 -31.5t-59.5 -17t-65 -8.5t-50 0q-10 -21 -34.5 -102.5t-44.5 -185.5t-27.5 -215.5t12.5 -193.5q8 -33 -2.5 -37t-20.5 19q-33 94 -33 206t15 213.5t33.5 182.5t26.5 119l-95.5 17l-142.5 25.5
l-145.5 26.5t-103.5 18q-17 -13 -70 -70t-137 -134.5t-191 -162.5t-231.5 -160t-259 -125t-269.5 -56q-107 -6 -197 28t-154.5 92.5t-100 135t-35.5 160.5q0 82 39.5 163t127.5 149q115 82 293.5 115t380.5 30.5t409.5 -29.5t383.5 -64q53 53 124 137l151 188l165 218
l166 227.5l152.5 217.5l127.5 184q15 21 35.5 25t40.5 -6.5t35 -36t18 -62.5q0 -8 13 -16t25.5 -19t19 -22.5t-1.5 -27.5q-56 -106 -112 -231.5l-106.5 -240l-87.5 -205t-54 -128.5zM321 554q-64 -43 -95.5 -107t-31.5 -135q0 -73 28 -145.5t82.5 -131t133 -95t179.5 -36.5
q171 -3 336 69t310 177.5t263 224t194 209.5q-129 31 -308.5 64t-373.5 41.5t-383.5 -19.5t-333.5 -116zM1829 623q26 -6 88.5 -19l134.5 -27.5t136 -25t93 -13.5q37 128 86.5 266t104 275.5l111.5 269.5l108 251q10 26 7.5 49t-13 34t-26.5 7.5t-32 -23.5l-118 -166.5
l-150 -204.5l-162.5 -215.5l-156 -202l-129.5 -161t-82 -94.5zM2989 2072q15 -14 4 -24.5t-21 -0.5q-39 30 -91 66l-105.5 73l-103 72l-84.5 61q-18 13 -15.5 32t17.5 35t33.5 21.5t34.5 -7.5l73.5 -74l86.5 -86.5l89 -89.5t82 -78zM2508 562q10 15 10 45q0 29 -8 62.5
t-21.5 69.5t-26.5 64l-23 -60l-30.5 -81.5l-29 -78.5t-18.5 -55q30 0 77.5 4t69.5 30zM2796 2001q-60 -16 -141 -48.5t-180 -79.5q-25 -21 -25 0q0 9 2 13t9 17q22 8 72.5 38t131.5 86q134 83 138 79q6 -3 66.5 -56t172.5 -162q8 -6 9 -10.5l1 -4.5q0 -9 -3 -10t-11 -8
q-6 -3 -21 9q-27 24 -59 43.5t-60 42.5q-81 53 -102 51z" />
    <glyph glyph-name="AAsac" unicode="&#x1ea4;" horiz-adv-x="2925" 
d="M2406 863l25 -63t30.5 -89t21 -93.5t-6.5 -71.5q-9 -18 -33.5 -29t-57 -17.5t-63 -8t-48.5 -1.5q-11 -22 -35 -104.5t-44 -190t-26.5 -222.5t14.5 -199q7 -33 -2 -37t-19 21q-33 95 -33 209q0 112 12.5 218.5t32.5 189.5t28 120q-30 3 -95 16l-138.5 26.5l-141 26.5
t-102.5 22q-13 -17 -66.5 -75.5t-134.5 -137t-186.5 -166t-226 -164t-252.5 -127.5t-262 -58q-158 -5 -272 71t-163.5 192t-21.5 246.5t155 234.5q109 87 280.5 122t369.5 32.5t400 -32t372 -69.5q51 53 120 141l146 193.5l160 222.5l161.5 232.5l147.5 222l122 188.5
q12 22 32.5 26t41 -7.5t36.5 -37t19 -60.5q0 -8 11.5 -17l24 -19t20 -23t0.5 -30q-56 -105 -112 -233l-104 -246.5l-84 -212t-53 -132.5zM317 572q-64 -42 -95 -107.5t-32.5 -139.5t25.5 -149t79 -134.5t128 -97.5t172 -38q168 0 329 73.5t303.5 181.5t257 227.5
t185.5 213.5q-125 31 -299 65t-363 44t-372 -19t-318 -120zM1778 642q24 -9 85.5 -22t132 -26.5t132.5 -24t90 -10.5q35 130 82.5 269.5l99.5 280l106.5 276l102.5 258.5q10 29 9 51.5t-11.5 33t-26.5 8t-29 -26.5l-113.5 -167l-146 -208l-158.5 -221l-151 -207.5
l-125.5 -166.5t-78.5 -97zM2657 2224q-19 -5 -27 12t10 26q46 23 104.5 55l118 65l113 62.5t91.5 48.5q15 8 30 -3.5t21.5 -32t2.5 -39t-24 -26.5l-95.5 -36l-114.5 -42.5l-121.5 -45.5t-108.5 -44zM2434 580q10 17 10 45q0 30 -6.5 64.5t-19 73t-25.5 70.5l-22.5 -63.5
l-30.5 -84l-29.5 -82.5t-18.5 -57q30 -3 76.5 1t65.5 33zM2752 2094q-60 -15 -141 -47.5t-180 -79.5q-25 -21 -25 0q0 9 2 13t9 17q22 8 72.5 37.5t131.5 85.5q134 83 138 80q6 -3 66.5 -56.5t172.5 -162.5q8 -5 9 -9.5l1 -4.5q0 -9 -3 -10.5t-11 -7.5q-7 -3 -21 9
q-27 23 -59 42.5t-61 43.5q-80 53 -101 50z" />
    <glyph glyph-name="AAhoi" unicode="&#x1ea8;" horiz-adv-x="2976" 
d="M2864 879q-22 13 -22 31q-5 17 11 17q8 0 14.5 -5.5t14.5 -11.5q99 -87 134 -173q16 -39 -78 -71q-29 -13 -102.5 -4t-195.5 33q-30 -152 -45.5 -269t-15.5 -208q0 -93 18 -149q0 -3 9.5 -8l20.5 -10.5t18.5 -10.5t7.5 -8q-5 -40 -53 -40q-18 0 -21 11q-43 88 -43 309
q0 82 6.5 180.5t19.5 215.5l-303 64l-338 77q-127 -135 -280.5 -264.5t-336.5 -259.5q-515 -358 -853 -363q-168 -2 -259.5 94t-91.5 264q0 71 16.5 151t52.5 165q122 312 419 386q61 17 134.5 23.5t162.5 6.5q405 0 1034 -136q154 162 431 494l268.5 334t194.5 268
q13 15 35 15q44 0 100 -38t51 -56l-119.5 -367l-84.5 -261q-118 -395 -150 -571q136 -39 221 -39t85 42q0 64 -87 142zM575 961q-127 -29 -216 -113t-145 -228q-50 -133 -50 -269q0 -148 69 -237q40 -50 96 -77t134 -24q343 8 819 343q296 216 581 505q-518 127 -988 127
q-94 0 -168 -6.5t-132 -20.5zM1972 900q151 -46 301.5 -83t300.5 -66q31 321 274 1062q5 26 5 34q0 43 -24 43q-13 0 -21 -6.5t-22 -19.5q-202 -269 -404.5 -509t-409.5 -455zM3230 1953q0 -20 -27 -20q-22 0 -51 31q-13 16 -17.5 27.5t-4.5 19.5q0 14 19 20q84 23 144 45.5
t103 43.5q149 77 149 180q0 14 -2.5 30t-7.5 35q-9 27 -26 49t-38 37t-44.5 23t-45.5 8q-41 0 -62 -29q-14 -19 -31 -19q-24 0 -24 16q0 6 2 9.5t5 10.5q44 56 101 68q13 3 24 4.5t22 1.5q78 0 139 -57q22 -22 39 -47.5t24 -55.5q8 -21 10.5 -40.5t2.5 -38.5
q0 -111 -110 -170q-40 -26 -148 -69q-54 -22 -91 -35l-60 -21q-4 0 -7 -8q-1 -5 0.5 -12.5t4 -14.5t5.5 -13.5t3 -8.5zM2969 2218q-60 -16 -141 -48.5t-180 -79.5q-23 -20 -23 0q0 9 1 13t9 17q21 8 71.5 38t132.5 86q134 83 137 79q7 -3 67 -56t172 -162q8 -6 9 -10.5
l1 -4.5q0 -9 -3 -10t-10 -8q-8 -2 -22 9q-27 24 -59 43.5t-60 42.5q-81 53 -102 51z" />
    <glyph glyph-name="AAnga" unicode="&#x1eaa;" horiz-adv-x="2792" 
d="M2388 897q5 -21 20.5 -64t29.5 -92t20.5 -95.5t-4.5 -73.5q-7 -18 -32.5 -30t-56 -19t-61 -9.5t-50.5 -0.5q-13 -23 -37 -108t-43.5 -195.5t-26.5 -229t15 -209.5q8 -30 -2 -34t-23 21q-28 100 -28 219q0 117 13 224.5t33 193l28 121.5q-29 3 -96 16.5l-140.5 29l-141 29
t-99.5 21.5l-65 -76.5t-132 -142.5t-185 -172t-224 -169t-249 -130t-261 -57q-100 -7 -187 29.5t-148 97.5t-94.5 141t-33.5 165q0 88 40 172t125 153q107 91 278.5 126.5t366 34.5t394 -30.5t367.5 -69.5q50 56 118.5 145.5l145 197l159 229l160 239.5l147 228.5
l120.5 196.5q13 21 34.5 25t41 -8t34.5 -38.5t17 -61.5q3 -11 14.5 -20t24 -20t17.5 -22.5t-2 -28.5q-54 -112 -108.5 -244.5l-102.5 -254t-82.5 -217zM313 594q-63 -43 -94 -111t-32 -143.5t25.5 -151.5t78.5 -137t127 -100t170 -39q165 -3 326 73t301 186.5t253 234.5
t182 217q-120 35 -294 70.5t-360.5 44.5t-366 -20t-316.5 -124zM1759 673q25 -7 84.5 -22t130.5 -29.5t133.5 -25t88.5 -12.5q35 135 83 278.5l100 288.5l104.5 283.5l100.5 264.5q11 31 9.5 54t-12 33.5t-26.5 6.5t-32 -28l-111.5 -172.5l-144 -213.5l-157 -226
l-150 -211.5l-123.5 -169t-78 -99.5zM2635 2268q-30 -27 -31 -13.5t15 39.5l36 37.5t41 41.5t45 33t46 13q24 0 58 -15.5l73 -34.5t76.5 -35t63.5 -16q59 0 82.5 9.5t50.5 38.5q26 25 34.5 15t-10.5 -38l-32 -33.5t-38.5 -38t-41 -29t-45.5 -11.5t-61 15.5t-74.5 33
l-74.5 34t-61 16.5q-45 0 -84 -19t-68 -43zM2417 607q7 16 7 46q0 28 -7.5 64.5t-19.5 73.5t-26 72l-22 -65.5l-29 -85l-27 -83t-17 -57.5q26 -5 73 -1t68 36zM2785 2175q-60 -16 -141.5 -48.5t-180.5 -79.5q-24 -20 -24 0q0 10 2 13.5t8 16.5q22 8 73 38t131 86
q134 83 138 79q7 -2 67 -55.5t172 -162.5q8 -5 9.5 -10l1.5 -5q0 -9 -3.5 -10t-11.5 -8q-6 -2 -20 9q-28 24 -59.5 43.5t-60.5 42.5q-81 53 -101 51z" />
    <glyph glyph-name="AAnang" unicode="&#x1eac;" horiz-adv-x="2795" 
d="M2337 905q6 -21 21.5 -65t30.5 -93t21.5 -96t-4.5 -74q-8 -18 -33 -29.5t-57 -20t-64 -10t-51 -1.5q-11 -23 -33.5 -108.5t-42 -197t-28 -230t13.5 -206.5q11 -33 -0.5 -37t-21.5 21q-29 100 -30 218t12 227t33 195.5t28 125.5q-29 4 -96 17l-141.5 28l-142 29t-102.5 19
l-66.5 -75t-136 -142.5t-189 -174.5t-227.5 -170t-253 -131.5t-265 -58.5q-159 -7 -275 72t-166.5 199t-24 256t156.5 241q112 91 285.5 125.5t371.5 33t403 -30.5t378 -69q51 55 120.5 145l147.5 199l160.5 230l162.5 240.5l150.5 230l124.5 196.5q13 23 34.5 27t41.5 -7.5
t34 -38t17 -64.5q0 -11 13.5 -18.5t25.5 -18.5t18.5 -23t-1.5 -30q-56 -112 -112 -245l-105.5 -254t-85 -218.5t-51.5 -137.5zM226 604q-64 -42 -95 -111t-32.5 -146.5t25.5 -155t80 -139.5t129 -101t175 -39q168 0 330.5 76t306 187.5t259.5 237t187 220.5
q-125 35 -300.5 69.5t-366 44.5t-375.5 -19.5t-323 -123.5zM1703 676q25 -5 87 -19.5t133 -29.5t133.5 -26.5t88.5 -11.5q35 135 84.5 281.5l102.5 292l108 285l105 264.5q11 29 8.5 53t-14 36t-27 9.5t-29.5 -26.5q-44 -75 -113.5 -177.5l-148.5 -215.5l-161.5 -229
l-152.5 -214.5l-124.5 -170t-79.5 -101.5zM2366 612q22 38 3 114.5t-49 147.5q-7 -25 -21.5 -67.5l-29.5 -88l-28 -85t-18 -56.5q26 -2 74 2.5t69 32.5zM1516 -326q0 -11 -16.5 -23t-36.5 -21.5t-41 -12t-28 5.5t-12 32t-8 49.5t-3 45.5q0 22 6 30q5 8 21 20.5t36.5 20
t36 11.5t20.5 -4q8 -5 12.5 -26.5t7 -46.5t4 -48t1.5 -33zM2740 2218q-59 -16 -140.5 -48.5t-180.5 -79.5q-24 -20 -24 0q0 9 1.5 13t8.5 17q22 8 72.5 38t131.5 86q134 83 138 79q6 -3 66.5 -56t172.5 -162q8 -6 9 -10.5l1 -4.5q0 -9 -3 -10t-11 -8q-6 -2 -21 9
q-27 24 -59 43.5t-60 42.5q-81 53 -102 51z" />
    <glyph glyph-name="A(" unicode="&#x102;" horiz-adv-x="2866" 
d="M2441 919l23.5 -64.5t30.5 -93t21.5 -98.5t-3.5 -77q-8 -19 -34.5 -31t-58.5 -18.5t-64 -7.5t-49 -1q-10 -25 -34 -111.5t-44 -199.5t-28 -232.5t14 -210.5q8 -33 -3 -37t-22 21q-31 100 -31 221q0 120 14.5 229t33.5 197t26 128q-30 3 -96 16l-141 29l-142.5 30.5
l-102.5 21.5l-69 -79t-135.5 -145t-189 -177.5t-229 -171.5t-254.5 -131t-264 -59q-107 -5 -194.5 31t-152 98t-99 145t-34.5 168q0 87 39.5 173.5t128.5 159.5q74 61 178 97t226.5 50t255.5 14q135 0 271 -14t266.5 -37t245.5 -49q53 56 122 147.5l149 202l163.5 233
l162.5 244l149.5 233.5l124.5 199q10 24 31.5 27t42.5 -9.5t37 -38.5t19 -64q0 -10 12 -20l24 -20.5t18.5 -24t-1.5 -28.5q-56 -112 -112 -246.5l-105.5 -258t-85 -222.5t-51.5 -138zM318 612q-63 -43 -93.5 -111.5t-32 -147.5t26.5 -157.5t81.5 -141t130.5 -102.5t176 -40
q168 0 329.5 78.5t306 190t260 238.5t190.5 223q-125 34 -302 69.5t-368.5 47t-377 -19.5t-327.5 -127zM1804 692q25 -8 87.5 -23.5t131.5 -30.5t133 -27t93 -14q35 137 84.5 285.5l102.5 296l107 288.5l102 268q15 33 12.5 55.5t-12.5 34.5t-25.5 9.5t-32.5 -26.5
l-114.5 -178.5l-147.5 -218.5l-161.5 -232l-154 -215l-126 -171.5t-79.5 -100.5zM2534 2298q59 -66 155.5 -113.5t201 -4.5t185.5 109q24 21 24 0q0 -9 -1 -13t-9 -15q-130 -113 -210.5 -151t-123.5 -31t-100 45t-147 151q-7 5 -8.5 9.5l-1.5 4.5q0 9 1 12.5t13 5.5
q8 3 21 -9zM2470 623q10 17 10 45q0 33 -6.5 70t-19.5 75t-27 71l-22 -65l-30.5 -88.5t-28 -86.5l-16.5 -58q26 -2 74 3t66 34z" />
    <glyph glyph-name="A(huyen" unicode="&#x1eb0;" horiz-adv-x="2963" 
d="M2478 838q5 -20 22.5 -62t32.5 -88t21.5 -90t-3.5 -70q-10 -20 -36.5 -31.5t-59.5 -17t-65 -8.5t-50 0q-10 -21 -34.5 -102.5t-44.5 -185.5t-27.5 -215.5t12.5 -193.5q8 -33 -2.5 -37t-20.5 19q-33 94 -33 206t15 213.5t33.5 182.5t26.5 119l-95.5 17l-142.5 25.5
l-145.5 26.5t-103.5 18q-17 -13 -70 -70t-137 -134.5t-191 -162.5t-231.5 -160t-259 -125t-269.5 -56q-107 -6 -197 28t-154.5 92.5t-100 135t-35.5 160.5q0 82 39.5 163t127.5 149q115 82 293.5 115t380.5 30.5t409.5 -29.5t383.5 -64q53 53 124 137l151 188l165 218
l166 227.5l152.5 217.5l127.5 184q15 21 35.5 25t40.5 -6.5t35 -36t18 -62.5q0 -8 13 -16t25.5 -19t19 -22.5t-1.5 -27.5q-56 -106 -112 -231.5l-106.5 -240l-87.5 -205t-54 -128.5zM321 554q-64 -43 -95.5 -107t-31.5 -135q0 -73 28 -145.5t82.5 -131t133 -95t179.5 -36.5
q171 -3 336 69t310 177.5t263 224t194 209.5q-129 31 -308.5 64t-373.5 41.5t-383.5 -19.5t-333.5 -116zM1829 623q26 -6 88.5 -19l134.5 -27.5t136 -25t93 -13.5q37 128 86.5 266t104 275.5l111.5 269.5l108 251q10 26 7.5 49t-13 34t-26.5 7.5t-32 -23.5l-118 -166.5
l-150 -204.5l-162.5 -215.5l-156 -202l-129.5 -161t-82 -94.5zM2876 2102q15 -14 4 -24.5t-21 -0.5q-39 30 -91 66l-105.5 73l-103 72l-84.5 61q-18 13 -15.5 32t17.5 35t33 21.5t35 -7.5l73.5 -74l86 -86.5l89 -89.5t82.5 -78zM2508 562q10 15 10 45q0 29 -8 62.5
t-21.5 69.5t-26.5 64l-23 -60l-30.5 -81.5l-29 -78.5t-18.5 -55q30 0 77.5 4t69.5 30zM2587 2132q60 -66 156 -113.5t200.5 -4.5t185.5 109q25 21 25 0q0 -9 -1.5 -13t-9.5 -16q-130 -113 -210.5 -150.5t-123.5 -30.5t-100 44.5t-147 151.5q-6 5 -8 9.5l-2 4.5q0 9 1 12
t13 6q8 3 21 -9z" />
    <glyph glyph-name="A(sac" unicode="&#x1eae;" horiz-adv-x="2925" 
d="M2406 863l25 -63t30.5 -89t21 -93.5t-6.5 -71.5q-9 -18 -33.5 -29t-57 -17.5t-63 -8t-48.5 -1.5q-11 -22 -35 -104.5t-44 -190t-26.5 -222.5t14.5 -199q7 -33 -2 -37t-19 21q-33 95 -33 209q0 112 12.5 218.5t32.5 189.5t28 120q-30 3 -95 16l-138.5 26.5l-141 26.5
t-102.5 22q-13 -17 -66.5 -75.5t-134.5 -137t-186.5 -166t-226 -164t-252.5 -127.5t-262 -58q-158 -5 -272 71t-163.5 192t-21.5 246.5t155 234.5q109 87 280.5 122t369.5 32.5t400 -32t372 -69.5q51 53 120 141l146 193.5l160 222.5l161.5 232.5l147.5 222l122 188.5
q12 22 32.5 26t41 -7.5t36.5 -37t19 -60.5q0 -8 11.5 -17l24 -19t20 -23t0.5 -30q-56 -105 -112 -233l-104 -246.5l-84 -212t-53 -132.5zM317 572q-64 -42 -95 -107.5t-32.5 -139.5t25.5 -149t79 -134.5t128 -97.5t172 -38q168 0 329 73.5t303.5 181.5t257 227.5
t185.5 213.5q-125 31 -299 65t-363 44t-372 -19t-318 -120zM1778 642q24 -9 85.5 -22t132 -26.5t132.5 -24t90 -10.5q35 130 82.5 269.5l99.5 280l106.5 276l102.5 258.5q10 29 9 51.5t-11.5 33t-26.5 8t-29 -26.5l-113.5 -167l-146 -208l-158.5 -221l-151 -207.5
l-125.5 -166.5t-78.5 -97zM2722 2183q-19 -6 -27 11t10 26l104.5 55.5l118 65l113 62.5l91.5 49q15 8 30 -4t21.5 -32t2.5 -39t-24 -27l-95.5 -35.5l-114.5 -43l-121.5 -45.5t-108.5 -43zM2434 580q10 17 10 45q0 30 -6.5 64.5t-19 73t-25.5 70.5l-22.5 -63.5l-30.5 -84
l-29.5 -82.5t-18.5 -57q30 -3 76.5 1t65.5 33zM2527 2210q60 -66 156 -113.5t201 -4.5t185 109q25 21 25 0q0 -9 -1.5 -13t-8.5 -16q-130 -113 -211 -150.5t-123.5 -30.5t-100 44.5t-147.5 151.5q-6 5 -8 9.5l-2 4.5q0 9 1.5 12t12.5 6q8 3 21 -9z" />
    <glyph glyph-name="A(hoi" unicode="&#x1eb2;" horiz-adv-x="2976" 
d="M2864 879q-22 13 -22 31q-5 17 11 17q8 0 14.5 -5.5t14.5 -11.5q99 -87 134 -173q16 -39 -78 -71q-29 -13 -102.5 -4t-195.5 33q-30 -152 -45.5 -269t-15.5 -208q0 -93 18 -149q0 -3 9.5 -8l20.5 -10.5t18.5 -10.5t7.5 -8q-5 -40 -53 -40q-18 0 -21 11q-43 88 -43 309
q0 82 6.5 180.5t19.5 215.5l-303 64l-338 77q-127 -135 -280.5 -264.5t-336.5 -259.5q-515 -358 -853 -363q-168 -2 -259.5 94t-91.5 264q0 71 16.5 151t52.5 165q122 312 419 386q61 17 134.5 23.5t162.5 6.5q405 0 1034 -136q154 162 431 494l268.5 334t194.5 268
q13 15 35 15q44 0 100 -38t51 -56l-119.5 -367l-84.5 -261q-118 -395 -150 -571q136 -39 221 -39t85 42q0 64 -87 142zM575 961q-127 -29 -216 -113t-145 -228q-50 -133 -50 -269q0 -148 69 -237q40 -50 96 -77t134 -24q343 8 819 343q296 216 581 505q-518 127 -988 127
q-94 0 -168 -6.5t-132 -20.5zM1972 900q151 -46 301.5 -83t300.5 -66q31 321 274 1062q5 26 5 34q0 43 -24 43q-13 0 -21 -6.5t-22 -19.5q-202 -269 -404.5 -509t-409.5 -455zM3225 2031q0 -20 -27 -20q-22 0 -51 31q-13 16 -17.5 27.5t-4.5 19.5q0 14 18 20
q85 23 144.5 45.5t102.5 43.5q150 77 150 180q0 14 -2.5 30t-8.5 35q-9 27 -25.5 49t-37.5 37t-44.5 23t-45.5 8q-42 0 -62 -29q-15 -19 -32 -19q-23 0 -23 16q0 6 2 9.5t5 10.5q44 56 101 68q13 3 24 4.5t21 1.5q78 0 140 -57q22 -22 38.5 -47.5t24.5 -55.5
q8 -21 10.5 -40.5t2.5 -38.5q0 -111 -110 -170q-41 -26 -148 -69q-54 -22 -91 -35l-60 -21q-4 0 -7 -8q-1 -5 0.5 -12.5t4 -14.5t5.5 -13.5t3 -8.5zM2735 2323q59 -66 155 -113.5t200.5 -4.5t186.5 109q24 21 24 0q0 -9 -1.5 -13t-9.5 -16q-128 -113 -209.5 -150.5
t-124.5 -30.5t-100 45t-146 151q-7 5 -8.5 9.5l-1.5 4.5q0 9 0.5 12.5t12.5 5.5q8 3 22 -9z" />
    <glyph glyph-name="A(nga" unicode="&#x1eb4;" horiz-adv-x="2792" 
d="M2388 897q5 -21 20.5 -64t29.5 -92t20.5 -95.5t-4.5 -73.5q-7 -18 -32.5 -30t-56 -19t-61 -9.5t-50.5 -0.5q-13 -23 -37 -108t-43.5 -195.5t-26.5 -229t15 -209.5q8 -30 -2 -34t-23 21q-28 100 -28 219q0 117 13 224.5t33 193l28 121.5q-29 3 -96 16.5l-140.5 29l-141 29
t-99.5 21.5l-65 -76.5t-132 -142.5t-185 -172t-224 -169t-249 -130t-261 -57q-100 -7 -187 29.5t-148 97.5t-94.5 141t-33.5 165q0 88 40 172t125 153q107 91 278.5 126.5t366 34.5t394 -30.5t367.5 -69.5q50 56 118.5 145.5l145 197l159 229l160 239.5l147 228.5
l120.5 196.5q13 21 34.5 25t41 -8t34.5 -38.5t17 -61.5q3 -11 14.5 -20t24 -20t17.5 -22.5t-2 -28.5q-54 -112 -108.5 -244.5l-102.5 -254t-82.5 -217zM313 594q-63 -43 -94 -111t-32 -143.5t25.5 -151.5t78.5 -137t127 -100t170 -39q165 -3 326 73t301 186.5t253 234.5
t182 217q-120 35 -294 70.5t-360.5 44.5t-366 -20t-316.5 -124zM1759 673q25 -7 84.5 -22t130.5 -29.5t133.5 -25t88.5 -12.5q35 135 83 278.5l100 288.5l104.5 283.5l100.5 264.5q11 31 9.5 54t-12 33.5t-26.5 6.5t-32 -28l-111.5 -172.5l-144 -213.5l-157 -226
l-150 -211.5l-123.5 -169t-78 -99.5zM2577 2315q-30 -27 -31.5 -13.5t15.5 39.5l36 37.5l40.5 41.5t45 33t46.5 13q23 0 57.5 -15.5l73.5 -34.5t76 -35t63 -16q60 0 83.5 9.5t50.5 38.5q26 24 34.5 14.5t-11.5 -38.5l-31.5 -33t-38 -37.5t-41 -29t-46.5 -11.5
q-23 0 -60 15.5l-75 33l-75 33.5t-60 16q-46 0 -85 -18.5t-67 -42.5zM2417 607q7 16 7 46q0 28 -7.5 64.5t-19.5 73.5t-26 72l-22 -65.5l-29 -85l-27 -83t-17 -57.5q26 -5 73 -1t68 36zM2499 2228q59 -66 155.5 -113.5t201 -4.5t185.5 109q24 21 24 0q0 -9 -1 -13t-9 -16
q-130 -113 -210.5 -150.5t-123.5 -30.5t-100 45t-147 151q-7 5 -9 9.5l-2 4.5q0 9 1.5 12.5t13.5 5.5q8 3 21 -9z" />
    <glyph glyph-name="A(nang" unicode="&#x1eb6;" horiz-adv-x="2795" 
d="M2337 905q6 -21 21.5 -65t30.5 -93t21.5 -96t-4.5 -74q-8 -18 -33 -29.5t-57 -20t-64 -10t-51 -1.5q-11 -23 -33.5 -108.5t-42 -197t-28 -230t13.5 -206.5q11 -33 -0.5 -37t-21.5 21q-29 100 -30 218t12 227t33 195.5t28 125.5q-29 4 -96 17l-141.5 28l-142 29t-102.5 19
l-66.5 -75t-136 -142.5t-189 -174.5t-227.5 -170t-253 -131.5t-265 -58.5q-159 -7 -275 72t-166.5 199t-24 256t156.5 241q112 91 285.5 125.5t371.5 33t403 -30.5t378 -69q51 55 120.5 145l147.5 199l160.5 230l162.5 240.5l150.5 230l124.5 196.5q13 23 34.5 27t41.5 -7.5
t34 -38t17 -64.5q0 -11 13.5 -18.5t25.5 -18.5t18.5 -23t-1.5 -30q-56 -112 -112 -245l-105.5 -254t-85 -218.5t-51.5 -137.5zM226 604q-64 -42 -95 -111t-32.5 -146.5t25.5 -155t80 -139.5t129 -101t175 -39q168 0 330.5 76t306 187.5t259.5 237t187 220.5
q-125 35 -300.5 69.5t-366 44.5t-375.5 -19.5t-323 -123.5zM1703 676q25 -5 87 -19.5t133 -29.5t133.5 -26.5t88.5 -11.5q35 135 84.5 281.5l102.5 292l108 285l105 264.5q11 29 8.5 53t-14 36t-27 9.5t-29.5 -26.5q-44 -75 -113.5 -177.5l-148.5 -215.5l-161.5 -229
l-152.5 -214.5l-124.5 -170t-79.5 -101.5zM2366 612q22 38 3 114.5t-49 147.5q-7 -25 -21.5 -67.5l-29.5 -88l-28 -85t-18 -56.5q26 -2 74 2.5t69 32.5zM1516 -326q0 -11 -16.5 -23t-36.5 -21.5t-41 -12t-28 5.5t-12 32t-8 49.5t-3 45.5q0 22 6 30q5 8 21 20.5t36.5 20
t36 11.5t20.5 -4q8 -5 12.5 -26.5t7 -46.5t4 -48t1.5 -33zM2457 2280q60 -66 156 -113.5t200.5 -4.5t185.5 109q25 21 25 0q0 -9 -1.5 -13t-9.5 -16q-130 -113 -210.5 -150.5t-123.5 -30.5t-100 45t-147 151q-6 5 -8 9.5l-2 4.5q0 9 1 12.5t13 5.5q8 3 21 -9z" />
    <glyph glyph-name="Ehuyen" unicode="&#xc8;" horiz-adv-x="1576" 
d="M1699 1499q-29 -53 -119 -110.5t-192 -92.5q-30 -10 -31 10t18 33q82 43 150.5 96t121.5 155q21 44 4.5 83t-44.5 55q-73 24 -161 40t-182 23.5t-188 7.5q-92 0 -178 -8q-63 -66 -142 -168.5t-155 -213t-139.5 -215.5t-101.5 -175q126 17 284 30t319 19.5t310 0
t261 -32.5q25 -5 43.5 -22.5t24 -35t-7 -28t-43.5 2.5q-66 27 -166.5 36t-216 8t-239.5 -10t-238.5 -24t-212.5 -31l-162 -27q-63 -128 -105 -271.5t-39 -290.5q0 -96 26.5 -159.5t70 -101t105 -53.5t133.5 -16q130 3 260.5 39t249 85t218.5 105t172 101q22 13 27 -4
t-14 -30q-69 -62 -168.5 -131t-218.5 -128.5t-250.5 -101.5t-265.5 -42q-74 -2 -148.5 24.5t-134.5 80t-98.5 133.5t-47.5 184q-5 130 23 263t74 253q-21 0 -38.5 6.5t-38.5 20.5q-22 8 -35 22t-17 30.5t5 30.5t36 24q32 10 73.5 18t75.5 18l107.5 199t125.5 212t132 198
t125 161q-122 -3 -238 -12t-215 -31q-18 -6 -24 -20t22 -19q13 -6 15.5 -14t12.5 -14q15 -5 12 -22.5t-25 -10.5l-90 6t-125.5 5.5t-132.5 -4t-114 -17.5q-25 -5 -35.5 10t-9 35t13 38.5t33.5 20.5q96 30 219.5 51.5t251.5 34.5t253 22l226 16q51 84 112 130q21 16 42.5 9.5
t39 -24.5t29 -44.5t14.5 -49.5q165 -13 325 -30.5t282 -68.5q30 -13 53 -45t34.5 -75t9 -86.5t-27.5 -75.5zM1388 2253q13 -17 4 -26t-22 -1l-92 66.5l-105.5 74.5l-104 73t-84.5 65q-16 13 -13 33t16 36.5t31.5 20.5t34.5 -12l74.5 -75l88 -88l90.5 -89z" />
    <glyph glyph-name="Esac" unicode="&#xc9;" horiz-adv-x="1589" 
d="M1707 1435q-13 -25 -45 -51.5t-75 -51t-91.5 -47.5t-96.5 -40q-30 -13 -32.5 6t15.5 35q83 37 150.5 90.5t121.5 145.5q22 46 5.5 82.5t-44.5 49.5q-73 23 -161 39t-179.5 24t-186.5 9.5t-179 -6.5q-64 -64 -142.5 -164l-154.5 -205.5t-140 -206t-99 -169.5
q126 16 282.5 29t318 18.5t311.5 0t259 -29.5q25 -5 42 -22.5t23 -33t-6.5 -25.5t-43.5 1q-68 24 -166 33t-214 8t-240 -10t-238.5 -24t-212.5 -29.5t-163 -27.5q-61 -118 -102 -256.5t-38 -281.5q0 -91 25 -152t70 -97t106.5 -51t133.5 -15q130 3 260.5 36t247.5 81
t217 101.5t169 96.5q21 13 28 -2.5t-12 -30.5q-69 -55 -169 -123t-218.5 -125t-250.5 -97.5t-264 -40.5q-74 -2 -147.5 23t-133.5 76t-98.5 128.5t-47.5 178.5q-5 125 24.5 252.5t74.5 245.5q-21 0 -39.5 5t-39.5 18q-22 8 -35 21.5t-15.5 29.5t6.5 30.5t36 22.5
q29 5 70.5 15.5t77.5 15.5q46 89 105.5 193t124 204.5t131 190.5t124.5 153q-122 -2 -237.5 -10.5t-214.5 -26.5q-16 -5 -20.5 -19.5t17.5 -21.5q16 -5 18.5 -11.5t10.5 -8.5q17 -8 12.5 -27t-23.5 -11q-31 3 -90 7.5t-125 4.5q-64 0 -130.5 -6t-114.5 -16q-25 -3 -35 10.5
t-9 33t13 37t34 23.5q96 27 218 46.5t250 33t251.5 21.5t225.5 16q48 75 112 122q20 17 41.5 11t39 -21.5t29.5 -41t14 -48.5q168 -15 325.5 -33t279.5 -66q30 -11 53.5 -43.5t34.5 -72t8.5 -82.5t-27.5 -74zM1317 2071q-16 -11 -24.5 4t11.5 26q48 21 109 51.5l122 63
l117 61.5t94 47q18 8 32.5 -3.5t21.5 -29t3 -36.5t-26 -27q-43 -13 -100 -32l-119.5 -40l-126 -43.5z" />
    <glyph glyph-name="Ehoi" unicode="&#x1eba;" horiz-adv-x="2142" 
d="M2553 1696q5 -35 -25.5 -38.5t-60.5 6.5q-58 10 -152.5 22.5t-202 20.5t-218 13t-201.5 5q-163 -160 -315.5 -359.5t-275.5 -390.5q106 8 231.5 13t250.5 6.5t247.5 -1t226.5 -10.5q36 -5 38 -29.5t-38 -24.5q-64 0 -152.5 -3.5t-186.5 -9.5t-199.5 -14t-195.5 -17
t-173 -21.5t-129 -25.5l-74.5 -137t-75 -162.5t-58.5 -179.5t-26 -189q0 -71 29 -119t76 -75t104 -34.5t113 -2.5q79 5 184.5 26.5t220 54.5t231.5 80t218 105q30 16 34 -3t-16 -29q-94 -77 -207.5 -135.5t-229.5 -98.5t-229.5 -61.5t-207.5 -21.5q-36 0 -98 15t-126.5 50.5
t-114.5 98t-58 158.5q-6 73 11.5 162t46.5 174t63.5 162.5t67.5 124.5q-21 0 -45 3t-39 24q-7 5 -17.5 17t-17 27t-6.5 28q0 16 13 29q10 11 34 16t53.5 9l57.5 8t48 10l267.5 381.5t286.5 371.5q-112 0 -243 -14.5t-267 -45.5t-269 -79.5t-248 -119.5q-141 -95 -244.5 -236
t-117.5 -330q-8 -138 33.5 -269t118.5 -248q18 -32 1 -41t-39 21q-36 49 -68 112t-56 133.5t-40.5 145t-16.5 146.5q-8 208 89.5 359t294.5 285q127 82 261.5 135.5t278.5 84t300 45.5t328 25q28 30 48.5 49.5t45.5 39.5q16 10 23.5 -2.5t16 -33t24 -39.5t50.5 -19
q197 -3 360.5 -21.5t295.5 -39.5q58 -18 58 -72zM2046 2007q0 -19 -27 -19q-22 0 -51 31q-13 15 -17.5 27t-4.5 20q0 14 18 19q85 24 144.5 46.5t101.5 43.5q151 77 151 179q0 15 -2.5 31t-8.5 34q-9 28 -26 50t-37.5 37t-44 22.5t-45.5 7.5q-42 0 -62 -28q-15 -20 -32 -20
q-24 0 -24 17q0 5 2.5 9t4.5 11q43 55 102 67q12 4 23.5 5.5t21.5 1.5q78 0 138 -58q22 -22 39 -47t26 -55q8 -21 10.5 -40.5t2.5 -39.5q0 -110 -110 -170q-41 -26 -149 -69q-53 -22 -90.5 -35l-59.5 -21q-4 0 -7 -7q-1 -6 0 -13t4 -14l6 -13.5t3 -9.5z" />
    <glyph glyph-name="Enga" unicode="&#x1ebc;" horiz-adv-x="2142" 
d="M2553 1696q5 -35 -25.5 -38.5t-60.5 6.5q-58 10 -152.5 22.5t-202 20.5t-218 13t-201.5 5q-163 -160 -315.5 -359.5t-275.5 -390.5q106 8 231.5 13t250.5 6.5t247.5 -1t226.5 -10.5q36 -5 38 -29.5t-38 -24.5q-64 0 -152.5 -3.5t-186.5 -9.5t-199.5 -14t-195.5 -17
t-173 -21.5t-129 -25.5l-74.5 -137t-75 -162.5t-58.5 -179.5t-26 -189q0 -71 29 -119t76 -75t104 -34.5t113 -2.5q79 5 184.5 26.5t220 54.5t231.5 80t218 105q30 16 34 -3t-16 -29q-94 -77 -207.5 -135.5t-229.5 -98.5t-229.5 -61.5t-207.5 -21.5q-36 0 -98 15t-126.5 50.5
t-114.5 98t-58 158.5q-6 73 11.5 162t46.5 174t63.5 162.5t67.5 124.5q-21 0 -45 3t-39 24q-7 5 -17.5 17t-17 27t-6.5 28q0 16 13 29q10 11 34 16t53.5 9l57.5 8t48 10l267.5 381.5t286.5 371.5q-112 0 -243 -14.5t-267 -45.5t-269 -79.5t-248 -119.5q-141 -95 -244.5 -236
t-117.5 -330q-8 -138 33.5 -269t118.5 -248q18 -32 1 -41t-39 21q-36 49 -68 112t-56 133.5t-40.5 145t-16.5 146.5q-8 208 89.5 359t294.5 285q127 82 261.5 135.5t278.5 84t300 45.5t328 25q28 30 48.5 49.5t45.5 39.5q16 10 23.5 -2.5t16 -33t24 -39.5t50.5 -19
q197 -3 360.5 -21.5t295.5 -39.5q58 -18 58 -72zM1985 2125q-30 -27 -31 -13.5t15 39.5l36 37.5t41 41.5t45 33t46 13q24 0 58 -15.5l73 -34.5t76.5 -35t63.5 -16q59 0 82.5 9.5t50.5 38.5q26 25 34.5 15t-10.5 -38l-32 -33.5t-38.5 -38t-41 -29t-45.5 -11.5t-61 15.5
t-74.5 33l-74.5 34t-61 16.5q-45 0 -84 -19t-68 -43z" />
    <glyph glyph-name="Enang" unicode="&#x1eb8;" horiz-adv-x="2142" 
d="M2553 1696q5 -35 -25.5 -38.5t-60.5 6.5q-58 10 -152.5 22.5t-202 20.5t-218 13t-201.5 5q-163 -160 -315.5 -359.5t-275.5 -390.5q106 8 231.5 13t250.5 6.5t247.5 -1t226.5 -10.5q36 -5 38 -29.5t-38 -24.5q-64 0 -152.5 -3.5t-186.5 -9.5t-199.5 -14t-195.5 -17
t-173 -21.5t-129 -25.5l-74.5 -137t-75 -162.5t-58.5 -179.5t-26 -189q0 -71 29 -119t76 -75t104 -34.5t113 -2.5q79 5 184.5 26.5t220 54.5t231.5 80t218 105q30 16 34 -3t-16 -29q-94 -77 -207.5 -135.5t-229.5 -98.5t-229.5 -61.5t-207.5 -21.5q-36 0 -98 15t-126.5 50.5
t-114.5 98t-58 158.5q-6 73 11.5 162t46.5 174t63.5 162.5t67.5 124.5q-21 0 -45 3t-39 24q-7 5 -17.5 17t-17 27t-6.5 28q0 16 13 29q10 11 34 16t53.5 9l57.5 8t48 10l267.5 381.5t286.5 371.5q-112 0 -243 -14.5t-267 -45.5t-269 -79.5t-248 -119.5q-141 -95 -244.5 -236
t-117.5 -330q-8 -138 33.5 -269t118.5 -248q18 -32 1 -41t-39 21q-36 49 -68 112t-56 133.5t-40.5 145t-16.5 146.5q-8 208 89.5 359t294.5 285q127 82 261.5 135.5t278.5 84t300 45.5t328 25q28 30 48.5 49.5t45.5 39.5q16 10 23.5 -2.5t16 -33t24 -39.5t50.5 -19
q197 -3 360.5 -21.5t295.5 -39.5q58 -18 58 -72zM1217 -447q0 -11 -16.5 -23t-36.5 -21.5t-41 -12t-28 5.5t-12 32t-8 49.5t-3 45.5q0 23 6 30q5 8 21 20.5t36.5 20t36 11.5t20.5 -4q8 -5 12.5 -26.5t7 -46.5t4 -48t1.5 -33z" />
    <glyph glyph-name="" unicode="&#xca;" horiz-adv-x="1599" 
d="M1707 1446q-13 -26 -45 -54t-75 -53.5t-92 -47t-96 -37.5q-28 -14 -29 5t14 32q81 40 147.5 93.5t119.5 149.5q25 44 7.5 82t-47.5 51q-72 23 -158.5 39t-178 24t-187.5 8q-94 0 -178 -8q-64 -66 -141.5 -166l-152 -206t-137 -207.5t-97.5 -167.5q122 15 278 28t316 19
t309 0t260 -29q25 -5 40.5 -24t21 -34.5t-5 -26.5t-43.5 0q-66 26 -164 35.5t-214 8t-238.5 -10.5t-237 -24t-210 -29.5l-160.5 -24.5q-61 -120 -103.5 -260t-39.5 -283q2 -94 27.5 -154t69 -97t105.5 -52t133 -15q130 3 258 36t245 81t216 103t170 98q21 13 28 -1.5
t-12 -34.5q-72 -55 -170.5 -123t-217 -125t-249 -97.5t-260.5 -40.5q-72 -2 -145 23t-133 77t-100.5 129.5t-45.5 181.5q-8 122 21.5 251.5t74.5 246.5q-37 0 -79 23q-19 8 -32 22t-17 29.5t5 30.5t36 22q29 11 68.5 18.5l77.5 14.5l106.5 194t123.5 205t130.5 193
t126.5 155q-124 -2 -237.5 -11t-214.5 -31q-20 -6 -23.5 -19t20.5 -18q19 -5 21.5 -13.5t10.5 -13.5q16 -5 13.5 -21.5t-24.5 -9.5q-35 2 -93.5 6t-124.5 4q-64 0 -129 -4t-113 -15q-25 -6 -35.5 8t-9 32t13 37t34.5 21q96 30 217 49.5t249 33.5t250 23t223 14
q51 78 110 126q20 16 41.5 10.5t40.5 -24t30.5 -44t14.5 -49.5q163 -14 321.5 -29.5t277.5 -63.5q32 -13 54.5 -45t35 -72t8.5 -82.5t-26 -74.5zM1466 2106q-59 -16 -140.5 -48.5t-180.5 -78.5q-24 -21 -24 0q0 9 1.5 12.5t8.5 16.5q22 8 72.5 38t131.5 86q134 83 138 79
q6 -2 66.5 -55.5t172.5 -162.5q8 -5 9 -9.5l1 -4.5q0 -10 -3 -11t-11 -8q-6 -2 -21 9q-27 24 -59 43.5t-60 42.5q-81 54 -102 51z" />
    <glyph glyph-name="EEhuyen" unicode="&#x1ec0;" horiz-adv-x="1576" 
d="M1699 1499q-29 -53 -119 -110.5t-192 -92.5q-30 -10 -31 10t18 33q82 43 150.5 96t121.5 155q21 44 4.5 83t-44.5 55q-73 24 -161 40t-182 23.5t-188 7.5q-92 0 -178 -8q-63 -66 -142 -168.5t-155 -213t-139.5 -215.5t-101.5 -175q126 17 284 30t319 19.5t310 0
t261 -32.5q25 -5 43.5 -22.5t24 -35t-7 -28t-43.5 2.5q-66 27 -166.5 36t-216 8t-239.5 -10t-238.5 -24t-212.5 -31l-162 -27q-63 -128 -105 -271.5t-39 -290.5q0 -96 26.5 -159.5t70 -101t105 -53.5t133.5 -16q130 3 260.5 39t249 85t218.5 105t172 101q22 13 27 -4
t-14 -30q-69 -62 -168.5 -131t-218.5 -128.5t-250.5 -101.5t-265.5 -42q-74 -2 -148.5 24.5t-134.5 80t-98.5 133.5t-47.5 184q-5 130 23 263t74 253q-21 0 -38.5 6.5t-38.5 20.5q-22 8 -35 22t-17 30.5t5 30.5t36 24q32 10 73.5 18t75.5 18l107.5 199t125.5 212t132 198
t125 161q-122 -3 -238 -12t-215 -31q-18 -6 -24 -20t22 -19q13 -6 15.5 -14t12.5 -14q15 -5 12 -22.5t-25 -10.5l-90 6t-125.5 5.5t-132.5 -4t-114 -17.5q-25 -5 -35.5 10t-9 35t13 38.5t33.5 20.5q96 30 219.5 51.5t251.5 34.5t253 22l226 16q51 84 112 130q21 16 42.5 9.5
t39 -24.5t29 -44.5t14.5 -49.5q165 -13 325 -30.5t282 -68.5q30 -13 53 -45t34.5 -75t9 -86.5t-27.5 -75.5zM1609 2275q13 -17 4 -26t-22 -1l-92 67l-105.5 74l-104 73.5t-84.5 64.5q-16 13 -13 33t16 36.5t31.5 20.5t34.5 -12l74.5 -75l88 -88l90.5 -89zM1466 2106
q-59 -16 -140.5 -48.5t-180.5 -78.5q-24 -21 -24 0q0 9 1.5 12.5t8.5 16.5q22 8 72.5 38t131.5 86q134 83 138 79q6 -2 66.5 -55.5t172.5 -162.5q8 -5 9 -9.5l1 -4.5q0 -10 -3 -11t-11 -8q-6 -2 -21 9q-27 24 -59 43.5t-60 42.5q-81 54 -102 51z" />
    <glyph glyph-name="EEsac" unicode="&#x1ebe;" horiz-adv-x="1589" 
d="M1707 1435q-13 -25 -45 -51.5t-75 -51t-91.5 -47.5t-96.5 -40q-30 -13 -32.5 6t15.5 35q83 37 150.5 90.5t121.5 145.5q22 46 5.5 82.5t-44.5 49.5q-73 23 -161 39t-179.5 24t-186.5 9.5t-179 -6.5q-64 -64 -142.5 -164l-154.5 -205.5t-140 -206t-99 -169.5
q126 16 282.5 29t318 18.5t311.5 0t259 -29.5q25 -5 42 -22.5t23 -33t-6.5 -25.5t-43.5 1q-68 24 -166 33t-214 8t-240 -10t-238.5 -24t-212.5 -29.5t-163 -27.5q-61 -118 -102 -256.5t-38 -281.5q0 -91 25 -152t70 -97t106.5 -51t133.5 -15q130 3 260.5 36t247.5 81
t217 101.5t169 96.5q21 13 28 -2.5t-12 -30.5q-69 -55 -169 -123t-218.5 -125t-250.5 -97.5t-264 -40.5q-74 -2 -147.5 23t-133.5 76t-98.5 128.5t-47.5 178.5q-5 125 24.5 252.5t74.5 245.5q-21 0 -39.5 5t-39.5 18q-22 8 -35 21.5t-15.5 29.5t6.5 30.5t36 22.5
q29 5 70.5 15.5t77.5 15.5q46 89 105.5 193t124 204.5t131 190.5t124.5 153q-122 -2 -237.5 -10.5t-214.5 -26.5q-16 -5 -20.5 -19.5t17.5 -21.5q16 -5 18.5 -11.5t10.5 -8.5q17 -8 12.5 -27t-23.5 -11q-31 3 -90 7.5t-125 4.5q-64 0 -130.5 -6t-114.5 -16q-25 -3 -35 10.5
t-9 33t13 37t34 23.5q96 27 218 46.5t250 33t251.5 21.5t225.5 16q48 75 112 122q20 17 41.5 11t39 -21.5t29.5 -41t14 -48.5q168 -15 325.5 -33t279.5 -66q30 -11 53.5 -43.5t34.5 -72t8.5 -82.5t-27.5 -74zM1317 2137q-16 -10 -24.5 5t11.5 25q48 21 109 51.5l122 63
l117 61.5l94 48q18 7 32.5 -4.5t21.5 -29t3 -36.5t-26 -27l-100 -31.5l-119.5 -40l-126 -43.5t-114.5 -42zM1466 2040q-59 -16 -140.5 -48.5t-180.5 -79.5q-24 -21 -24 0q0 9 1.5 13t8.5 17q22 8 72.5 38t131.5 86q134 83 138 79q6 -3 66.5 -56t172.5 -162q8 -6 9 -10.5
l1 -4.5q0 -9 -3 -10t-11 -8q-6 -3 -21 9q-27 24 -59 43.5t-60 42.5q-81 53 -102 51z" />
    <glyph glyph-name="EEhoi" unicode="&#x1ec2;" horiz-adv-x="2142" 
d="M2553 1696q5 -35 -25.5 -38.5t-60.5 6.5q-58 10 -152.5 22.5t-202 20.5t-218 13t-201.5 5q-163 -160 -315.5 -359.5t-275.5 -390.5q106 8 231.5 13t250.5 6.5t247.5 -1t226.5 -10.5q36 -5 38 -29.5t-38 -24.5q-64 0 -152.5 -3.5t-186.5 -9.5t-199.5 -14t-195.5 -17
t-173 -21.5t-129 -25.5l-74.5 -137t-75 -162.5t-58.5 -179.5t-26 -189q0 -71 29 -119t76 -75t104 -34.5t113 -2.5q79 5 184.5 26.5t220 54.5t231.5 80t218 105q30 16 34 -3t-16 -29q-94 -77 -207.5 -135.5t-229.5 -98.5t-229.5 -61.5t-207.5 -21.5q-36 0 -98 15t-126.5 50.5
t-114.5 98t-58 158.5q-6 73 11.5 162t46.5 174t63.5 162.5t67.5 124.5q-21 0 -45 3t-39 24q-7 5 -17.5 17t-17 27t-6.5 28q0 16 13 29q10 11 34 16t53.5 9l57.5 8t48 10l267.5 381.5t286.5 371.5q-112 0 -243 -14.5t-267 -45.5t-269 -79.5t-248 -119.5q-141 -95 -244.5 -236
t-117.5 -330q-8 -138 33.5 -269t118.5 -248q18 -32 1 -41t-39 21q-36 49 -68 112t-56 133.5t-40.5 145t-16.5 146.5q-8 208 89.5 359t294.5 285q127 82 261.5 135.5t278.5 84t300 45.5t328 25q28 30 48.5 49.5t45.5 39.5q16 10 23.5 -2.5t16 -33t24 -39.5t50.5 -19
q197 -3 360.5 -21.5t295.5 -39.5q58 -18 58 -72zM2547 1868q0 -19 -28 -19q-22 0 -50 31q-13 15 -17.5 27t-4.5 20q0 14 18 19q84 23 144 46t101 44q151 76 151 179q0 14 -2.5 30.5t-7.5 34.5q-9 27 -26 49.5t-38 37.5t-44 22.5t-46 7.5q-41 0 -62 -28q-14 -20 -31 -20
q-25 0 -25 17q0 5 2.5 9t5.5 10q43 56 101 68q12 4 23.5 5.5t22.5 1.5q78 0 138 -58q22 -22 39 -47t26 -55q7 -21 10 -40.5t3 -39.5q0 -110 -111 -170q-40 -26 -148 -69q-53 -22 -91 -35l-60 -21q-4 0 -6 -8q-2 -5 -0.5 -12t4 -14t6 -13.5t3.5 -9.5zM2176 2106
q-60 -16 -141 -48.5t-180 -78.5q-25 -21 -25 0q0 9 2 12.5l9 16.5q22 8 72.5 38t131.5 86q134 83 138 79q6 -2 66.5 -55.5t172.5 -162.5q8 -5 9 -9.5l1 -4.5q0 -10 -3 -11t-11 -8q-7 -2 -21 9q-27 24 -59 43.5t-60 42.5q-81 54 -102 51z" />
    <glyph glyph-name="EEnga" unicode="&#x1ec4;" horiz-adv-x="2142" 
d="M2553 1696q5 -35 -25.5 -38.5t-60.5 6.5q-58 10 -152.5 22.5t-202 20.5t-218 13t-201.5 5q-163 -160 -315.5 -359.5t-275.5 -390.5q106 8 231.5 13t250.5 6.5t247.5 -1t226.5 -10.5q36 -5 38 -29.5t-38 -24.5q-64 0 -152.5 -3.5t-186.5 -9.5t-199.5 -14t-195.5 -17
t-173 -21.5t-129 -25.5l-74.5 -137t-75 -162.5t-58.5 -179.5t-26 -189q0 -71 29 -119t76 -75t104 -34.5t113 -2.5q79 5 184.5 26.5t220 54.5t231.5 80t218 105q30 16 34 -3t-16 -29q-94 -77 -207.5 -135.5t-229.5 -98.5t-229.5 -61.5t-207.5 -21.5q-36 0 -98 15t-126.5 50.5
t-114.5 98t-58 158.5q-6 73 11.5 162t46.5 174t63.5 162.5t67.5 124.5q-21 0 -45 3t-39 24q-7 5 -17.5 17t-17 27t-6.5 28q0 16 13 29q10 11 34 16t53.5 9l57.5 8t48 10l267.5 381.5t286.5 371.5q-112 0 -243 -14.5t-267 -45.5t-269 -79.5t-248 -119.5q-141 -95 -244.5 -236
t-117.5 -330q-8 -138 33.5 -269t118.5 -248q18 -32 1 -41t-39 21q-36 49 -68 112t-56 133.5t-40.5 145t-16.5 146.5q-8 208 89.5 359t294.5 285q127 82 261.5 135.5t278.5 84t300 45.5t328 25q28 30 48.5 49.5t45.5 39.5q16 10 23.5 -2.5t16 -33t24 -39.5t50.5 -19
q197 -3 360.5 -21.5t295.5 -39.5q58 -18 58 -72zM2054 2216q-30 -27 -31.5 -13.5t15.5 39.5l36 37.5t41 41.5t45 33t46 13q23 0 57.5 -15.5l73.5 -34.5t76 -35t63 -16q60 0 83.5 9.5t50.5 38.5q26 25 34.5 15t-10.5 -38l-32 -33.5t-38.5 -38t-41 -29t-46.5 -11.5
q-23 0 -60 15.5t-74.5 33l-75 34t-60.5 16.5q-45 0 -84 -19t-68 -43zM2202 2106q-60 -16 -141 -48.5t-180 -78.5q-25 -21 -25 0q0 9 2 12.5l9 16.5q22 8 72.5 38t131.5 86q134 83 138 79q6 -2 66.5 -55.5t172.5 -162.5q8 -5 9 -9.5l1 -4.5q0 -10 -3 -11t-11 -8q-7 -2 -21 9
q-27 24 -59 43.5t-60 42.5q-81 54 -102 51z" />
    <glyph glyph-name="EEnang" unicode="&#x1ec6;" horiz-adv-x="2142" 
d="M2553 1696q5 -35 -25.5 -38.5t-60.5 6.5q-58 10 -152.5 22.5t-202 20.5t-218 13t-201.5 5q-163 -160 -315.5 -359.5t-275.5 -390.5q106 8 231.5 13t250.5 6.5t247.5 -1t226.5 -10.5q36 -5 38 -29.5t-38 -24.5q-64 0 -152.5 -3.5t-186.5 -9.5t-199.5 -14t-195.5 -17
t-173 -21.5t-129 -25.5l-74.5 -137t-75 -162.5t-58.5 -179.5t-26 -189q0 -71 29 -119t76 -75t104 -34.5t113 -2.5q79 5 184.5 26.5t220 54.5t231.5 80t218 105q30 16 34 -3t-16 -29q-94 -77 -207.5 -135.5t-229.5 -98.5t-229.5 -61.5t-207.5 -21.5q-36 0 -98 15t-126.5 50.5
t-114.5 98t-58 158.5q-6 73 11.5 162t46.5 174t63.5 162.5t67.5 124.5q-21 0 -45 3t-39 24q-7 5 -17.5 17t-17 27t-6.5 28q0 16 13 29q10 11 34 16t53.5 9l57.5 8t48 10l267.5 381.5t286.5 371.5q-112 0 -243 -14.5t-267 -45.5t-269 -79.5t-248 -119.5q-141 -95 -244.5 -236
t-117.5 -330q-8 -138 33.5 -269t118.5 -248q18 -32 1 -41t-39 21q-36 49 -68 112t-56 133.5t-40.5 145t-16.5 146.5q-8 208 89.5 359t294.5 285q127 82 261.5 135.5t278.5 84t300 45.5t328 25q28 30 48.5 49.5t45.5 39.5q16 10 23.5 -2.5t16 -33t24 -39.5t50.5 -19
q197 -3 360.5 -21.5t295.5 -39.5q58 -18 58 -72zM1217 -447q0 -11 -16.5 -23t-36.5 -21.5t-41 -12t-28 5.5t-12 32t-8 49.5t-3 45.5q0 23 6 30q5 8 21 20.5t36.5 20t36 11.5t20.5 -4q8 -5 12.5 -26.5t7 -46.5t4 -48t1.5 -33zM2189 2106q-60 -16 -141 -48.5t-180 -78.5
q-25 -21 -25 0q0 9 2 12.5l9 16.5q22 8 72.5 38t131.5 86q134 83 138 79q6 -2 66.5 -55.5t172.5 -162.5q8 -5 9 -9.5l1 -4.5q0 -10 -3 -11t-11 -8q-7 -2 -21 9q-27 24 -59 43.5t-60 42.5q-81 54 -102 51z" />
    <glyph glyph-name="Ohuyen" unicode="&#xd2;" horiz-adv-x="2089" 
d="M69 849q71 259 316 503q-8 40 -8 78q0 155 139 316q153 182 412 291q239 95 503 95q99 0 200 -16q309 -48 496 -317q153 -223 153 -457q0 -19 -1 -36.5t-4 -30.5q-59 -388 -338 -711q-120 -138 -268.5 -245.5t-326.5 -191.5q-331 -150 -627 -135q-272 11 -460 165
q-219 178 -219 460q0 56 9.5 113.5t23.5 118.5zM1726 1895q28 -2 28 -18q0 -27 -30 -18q-72 16 -148 16q-320 0 -706 -206q-336 -173 -440 -322q11 -87 107 -165q104 -74 208 -74q28 0 28 -19q0 -27 -39 -19q-62 2 -113.5 22.5t-101.5 57.5q-97 72 -126 160
q-37 -35 -77 -85.5t-85 -122.5q-85 -149 -118 -256q-16 -58 -22.5 -112.5t-6.5 -108.5q0 -247 166.5 -392t464.5 -159q315 -16 671 170q365 193 596 480q254 312 254 633q0 259 -150 449q-85 109 -207.5 171.5t-284.5 88.5q-38 5 -76.5 7.5t-78.5 2.5q-257 0 -508 -103
q-237 -93 -384 -248q-130 -138 -130 -269q0 -26 5 -53q97 93 219 177t279 158q357 170 656 170q39 0 76.5 -3.5t73.5 -9.5zM1386 2393q17 -13 6 -22t-22 -1l-92 59t-103.5 69.5l-101 69.5t-84.5 59q-15 12 -12.5 30t15.5 32t32 19t34 -8q30 -30 72.5 -68.5l88 -81
l89.5 -83.5z" />
    <glyph glyph-name="Osac" unicode="&#xd3;" horiz-adv-x="2089" 
d="M69 849q71 259 316 503q-8 40 -8 78q0 155 139 316q153 182 412 291q239 95 503 95q99 0 200 -16q309 -48 496 -317q153 -223 153 -457q0 -19 -1 -36.5t-4 -30.5q-59 -388 -338 -711q-120 -138 -268.5 -245.5t-326.5 -191.5q-331 -150 -627 -135q-272 11 -460 165
q-219 178 -219 460q0 56 9.5 113.5t23.5 118.5zM1726 1895q28 -2 28 -18q0 -27 -30 -18q-72 16 -148 16q-320 0 -706 -206q-336 -173 -440 -322q11 -87 107 -165q104 -74 208 -74q28 0 28 -19q0 -27 -39 -19q-62 2 -113.5 22.5t-101.5 57.5q-97 72 -126 160
q-37 -35 -77 -85.5t-85 -122.5q-85 -149 -118 -256q-16 -58 -22.5 -112.5t-6.5 -108.5q0 -247 166.5 -392t464.5 -159q315 -16 671 170q365 193 596 480q254 312 254 633q0 259 -150 449q-85 109 -207.5 171.5t-284.5 88.5q-38 5 -76.5 7.5t-78.5 2.5q-257 0 -508 -103
q-237 -93 -384 -248q-130 -138 -130 -269q0 -26 5 -53q97 93 219 177t279 158q357 170 656 170q39 0 76.5 -3.5t73.5 -9.5zM1427 2404q-19 -6 -25.5 9t12.5 23q47 21 105.5 50l119 60l115 58.5l91.5 47.5q19 8 33.5 -4t21 -30.5t2.5 -36t-25 -25.5l-96 -32l-118.5 -39
l-123.5 -41z" />
    <glyph glyph-name="Ohoi" unicode="&#x1ece;" horiz-adv-x="2089" 
d="M140 849q67 259 316 503q-10 35 -10 78q0 148 139 316q159 184 412 291q242 95 503 95q104 0 200 -16q314 -48 496 -317q153 -217 153 -457q0 -19 -1.5 -36.5t-3.5 -30.5q-29 -197 -112.5 -372.5t-223.5 -338.5q-239 -272 -599 -437q-326 -150 -623 -135
q-274 13 -462 165q-216 176 -216 460q0 112 32 232zM1795 1895q28 -2 28 -18q0 -27 -30 -18q-69 16 -149 16q-319 0 -705 -206q-336 -173 -440 -322q5 -46 34.5 -87t74.5 -78q99 -74 208 -74q29 0 29 -19q0 -27 -42 -19q-59 2 -112 22.5t-103 57.5q-94 75 -124 160
q-36 -35 -78 -85.5t-87 -122.5q-85 -149 -117 -256q-13 -58 -21 -112.5t-8 -108.5q0 -247 168 -392t465 -159q315 -16 671 170q182 97 329.5 215t264.5 265q256 315 256 633q0 254 -149 449q-86 109 -209.5 171.5t-283.5 88.5q-37 5 -77 7.5t-77 2.5q-260 0 -511 -103
q-240 -96 -384 -248q-127 -135 -127 -269q0 -26 5 -53q188 189 498 335q351 170 652 170q39 0 77 -3.5t74 -9.5zM1876 2236q0 -20 -27 -20q-23 0 -51 32q-13 15 -17.5 27t-4.5 19q0 15 18 20q84 23 144 46t102 44q150 76 150 179q0 14 -2.5 30.5t-7.5 34.5q-9 27 -26 49.5
t-37.5 37t-44 22.5t-45.5 8q-42 0 -63 -29q-14 -19 -31 -19q-25 0 -25 17q0 5 3 9t5 10q43 56 102 68q11 4 23 5t22 1q78 0 138 -57q22 -22 39 -47.5t26 -54.5q8 -21 10.5 -40.5t2.5 -39.5q0 -110 -111 -170q-40 -26 -148 -69q-53 -22 -91 -35l-60 -21q-4 0 -6 -8
q-1 -5 0 -12t3.5 -14t6 -13.5t3.5 -9.5z" />
    <glyph glyph-name="Onga" unicode="&#xd5;" horiz-adv-x="2089" 
d="M69 849q71 259 316 503q-8 40 -8 78q0 155 139 316q153 182 412 291q239 95 503 95q99 0 200 -16q309 -48 496 -317q153 -223 153 -457q0 -19 -1 -36.5t-4 -30.5q-59 -388 -338 -711q-120 -138 -268.5 -245.5t-326.5 -191.5q-331 -150 -627 -135q-272 11 -460 165
q-219 178 -219 460q0 56 9.5 113.5t23.5 118.5zM1726 1895q28 -2 28 -18q0 -27 -30 -18q-72 16 -148 16q-320 0 -706 -206q-336 -173 -440 -322q11 -87 107 -165q104 -74 208 -74q28 0 28 -19q0 -27 -39 -19q-62 2 -113.5 22.5t-101.5 57.5q-97 72 -126 160
q-37 -35 -77 -85.5t-85 -122.5q-85 -149 -118 -256q-16 -58 -22.5 -112.5t-6.5 -108.5q0 -247 166.5 -392t464.5 -159q315 -16 671 170q365 193 596 480q254 312 254 633q0 259 -150 449q-85 109 -207.5 171.5t-284.5 88.5q-38 5 -76.5 7.5t-78.5 2.5q-257 0 -508 -103
q-237 -93 -384 -248q-130 -138 -130 -269q0 -26 5 -53q97 93 219 177t279 158q357 170 656 170q39 0 76.5 -3.5t73.5 -9.5zM1340 2418q-28 -27 -31 -15t18 36q13 15 33.5 34t43 36.5t46.5 29.5t45 12q26 0 63.5 -15l77.5 -31l79 -30.5t65 -14.5q61 0 83.5 8t52.5 37
q26 22 34 13.5t-13 -34.5q-27 -27 -69.5 -65.5t-87.5 -38.5q-26 0 -64 14.5l-77.5 30.5l-78.5 31t-65 15q-46 0 -85.5 -16t-69.5 -37z" />
    <glyph glyph-name="Onang" unicode="&#x1ecc;" horiz-adv-x="2089" 
d="M140 849q67 259 316 503q-10 35 -10 78q0 148 139 316q159 184 412 291q242 95 503 95q104 0 200 -16q314 -48 496 -317q153 -217 153 -457q0 -19 -1.5 -36.5t-3.5 -30.5q-29 -197 -112.5 -372.5t-223.5 -338.5q-239 -272 -599 -437q-326 -150 -623 -135
q-274 13 -462 165q-216 176 -216 460q0 112 32 232zM1795 1895q28 -2 28 -18q0 -27 -30 -18q-69 16 -149 16q-319 0 -705 -206q-336 -173 -440 -322q5 -46 34.5 -87t74.5 -78q99 -74 208 -74q29 0 29 -19q0 -27 -42 -19q-59 2 -112 22.5t-103 57.5q-94 75 -124 160
q-36 -35 -78 -85.5t-87 -122.5q-85 -149 -117 -256q-13 -58 -21 -112.5t-8 -108.5q0 -247 168 -392t465 -159q315 -16 671 170q182 97 329.5 215t264.5 265q256 315 256 633q0 254 -149 449q-86 109 -209.5 171.5t-283.5 88.5q-37 5 -77 7.5t-77 2.5q-260 0 -511 -103
q-240 -96 -384 -248q-127 -135 -127 -269q0 -26 5 -53q188 189 498 335q351 170 652 170q39 0 77 -3.5t74 -9.5zM707 -447q0 -11 -16 -23t-36.5 -21.5t-41 -12t-28.5 5.5q-7 8 -12 32t-7.5 49.5t-2.5 45.5q0 23 5 30q5 8 21.5 20.5t36.5 20t35.5 11.5t20.5 -4
q8 -5 12.5 -26.5t7.5 -46.5t4 -48t1 -33z" />
    <glyph glyph-name="" unicode="&#xd4;" horiz-adv-x="2089" 
d="M69 849q71 259 316 503q-8 40 -8 78q0 155 139 316q153 182 412 291q239 95 503 95q99 0 200 -16q309 -48 496 -317q153 -223 153 -457q0 -19 -1 -36.5t-4 -30.5q-59 -388 -338 -711q-120 -138 -268.5 -245.5t-326.5 -191.5q-331 -150 -627 -135q-272 11 -460 165
q-219 178 -219 460q0 56 9.5 113.5t23.5 118.5zM1726 1895q28 -2 28 -18q0 -27 -30 -18q-72 16 -148 16q-320 0 -706 -206q-336 -173 -440 -322q11 -87 107 -165q104 -74 208 -74q28 0 28 -19q0 -27 -39 -19q-62 2 -113.5 22.5t-101.5 57.5q-97 72 -126 160
q-37 -35 -77 -85.5t-85 -122.5q-85 -149 -118 -256q-16 -58 -22.5 -112.5t-6.5 -108.5q0 -247 166.5 -392t464.5 -159q315 -16 671 170q365 193 596 480q254 312 254 633q0 259 -150 449q-85 109 -207.5 171.5t-284.5 88.5q-38 5 -76.5 7.5t-78.5 2.5q-257 0 -508 -103
q-237 -93 -384 -248q-130 -138 -130 -269q0 -26 5 -53q97 93 219 177t279 158q357 170 656 170q39 0 76.5 -3.5t73.5 -9.5zM1741 2495q-156 -45 -373 -155q-33 -20 -33 4q0 12 12 31q24 12 84 47.5t154 99.5q161 103 165 95q21 -12 279 -254q12 -19 12 -23q0 -8 -17 -16
q-8 -4 -19 8q-34 27 -70.5 51.5l-70.5 47.5q-103 68 -123 64z" />
    <glyph glyph-name="OOhuyen" unicode="&#x1ed2;" horiz-adv-x="2089" 
d="M69 849q71 259 316 503q-8 40 -8 78q0 155 139 316q153 182 412 291q239 95 503 95q99 0 200 -16q309 -48 496 -317q153 -223 153 -457q0 -19 -1 -36.5t-4 -30.5q-59 -388 -338 -711q-120 -138 -268.5 -245.5t-326.5 -191.5q-331 -150 -627 -135q-272 11 -460 165
q-219 178 -219 460q0 56 9.5 113.5t23.5 118.5zM1726 1895q28 -2 28 -18q0 -27 -30 -18q-72 16 -148 16q-320 0 -706 -206q-336 -173 -440 -322q11 -87 107 -165q104 -74 208 -74q28 0 28 -19q0 -27 -39 -19q-62 2 -113.5 22.5t-101.5 57.5q-97 72 -126 160
q-37 -35 -77 -85.5t-85 -122.5q-85 -149 -118 -256q-16 -58 -22.5 -112.5t-6.5 -108.5q0 -247 166.5 -392t464.5 -159q315 -16 671 170q365 193 596 480q254 312 254 633q0 259 -150 449q-85 109 -207.5 171.5t-284.5 88.5q-38 5 -76.5 7.5t-78.5 2.5q-257 0 -508 -103
q-237 -93 -384 -248q-130 -138 -130 -269q0 -26 5 -53q97 93 219 177t279 158q357 170 656 170q39 0 76.5 -3.5t73.5 -9.5zM1962 2569q17 -13 5.5 -22t-21.5 -2l-92 59.5l-103.5 69.5l-101 69.5t-84.5 59.5q-15 11 -12.5 29.5t15.5 32t31.5 19t34.5 -7.5q30 -30 72 -68.5
l87.5 -81.5l90 -84zM1741 2495q-156 -45 -373 -155q-33 -20 -33 4q0 12 12 31q24 12 84 47.5t154 99.5q161 103 165 95q21 -12 279 -254q12 -19 12 -23q0 -8 -17 -16q-8 -4 -19 8q-34 27 -70.5 51.5l-70.5 47.5q-103 68 -123 64z" />
    <glyph glyph-name="OOsac" unicode="&#x1ed0;" horiz-adv-x="2089" 
d="M69 849q71 259 316 503q-8 40 -8 78q0 155 139 316q153 182 412 291q239 95 503 95q99 0 200 -16q309 -48 496 -317q153 -223 153 -457q0 -19 -1 -36.5t-4 -30.5q-59 -388 -338 -711q-120 -138 -268.5 -245.5t-326.5 -191.5q-331 -150 -627 -135q-272 11 -460 165
q-219 178 -219 460q0 56 9.5 113.5t23.5 118.5zM1726 1895q28 -2 28 -18q0 -27 -30 -18q-72 16 -148 16q-320 0 -706 -206q-336 -173 -440 -322q11 -87 107 -165q104 -74 208 -74q28 0 28 -19q0 -27 -39 -19q-62 2 -113.5 22.5t-101.5 57.5q-97 72 -126 160
q-37 -35 -77 -85.5t-85 -122.5q-85 -149 -118 -256q-16 -58 -22.5 -112.5t-6.5 -108.5q0 -247 166.5 -392t464.5 -159q315 -16 671 170q365 193 596 480q254 312 254 633q0 259 -150 449q-85 109 -207.5 171.5t-284.5 88.5q-38 5 -76.5 7.5t-78.5 2.5q-257 0 -508 -103
q-237 -93 -384 -248q-130 -138 -130 -269q0 -26 5 -53q97 93 219 177t279 158q357 170 656 170q39 0 76.5 -3.5t73.5 -9.5zM1954 2526q-20 -5 -26.5 10t13.5 22q47 21 105.5 50.5l119 60l115 58.5l90.5 47q20 8 34 -3.5t20.5 -30.5t2.5 -36.5t-24 -25.5l-96.5 -32l-118 -39
l-123.5 -41zM1741 2495q-156 -45 -373 -155q-33 -20 -33 4q0 12 12 31q24 12 84 47.5t154 99.5q161 103 165 95q21 -12 279 -254q12 -19 12 -23q0 -8 -17 -16q-8 -4 -19 8q-34 27 -70.5 51.5l-70.5 47.5q-103 68 -123 64z" />
    <glyph glyph-name="OOhoi" unicode="&#x1ed4;" horiz-adv-x="2089" 
d="M140 849q67 259 316 503q-10 35 -10 78q0 148 139 316q159 184 412 291q242 95 503 95q104 0 200 -16q314 -48 496 -317q153 -217 153 -457q0 -19 -1.5 -36.5t-3.5 -30.5q-29 -197 -112.5 -372.5t-223.5 -338.5q-239 -272 -599 -437q-326 -150 -623 -135
q-274 13 -462 165q-216 176 -216 460q0 112 32 232zM1795 1895q28 -2 28 -18q0 -27 -30 -18q-69 16 -149 16q-319 0 -705 -206q-336 -173 -440 -322q5 -46 34.5 -87t74.5 -78q99 -74 208 -74q29 0 29 -19q0 -27 -42 -19q-59 2 -112 22.5t-103 57.5q-94 75 -124 160
q-36 -35 -78 -85.5t-87 -122.5q-85 -149 -117 -256q-13 -58 -21 -112.5t-8 -108.5q0 -247 168 -392t465 -159q315 -16 671 170q182 97 329.5 215t264.5 265q256 315 256 633q0 254 -149 449q-86 109 -209.5 171.5t-283.5 88.5q-37 5 -77 7.5t-77 2.5q-260 0 -511 -103
q-240 -96 -384 -248q-127 -135 -127 -269q0 -26 5 -53q188 189 498 335q351 170 652 170q39 0 77 -3.5t74 -9.5zM2025 2509q0 -20 -27 -20q-22 0 -51 32q-13 15 -17.5 27t-4.5 19q0 15 18 20q85 23 145 46t101 44q151 76 151 179q0 14 -2.5 30.5t-7.5 34.5
q-10 27 -26.5 49.5t-37.5 37t-44.5 22.5t-45.5 8q-41 0 -62 -29q-15 -19 -31 -19q-25 0 -25 17q0 5 2.5 9t5.5 10q43 56 101 68q12 4 23.5 5t22.5 1q78 0 137 -57q22 -22 39 -47.5t26 -54.5q8 -21 10.5 -40.5t2.5 -39.5q0 -110 -110 -170q-40 -26 -148 -69
q-54 -22 -91.5 -35l-59.5 -21q-4 0 -7 -8q-1 -5 0.5 -12t4 -14t5.5 -13.5t3 -9.5zM1741 2495q-156 -45 -373 -155q-33 -20 -33 4q0 12 12 31q24 12 84 47.5t154 99.5q161 103 165 95q21 -12 279 -254q12 -19 12 -23q0 -8 -17 -16q-8 -4 -19 8q-34 27 -70.5 51.5l-70.5 47.5
q-103 68 -123 64z" />
    <glyph glyph-name="OOnga" unicode="&#x1ed6;" horiz-adv-x="2089" 
d="M69 849q71 259 316 503q-8 40 -8 78q0 155 139 316q153 182 412 291q239 95 503 95q99 0 200 -16q309 -48 496 -317q153 -223 153 -457q0 -19 -1 -36.5t-4 -30.5q-59 -388 -338 -711q-120 -138 -268.5 -245.5t-326.5 -191.5q-331 -150 -627 -135q-272 11 -460 165
q-219 178 -219 460q0 56 9.5 113.5t23.5 118.5zM1726 1895q28 -2 28 -18q0 -27 -30 -18q-72 16 -148 16q-320 0 -706 -206q-336 -173 -440 -322q11 -87 107 -165q104 -74 208 -74q28 0 28 -19q0 -27 -39 -19q-62 2 -113.5 22.5t-101.5 57.5q-97 72 -126 160
q-37 -35 -77 -85.5t-85 -122.5q-85 -149 -118 -256q-16 -58 -22.5 -112.5t-6.5 -108.5q0 -247 166.5 -392t464.5 -159q315 -16 671 170q365 193 596 480q254 312 254 633q0 259 -150 449q-85 109 -207.5 171.5t-284.5 88.5q-38 5 -76.5 7.5t-78.5 2.5q-257 0 -508 -103
q-237 -93 -384 -248q-130 -138 -130 -269q0 -26 5 -53q97 93 219 177t279 158q357 170 656 170q39 0 76.5 -3.5t73.5 -9.5zM1607 2644q-29 -27 -31.5 -14.5t18.5 35.5q13 16 33 34.5t43 36t47 29.5t44 12q26 0 64 -15l77.5 -30.5l78.5 -30.5t65 -15q61 0 84 8.5t53 36.5
q26 22 33.5 13.5t-13.5 -34.5q-27 -27 -69 -65.5t-88 -38.5q-26 0 -63.5 14.5l-77.5 31t-79 31t-65 14.5q-45 0 -84.5 -16t-69.5 -37zM1741 2495q-156 -45 -373 -155q-33 -20 -33 4q0 12 12 31q24 12 84 47.5t154 99.5q161 103 165 95q21 -12 279 -254q12 -19 12 -23
q0 -8 -17 -16q-8 -4 -19 8q-34 27 -70.5 51.5l-70.5 47.5q-103 68 -123 64z" />
    <glyph glyph-name="OOnang" unicode="&#x1ed8;" horiz-adv-x="2089" 
d="M140 849q67 259 316 503q-10 35 -10 78q0 148 139 316q159 184 412 291q242 95 503 95q104 0 200 -16q314 -48 496 -317q153 -217 153 -457q0 -19 -1.5 -36.5t-3.5 -30.5q-29 -197 -112.5 -372.5t-223.5 -338.5q-239 -272 -599 -437q-326 -150 -623 -135
q-274 13 -462 165q-216 176 -216 460q0 112 32 232zM1795 1895q28 -2 28 -18q0 -27 -30 -18q-69 16 -149 16q-319 0 -705 -206q-336 -173 -440 -322q5 -46 34.5 -87t74.5 -78q99 -74 208 -74q29 0 29 -19q0 -27 -42 -19q-59 2 -112 22.5t-103 57.5q-94 75 -124 160
q-36 -35 -78 -85.5t-87 -122.5q-85 -149 -117 -256q-13 -58 -21 -112.5t-8 -108.5q0 -247 168 -392t465 -159q315 -16 671 170q182 97 329.5 215t264.5 265q256 315 256 633q0 254 -149 449q-86 109 -209.5 171.5t-283.5 88.5q-37 5 -77 7.5t-77 2.5q-260 0 -511 -103
q-240 -96 -384 -248q-127 -135 -127 -269q0 -26 5 -53q188 189 498 335q351 170 652 170q39 0 77 -3.5t74 -9.5zM707 -447q0 -11 -16 -23t-36.5 -21.5t-41 -12t-28.5 5.5q-7 8 -12 32t-7.5 49.5t-2.5 45.5q0 23 5 30q5 8 21.5 20.5t36.5 20t35.5 11.5t20.5 -4
q8 -5 12.5 -26.5t7.5 -46.5t4 -48t1 -33zM1741 2495q-156 -45 -373 -155q-33 -20 -33 4q0 12 12 31q24 12 84 47.5t154 99.5q161 103 165 95q21 -12 279 -254q12 -19 12 -23q0 -8 -17 -16q-8 -4 -19 8q-34 27 -70.5 51.5l-70.5 47.5q-103 68 -123 64z" />
    <glyph glyph-name="Ihuyen" unicode="&#xcc;" horiz-adv-x="1583" 
d="M-148 295q23 35 31 28.5t-5 -44.5q-41 -117 -55 -254t8.5 -254t86.5 -195.5t178 -73.5q89 5 176.5 69t166 149t138.5 174.5t91 143.5q35 61 89.5 171.5l118.5 250l132 299.5l132 322t117 316.5t88 284.5q-53 -39 -125 -100.5t-147 -134.5t-145 -158t-126 -176
q-35 -61 -72 -142.5t-45 -160.5q-5 -53 -20 -46.5t-12 46.5q10 77 32.5 175.5t68.5 167.5q51 90 129.5 173.5t163.5 158.5t170.5 142t148.5 123l32 82t33 81t36 67.5t40 39.5q19 9 27 -0.5t10.5 -29t-2.5 -43.5t-13 -44l-45.5 -84t-58.5 -81q-13 -53 -52 -175.5t-95 -283.5
l-125 -346.5t-143.5 -362t-149.5 -330.5t-144 -256l-91.5 -134t-135.5 -165.5t-177 -143.5t-216 -71q-86 -6 -148 36t-104.5 113.5t-61.5 163.5t-19 184q0 94 23 180.5t66 147.5zM1582 2276q16 -13 5.5 -22.5t-24.5 -0.5l-90 64l-104 73.5l-102.5 72l-86.5 62.5
q-17 13 -14 31t16.5 34t33.5 21.5t36 -7.5l72.5 -74l87 -86.5l89 -89z" />
    <glyph glyph-name="Isac" unicode="&#xcd;" horiz-adv-x="1687" 
d="M-148 295q23 35 31 28.5t-5 -44.5q-41 -117 -55 -254t8.5 -254t86.5 -195.5t178 -73.5q89 5 176.5 69t166 149t138.5 174.5t91 143.5q35 61 89.5 171.5l118.5 250l132 299.5l132 322t117 316.5t88 284.5q-53 -39 -125 -100.5t-147 -134.5t-145 -158t-126 -176
q-35 -61 -72 -142.5t-45 -160.5q-5 -53 -20 -46.5t-12 46.5q10 77 32.5 175.5t68.5 167.5q51 90 129.5 173.5t163.5 158.5t170.5 142t148.5 123l32 82t33 81t36 67.5t40 39.5q19 9 27 -0.5t10.5 -29t-2.5 -43.5t-13 -44l-45.5 -84t-58.5 -81q-13 -53 -52 -175.5t-95 -283.5
l-125 -346.5t-143.5 -362t-149.5 -330.5t-144 -256l-91.5 -134t-135.5 -165.5t-177 -143.5t-216 -71q-86 -6 -148 36t-104.5 113.5t-61.5 163.5t-19 184q0 94 23 180.5t66 147.5zM1334 2220q-18 -5 -26 12.5t10 25.5q46 23 104.5 55l117 64l111.5 63t91 49q16 8 32 -3.5
t22.5 -31.5t1.5 -39t-27 -27q-37 -16 -91.5 -36l-115 -42.5l-121.5 -45.5t-109 -44z" />
    <glyph glyph-name="Ihoi" unicode="&#x1ec8;" horiz-adv-x="1482" 
d="M2015 1967q-121 -260 -264.5 -539.5t-307.5 -535.5t-342 -467.5t-364 -330.5q-73 -49 -153 -75.5t-152.5 -33t-138.5 6.5t-110 48q-30 26 -48.5 77t-29.5 96q-8 24 11 29t24 -18q13 -46 41 -84.5t61 -65.5q34 -29 86 -40t114 -5t130.5 29.5t132.5 66.5q111 78 223 199
t218.5 269.5t207.5 316.5t190.5 340t166 336l136.5 304q-160 -28 -319.5 -79t-304.5 -114t-273 -136t-227 -148q-67 -52 -132 -123t-87 -175q-10 -53 3.5 -101t26.5 -77q5 -13 -1.5 -21.5t-16.5 6.5q-25 28 -40.5 84t-19.5 107q-5 93 53.5 178.5t165.5 174.5q91 78 224 154
t290.5 144t334 123.5t357.5 96.5q43 13 59 31q10 12 26 10t28 -11t19 -22t2 -25zM1876 2236q0 -20 -27 -20q-23 0 -51 32q-13 15 -17.5 27t-4.5 19q0 15 18 20q84 23 144 46t102 44q150 76 150 179q0 14 -2.5 30.5t-7.5 34.5q-9 27 -26 49.5t-37.5 37t-44 22.5t-45.5 8
q-42 0 -63 -29q-14 -19 -31 -19q-25 0 -25 17q0 5 3 9t5 10q43 56 102 68q11 4 23 5t22 1q78 0 138 -57q22 -22 39 -47.5t26 -54.5q8 -21 10.5 -40.5t2.5 -39.5q0 -110 -111 -170q-40 -26 -148 -69q-53 -22 -91 -35l-60 -21q-4 0 -6 -8q-1 -5 0 -12t3.5 -14t6 -13.5
t3.5 -9.5z" />
    <glyph glyph-name="Inga" unicode="&#x128;" horiz-adv-x="1140" 
d="M1550 1513q-93 -200 -203.5 -415t-236.5 -412t-263 -359.5t-280 -254.5q-56 -37 -117.5 -57.5t-117.5 -25.5t-106.5 5t-84.5 37q-23 20 -37.5 59t-22.5 74q-6 18 8.5 22t18.5 -14q10 -35 31.5 -64.5t46.5 -50.5q26 -22 66 -30.5t88 -4t100.5 22.5t101.5 51q86 60 172 153
t168 207.5t159.5 243.5t146.5 261.5t128 258.5t105 234q-123 -22 -246 -61t-234.5 -87.5t-210 -104.5t-174.5 -114q-51 -40 -101 -94.5t-67 -134.5q-8 -41 2.5 -78t20.5 -59q4 -10 -1 -16.5t-13 4.5q-19 22 -31 65t-15 82q-4 72 41 137.5t127 134.5q70 60 172.5 118.5
t223.5 110.5t257 95t275 74q33 10 45 24q8 9 20.5 7.5t21.5 -8.5t14.5 -17t1.5 -19zM1245 1775q-22 -21 -24 -11.5t14 27.5q10 12 25.5 26.5t33 28t36 22.5t34.5 9q20 0 49 -11.5l59.5 -23.5l60.5 -23.5t50 -11.5q47 0 64.5 6.5t40.5 28.5q20 17 26 10.5t-10 -26.5
q-21 -21 -53.5 -50.5t-67.5 -29.5q-20 0 -49 11l-59.5 23.5l-60.5 24t-50 11.5q-35 0 -65.5 -12.5t-53.5 -28.5z" />
    <glyph glyph-name="Inang" unicode="&#x1eca;" horiz-adv-x="1482" 
d="M2015 1967q-121 -260 -264.5 -539.5t-307.5 -535.5t-342 -467.5t-364 -330.5q-73 -49 -153 -75.5t-152.5 -33t-138.5 6.5t-110 48q-30 26 -48.5 77t-29.5 96q-8 24 11 29t24 -18q13 -46 41 -84.5t61 -65.5q34 -29 86 -40t114 -5t130.5 29.5t132.5 66.5q111 78 223 199
t218.5 269.5t207.5 316.5t190.5 340t166 336l136.5 304q-160 -28 -319.5 -79t-304.5 -114t-273 -136t-227 -148q-67 -52 -132 -123t-87 -175q-10 -53 3.5 -101t26.5 -77q5 -13 -1.5 -21.5t-16.5 6.5q-25 28 -40.5 84t-19.5 107q-5 93 53.5 178.5t165.5 174.5q91 78 224 154
t290.5 144t334 123.5t357.5 96.5q43 13 59 31q10 12 26 10t28 -11t19 -22t2 -25zM707 -447q0 -11 -16 -23t-36.5 -21.5t-41 -12t-28.5 5.5q-7 8 -12 32t-7.5 49.5t-2.5 45.5q0 23 5 30q5 8 21.5 20.5t36.5 20t35.5 11.5t20.5 -4q8 -5 12.5 -26.5t7.5 -46.5t4 -48t1 -33z" />
    <glyph glyph-name="Uhuyen" unicode="&#xd9;" horiz-adv-x="1801" 
d="M2158 1771l-17 -33.5l-19 -38.5l-123.5 -240l-139.5 -276.5l-139.5 -292t-125.5 -284t-94.5 -252.5t-48.5 -199q-4 -8 -4 -17q0 -8 -3 -16q-5 -28 -7.5 -49.5t-2.5 -42.5q0 -46 35 -46q16 0 61 24q16 8 33 8q7 0 7 -3q0 -26 -80 -90h-5q-16 0 -33.5 15.5t-32 40
t-25.5 49.5t-13 43q0 8 -1.5 15.5t-1.5 14.5q0 104 50.5 272t126.5 354t162.5 368.5t155.5 312.5h3q15 35 15 61q0 40 -31 40q-32 0 -66 -56q-64 -96 -173 -237l-239.5 -299l-274.5 -319l-282.5 -302t-260 -246.5t-205.5 -148.5q-22 -8 -48 -8q-38 0 -76.5 19t-70 48.5
t-53 67.5t-21.5 79v7q5 112 53 264t123 324t167.5 351l185.5 343l178.5 302.5l146.5 229.5q14 23 39.5 33t46.5 10q28 0 49.5 -12.5t21.5 -33.5q0 -14 -13 -35q-56 -77 -137 -201l-175.5 -274l-192 -319t-180 -335.5t-145 -322.5t-86.5 -278q-6 -25 -8.5 -47t-2.5 -44
q0 -122 91 -122q59 0 135 50q91 54 218 171t270.5 270l296.5 331.5l299.5 355l276.5 341.5l227 292q2 2 13 23q19 30 36 50.5t47 27.5h8q26 0 54 -24t28 -51q0 -6 -1.5 -8.5t-1.5 -4.5zM1777 2207q0 -2 3 -2h-3q-29 21 -66 45l-77 50l-122.5 82t-103.5 72q-20 20 -20 25
q0 16 14 29t32 13q8 0 17 -8h2q21 -18 45 -41l53 -49l120 -111.5l109 -104.5h-3zM1784 2205q0 -3 -4 -3v3h4z" />
    <glyph glyph-name="Usac" unicode="&#xda;" horiz-adv-x="1801" 
d="M2158 1771l-17 -33.5l-19 -38.5l-123.5 -240l-139.5 -276.5l-139.5 -292t-125.5 -284t-94.5 -252.5t-48.5 -199q-4 -8 -4 -17q0 -8 -3 -16q-5 -28 -7.5 -49.5t-2.5 -42.5q0 -46 35 -46q16 0 61 24q16 8 33 8q7 0 7 -3q0 -26 -80 -90h-5q-16 0 -33.5 15.5t-32 40
t-25.5 49.5t-13 43q0 8 -1.5 15.5t-1.5 14.5q0 104 50.5 272t126.5 354t162.5 368.5t155.5 312.5h3q15 35 15 61q0 40 -31 40q-32 0 -66 -56q-64 -96 -173 -237l-239.5 -299l-274.5 -319l-282.5 -302t-260 -246.5t-205.5 -148.5q-22 -8 -48 -8q-38 0 -76.5 19t-70 48.5
t-53 67.5t-21.5 79v7q5 112 53 264t123 324t167.5 351l185.5 343l178.5 302.5l146.5 229.5q14 23 39.5 33t46.5 10q28 0 49.5 -12.5t21.5 -33.5q0 -14 -13 -35q-56 -77 -137 -201l-175.5 -274l-192 -319t-180 -335.5t-145 -322.5t-86.5 -278q-6 -25 -8.5 -47t-2.5 -44
q0 -122 91 -122q59 0 135 50q91 54 218 171t270.5 270l296.5 331.5l299.5 355l276.5 341.5l227 292q2 2 13 23q19 30 36 50.5t47 27.5h8q26 0 54 -24t28 -51q0 -6 -1.5 -8.5t-1.5 -4.5zM1586 2213q-3 0 -4 -1.5t-4 -1.5q-5 0 -5 5v0q3 0 5 3q56 23 128 61l141 74l92.5 46.5
l72.5 34.5l6 2q13 0 24 -15t11 -33q0 -21 -16 -23h-4q-39 -15 -96 -33l-120 -38l-124.5 -41.5l-111.5 -39.5h5z" />
    <glyph glyph-name="Uhoi" unicode="&#x1ee6;" horiz-adv-x="1801" 
d="M2158 1771l-17 -33.5l-19 -38.5l-123.5 -240l-139.5 -276.5l-139.5 -292t-125.5 -284t-94.5 -252.5t-48.5 -199q-4 -8 -4 -17q0 -8 -3 -16q-5 -28 -7.5 -49.5t-2.5 -42.5q0 -46 35 -46q16 0 61 24q16 8 33 8q7 0 7 -3q0 -26 -80 -90h-5q-16 0 -33.5 15.5t-32 40
t-25.5 49.5t-13 43q0 8 -1.5 15.5t-1.5 14.5q0 104 50.5 272t126.5 354t162.5 368.5t155.5 312.5h3q15 35 15 61q0 40 -31 40q-32 0 -66 -56q-64 -96 -173 -237l-239.5 -299l-274.5 -319l-282.5 -302t-260 -246.5t-205.5 -148.5q-22 -8 -48 -8q-38 0 -76.5 19t-70 48.5
t-53 67.5t-21.5 79v7q5 112 53 264t123 324t167.5 351l185.5 343l178.5 302.5l146.5 229.5q14 23 39.5 33t46.5 10q28 0 49.5 -12.5t21.5 -33.5q0 -14 -13 -35q-56 -77 -137 -201l-175.5 -274l-192 -319t-180 -335.5t-145 -322.5t-86.5 -278q-6 -25 -8.5 -47t-2.5 -44
q0 -122 91 -122q59 0 135 50q91 54 218 171t270.5 270l296.5 331.5l299.5 355l276.5 341.5l227 292q2 2 13 23q19 30 36 50.5t47 27.5h8q26 0 54 -24t28 -51q0 -6 -1.5 -8.5t-1.5 -4.5zM1784 2205q0 -3 -4 -3v3h4zM1750 2179q0 -20 -28 -20q-22 0 -50 31q-13 16 -17.5 27.5
t-4.5 19.5q0 15 18 20q84 23 144 46t102 43q150 77 150 180q0 14 -2.5 30.5t-7.5 34.5q-9 27 -26 49t-38 37t-44 23t-45 8q-42 0 -63 -29q-14 -19 -31 -19q-25 0 -25 17q0 5 2.5 9t5.5 10q43 56 101 68q12 4 24 5t22 1q78 0 138 -57q22 -22 39 -47.5t26 -55.5
q8 -20 10.5 -39.5t2.5 -39.5q0 -110 -111 -170q-40 -26 -148 -69q-53 -22 -91 -35l-60 -21q-4 0 -6 -8q-2 -5 -0.5 -12t4 -14.5t6 -14t3.5 -8.5z" />
    <glyph glyph-name="Unga" unicode="&#x168;" horiz-adv-x="1801" 
d="M2158 1771l-17 -33.5l-19 -38.5l-123.5 -240l-139.5 -276.5l-139.5 -292t-125.5 -284t-94.5 -252.5t-48.5 -199q-4 -8 -4 -17q0 -8 -3 -16q-5 -28 -7.5 -49.5t-2.5 -42.5q0 -46 35 -46q16 0 61 24q16 8 33 8q7 0 7 -3q0 -26 -80 -90h-5q-16 0 -33.5 15.5t-32 40
t-25.5 49.5t-13 43q0 8 -1.5 15.5t-1.5 14.5q0 104 50.5 272t126.5 354t162.5 368.5t155.5 312.5h3q15 35 15 61q0 40 -31 40q-32 0 -66 -56q-64 -96 -173 -237l-239.5 -299l-274.5 -319l-282.5 -302t-260 -246.5t-205.5 -148.5q-22 -8 -48 -8q-38 0 -76.5 19t-70 48.5
t-53 67.5t-21.5 79v7q5 112 53 264t123 324t167.5 351l185.5 343l178.5 302.5l146.5 229.5q14 23 39.5 33t46.5 10q28 0 49.5 -12.5t21.5 -33.5q0 -14 -13 -35q-56 -77 -137 -201l-175.5 -274l-192 -319t-180 -335.5t-145 -322.5t-86.5 -278q-6 -25 -8.5 -47t-2.5 -44
q0 -122 91 -122q59 0 135 50q91 54 218 171t270.5 270l296.5 331.5l299.5 355l276.5 341.5l227 292q2 2 13 23q19 30 36 50.5t47 27.5h8q26 0 54 -24t28 -51q0 -6 -1.5 -8.5t-1.5 -4.5zM1784 2205q0 -3 -4 -3v3h4zM1465 2236q-29 -27 -31.5 -15t18.5 36q13 15 33 34t43 36.5
t47 29.5t45 12q26 0 63.5 -15l77 -31l78.5 -30.5t65 -14.5q62 0 84.5 8t52.5 37q26 22 34 13.5t-13 -34.5l-70 -65.5t-88 -38.5q-26 0 -63.5 14.5l-77 30.5l-78.5 31t-65 15q-46 0 -85.5 -16t-69.5 -37z" />
    <glyph glyph-name="Unang" unicode="&#x1ee4;" horiz-adv-x="1801" 
d="M2158 1771l-17 -33.5l-19 -38.5l-123.5 -240l-139.5 -276.5l-139.5 -292t-125.5 -284t-94.5 -252.5t-48.5 -199q-4 -8 -4 -17q0 -8 -3 -16q-5 -28 -7.5 -49.5t-2.5 -42.5q0 -46 35 -46q16 0 61 24q16 8 33 8q7 0 7 -3q0 -26 -80 -90h-5q-16 0 -33.5 15.5t-32 40
t-25.5 49.5t-13 43q0 8 -1.5 15.5t-1.5 14.5q0 104 50.5 272t126.5 354t162.5 368.5t155.5 312.5h3q15 35 15 61q0 40 -31 40q-32 0 -66 -56q-64 -96 -173 -237l-239.5 -299l-274.5 -319l-282.5 -302t-260 -246.5t-205.5 -148.5q-22 -8 -48 -8q-38 0 -76.5 19t-70 48.5
t-53 67.5t-21.5 79v7q5 112 53 264t123 324t167.5 351l185.5 343l178.5 302.5l146.5 229.5q14 23 39.5 33t46.5 10q28 0 49.5 -12.5t21.5 -33.5q0 -14 -13 -35q-56 -77 -137 -201l-175.5 -274l-192 -319t-180 -335.5t-145 -322.5t-86.5 -278q-6 -25 -8.5 -47t-2.5 -44
q0 -122 91 -122q59 0 135 50q91 54 218 171t270.5 270l296.5 331.5l299.5 355l276.5 341.5l227 292q2 2 13 23q19 30 36 50.5t47 27.5h8q26 0 54 -24t28 -51q0 -6 -1.5 -8.5t-1.5 -4.5zM1784 2205q0 -3 -4 -3v3h4zM810 -447q0 -11 -16.5 -23t-36.5 -21.5t-41 -12t-28 5.5
t-12 32t-7.5 49.5t-2.5 45.5q0 23 5 30q5 8 21 20.5t36.5 20t36 11.5t20.5 -4q8 -5 12.5 -26.5t7 -46.5t4 -48t1.5 -33z" />
    <glyph glyph-name="U)" unicode="&#x1af;" horiz-adv-x="2558" 
d="M3104 1439q-71 -127 -334 -278q-37 -57 -80 -134q-84 -146 -195 -361q-121 -237 -191.5 -401t-97.5 -262q12 -24 12 -107q-7 -38 -33 -38q-23 0 -30 46q0 99 20 173q40 154 229 568l151.5 338t53.5 117q23 69 -3 69q-16 0 -35 -21q-253 -238 -708 -605
q-300 -240 -500 -375.5t-304 -167.5q-16 -5 -32 -5q-31 0 -62.5 14t-53.5 41t-33 62t-6 71q30 193 226 523l170 278.5l170 282.5q89 155 132 276t43 203q0 78 -58 152q-65 81 -180 88q-316 24 -681 -200q-178 -109 -306 -236.5t-210 -274.5q-25 -45 -35 -93t-10 -102
q0 -170 165 -279q20 -11 20 -26q0 -11 -15 -11q-11 0 -29 11q-73 56 -117.5 106.5t-61.5 101.5q-18 58 -18 127q0 102 45 195q138 287 493 511q383 244 760 229q99 -3 203 -120q99 -112 96 -213q-7 -203 -167 -508l-80.5 -144l-224.5 -392q-89 -157 -145 -279.5t-76 -210.5
q-7 -23 -7 -45q0 -75 75 -75q39 0 79 21q115 51 310.5 188t472.5 369l350 291.5l348 299.5q36 30 74 75t91 101q11 17 34 17q25 0 40.5 -20.5t10.5 -47.5q-6 -21 -12.5 -47.5t-16.5 -55.5q-5 -6 -10 -14q110 75 148 190q6 19 2.5 47t-15.5 68q-7 21 53 50q60 30 77 21
q21 -9 27.5 -59.5t-1.5 -91.5q-3 -17 -7 -21z" />
    <glyph glyph-name="U)huyen" unicode="&#x1eea;" horiz-adv-x="1801" 
d="M1777 2207q0 -2 3 -2h-3q-29 21 -66 45l-77 50l-122.5 82t-103.5 72q-20 20 -20 25q0 16 14 29t32 13q8 0 17 -8h2q21 -18 45 -41l53 -49l120 -111.5l109 -104.5h-3zM1784 2205q0 -3 -4 -3v3h4zM2428 1904q-72 -130 -347 -284q-37 -76 -82 -160l-140 -277.5l-139.5 -292
t-125.5 -284t-94.5 -252.5t-48.5 -199q-4 -8 -4 -17q0 -8 -3 -16q-5 -28 -7.5 -49.5t-2.5 -42.5q0 -46 35 -46q16 0 61 24q16 8 33 8q7 0 7 -3q0 -26 -80 -90h-5q-16 0 -33.5 15.5t-32 40t-25.5 49.5t-13 43q0 8 -1.5 15.5t-1.5 14.5q0 104 50.5 272t126.5 354t162.5 368.5
t155.5 312.5h3q15 35 15 61q0 40 -31 40q-32 0 -66 -56q-64 -96 -173 -237l-239.5 -299l-274.5 -319l-282.5 -302t-260 -246.5t-205.5 -148.5q-22 -8 -48 -8q-38 0 -76.5 19t-70 48.5t-53 67.5t-21.5 79v7q5 112 53 264t123 324t167.5 351l185.5 343l178.5 302.5
l146.5 229.5q14 23 39.5 33t46.5 10q28 0 49.5 -12.5t21.5 -33.5q0 -14 -13 -35q-56 -77 -137 -201l-175.5 -274l-192 -319t-180 -335.5t-145 -322.5t-86.5 -278q-6 -25 -8.5 -47t-2.5 -44q0 -122 91 -122q59 0 135 50q91 54 218 171t270.5 270l296.5 331.5l299.5 355
l276.5 341.5l227 292q2 2 13 23q19 30 36 50.5t47 27.5h8q26 0 54 -24t28 -51q0 -6 -1.5 -8.5t-1.5 -4.5l-17 -33.5l-19 -38.5q-6 -9 -10 -18q137 79 180 209q6 20 2.5 48t-15.5 68q-7 21 53 49q60 30 77 21q21 -9 27.5 -59t-1.5 -92q-3 -17 -7 -21z" />
    <glyph glyph-name="U)sac" unicode="&#x1ee8;" horiz-adv-x="1801" 
d="M1586 2213q-3 0 -4 -1.5t-4 -1.5q-5 0 -5 5v0q3 0 5 3q56 23 128 61l141 74l92.5 46.5l72.5 34.5l6 2q13 0 24 -15t11 -33q0 -21 -16 -23h-4q-39 -15 -96 -33l-120 -38l-124.5 -41.5l-111.5 -39.5h5zM2428 1904q-72 -130 -347 -284q-37 -76 -82 -160l-140 -277.5
l-139.5 -292t-125.5 -284t-94.5 -252.5t-48.5 -199q-4 -8 -4 -17q0 -8 -3 -16q-5 -28 -7.5 -49.5t-2.5 -42.5q0 -46 35 -46q16 0 61 24q16 8 33 8q7 0 7 -3q0 -26 -80 -90h-5q-16 0 -33.5 15.5t-32 40t-25.5 49.5t-13 43q0 8 -1.5 15.5t-1.5 14.5q0 104 50.5 272t126.5 354
t162.5 368.5t155.5 312.5h3q15 35 15 61q0 40 -31 40q-32 0 -66 -56q-64 -96 -173 -237l-239.5 -299l-274.5 -319l-282.5 -302t-260 -246.5t-205.5 -148.5q-22 -8 -48 -8q-38 0 -76.5 19t-70 48.5t-53 67.5t-21.5 79v7q5 112 53 264t123 324t167.5 351l185.5 343
l178.5 302.5l146.5 229.5q14 23 39.5 33t46.5 10q28 0 49.5 -12.5t21.5 -33.5q0 -14 -13 -35q-56 -77 -137 -201l-175.5 -274l-192 -319t-180 -335.5t-145 -322.5t-86.5 -278q-6 -25 -8.5 -47t-2.5 -44q0 -122 91 -122q59 0 135 50q91 54 218 171t270.5 270l296.5 331.5
l299.5 355l276.5 341.5l227 292q2 2 13 23q19 30 36 50.5t47 27.5h8q26 0 54 -24t28 -51q0 -6 -1.5 -8.5t-1.5 -4.5l-17 -33.5l-19 -38.5q-6 -9 -10 -18q137 79 180 209q6 20 2.5 48t-15.5 68q-7 21 53 49q60 30 77 21q21 -9 27.5 -59t-1.5 -92q-3 -17 -7 -21z" />
    <glyph glyph-name="U)hoi" unicode="&#x1eec;" horiz-adv-x="1801" 
d="M1784 2205q0 -3 -4 -3v3h4zM1750 2179q0 -20 -28 -20q-22 0 -50 31q-13 16 -17.5 27.5t-4.5 19.5q0 15 18 20q84 23 144 46t102 43q150 77 150 180q0 14 -2.5 30.5t-7.5 34.5q-9 27 -26 49t-38 37t-44 23t-45 8q-42 0 -63 -29q-14 -19 -31 -19q-25 0 -25 17q0 5 2.5 9
t5.5 10q43 56 101 68q12 4 24 5t22 1q78 0 138 -57q22 -22 39 -47.5t26 -55.5q8 -20 10.5 -39.5t2.5 -39.5q0 -110 -111 -170q-40 -26 -148 -69q-53 -22 -91 -35l-60 -21q-4 0 -6 -8q-2 -5 -0.5 -12t4 -14.5t6 -14t3.5 -8.5zM2428 1904q-72 -130 -347 -284q-37 -76 -82 -160
l-140 -277.5l-139.5 -292t-125.5 -284t-94.5 -252.5t-48.5 -199q-4 -8 -4 -17q0 -8 -3 -16q-5 -28 -7.5 -49.5t-2.5 -42.5q0 -46 35 -46q16 0 61 24q16 8 33 8q7 0 7 -3q0 -26 -80 -90h-5q-16 0 -33.5 15.5t-32 40t-25.5 49.5t-13 43q0 8 -1.5 15.5t-1.5 14.5
q0 104 50.5 272t126.5 354t162.5 368.5t155.5 312.5h3q15 35 15 61q0 40 -31 40q-32 0 -66 -56q-64 -96 -173 -237l-239.5 -299l-274.5 -319l-282.5 -302t-260 -246.5t-205.5 -148.5q-22 -8 -48 -8q-38 0 -76.5 19t-70 48.5t-53 67.5t-21.5 79v7q5 112 53 264t123 324
t167.5 351l185.5 343l178.5 302.5l146.5 229.5q14 23 39.5 33t46.5 10q28 0 49.5 -12.5t21.5 -33.5q0 -14 -13 -35q-56 -77 -137 -201l-175.5 -274l-192 -319t-180 -335.5t-145 -322.5t-86.5 -278q-6 -25 -8.5 -47t-2.5 -44q0 -122 91 -122q59 0 135 50q91 54 218 171
t270.5 270l296.5 331.5l299.5 355l276.5 341.5l227 292q2 2 13 23q19 30 36 50.5t47 27.5h8q26 0 54 -24t28 -51q0 -6 -1.5 -8.5t-1.5 -4.5l-17 -33.5l-19 -38.5q-6 -9 -10 -18q137 79 180 209q6 20 2.5 48t-15.5 68q-7 21 53 49q60 30 77 21q21 -9 27.5 -59t-1.5 -92
q-3 -17 -7 -21z" />
    <glyph glyph-name="U)nga" unicode="&#x1eee;" horiz-adv-x="1801" 
d="M1784 2205q0 -3 -4 -3v3h4zM1465 2236q-29 -27 -31.5 -15t18.5 36q13 15 33 34t43 36.5t47 29.5t45 12q26 0 63.5 -15l77 -31l78.5 -30.5t65 -14.5q62 0 84.5 8t52.5 37q26 22 34 13.5t-13 -34.5l-70 -65.5t-88 -38.5q-26 0 -63.5 14.5l-77 30.5l-78.5 31t-65 15
q-46 0 -85.5 -16t-69.5 -37zM2428 1904q-72 -130 -347 -284q-37 -76 -82 -160l-140 -277.5l-139.5 -292t-125.5 -284t-94.5 -252.5t-48.5 -199q-4 -8 -4 -17q0 -8 -3 -16q-5 -28 -7.5 -49.5t-2.5 -42.5q0 -46 35 -46q16 0 61 24q16 8 33 8q7 0 7 -3q0 -26 -80 -90h-5
q-16 0 -33.5 15.5t-32 40t-25.5 49.5t-13 43q0 8 -1.5 15.5t-1.5 14.5q0 104 50.5 272t126.5 354t162.5 368.5t155.5 312.5h3q15 35 15 61q0 40 -31 40q-32 0 -66 -56q-64 -96 -173 -237l-239.5 -299l-274.5 -319l-282.5 -302t-260 -246.5t-205.5 -148.5q-22 -8 -48 -8
q-38 0 -76.5 19t-70 48.5t-53 67.5t-21.5 79v7q5 112 53 264t123 324t167.5 351l185.5 343l178.5 302.5l146.5 229.5q14 23 39.5 33t46.5 10q28 0 49.5 -12.5t21.5 -33.5q0 -14 -13 -35q-56 -77 -137 -201l-175.5 -274l-192 -319t-180 -335.5t-145 -322.5t-86.5 -278
q-6 -25 -8.5 -47t-2.5 -44q0 -122 91 -122q59 0 135 50q91 54 218 171t270.5 270l296.5 331.5l299.5 355l276.5 341.5l227 292q2 2 13 23q19 30 36 50.5t47 27.5h8q26 0 54 -24t28 -51q0 -6 -1.5 -8.5t-1.5 -4.5l-17 -33.5l-19 -38.5q-6 -9 -10 -18q137 79 180 209
q6 20 2.5 48t-15.5 68q-7 21 53 49q60 30 77 21q21 -9 27.5 -59t-1.5 -92q-3 -17 -7 -21z" />
    <glyph glyph-name="U)nang" unicode="&#x1ef0;" horiz-adv-x="1801" 
d="M1784 2205q0 -3 -4 -3v3h4zM810 -447q0 -11 -16.5 -23t-36.5 -21.5t-41 -12t-28 5.5t-12 32t-7.5 49.5t-2.5 45.5q0 23 5 30q5 8 21 20.5t36.5 20t36 11.5t20.5 -4q8 -5 12.5 -26.5t7 -46.5t4 -48t1.5 -33zM2428 1904q-72 -130 -347 -284q-37 -76 -82 -160l-140 -277.5
l-139.5 -292t-125.5 -284t-94.5 -252.5t-48.5 -199q-4 -8 -4 -17q0 -8 -3 -16q-5 -28 -7.5 -49.5t-2.5 -42.5q0 -46 35 -46q16 0 61 24q16 8 33 8q7 0 7 -3q0 -26 -80 -90h-5q-16 0 -33.5 15.5t-32 40t-25.5 49.5t-13 43q0 8 -1.5 15.5t-1.5 14.5q0 104 50.5 272t126.5 354
t162.5 368.5t155.5 312.5h3q15 35 15 61q0 40 -31 40q-32 0 -66 -56q-64 -96 -173 -237l-239.5 -299l-274.5 -319l-282.5 -302t-260 -246.5t-205.5 -148.5q-22 -8 -48 -8q-38 0 -76.5 19t-70 48.5t-53 67.5t-21.5 79v7q5 112 53 264t123 324t167.5 351l185.5 343
l178.5 302.5l146.5 229.5q14 23 39.5 33t46.5 10q28 0 49.5 -12.5t21.5 -33.5q0 -14 -13 -35q-56 -77 -137 -201l-175.5 -274l-192 -319t-180 -335.5t-145 -322.5t-86.5 -278q-6 -25 -8.5 -47t-2.5 -44q0 -122 91 -122q59 0 135 50q91 54 218 171t270.5 270l296.5 331.5
l299.5 355l276.5 341.5l227 292q2 2 13 23q19 30 36 50.5t47 27.5h8q26 0 54 -24t28 -51q0 -6 -1.5 -8.5t-1.5 -4.5l-17 -33.5l-19 -38.5q-6 -9 -10 -18q137 79 180 209q6 20 2.5 48t-15.5 68q-7 21 53 49q60 30 77 21q21 -9 27.5 -59t-1.5 -92q-3 -17 -7 -21z" />
    <glyph glyph-name="O)" unicode="&#x1a0;" horiz-adv-x="2089" 
d="M1795 1895q28 -2 28 -18q0 -27 -30 -18q-69 16 -149 16q-319 0 -705 -206q-336 -173 -440 -322q5 -46 34.5 -87t74.5 -78q99 -74 208 -74q29 0 29 -19q0 -27 -42 -19q-59 2 -112 22.5t-103 57.5q-94 75 -124 160q-36 -35 -78 -85.5t-87 -122.5q-85 -149 -117 -256
q-13 -58 -21 -112.5t-8 -108.5q0 -247 168 -392t465 -159q315 -16 671 170q182 97 329.5 215t264.5 265q256 315 256 633q0 254 -149 449q-86 109 -209.5 171.5t-283.5 88.5q-37 5 -77 7.5t-77 2.5q-260 0 -511 -103q-240 -96 -384 -248q-127 -135 -127 -269q0 -26 5 -53
q188 189 498 335q351 170 652 170q39 0 77 -3.5t74 -9.5zM2639 1719q-64 -114 -302 -246q12 -65 12 -131q0 -19 -1.5 -36.5t-3.5 -30.5q-29 -197 -112.5 -372.5t-223.5 -338.5q-239 -272 -599 -437q-326 -150 -623 -135q-274 13 -462 165q-216 176 -216 460q0 112 32 232
q67 259 316 503q-10 35 -10 78q0 148 139 316q159 184 412 291q242 95 503 95q104 0 200 -16q314 -48 496 -317q100 -142 135 -292q149 71 192 199q5 16 2 40.5t-13 57.5q-6 19 45 43q51 25 66 17q17 -8 23 -50.5t-2 -78.5q-2 -13 -5 -16z" />
    <glyph glyph-name="O)huyen" unicode="&#x1edc;" horiz-adv-x="2089" 
d="M1726 1895q28 -2 28 -18q0 -27 -30 -18q-72 16 -148 16q-320 0 -706 -206q-336 -173 -440 -322q11 -87 107 -165q104 -74 208 -74q28 0 28 -19q0 -27 -39 -19q-62 2 -113.5 22.5t-101.5 57.5q-97 72 -126 160q-37 -35 -77 -85.5t-85 -122.5q-85 -149 -118 -256
q-16 -58 -22.5 -112.5t-6.5 -108.5q0 -247 166.5 -392t464.5 -159q315 -16 671 170q365 193 596 480q254 312 254 633q0 259 -150 449q-85 109 -207.5 171.5t-284.5 88.5q-38 5 -76.5 7.5t-78.5 2.5q-257 0 -508 -103q-237 -93 -384 -248q-130 -138 -130 -269q0 -26 5 -53
q97 93 219 177t279 158q357 170 656 170q39 0 76.5 -3.5t73.5 -9.5zM1386 2393q17 -13 6 -22t-22 -1l-92 59t-103.5 69.5l-101 69.5t-84.5 59q-15 12 -12.5 30t15.5 32t32 19t34 -8q30 -30 72.5 -68.5l88 -81l89.5 -83.5zM2571 1719q-63 -114 -303 -247q12 -64 12 -130
q0 -19 -1 -36.5t-4 -30.5q-59 -388 -338 -711q-120 -138 -268.5 -245.5t-326.5 -191.5q-331 -150 -627 -135q-272 11 -460 165q-219 178 -219 460q0 56 9.5 113.5t23.5 118.5q71 259 316 503q-8 40 -8 78q0 155 139 316q153 182 412 291q239 95 503 95q99 0 200 -16
q309 -48 496 -317q99 -144 134 -294q152 72 195 201q5 16 1.5 40.5t-13.5 57.5q-5 19 45 43q51 25 67 17q17 -8 22.5 -50.5t-1.5 -78.5q-3 -13 -6 -16z" />
    <glyph glyph-name="O)sac" unicode="&#x1eda;" horiz-adv-x="2089" 
d="M1726 1895q28 -2 28 -18q0 -27 -30 -18q-72 16 -148 16q-320 0 -706 -206q-336 -173 -440 -322q11 -87 107 -165q104 -74 208 -74q28 0 28 -19q0 -27 -39 -19q-62 2 -113.5 22.5t-101.5 57.5q-97 72 -126 160q-37 -35 -77 -85.5t-85 -122.5q-85 -149 -118 -256
q-16 -58 -22.5 -112.5t-6.5 -108.5q0 -247 166.5 -392t464.5 -159q315 -16 671 170q365 193 596 480q254 312 254 633q0 259 -150 449q-85 109 -207.5 171.5t-284.5 88.5q-38 5 -76.5 7.5t-78.5 2.5q-257 0 -508 -103q-237 -93 -384 -248q-130 -138 -130 -269q0 -26 5 -53
q97 93 219 177t279 158q357 170 656 170q39 0 76.5 -3.5t73.5 -9.5zM1427 2404q-19 -6 -25.5 9t12.5 23q47 21 105.5 50l119 60l115 58.5l91.5 47.5q19 8 33.5 -4t21 -30.5t2.5 -36t-25 -25.5l-96 -32l-118.5 -39l-123.5 -41zM2569 1719q-64 -112 -301 -246q12 -65 12 -131
q0 -19 -1 -36.5t-4 -30.5q-59 -388 -338 -711q-120 -138 -268.5 -245.5t-326.5 -191.5q-331 -150 -627 -135q-272 11 -460 165q-219 178 -219 460q0 56 9.5 113.5t23.5 118.5q71 259 316 503q-8 40 -8 78q0 155 139 316q153 182 412 291q239 95 503 95q99 0 200 -16
q309 -48 496 -317q99 -144 134 -292q149 71 192 199q5 16 2 40.5t-14 57.5q-5 19 46 43q51 25 66 17q17 -8 23 -50.5t-2 -78.5q-3 -13 -5 -16z" />
    <glyph glyph-name="O)hoi" unicode="&#x1ede;" horiz-adv-x="2089" 
d="M1795 1895q28 -2 28 -18q0 -27 -30 -18q-69 16 -149 16q-319 0 -705 -206q-336 -173 -440 -322q5 -46 34.5 -87t74.5 -78q99 -74 208 -74q29 0 29 -19q0 -27 -42 -19q-59 2 -112 22.5t-103 57.5q-94 75 -124 160q-36 -35 -78 -85.5t-87 -122.5q-85 -149 -117 -256
q-13 -58 -21 -112.5t-8 -108.5q0 -247 168 -392t465 -159q315 -16 671 170q182 97 329.5 215t264.5 265q256 315 256 633q0 254 -149 449q-86 109 -209.5 171.5t-283.5 88.5q-37 5 -77 7.5t-77 2.5q-260 0 -511 -103q-240 -96 -384 -248q-127 -135 -127 -269q0 -26 5 -53
q188 189 498 335q351 170 652 170q39 0 77 -3.5t74 -9.5zM1876 2236q0 -20 -27 -20q-23 0 -51 32q-13 15 -17.5 27t-4.5 19q0 15 18 20q84 23 144 46t102 44q150 76 150 179q0 14 -2.5 30.5t-7.5 34.5q-9 27 -26 49.5t-37.5 37t-44 22.5t-45.5 8q-42 0 -63 -29
q-14 -19 -31 -19q-25 0 -25 17q0 5 3 9t5 10q43 56 102 68q11 4 23 5t22 1q78 0 138 -57q22 -22 39 -47.5t26 -54.5q8 -21 10.5 -40.5t2.5 -39.5q0 -110 -111 -170q-40 -26 -148 -69q-53 -22 -91 -35l-60 -21q-4 0 -6 -8q-1 -5 0 -12t3.5 -14t6 -13.5t3.5 -9.5zM2636 1719
q-62 -112 -299 -245q12 -65 12 -132q0 -19 -1.5 -36.5t-3.5 -30.5q-29 -197 -112.5 -372.5t-223.5 -338.5q-239 -272 -599 -437q-326 -150 -623 -135q-274 13 -462 165q-216 176 -216 460q0 112 32 232q67 259 316 503q-10 35 -10 78q0 148 139 316q159 184 412 291
q242 95 503 95q104 0 200 -16q314 -48 496 -317q100 -140 134 -291q148 70 191 198q5 16 1.5 40.5t-13.5 57.5q-5 19 45 43q51 25 67 17q17 -8 22.5 -50.5t-1.5 -78.5q-3 -13 -6 -16z" />
    <glyph glyph-name="O)nga" unicode="&#x1ee0;" horiz-adv-x="2320" 
d="M1726 1895q28 -2 28 -18q0 -27 -30 -18q-72 16 -148 16q-320 0 -706 -206q-336 -173 -440 -322q11 -87 107 -165q104 -74 208 -74q28 0 28 -19q0 -27 -39 -19q-62 2 -113.5 22.5t-101.5 57.5q-97 72 -126 160q-37 -35 -77 -85.5t-85 -122.5q-85 -149 -118 -256
q-16 -58 -22.5 -112.5t-6.5 -108.5q0 -247 166.5 -392t464.5 -159q315 -16 671 170q365 193 596 480q254 312 254 633q0 259 -150 449q-85 109 -207.5 171.5t-284.5 88.5q-38 5 -76.5 7.5t-78.5 2.5q-257 0 -508 -103q-237 -93 -384 -248q-130 -138 -130 -269q0 -26 5 -53
q97 93 219 177t279 158q357 170 656 170q39 0 76.5 -3.5t73.5 -9.5zM1340 2418q-28 -27 -31 -15t18 36q13 15 33.5 34t43 36.5t46.5 29.5t45 12q26 0 63.5 -15l77.5 -31l79 -30.5t65 -14.5q61 0 83.5 8t52.5 37q26 22 34 13.5t-13 -34.5q-27 -27 -69.5 -65.5t-87.5 -38.5
q-26 0 -64 14.5l-77.5 30.5l-78.5 31t-65 15q-46 0 -85.5 -16t-69.5 -37zM2569 1719q-64 -112 -301 -246q12 -65 12 -131q0 -19 -1 -36.5t-4 -30.5q-59 -388 -338 -711q-120 -138 -268.5 -245.5t-326.5 -191.5q-331 -150 -627 -135q-272 11 -460 165q-219 178 -219 460
q0 56 9.5 113.5t23.5 118.5q71 259 316 503q-8 40 -8 78q0 155 139 316q153 182 412 291q239 95 503 95q99 0 200 -16q309 -48 496 -317q99 -144 134 -292q149 71 192 199q5 16 2 40.5t-14 57.5q-5 19 46 43q51 25 66 17q17 -8 23 -50.5t-2 -78.5q-3 -13 -5 -16z" />
    <glyph glyph-name="O)nang" unicode="&#x1ee2;" horiz-adv-x="2089" 
d="M1795 1895q28 -2 28 -18q0 -27 -30 -18q-69 16 -149 16q-319 0 -705 -206q-336 -173 -440 -322q5 -46 34.5 -87t74.5 -78q99 -74 208 -74q29 0 29 -19q0 -27 -42 -19q-59 2 -112 22.5t-103 57.5q-94 75 -124 160q-36 -35 -78 -85.5t-87 -122.5q-85 -149 -117 -256
q-13 -58 -21 -112.5t-8 -108.5q0 -247 168 -392t465 -159q315 -16 671 170q182 97 329.5 215t264.5 265q256 315 256 633q0 254 -149 449q-86 109 -209.5 171.5t-283.5 88.5q-37 5 -77 7.5t-77 2.5q-260 0 -511 -103q-240 -96 -384 -248q-127 -135 -127 -269q0 -26 5 -53
q188 189 498 335q351 170 652 170q39 0 77 -3.5t74 -9.5zM707 -447q0 -11 -16 -23t-36.5 -21.5t-41 -12t-28.5 5.5q-7 8 -12 32t-7.5 49.5t-2.5 45.5q0 23 5 30q5 8 21.5 20.5t36.5 20t35.5 11.5t20.5 -4q8 -5 12.5 -26.5t7.5 -46.5t4 -48t1 -33zM2642 1719
q-64 -114 -305 -247q12 -64 12 -130q0 -19 -1.5 -36.5t-3.5 -30.5q-29 -197 -112.5 -372.5t-223.5 -338.5q-239 -272 -599 -437q-326 -150 -623 -135q-274 13 -462 165q-216 176 -216 460q0 112 32 232q67 259 316 503q-10 35 -10 78q0 148 139 316q159 184 412 291
q242 95 503 95q104 0 200 -16q314 -48 496 -317q100 -142 135 -294q152 72 195 201q5 16 2 40.5t-14 57.5q-5 19 46 43q50 25 66 17q17 -8 23 -50.5t-2 -78.5q-3 -13 -5 -16z" />
    <glyph glyph-name="Yhuyen" unicode="&#x1ef2;" horiz-adv-x="1629" 
d="M1979 1641q-32 -68 -93 -170t-142 -223.5l-175 -254l-192 -266l-194 -257.5l-178 -226l-312.5 -357.5t-317.5 -327.5t-293.5 -248.5t-237.5 -123.5q-22 -5 -51.5 10t-52.5 39t-39.5 54.5t-13.5 62.5q5 40 24 83t40 82.5t44.5 74l43.5 61.5q21 24 28.5 20t-5.5 -33
q-8 -25 -22 -62t-28 -79.5t-25.5 -85t-20.5 -82.5q-13 -54 19 -74t99 7q72 29 161 92t182 147t189 181l185 195.5l166.5 189l133.5 161.5q2 91 -18 227t-54.5 292.5t-85 322t-110.5 313.5t-127.5 266.5t-140.5 181.5q-101 89 -199 57t-154 -156q-30 -68 -40.5 -141.5
t-7.5 -150.5q2 -46 -13 -46q-20 0 -33 38l-11.5 61t-8 73.5t2.5 77t17 73.5q30 58 88.5 115.5t128.5 92t146 39t138 -43.5q83 -64 155.5 -176.5t134.5 -252t112 -295t89 -306.5t65.5 -283.5t42.5 -228.5q71 82 162 204.5l179 250t160.5 246.5t110.5 193q0 30 -1 59.5
t19 60.5l58 80l69 91.5l68.5 91t47.5 75.5q16 30 36 26t34.5 -24t20.5 -48t-3 -46zM1561 2116q20 -7 11.5 -25t-26.5 -8l-112 44l-122 47l-117 44t-97 35q-22 8 -25.5 27.5t3.5 39.5t22.5 33.5t31.5 5.5q37 -19 92 -51l114.5 -67.5l118 -69t106.5 -55.5z" />
    <glyph glyph-name="Ysac" unicode="&#xdd;" horiz-adv-x="1629" 
d="M1979 1641q-32 -68 -93 -170t-142 -223.5l-175 -254l-192 -266l-194 -257.5l-178 -226l-312.5 -357.5t-317.5 -327.5t-293.5 -248.5t-237.5 -123.5q-22 -5 -51.5 10t-52.5 39t-39.5 54.5t-13.5 62.5q5 40 24 83t40 82.5t44.5 74l43.5 61.5q21 24 28.5 20t-5.5 -33
q-8 -25 -22 -62t-28 -79.5t-25.5 -85t-20.5 -82.5q-13 -54 19 -74t99 7q72 29 161 92t182 147t189 181l185 195.5l166.5 189l133.5 161.5q2 91 -18 227t-54.5 292.5t-85 322t-110.5 313.5t-127.5 266.5t-140.5 181.5q-101 89 -199 57t-154 -156q-30 -68 -40.5 -141.5
t-7.5 -150.5q2 -46 -13 -46q-20 0 -33 38l-11.5 61t-8 73.5t2.5 77t17 73.5q30 58 88.5 115.5t128.5 92t146 39t138 -43.5q83 -64 155.5 -176.5t134.5 -252t112 -295t89 -306.5t65.5 -283.5t42.5 -228.5q71 82 162 204.5l179 250t160.5 246.5t110.5 193q0 30 -1 59.5
t19 60.5l58 80l69 91.5l68.5 91t47.5 75.5q16 30 36 26t34.5 -24t20.5 -48t-3 -46zM1101 2083q-19 -10 -27 8t10 25q48 22 106.5 55.5l118.5 69l114.5 67.5t92.5 51q15 8 31.5 -5.5t23 -33.5t2.5 -39.5t-25 -27.5l-96 -35l-117 -44l-123 -47z" />
    <glyph glyph-name="Yhoi" unicode="&#x1ef6;" horiz-adv-x="2467" 
d="M2099 133q51 67 214 405l105 217l103 217q7 26 5 29q-3 10 -16 -3q-338 -297 -734 -569q-259 -176 -469.5 -285t-375.5 -154q-24 -8 -46.5 2.5t-42.5 31.5t-32 52t-12 66q0 28 11 53q45 146 263 468l232.5 349l121.5 192q179 305 179 500q0 237 -293 258
q-130 14 -289 -40.5t-347 -169.5q-386 -240 -508 -507q-43 -100 -43 -175q0 -61 21.5 -109t90.5 -93q28 -22 56 -33.5t53 -14.5q37 -2 37 -19q0 -16 -50 -8q-180 32 -226 147q-30 61 -30 155q0 98 30 167q100 267 460 506q378 252 699 261q157 3 289 -123q132 -128 132 -263
q0 -91 -44 -212t-136 -273q-46 -78 -133.5 -212t-224.5 -326q-221 -320 -269 -437q-16 -31 -22.5 -56.5t-6.5 -40.5q0 -38 38 -38q24 0 87 16q320 88 844 449q243 168 427.5 317.5t316.5 284.5l5 13l46 67l55 83q26 40 77 40q5 0 10 -5q25 -56 -2 -83q-21 -13 -42.5 -34.5
l-50.5 -50.5l-155 -338.5l-175 -385.5q13 -14 28.5 -36t28 -43.5t20.5 -42t8 -27.5q0 -25 -51 -91q-23 -29 -42 -45t-35 -19q-21 -3 -54.5 -13t-79.5 -25q-84 -140 -155 -240t-127 -169q-162 -203 -323 -293q-257 -147 -452 -141q-161 2 -257 83q-91 71 -91 178
q0 130 130 234q347 266 1219 402zM2066 64q-128 -19 -261 -46.5t-278 -68.5q-422 -112 -614 -264q-123 -95 -123 -215q0 -199 303 -194q221 2 432 140q162 109 312 302l85.5 128zM2315 391q-21 -45 -51.5 -103.5l-70.5 -135.5q22 3 48.5 10.5l63.5 18.5q56 32 58 85
q3 56 -48 125zM2313 1802q0 -20 -28 -20q-22 0 -50 31q-13 16 -17.5 27.5t-4.5 19.5q0 15 18 20q84 23 144 46t101 43q151 77 151 180q0 14 -2.5 30.5t-7.5 34.5q-9 27 -26 49t-38 37t-44 23t-46 8q-41 0 -62 -29q-14 -19 -31 -19q-25 0 -25 17q0 5 2.5 9t5.5 10
q43 56 101 68q12 4 23.5 5t22.5 1q78 0 138 -57q22 -22 39 -47.5t26 -55.5q7 -20 10 -39.5t3 -39.5q0 -110 -111 -170q-40 -26 -148 -69q-53 -22 -91 -35l-60 -21q-4 0 -6 -8q-2 -5 -0.5 -12t4 -14.5t6 -14t3.5 -8.5z" />
    <glyph glyph-name="Ynga" unicode="&#x1ef8;" horiz-adv-x="2467" 
d="M2099 133q51 67 214 405l105 217l103 217q7 26 5 29q-3 10 -16 -3q-338 -297 -734 -569q-259 -176 -469.5 -285t-375.5 -154q-24 -8 -46.5 2.5t-42.5 31.5t-32 52t-12 66q0 28 11 53q45 146 263 468l232.5 349l121.5 192q179 305 179 500q0 237 -293 258
q-130 14 -289 -40.5t-347 -169.5q-386 -240 -508 -507q-43 -100 -43 -175q0 -61 21.5 -109t90.5 -93q28 -22 56 -33.5t53 -14.5q37 -2 37 -19q0 -16 -50 -8q-180 32 -226 147q-30 61 -30 155q0 98 30 167q100 267 460 506q378 252 699 261q157 3 289 -123q132 -128 132 -263
q0 -91 -44 -212t-136 -273q-46 -78 -133.5 -212t-224.5 -326q-221 -320 -269 -437q-16 -31 -22.5 -56.5t-6.5 -40.5q0 -38 38 -38q24 0 87 16q320 88 844 449q243 168 427.5 317.5t316.5 284.5l5 13l46 67l55 83q26 40 77 40q5 0 10 -5q25 -56 -2 -83q-21 -13 -42.5 -34.5
l-50.5 -50.5l-155 -338.5l-175 -385.5q13 -14 28.5 -36t28 -43.5t20.5 -42t8 -27.5q0 -25 -51 -91q-23 -29 -42 -45t-35 -19q-21 -3 -54.5 -13t-79.5 -25q-84 -140 -155 -240t-127 -169q-162 -203 -323 -293q-257 -147 -452 -141q-161 2 -257 83q-91 71 -91 178
q0 130 130 234q347 266 1219 402zM2066 64q-128 -19 -261 -46.5t-278 -68.5q-422 -112 -614 -264q-123 -95 -123 -215q0 -199 303 -194q221 2 432 140q162 109 312 302l85.5 128zM2315 391q-21 -45 -51.5 -103.5l-70.5 -135.5q22 3 48.5 10.5l63.5 18.5q56 32 58 85
q3 56 -48 125zM2094 1986q-28 -27 -31 -14.5t18 35.5q13 16 33.5 34.5t43 36.5t46.5 29.5t45 11.5q26 0 63.5 -15l77.5 -30.5l79 -30.5t65 -15q61 0 83.5 8.5t52.5 36.5q26 23 34 14.5t-13 -34.5q-27 -28 -69.5 -66t-87.5 -38q-26 0 -64 14t-77.5 30.5l-78.5 31.5t-65 15
q-46 0 -85.5 -16.5t-69.5 -37.5z" />
    <glyph glyph-name="Ynang" unicode="&#x1ef4;" horiz-adv-x="2467" 
d="M2099 133q51 67 214 405l105 217l103 217q7 26 5 29q-3 10 -16 -3q-338 -297 -734 -569q-259 -176 -469.5 -285t-375.5 -154q-24 -8 -46.5 2.5t-42.5 31.5t-32 52t-12 66q0 28 11 53q45 146 263 468l232.5 349l121.5 192q179 305 179 500q0 237 -293 258
q-130 14 -289 -40.5t-347 -169.5q-386 -240 -508 -507q-43 -100 -43 -175q0 -61 21.5 -109t90.5 -93q28 -22 56 -33.5t53 -14.5q37 -2 37 -19q0 -16 -50 -8q-180 32 -226 147q-30 61 -30 155q0 98 30 167q100 267 460 506q378 252 699 261q157 3 289 -123q132 -128 132 -263
q0 -91 -44 -212t-136 -273q-46 -78 -133.5 -212t-224.5 -326q-221 -320 -269 -437q-16 -31 -22.5 -56.5t-6.5 -40.5q0 -38 38 -38q24 0 87 16q320 88 844 449q243 168 427.5 317.5t316.5 284.5l5 13l46 67l55 83q26 40 77 40q5 0 10 -5q25 -56 -2 -83q-21 -13 -42.5 -34.5
l-50.5 -50.5l-155 -338.5l-175 -385.5q13 -14 28.5 -36t28 -43.5t20.5 -42t8 -27.5q0 -25 -51 -91q-23 -29 -42 -45t-35 -19q-21 -3 -54.5 -13t-79.5 -25q-84 -140 -155 -240t-127 -169q-162 -203 -323 -293q-257 -147 -452 -141q-161 2 -257 83q-91 71 -91 178
q0 130 130 234q347 266 1219 402zM2066 64q-128 -19 -261 -46.5t-278 -68.5q-422 -112 -614 -264q-123 -95 -123 -215q0 -199 303 -194q221 2 432 140q162 109 312 302l85.5 128zM2315 391q-21 -45 -51.5 -103.5l-70.5 -135.5q22 3 48.5 10.5l63.5 18.5q56 32 58 85
q3 56 -48 125zM2149 -447q0 -11 -16.5 -23t-36.5 -21.5t-41 -12t-28 5.5t-12 32t-7.5 49.5t-2.5 45.5q0 23 5 30q5 8 21 20.5t36.5 20t36 11.5t20.5 -4q8 -5 12.5 -26.5t7 -46.5t4 -48t1.5 -33z" />
    <glyph glyph-name="" unicode="&#x110;" horiz-adv-x="2483" 
d="M1784 1880q-227 74 -562 84q-168 3 -338 -15q-363 -43 -575 -221q-98 -82 -147 -197q-53 -126 -29 -240q35 -189 179 -364l87 -107q69 -86 59 -96q-19 -18 -69 33q-333 315 -333 592q0 353 424 541q287 125 726 139q379 11 613 -65q244 -76 420 -201q408 -290 408 -714
q0 -101 -28 -203q-89 -353 -449 -617q-158 -115 -407 -216q-297 -120 -514 -120q-264 0 -349 195q-8 21 -16 24q-8 0 -21 -24q-48 -128 -59 -175.5t-27 -50.5q-10 0 -13 13q-2 16 3 43q48 164 79 250q5 13 5 18q-2 2 -7 22q-16 43 -16 71q0 64 79 69h6q-3 0 3 11
q52 112 120 235q207 384 428 716q147 219 238 321q28 36 79 36q21 0 32 -8q8 -11 -5 -30q-114 -148 -291 -404l-234 -354l-114 -187q-165 -272 -229 -415q-18 -43 -16 -88q3 -202 316 -216q216 -8 464 80q269 90 437 227q394 317 394 739q0 73 -14 147q-54 262 -268 458
q-190 170 -469 264zM604 937h623l-45 -69h-623zM604 937h623l-45 -69h-623zM1329 937h457l-45 -69h-458z" />
    <glyph glyph-name="dd" unicode="&#x111;" horiz-adv-x="886" 
d="M974 950q-47 6 -61 11q-31 4 -52.5 34.5t-21.5 61.5q0 18 15 35q100 108 301 151h4q127 189 209 293q469 598 948 766q164 57 317 57q236 0 410 -125q197 -139 197 -364q0 -178 -142 -330q-114 -123 -301 -211q-825 -385 -1612 -385h-73q-35 0 -70 2q-106 -182 -180 -328
q-193 -374 -191 -589q0 -9 13 -23q22 -4 34 -6q7 -2 7 -8q0 -4 -2 -8q-9 -13 -17 -16t-14 -3q-17 0 -31 17q-25 38 -25 94q0 117 119 432q13 35 -10 35q-6 0 -12 -8q-115 -144 -283 -293q-213 -191 -336 -240q-10 -4 -20 -4q-76 0 -76 70q0 137 242 366q217 207 370 266
q41 17 84 17t113 -21zM2328 2277q-665 -282 -1268 -1302q29 -2 58 -2h63q852 0 1587 426q426 248 426 520q0 176 -174 297t-399 121q-154 0 -293 -60zM149 178q-10 -24 -10 -45q0 -45 35 -45q16 0 32 10q287 187 519 459q24 29 24 53q0 47 -74 47q-26 0 -53 -6
q-100 -22 -262 -184q-154 -152 -211 -289zM872 1032q0 -35 48 -42t75 -9l151 242q-165 -45 -260 -154q-14 -16 -14 -37zM1028 924l188 6l-18 -31q-185 -8 -187 -8zM665 930q68 -6 299 0l-22 -39q-27 -4 -139.5 1t-155.5 13z" />
    <glyph glyph-name="quoteleft" unicode="&#x2018;" horiz-adv-x="332" 
d="M251 1188q4 4 12 4q13 0 13 -14q0 -7 -7 -13q-122 -86 -133 -200q-2 -27 23 -80q8 -13 -31 -43q-39 -27 -51 -23q-14 6 -29 51q-12 45 -6 68q35 98 209 250z" />
    <glyph glyph-name="quoteright" unicode="&#x2019;" horiz-adv-x="358" 
d="M117 827q-9 -4 -13 -4q-14 0 -14 13q0 6 8 14q121 84 133 201q2 14 -5 33.5t-17 43.5q-10 11 28 41q37 29 52 25q14 -2 30 -49q13 -49 7 -68q-37 -102 -209 -250z" />
    <glyph glyph-name="quotedblleft" unicode="&#x201c;" horiz-adv-x="548" 
d="M501 1188q4 4 12 4q12 0 12 -14q0 -7 -6 -13q-121 -86 -133 -200q-2 -17 5 -35.5t18 -44.5q10 -11 -31 -43q-39 -27 -49 -23q-17 6 -31 51q-12 45 -6 68q35 98 209 250zM251 1188q4 4 12 4q13 0 13 -14q0 -7 -7 -13q-122 -86 -133 -200q-2 -27 23 -80q8 -13 -31 -43
q-39 -27 -51 -23q-14 6 -29 51q-12 45 -6 68q35 98 209 250z" />
    <glyph glyph-name="quotedblright" unicode="&#x201d;" horiz-adv-x="571" 
d="M329 827q-8 -4 -12 -4q-14 0 -14 13q0 6 8 14q121 84 133 201q2 14 -5 33.5t-17 43.5q-11 11 28 41q37 29 52 25q14 -2 30 -49q13 -49 6 -68q-36 -102 -209 -250zM78 827q-5 -4 -11 -4q-14 0 -14 13q0 6 8 14q121 84 133 201q2 14 -5 33.5t-17 43.5q-10 11 28 41
q37 29 52 25q16 -2 28 -49q15 -47 9 -68q-37 -104 -211 -250z" />
    <glyph glyph-name="ahuyen" unicode="&#xe0;" horiz-adv-x="905" 
d="M74 -57q-20 -15 -47 -15q-51 0 -51 70q0 147 227 375q105 104 198 167.5t171 96.5q39 16 84 16q47 0 100 -18q33 -4 37 -2q31 6 55 26q5 5 11 5q10 0 15 -9.5t3 -15.5l-116.5 -181t-112.5 -182q-86 -143 -134.5 -275t-66.5 -251q-2 -10 -2 -18v-21q0 -137 160 -137
q71 0 143 25q111 34 285 176q170 137 266 262q16 20 25 20q2 -4 2 -8q0 -8 -11 -22q-45 -70 -112.5 -140.5t-159.5 -148.5q-168 -137 -279 -180q-28 -11 -58 -16t-60 -5q-101 0 -166 53q-72 56 -68 160q4 86 34 189.5t87 226.5q35 76 68.5 139.5t68.5 116.5q13 22 -2 22
q-4 0 -8 -4q-49 -59 -117.5 -125.5t-158.5 -142.5q-89 -78 -166.5 -133t-143.5 -96zM109 117q-10 -25 -10 -47q0 -50 37 -50q14 0 30 11q115 73 243 194t272 295q6 6 6 17q0 22 -26 40.5t-69 18.5q-22 0 -47 -6q-96 -25 -243 -187q-136 -151 -193 -286zM777 860
q12 -10 3.5 -17t-16.5 -1l-70 46.5l-80 53.5l-78 52.5t-65 45.5q-12 9 -10 23t12.5 25.5t24.5 15.5t27 -6q22 -23 55 -53.5l67.5 -63.5l68.5 -64.5z" />
    <glyph glyph-name="asac" unicode="&#xe1;" horiz-adv-x="905" 
d="M74 -57q-20 -15 -47 -15q-51 0 -51 70q0 147 227 375q105 104 198 167.5t171 96.5q39 16 84 16q47 0 100 -18q33 -4 37 -2q31 6 55 26q5 5 11 5q10 0 15 -9.5t3 -15.5l-116.5 -181t-112.5 -182q-86 -143 -134.5 -275t-66.5 -251q-2 -10 -2 -18v-21q0 -137 160 -137
q71 0 143 25q111 34 285 176q170 137 266 262q16 20 25 20q2 -4 2 -8q0 -8 -11 -22q-45 -70 -112.5 -140.5t-159.5 -148.5q-168 -137 -279 -180q-28 -11 -58 -16t-60 -5q-101 0 -166 53q-72 56 -68 160q4 86 34 189.5t87 226.5q35 76 68.5 139.5t68.5 116.5q13 22 -2 22
q-4 0 -8 -4q-49 -59 -117.5 -125.5t-158.5 -142.5q-89 -78 -166.5 -133t-143.5 -96zM109 117q-10 -25 -10 -47q0 -50 37 -50q14 0 30 11q115 73 243 194t272 295q6 6 6 17q0 22 -26 40.5t-69 18.5q-22 0 -47 -6q-96 -25 -243 -187q-136 -151 -193 -286zM704 831
q-15 -6 -20 5t9 19l82 39.5l91.5 45l88.5 44l70 35.5q15 6 26 -3t16 -22.5t2 -27.5t-17 -18q-31 -11 -75 -25l-92 -29.5l-95 -32z" />
    <glyph glyph-name="ahoi" unicode="&#x1ea3;" horiz-adv-x="862" 
d="M112 27q-26 -17 -47 -17q-51 0 -51 72q0 145 227 373q105 104 197 168.5t172 97.5q18 6 39.5 11t44.5 5q25 0 49.5 -5t48.5 -13q35 -4 39 -2q37 6 53 26q4 5 13 5q8 0 14 -10.5t4 -14.5l-117.5 -181t-113.5 -182q-43 -71 -84 -164.5t-75 -188.5t-58.5 -181t-32.5 -145
q-2 -11 -2 -19v-20q0 -70 43 -104t117 -34q73 0 145 25q108 37 283 176q84 68 150.5 139.5t115.5 135.5q18 20 24 20q2 -2 2 -6q0 -8 -8 -23q-47 -69 -113.5 -147t-158.5 -156q-86 -69 -154.5 -114.5t-126.5 -65.5q-28 -10 -57 -15t-62 -5q-49 0 -90 15t-73 38
q-39 22 -54.5 64t-13.5 96q2 43 17.5 114.5t40 152.5t53 160.5t57.5 141.5q35 74 68.5 137.5t68.5 116.5q15 22 -2 22q-2 0 -6 -4q-49 -59 -117.5 -124.5t-158.5 -143.5q-181 -152 -310 -227zM145 201q-8 -23 -8 -47q0 -50 37 -50q14 0 30 11q115 71 242 193t273 296
q6 6 6 14q0 23 -27 42.5t-68 19.5q-22 0 -47 -6q-96 -25 -243 -187q-70 -77 -118 -149t-77 -137zM807 883q0 -13 -19 -13q-15 0 -34 21q-9 11 -12 19t-3 13q0 10 12 14q57 16 98.5 31.5t69.5 29.5q103 52 103 122q0 10 -2 21t-6 24q-6 18 -17.5 33.5t-25.5 25.5t-30 15
t-31 5q-29 0 -43 -19q-9 -13 -21 -13q-17 0 -17 11q0 4 2 6.5t3 6.5q30 38 70 47q8 2 16 3t15 1q53 0 94 -39q15 -15 26.5 -32.5t17.5 -37.5q5 -14 7 -27.5t2 -26.5q0 -76 -75 -117q-28 -17 -102 -46q-36 -16 -61.5 -24.5l-41.5 -13.5q-2 -1 -4 -6q-1 -4 0 -8.5t3 -9.5
t4 -9.5t2 -6.5z" />
    <glyph glyph-name="anga" unicode="&#xe3;" horiz-adv-x="905" 
d="M74 -57q-20 -15 -47 -15q-51 0 -51 70q0 147 227 375q105 104 198 167.5t171 96.5q39 16 84 16q47 0 100 -18q33 -4 37 -2q31 6 55 26q5 5 11 5q10 0 15 -9.5t3 -15.5l-116.5 -181t-112.5 -182q-86 -143 -134.5 -275t-66.5 -251q-2 -10 -2 -18v-21q0 -137 160 -137
q71 0 143 25q111 34 285 176q170 137 266 262q16 20 25 20q2 -4 2 -8q0 -8 -11 -22q-45 -70 -112.5 -140.5t-159.5 -148.5q-168 -137 -279 -180q-28 -11 -58 -16t-60 -5q-101 0 -166 53q-72 56 -68 160q4 86 34 189.5t87 226.5q35 76 68.5 139.5t68.5 116.5q13 22 -2 22
q-4 0 -8 -4q-49 -59 -117.5 -125.5t-158.5 -142.5q-89 -78 -166.5 -133t-143.5 -96zM109 117q-10 -25 -10 -47q0 -50 37 -50q14 0 30 11q115 73 243 194t272 295q6 6 6 17q0 22 -26 40.5t-69 18.5q-22 0 -47 -6q-96 -25 -243 -187q-136 -151 -193 -286zM583 851
q-23 -20 -25 -11t13 28l27.5 26.5t33 27.5t35.5 22.5t35 9.5q20 0 49 -11.5l59.5 -23.5l59 -23.5t51.5 -11.5q47 0 64.5 6t39.5 29q21 16 27 10t-10 -26q-21 -21 -53.5 -50.5t-67.5 -29.5q-21 0 -49.5 11l-59 23.5t-60.5 23.5t-50 11q-35 0 -65.5 -12t-53.5 -29z" />
    <glyph glyph-name="anang" unicode="&#x1ea1;" horiz-adv-x="862" 
d="M112 27q-26 -17 -47 -17q-51 0 -51 72q0 145 227 373q105 104 197 168.5t172 97.5q18 6 39.5 11t44.5 5q25 0 49.5 -5t48.5 -13q35 -4 39 -2q37 6 53 26q4 5 13 5q8 0 14 -10.5t4 -14.5l-117.5 -181t-113.5 -182q-43 -71 -84 -164.5t-75 -188.5t-58.5 -181t-32.5 -145
q-2 -11 -2 -19v-20q0 -70 43 -104t117 -34q73 0 145 25q108 37 283 176q84 68 150.5 139.5t115.5 135.5q18 20 24 20q2 -2 2 -6q0 -8 -8 -23q-47 -69 -113.5 -147t-158.5 -156q-86 -69 -154.5 -114.5t-126.5 -65.5q-28 -10 -57 -15t-62 -5q-49 0 -90 15t-73 38
q-39 22 -54.5 64t-13.5 96q2 43 17.5 114.5t40 152.5t53 160.5t57.5 141.5q35 74 68.5 137.5t68.5 116.5q15 22 -2 22q-2 0 -6 -4q-49 -59 -117.5 -124.5t-158.5 -143.5q-181 -152 -310 -227zM145 201q-8 -23 -8 -47q0 -50 37 -50q14 0 30 11q115 71 242 193t273 296
q6 6 6 14q0 23 -27 42.5t-68 19.5q-22 0 -47 -6q-96 -25 -243 -187q-70 -77 -118 -149t-77 -137zM237 -344q0 -8 -12 -17.5t-27.5 -16.5t-32 -9t-22.5 4q-4 6 -8 24.5t-6 38t-2 35.5q0 17 4 23t16.5 15.5t27.5 15.5t27.5 9t16.5 -3q6 -4 9 -20.5t5 -36t3 -37t1 -25.5z" />
    <glyph glyph-name="aa" unicode="&#xe2;" horiz-adv-x="905" 
d="M74 -57q-20 -15 -47 -15q-51 0 -51 70q0 147 227 375q105 104 198 167.5t171 96.5q39 16 84 16q47 0 100 -18q33 -4 37 -2q31 6 55 26q5 5 11 5q10 0 15 -9.5t3 -15.5l-116.5 -181t-112.5 -182q-86 -143 -134.5 -275t-66.5 -251q-2 -10 -2 -18v-21q0 -137 160 -137
q71 0 143 25q111 34 285 176q170 137 266 262q16 20 25 20q2 -4 2 -8q0 -8 -11 -22q-45 -70 -112.5 -140.5t-159.5 -148.5q-168 -137 -279 -180q-28 -11 -58 -16t-60 -5q-101 0 -166 53q-72 56 -68 160q4 86 34 189.5t87 226.5q35 76 68.5 139.5t68.5 116.5q13 22 -2 22
q-4 0 -8 -4q-49 -59 -117.5 -125.5t-158.5 -142.5q-89 -78 -166.5 -133t-143.5 -96zM109 117q-10 -25 -10 -47q0 -50 37 -50q14 0 30 11q115 73 243 194t272 295q6 6 6 17q0 22 -26 40.5t-69 18.5q-22 0 -47 -6q-96 -25 -243 -187q-136 -151 -193 -286zM806 883
q-90 -23 -216 -81q-19 -11 -19 2q0 6 1 9t6 7q14 7 48.5 26.5l89.5 50.5q92 54 95 52q4 -2 44.5 -35t116.5 -100q10 -8 10 -12t-12 -9q-5 -2 -12 5q-19 14 -41.5 27.5t-41.5 23.5q-57 36 -69 34z" />
    <glyph glyph-name="aahuyen" unicode="&#x1ea7;" horiz-adv-x="905" 
d="M74 -57q-20 -15 -47 -15q-51 0 -51 70q0 147 227 375q105 104 198 167.5t171 96.5q39 16 84 16q47 0 100 -18q33 -4 37 -2q31 6 55 26q5 5 11 5q10 0 15 -9.5t3 -15.5l-116.5 -181t-112.5 -182q-86 -143 -134.5 -275t-66.5 -251q-2 -10 -2 -18v-21q0 -137 160 -137
q71 0 143 25q111 34 285 176q170 137 266 262q16 20 25 20q2 -4 2 -8q0 -8 -11 -22q-45 -70 -112.5 -140.5t-159.5 -148.5q-168 -137 -279 -180q-28 -11 -58 -16t-60 -5q-101 0 -166 53q-72 56 -68 160q4 86 34 189.5t87 226.5q35 76 68.5 139.5t68.5 116.5q13 22 -2 22
q-4 0 -8 -4q-49 -59 -117.5 -125.5t-158.5 -142.5q-89 -78 -166.5 -133t-143.5 -96zM109 117q-10 -25 -10 -47q0 -50 37 -50q14 0 30 11q115 73 243 194t272 295q6 6 6 17q0 22 -26 40.5t-69 18.5q-22 0 -47 -6q-96 -25 -243 -187q-136 -151 -193 -286zM931 936
q12 -10 3.5 -17t-16.5 -1l-70 46.5l-80 53.5l-78 52.5t-65 45.5q-12 9 -10 23t12.5 25.5t24.5 15.5t27 -6q22 -23 55 -53.5l67.5 -63.5l68.5 -64.5zM806 883q-90 -23 -216 -81q-19 -11 -19 2q0 6 1 9t6 7q14 7 48.5 26.5l89.5 50.5q92 54 95 52q4 -2 44.5 -35t116.5 -100
q10 -8 10 -12t-12 -9q-5 -2 -12 5q-19 14 -41.5 27.5t-41.5 23.5q-57 36 -69 34z" />
    <glyph glyph-name="aasac" unicode="&#x1ea5;" horiz-adv-x="905" 
d="M74 -57q-20 -15 -47 -15q-51 0 -51 70q0 147 227 375q105 104 198 167.5t171 96.5q39 16 84 16q47 0 100 -18q33 -4 37 -2q31 6 55 26q5 5 11 5q10 0 15 -9.5t3 -15.5l-116.5 -181t-112.5 -182q-86 -143 -134.5 -275t-66.5 -251q-2 -10 -2 -18v-21q0 -137 160 -137
q71 0 143 25q111 34 285 176q170 137 266 262q16 20 25 20q2 -4 2 -8q0 -8 -11 -22q-45 -70 -112.5 -140.5t-159.5 -148.5q-168 -137 -279 -180q-28 -11 -58 -16t-60 -5q-101 0 -166 53q-72 56 -68 160q4 86 34 189.5t87 226.5q35 76 68.5 139.5t68.5 116.5q13 22 -2 22
q-4 0 -8 -4q-49 -59 -117.5 -125.5t-158.5 -142.5q-89 -78 -166.5 -133t-143.5 -96zM109 117q-10 -25 -10 -47q0 -50 37 -50q14 0 30 11q115 73 243 194t272 295q6 6 6 17q0 22 -26 40.5t-69 18.5q-22 0 -47 -6q-96 -25 -243 -187q-136 -151 -193 -286zM704 951
q-15 -6 -20 5t9 19l82 39.5l91.5 45l88.5 44l70 35.5q15 6 26 -3t16 -22.5t2 -27.5t-17 -18q-31 -11 -75 -25l-92 -29.5l-95 -32zM806 883q-90 -23 -216 -81q-19 -11 -19 2q0 6 1 9t6 7q14 7 48.5 26.5l89.5 50.5q92 54 95 52q4 -2 44.5 -35t116.5 -100q10 -8 10 -12t-12 -9
q-5 -2 -12 5q-19 14 -41.5 27.5t-41.5 23.5q-57 36 -69 34z" />
    <glyph glyph-name="aahoi" unicode="&#x1ea9;" horiz-adv-x="862" 
d="M112 27q-26 -17 -47 -17q-51 0 -51 72q0 145 227 373q105 104 197 168.5t172 97.5q18 6 39.5 11t44.5 5q25 0 49.5 -5t48.5 -13q35 -4 39 -2q37 6 53 26q4 5 13 5q8 0 14 -10.5t4 -14.5l-117.5 -181t-113.5 -182q-43 -71 -84 -164.5t-75 -188.5t-58.5 -181t-32.5 -145
q-2 -11 -2 -19v-20q0 -70 43 -104t117 -34q73 0 145 25q108 37 283 176q84 68 150.5 139.5t115.5 135.5q18 20 24 20q2 -2 2 -6q0 -8 -8 -23q-47 -69 -113.5 -147t-158.5 -156q-86 -69 -154.5 -114.5t-126.5 -65.5q-28 -10 -57 -15t-62 -5q-49 0 -90 15t-73 38
q-39 22 -54.5 64t-13.5 96q2 43 17.5 114.5t40 152.5t53 160.5t57.5 141.5q35 74 68.5 137.5t68.5 116.5q15 22 -2 22q-2 0 -6 -4q-49 -59 -117.5 -124.5t-158.5 -143.5q-181 -152 -310 -227zM145 201q-8 -23 -8 -47q0 -50 37 -50q14 0 30 11q115 71 242 193t273 296
q6 6 6 14q0 23 -27 42.5t-68 19.5q-22 0 -47 -6q-96 -25 -243 -187q-70 -77 -118 -149t-77 -137zM961 943q0 -13 -19 -13q-15 0 -34 21q-9 11 -12 19t-3 13q0 10 12 14q57 16 98.5 31.5t69.5 29.5q103 52 103 122q0 10 -2 21t-6 24q-6 18 -17.5 33.5t-25.5 25.5t-30 15
t-31 5q-29 0 -43 -19q-9 -13 -21 -13q-17 0 -17 11q0 4 2 6.5t3 6.5q30 38 70 47q8 2 16 3t15 1q53 0 94 -39q15 -15 26.5 -32.5t17.5 -37.5q5 -14 7 -27.5t2 -26.5q0 -76 -75 -117q-28 -17 -102 -46q-36 -16 -61.5 -24.5l-41.5 -13.5q-2 -1 -4 -6q-1 -4 0 -8.5t3 -9.5
t4 -9.5t2 -6.5zM805 883q-90 -23 -216 -81q-19 -11 -19 2q0 6 1 9t6 7q14 7 48.5 26.5l89.5 50.5q92 54 95 52q5 -2 45 -35l116 -100q10 -8 10 -12t-12 -9q-5 -2 -12 5q-19 14 -41.5 27.5t-41.5 23.5q-57 36 -69 34z" />
    <glyph glyph-name="aanga" unicode="&#x1eab;" horiz-adv-x="905" 
d="M74 -57q-20 -15 -47 -15q-51 0 -51 70q0 147 227 375q105 104 198 167.5t171 96.5q39 16 84 16q47 0 100 -18q33 -4 37 -2q31 6 55 26q5 5 11 5q10 0 15 -9.5t3 -15.5l-116.5 -181t-112.5 -182q-86 -143 -134.5 -275t-66.5 -251q-2 -10 -2 -18v-21q0 -137 160 -137
q71 0 143 25q111 34 285 176q170 137 266 262q16 20 25 20q2 -4 2 -8q0 -8 -11 -22q-45 -70 -112.5 -140.5t-159.5 -148.5q-168 -137 -279 -180q-28 -11 -58 -16t-60 -5q-101 0 -166 53q-72 56 -68 160q4 86 34 189.5t87 226.5q35 76 68.5 139.5t68.5 116.5q13 22 -2 22
q-4 0 -8 -4q-49 -59 -117.5 -125.5t-158.5 -142.5q-89 -78 -166.5 -133t-143.5 -96zM109 117q-10 -25 -10 -47q0 -50 37 -50q14 0 30 11q115 73 243 194t272 295q6 6 6 17q0 22 -26 40.5t-69 18.5q-22 0 -47 -6q-96 -25 -243 -187q-136 -151 -193 -286zM660 979
q-23 -20 -25 -11t13 28l27.5 26.5t33 27.5t35.5 22.5t35 9.5q20 0 49 -11.5l59.5 -23.5l59 -23.5t51.5 -11.5q47 0 64.5 6t39.5 29q21 16 27 10t-10 -26q-21 -21 -53.5 -50.5t-67.5 -29.5q-21 0 -49.5 11l-59 23.5t-60.5 23.5t-50 11q-35 0 -65.5 -12t-53.5 -29zM806 883
q-90 -23 -216 -81q-19 -11 -19 2q0 6 1 9t6 7q14 7 48.5 26.5l89.5 50.5q92 54 95 52q4 -2 44.5 -35t116.5 -100q10 -8 10 -12t-12 -9q-5 -2 -12 5q-19 14 -41.5 27.5t-41.5 23.5q-57 36 -69 34z" />
    <glyph glyph-name="aanang" unicode="&#x1ead;" horiz-adv-x="862" 
d="M112 27q-26 -17 -47 -17q-51 0 -51 72q0 145 227 373q105 104 197 168.5t172 97.5q18 6 39.5 11t44.5 5q25 0 49.5 -5t48.5 -13q35 -4 39 -2q37 6 53 26q4 5 13 5q8 0 14 -10.5t4 -14.5l-117.5 -181t-113.5 -182q-43 -71 -84 -164.5t-75 -188.5t-58.5 -181t-32.5 -145
q-2 -11 -2 -19v-20q0 -70 43 -104t117 -34q73 0 145 25q108 37 283 176q84 68 150.5 139.5t115.5 135.5q18 20 24 20q2 -2 2 -6q0 -8 -8 -23q-47 -69 -113.5 -147t-158.5 -156q-86 -69 -154.5 -114.5t-126.5 -65.5q-28 -10 -57 -15t-62 -5q-49 0 -90 15t-73 38
q-39 22 -54.5 64t-13.5 96q2 43 17.5 114.5t40 152.5t53 160.5t57.5 141.5q35 74 68.5 137.5t68.5 116.5q15 22 -2 22q-2 0 -6 -4q-49 -59 -117.5 -124.5t-158.5 -143.5q-181 -152 -310 -227zM145 201q-8 -23 -8 -47q0 -50 37 -50q14 0 30 11q115 71 242 193t273 296
q6 6 6 14q0 23 -27 42.5t-68 19.5q-22 0 -47 -6q-96 -25 -243 -187q-70 -77 -118 -149t-77 -137zM237 -344q0 -8 -12 -17.5t-27.5 -16.5t-32 -9t-22.5 4q-4 6 -8 24.5t-6 38t-2 35.5q0 17 4 23t16.5 15.5t27.5 15.5t27.5 9t16.5 -3q6 -4 9 -20.5t5 -36t3 -37t1 -25.5z
M830 925q-90 -23 -216 -81q-19 -11 -19 2q0 6 1 9t6 7q14 7 48.5 26.5l89.5 50.5q92 54 95 52q5 -2 45 -35l116 -100q10 -8 10 -12t-12 -9q-5 -2 -12 5q-19 14 -41.5 27.5t-41.5 23.5q-57 36 -69 34z" />
    <glyph glyph-name="a(" unicode="&#x103;" horiz-adv-x="905" 
d="M74 -57q-20 -15 -47 -15q-51 0 -51 70q0 147 227 375q105 104 198 167.5t171 96.5q39 16 84 16q47 0 100 -18q33 -4 37 -2q31 6 55 26q5 5 11 5q10 0 15 -9.5t3 -15.5l-116.5 -181t-112.5 -182q-86 -143 -134.5 -275t-66.5 -251q-2 -10 -2 -18v-21q0 -137 160 -137
q71 0 143 25q111 34 285 176q170 137 266 262q16 20 25 20q2 -4 2 -8q0 -8 -11 -22q-45 -70 -112.5 -140.5t-159.5 -148.5q-168 -137 -279 -180q-28 -11 -58 -16t-60 -5q-101 0 -166 53q-72 56 -68 160q4 86 34 189.5t87 226.5q35 76 68.5 139.5t68.5 116.5q13 22 -2 22
q-4 0 -8 -4q-49 -59 -117.5 -125.5t-158.5 -142.5q-89 -78 -166.5 -133t-143.5 -96zM109 117q-10 -25 -10 -47q0 -50 37 -50q14 0 30 11q115 73 243 194t272 295q6 6 6 17q0 22 -26 40.5t-69 18.5q-22 0 -47 -6q-96 -25 -243 -187q-136 -151 -193 -286zM636 881
q36 -41 95 -70t123.5 -2.5t114.5 67.5q15 12 15 0q0 -6 -1 -8.5t-6 -10.5q-79 -68 -129 -91.5t-76 -19t-61.5 27.5t-90.5 93q-4 3 -5 6l-1 3q0 5 0.5 7t8.5 4q4 1 13 -6z" />
    <glyph glyph-name="a(huyen" unicode="&#x1eb1;" horiz-adv-x="905" 
d="M74 -57q-20 -15 -47 -15q-51 0 -51 70q0 147 227 375q105 104 198 167.5t171 96.5q39 16 84 16q47 0 100 -18q33 -4 37 -2q31 6 55 26q5 5 11 5q10 0 15 -9.5t3 -15.5l-116.5 -181t-112.5 -182q-86 -143 -134.5 -275t-66.5 -251q-2 -10 -2 -18v-21q0 -137 160 -137
q71 0 143 25q111 34 285 176q170 137 266 262q16 20 25 20q2 -4 2 -8q0 -8 -11 -22q-45 -70 -112.5 -140.5t-159.5 -148.5q-168 -137 -279 -180q-28 -11 -58 -16t-60 -5q-101 0 -166 53q-72 56 -68 160q4 86 34 189.5t87 226.5q35 76 68.5 139.5t68.5 116.5q13 22 -2 22
q-4 0 -8 -4q-49 -59 -117.5 -125.5t-158.5 -142.5q-89 -78 -166.5 -133t-143.5 -96zM109 117q-10 -25 -10 -47q0 -50 37 -50q14 0 30 11q115 73 243 194t272 295q6 6 6 17q0 22 -26 40.5t-69 18.5q-22 0 -47 -6q-96 -25 -243 -187q-136 -151 -193 -286zM894 886
q12 -10 3.5 -17t-16.5 -1l-70 46.5l-80 53.5l-78 52.5t-65 45.5q-12 9 -10 23t12.5 25.5t24.5 15.5t27 -6q22 -23 55 -53.5l67.5 -63.5l68.5 -64.5zM636 881q36 -41 95 -70t123.5 -2.5t114.5 67.5q15 12 15 0q0 -6 -1 -8.5t-6 -10.5q-79 -68 -129 -91.5t-76 -19t-61.5 27.5
t-90.5 93q-4 3 -5 6l-1 3q0 5 0.5 7t8.5 4q4 1 13 -6z" />
    <glyph glyph-name="a(sac" unicode="&#x1eaf;" horiz-adv-x="905" 
d="M74 -57q-20 -15 -47 -15q-51 0 -51 70q0 147 227 375q105 104 198 167.5t171 96.5q39 16 84 16q47 0 100 -18q33 -4 37 -2q31 6 55 26q5 5 11 5q10 0 15 -9.5t3 -15.5l-116.5 -181t-112.5 -182q-86 -143 -134.5 -275t-66.5 -251q-2 -10 -2 -18v-21q0 -137 160 -137
q71 0 143 25q111 34 285 176q170 137 266 262q16 20 25 20q2 -4 2 -8q0 -8 -11 -22q-45 -70 -112.5 -140.5t-159.5 -148.5q-168 -137 -279 -180q-28 -11 -58 -16t-60 -5q-101 0 -166 53q-72 56 -68 160q4 86 34 189.5t87 226.5q35 76 68.5 139.5t68.5 116.5q13 22 -2 22
q-4 0 -8 -4q-49 -59 -117.5 -125.5t-158.5 -142.5q-89 -78 -166.5 -133t-143.5 -96zM109 117q-10 -25 -10 -47q0 -50 37 -50q14 0 30 11q115 73 243 194t272 295q6 6 6 17q0 22 -26 40.5t-69 18.5q-22 0 -47 -6q-96 -25 -243 -187q-136 -151 -193 -286zM750 889
q-15 -6 -20 5t9 19l82 39.5l91.5 45l88.5 44l70 35.5q15 6 26 -3t16 -22.5t2 -27.5t-17 -18q-31 -11 -75 -25l-92 -29.5l-95 -32zM636 881q36 -41 95 -70t123.5 -2.5t114.5 67.5q15 12 15 0q0 -6 -1 -8.5t-6 -10.5q-79 -68 -129 -91.5t-76 -19t-61.5 27.5t-90.5 93
q-4 3 -5 6l-1 3q0 5 0.5 7t8.5 4q4 1 13 -6z" />
    </font>
</defs>
</svg>
